<svg xmlns="http://www.w3.org/2000/svg" width="20" height="20" viewBox="0 0 20 20">
    <circle data-name="타원 13" cx="10" cy="10" r="10" style="fill:#1d1d1d"/>
    <g data-name="그룹 3495">
        <path data-name="패스 4411" d="M5.62 47.24a13.127 13.127 0 0 1-5.345-1.123c-.229-.1-.309-.217-.261-.42A4.256 4.256 0 0 1 2.289 43a.564.564 0 0 1 .671.016 5.065 5.065 0 0 0 5.4.008.59.59 0 0 1 .7-.016 4.34 4.34 0 0 1 2.246 2.625c.064.235-.013.378-.3.5a13.24 13.24 0 0 1-5.391 1.1" transform="translate(4.333 -31.466)" style="fill:#fff"/>
        <path data-name="패스 4412" d="M23.376 3.006a3 3 0 0 1-6 .047 3 3 0 1 1 6-.047" transform="translate(-10.377 4.227)" style="fill:#fff"/>
    </g>
</svg>
