<svg xmlns="http://www.w3.org/2000/svg" width="190" height="64" viewBox="0 0 190 64">
    <defs>
        <style>
            .cls-2{fill:#004778}
        </style>
    </defs>
    <g id="logo_posco_190x64px" transform="translate(-1294 -4454)">
        <path id="사각형_1876" fill="none" d="M0 0H190V64H0z" transform="translate(1294 4454)"/>
        <g id="그룹_2173" transform="translate(1130.292 4178.467)">
            <g id="그룹_2171" transform="translate(272.343 290.533)">
                <path id="패스_2373" d="M309.834 306.409A11.642 11.642 0 0 1 298.5 314.4a11.935 11.935 0 1 1 11.532-15.368c.358 1.241-.1 1.38-.826 1.542a4.122 4.122 0 0 1-2.594-.5 8.655 8.655 0 0 1-1.844-2.042 7.408 7.408 0 0 0-6.268-3.382 7.812 7.812 0 0 0 0 15.622 7.652 7.652 0 0 0 6.6-3.86 4.218 4.218 0 0 1 2.591-1.833c1.8-.409 2.24.2 2.24.2s.439.199-.097 1.63z" class="cls-2" transform="translate(-286.52 -290.533)"/>
            </g>
            <path id="패스_2374" d="M238.779 294.65a7.813 7.813 0 1 1-7.641 7.814 7.735 7.735 0 0 1 7.641-7.814zm0-4.117a11.935 11.935 0 1 0 11.933 11.932 11.768 11.768 0 0 0-11.933-11.932z" class="cls-2" transform="translate(-4.861)"/>
            <path id="패스_2375" d="M329.285 294.65a7.813 7.813 0 1 1-7.638 7.814 7.737 7.737 0 0 1 7.638-7.814zm0-4.117a11.935 11.935 0 1 0 11.933 11.932 11.774 11.774 0 0 0-11.933-11.932z" class="cls-2" transform="translate(-18.989)"/>
            <g id="그룹_2172" transform="translate(247.772 290.546)">
                <path id="패스_2376" d="M274.072 304.636c1.37.061 1.726.728 1.243 1.935-.877 2.179-3.922 3.915-6.568 3.884a7.932 7.932 0 0 1-6.13-2.987 4.749 4.749 0 0 0-4.29-1.053c-.743.275-.4 1.406-.087 2.006a11.782 11.782 0 0 0 10.29 5.984 11.908 11.908 0 0 0 10.426-5.684c2.263-3.661 1.286-8.083-3.865-8.152l-11.661-.138c-1.7-.024-1.873-1.093-1.376-2.118a7.465 7.465 0 0 1 6.839-3.825 7.912 7.912 0 0 1 5.764 2.84 4.608 4.608 0 0 0 4.348.9c.5-.249.476-.94.017-1.817a11.659 11.659 0 0 0-10.317-5.856 11.926 11.926 0 0 0-10.16 5.446c-2.042 3.17-1.928 8.434 5.287 8.518z" class="cls-2" transform="translate(-257.403 -290.548)"/>
            </g>
            <path id="패스_2377" d="M207.654 290.533a11.76 11.76 0 0 0-11.928 11.932v15.806a6.116 6.116 0 0 0 .792 3.562 3.661 3.661 0 0 0 2.726 1.781c.755-.074.8-1.012.8-1.012v-10.851a12.054 12.054 0 0 0 7.613 2.651 11.935 11.935 0 1 0 0-23.869zm.005 19.7a7.794 7.794 0 1 1 7.663-7.794 7.727 7.727 0 0 1-7.663 7.792z" class="cls-2"/>
        </g>
    </g>
</svg>
