<svg xmlns="http://www.w3.org/2000/svg" width="190" height="64" viewBox="0 0 190 64">
    <defs>
        <style>
            .cls-2{fill:#121237}
        </style>
    </defs>
    <g id="logo_kbs_190x64px" transform="translate(-744 -4455)">
        <path id="사각형_1872" fill="none" d="M0 0H190V64H0z" transform="translate(744 4455)"/>
        <g id="그룹_2170" transform="translate(746.357 4353.89)">
            <path id="패스_2369" d="M57.618 151.273l-13.012-14.9 12.54-13.78h-8.834l-11.94 13.642v-13.643h-6.729v28.681h6.729v-14.747l11.7 14.747z" class="cls-2" transform="translate(0 -4.197)"/>
            <path id="패스_2370" d="M143 133.811c1.776 0 9.335 1.141 9.335 8.654 0 7.95-7.626 8.808-7.626 8.808h-17.831v-4.649l14.347.011a3.9 3.9 0 0 0 4.119-3.969c0-4.353-4.915-4.176-4.915-4.176h-5.494c-2.523 0-9.022-.911-9.022-7.628 0-8.072 8.056-8.269 8.056-8.269H150.3v4.584l-13.4.013c-4.328 0-4.259 3.361-4.259 3.361a3.424 3.424 0 0 0 3.79 3.278z" class="cls-2" transform="translate(-42.607 -4.197)"/>
            <path id="패스_2371" d="M96.924 151.273a8 8 0 0 0 8.232-8.013c0-5.54-4.094-7.263-4.094-7.263s3.252-1.118 2.944-6.09c-.44-7.2-8.572-7.316-8.572-7.316H79.663v28.669s13.628.013 17.261.013m-11.468-24.028h7.9s4.293-.191 4.293 3.374c0 3.067-2.7 3.268-3.573 3.327h-8.62zM92.65 146.6h-7.194v-8.065h8.877s4.485.164 4.485 3.982-3.362 4.08-6.168 4.08" class="cls-2" transform="translate(-22.138 -4.197)"/>
            <path id="패스_2372" fill="#008ad8" d="M225.844 132.139a18.623 18.623 0 0 0-.215-2.285c0-.006 0-.016-.007-.026a19.312 19.312 0 0 0-.562-2.476 20.88 20.88 0 0 0-2.085-4.745 18.96 18.96 0 0 0-10.454-8.581s-9.152-3.048-14.092 1.976c-.092.1-.178.191-.263.293a17.911 17.911 0 0 0-7.909 5.458 14.758 14.758 0 0 0-3.084 6.393c-.042.2-.151.782-.157.838a21.179 21.179 0 0 0-.282 4.064v.2a18.888 18.888 0 0 0 .788 4.87 21.048 21.048 0 0 0 2.084 4.741 18.984 18.984 0 0 0 10.452 8.585s9.151 3.048 14.093-1.973c.09-.1.176-.194.263-.293a17.9 17.9 0 0 0 7.908-5.459 15.147 15.147 0 0 0 2.227-3.653 18.136 18.136 0 0 0 1.292-7.927M197 118.054a22.958 22.958 0 0 1 5.335-1.7 26.183 26.183 0 0 1 8.5-.339c5.844.773 10.6 3.706 12.845 8.175l.056.111a.092.092 0 0 1-.025.115.12.12 0 0 1-.145-.05c-.023-.036-.044-.076-.069-.108a16.035 16.035 0 0 0-8.368-6.34 24.4 24.4 0 0 0-12.461-.8 22.344 22.344 0 0 0-6.085 1.943 8 8 0 0 1 .416-1m-.833 3.337a33.011 33.011 0 0 1 5.846-2.025c6.649-1.654 12.62-.839 16.917 1.62a13.385 13.385 0 0 1 6.193 7.23c.015.043.03.083.043.125a.07.07 0 0 0 0 .013c.047.148-.008.2-.064.213a.1.1 0 0 1-.087-.05l-.04-.1a13.129 13.129 0 0 0-4.638-5.682c-4.381-3.1-10.958-4.241-18.344-2.315a35.239 35.239 0 0 0-5.764 2.124c-.007-.076-.023-.152-.029-.227a8.371 8.371 0 0 1-.035-.927m19.42 26.024a22.69 22.69 0 0 1-5.334 1.7 26.083 26.083 0 0 1-8.5.342c-5.847-.775-10.6-3.705-12.845-8.177-.02-.036-.04-.072-.057-.108a.091.091 0 0 1 .025-.115.111.111 0 0 1 .145.049c.025.036.048.076.069.109a16.079 16.079 0 0 0 8.369 6.339 24.48 24.48 0 0 0 12.461.8 22.474 22.474 0 0 0 6.083-1.944 7.45 7.45 0 0 1-.416 1m.834-3.333a33.313 33.313 0 0 1-5.844 2.026c-6.65 1.651-12.618.838-16.915-1.622a13.364 13.364 0 0 1-6.194-7.233c-.014-.043-.03-.083-.042-.122v-.016c-.046-.145.008-.2.064-.211a.1.1 0 0 1 .085.046c.015.036.028.072.041.1a13.166 13.166 0 0 0 4.638 5.685c4.381 3.1 10.956 4.238 18.342 2.312a35.373 35.373 0 0 0 5.765-2.124c.01.075.021.148.028.227a7.394 7.394 0 0 1 .034.928m9.15-11.548c-.027 0-.059-.02-.077-.059s-.016-.063-.025-.089a11.223 11.223 0 0 0-3.035-5.254c-4.215-4.185-11.85-5.862-19.9-3.909-.611.152-1.21.326-1.8.513a28.2 28.2 0 0 0-3.643 1.45 7.586 7.586 0 0 0 .87 1.279 26.83 26.83 0 0 1 7.918-2.324 24.454 24.454 0 0 1 5.507-.119c4.777.441 8.93 2.308 11.463 5.127a9.743 9.743 0 0 1 2.618 6.477v.385a.1.1 0 0 1-.123.1.093.093 0 0 1-.084-.056c-.008-.062-.016-.121-.022-.181a10.481 10.481 0 0 0-2.27-5.214 14.225 14.225 0 0 0-6.727-4.409 23.485 23.485 0 0 0-11.687-.507 28.276 28.276 0 0 0-5.641 1.677 8.341 8.341 0 0 0 1.528 1.042 21.929 21.929 0 0 1 6.682-1.739 20.351 20.351 0 0 1 12.665 2.561 11.833 11.833 0 0 1 3.137 2.785 8.3 8.3 0 0 1 1.794 4.978 8.582 8.582 0 0 1-.5 2.995c-.014.036-.028.07-.038.1-.028.04-.061.066-.089.056s-.051-.053-.051-.108l.025-.1a7.935 7.935 0 0 0 .159-2.371 8.254 8.254 0 0 0-1.5-4.08c-.181-.256-.378-.51-.587-.753-3.133-3.647-9.346-5.557-15.878-4.337a23.489 23.489 0 0 0-3.535.848 9.256 9.256 0 0 0 3.2.132s1.781-.233 2.516-.391c.148-.022.375-.056.478-.059l.052-.007a18.548 18.548 0 0 1 7.7.944s3.811 1.289 5.478 4.182a1.1 1.1 0 0 1-.173 1.279 15.985 15.985 0 0 1-1.665 1.834c-.589.539-1.608 1.259-1.608 1.259a25.446 25.446 0 0 1-2.958 1.717v-.014l-.234.108c0 .007.006.01.008.017.04.072.077.144.115.217a8.306 8.306 0 0 1 .332.779 29.321 29.321 0 0 1-5.657 2.015c-7.809 1.95-15.2.589-19.525-3.225a11.232 11.232 0 0 1-3.8-6.925l-.02-.138c0-.069.028-.085.062-.089s.056.023.076.059.018.063.025.092a11.222 11.222 0 0 0 3.038 5.255c4.213 4.185 11.847 5.859 19.9 3.906.614-.152 1.212-.322 1.8-.51a27.6 27.6 0 0 0 3.644-1.454 7.767 7.767 0 0 0-.871-1.279 26.9 26.9 0 0 1-7.917 2.328 24.824 24.824 0 0 1-5.508.119c-4.775-.444-8.927-2.309-11.462-5.126a9.748 9.748 0 0 1-2.618-6.477v-.2-.184a.1.1 0 0 1 .124-.1.088.088 0 0 1 .084.056l.025.181a10.483 10.483 0 0 0 2.269 5.218 14.21 14.21 0 0 0 6.727 4.4 23.452 23.452 0 0 0 11.689.507 28.09 28.09 0 0 0 5.639-1.68 8.567 8.567 0 0 0-1.531-1.036 22.076 22.076 0 0 1-6.68 1.74 20.346 20.346 0 0 1-12.666-2.565 11.845 11.845 0 0 1-3.138-2.781 8.317 8.317 0 0 1-1.792-4.982 8.558 8.558 0 0 1 .5-3l.038-.1c.025-.036.056-.059.087-.052s.051.052.05.109c-.007.032-.014.065-.025.1a8.1 8.1 0 0 0-.159 2.37 8.25 8.25 0 0 0 1.5 4.08c.181.26.379.51.587.757 3.135 3.643 9.347 5.553 15.879 4.337a23.543 23.543 0 0 0 3.536-.849 9.291 9.291 0 0 0-3.206-.134s-1.779.236-2.512.391c-.151.023-.379.06-.481.063l-.053.006a18.584 18.584 0 0 1-7.694-.94s-3.812-1.3-5.481-4.19a1.1 1.1 0 0 1 .171-1.272 16.606 16.606 0 0 1 1.667-1.842c.588-.536 1.608-1.259 1.608-1.259a26.12 26.12 0 0 1 2.958-1.713l.006.013c.079-.04.157-.072.234-.111a.052.052 0 0 1-.008-.017c-.04-.072-.079-.145-.115-.217a7.39 7.39 0 0 1-.332-.773 29.117 29.117 0 0 1 5.657-2.019c7.807-1.953 15.2-.589 19.524 3.225a11.253 11.253 0 0 1 3.8 6.925c0 .046.013.092.018.135 0 .072-.028.089-.061.089" transform="translate(-69.523)"/>
        </g>
    </g>
</svg>
