<svg xmlns="http://www.w3.org/2000/svg" width="120" height="120" viewBox="0 0 120 120">
    <defs>
        <style>
            .cls-3{fill:#0076c1}.cls-5{fill:#1a1818}
        </style>
    </defs>
    <g id="logo_seoulcity_120x120px" transform="translate(-430 -573)">
        <path id="사각형_2477" fill="none" d="M0 0H120V120H0z" transform="translate(430 573)"/>
        <g id="그룹_2233" transform="translate(237.874 538.136)">
            <g id="그룹_2231" transform="translate(220.225 47.864)">
                <path id="패스_2490" fill="#ac002a" d="M282.564 61.963a1.551 1.551 0 0 1 .322.595c.2.6.755.962.822 1.578.024.2.289.284.427.375.149.191.046.409.335.692.138.09.033.307.057.513.135.089.279.18.415.269a5.446 5.446 0 0 1-.078 6.32 2.222 2.222 0 0 0-.547.877c-.117.117-.361.242-.478.357.023.206.16.3.31.488-.625.162-.7.685-1.172 1.043-.125.009-.382.036-.51.047a6.268 6.268 0 0 1-1.082.721c-.114.115-.084.423-.071.525a3.777 3.777 0 0 1-2.368.74c-.127.014-.221.33-.349.343-.639.058-1.415.029-2.053.089-.265-.078-.415-.271-.685-.352a1.979 1.979 0 0 1-.776-.027 7.15 7.15 0 0 0-1.345-.5c-.264-.082-.754.171-1.032-.007a11.075 11.075 0 0 1-2.184-2.281c-.312-.487-.845-.643-1.031-1.143-.021-.206.076-.523-.194-.6-.533-.158-.311-.489-.344-.8a2.519 2.519 0 0 0-.474-.784c-.163-.295.047-.73-.125-1.125-.011-.1.107-.219.1-.322-.2-.6.121-1.25.062-1.764a2.952 2.952 0 0 1 .142-1.047 8.97 8.97 0 0 1 1.19-2.079c-.013-.1-.035-.3-.045-.41.116-.115.243-.124.358-.242a5.284 5.284 0 0 1 .747-1.413c.453-.559 1.176-1.042 1.757-1.614a5.372 5.372 0 0 0 1.162-1.144c.117-.113.525.056.642-.058.346-.344.871-.288 1.231-.53s.286.282.658.145a1.523 1.523 0 0 0 .616-.265c.37-.136.788.132 1.184.2a1.788 1.788 0 0 1 1.193.3c.554.362 1.834.242 2.039.949.31.494.861.857 1.174 1.341z" transform="translate(-244.133 -52.746)"/>
                <path id="패스_2491" d="M304.9 65.181a2.281 2.281 0 0 0-.128-.85c-.035-.32.217-.677.108-1.113-.074-.117-.235-.256-.215-.354a5.057 5.057 0 0 0 .178-2.021 1.492 1.492 0 0 0-.2-.458c.016-.1.054-.3.09-.495a4.583 4.583 0 0 0-.362-1.626c-.055-.214-.218-.354-.252-.671-.073-.117-.235-.26-.22-.357a7.087 7.087 0 0 0-.4-2.458c-.2-.97-1.118-1.583-1.409-2.574.015-.1.318-.058.407-.039a5.028 5.028 0 0 1 1.723 2.435c.128.339.074.635.221.875a4.884 4.884 0 0 1 .831 2.651c-.017.1.179.04.251.163a.66.66 0 0 0 .019.415c.469.513.181 1.067.273 1.6a1.474 1.474 0 0 0 .2.453c-.016.1-.251.361-.269.459a2.266 2.266 0 0 1 .436 1.743c.434.2.234.772.343 1.209a.328.328 0 0 0 .255.159 1.5 1.5 0 0 0 .287-.556 8.541 8.541 0 0 0-.056-2.277.831.831 0 0 1 .071-.912c-.18-.039-.236-.26-.306-.377-.326-1.309-.462-2.774-.85-4.111a.382.382 0 0 0 .131-.178c-.138-1.169-1.031-2.272-1.453-3.453-.068-.211-.411-.463-.572-.69l.024-.2a1.779 1.779 0 0 1 1.045.845 6.287 6.287 0 0 1 1.171 2.18 17.59 17.59 0 0 1 .777 2.041 4 4 0 0 0 .628 1.085 3.587 3.587 0 0 1 .089.953c.128.756.361 1.488.5 2.245a2.616 2.616 0 0 1 .074 1.663c-.249.871.328 1.823.563 2.6a1.284 1.284 0 0 1-.177.992c-.019.1.142.238.123.335-.163.377-.035.715-.109 1.113-.105.077.128.333 0 .51-.108.082-.2.062-.308.143-.144.275-.017.614-.072.91-.289.553-.143 1.307-.686 1.7-.2.058-.218.158-.326.239.09.018.164.138.235.257-.108.077-.2.058-.307.138-.035.2.349.441.422.558-.147.794-.74 1.487-.722 2.418-.037.2-.091.5-.124.694-.183.476-.526.814-.707 1.289-.034.2-.413.219-.45.416-.236.256-.213.672-.379 1.05-.125.178-.4.122-.612.277a4.49 4.49 0 0 0-.379 1.051c-.272.456-.6.945-.871 1.4a5.781 5.781 0 0 1-1.383 1.781.643.643 0 0 0-.4.121 2.485 2.485 0 0 1-1.231 1.248c-.094-.018-.227.413-.335.493a11.438 11.438 0 0 1-1.18.971c-.193.059-.3.138-.514-.22a10.561 10.561 0 0 1-2.54 2.936c-.509.3-1.025.264-1.364.6a27.4 27.4 0 0 1-3.07 2.411c-.086-.023-.422.485-.422.485-.36.031-.154.064-.485-.012 0 0-.015.558-.465.649-.953.189-1.2 1.3-1.279 1.755-.039.227-.194.071-.3.166s-.037.224-.146.32a6 6 0 0 0-1.117 1.156c-.107.091-.178-.046-.287.048a3.988 3.988 0 0 0-.8 1.272 10.078 10.078 0 0 1-1.507 2.511c-.146.167.337.812.3 1.029-.138.307-.412.357-.548.661-.125.759-.16 1.6-.289 2.4a4.3 4.3 0 0 0 .157 2.036 13.769 13.769 0 0 1 0 1.917c.041.46.354.964.306 1.411.016.685-.142.593.006 1.169a3.066 3.066 0 0 0-.053.9c-.026.454-.1.732-.123 1.184-.1.107-.293.321-.3.432a4.57 4.57 0 0 1-1.578 2.859c-.479.308-.895.776-1.441.738a12.726 12.726 0 0 0-1.494.634 5.052 5.052 0 0 1-2.233.128 3.182 3.182 0 0 1-2.127-1.324c-.348-.393-.953-.246-1.18-.847-.068-.236-.562-.36-.646-.485a6.714 6.714 0 0 1-1.02-1.394c-.229-.6-.064-1.007-.333-1.587-.283-.357-.4-.608-.686-.966-.372-.472.088-1.152-.187-1.62a1.308 1.308 0 0 1-.468-.594 10.432 10.432 0 0 0-.414-1.623 13.723 13.723 0 0 1 .059-3.283c.023-.115-.308-.277-.289-.394a18.235 18.235 0 0 0 .265-2.473c.089-.458.046-.823.459-1.214 0 0-.2-.159-.176-.273a10.841 10.841 0 0 0 .37-1.865c.022-.115.263-.186.286-.3a6.013 6.013 0 0 1-.053-1.987c.043-.231.636-.572.772-.779a1.379 1.379 0 0 1 .138-.8c.057-.1.213-.067.327-.159.017-.116-.058-.252-.039-.367.057-.342.639-.591.677-.819a6.03 6.03 0 0 1 1.03-1.738 3.353 3.353 0 0 1 .446-.833c.111-.077.164 0 .181-.1s-.034-.319-.017-.416c.229-.258.546-.5.6-.793a3.05 3.05 0 0 1 .531-.914 3.851 3.851 0 0 0 1.107-1.089c.231-.26.495-.2.726-.455a7.532 7.532 0 0 0 .67-1.188 10.08 10.08 0 0 1 1.853-1.648 14.657 14.657 0 0 1 1.711-.854c.527-.4.848-1.148 1.357-1.447.316-.238.69-.258 1.005-.5s.583-.693 1.059-.793a4.58 4.58 0 0 0 1.287-.375c.617-.378.362-.481.976-.86a17.016 17.016 0 0 1 1.643-.956.515.515 0 0 0 .25-.353 7.826 7.826 0 0 1 1.751-1.338c.194-.06.422.2.65-.06.126-.178-.125-.336 0-.514a10.677 10.677 0 0 1 .983-1.029c.109-.079.361.078.559.018.107-.077.143-.277.253-.354.125-.179-.11-.436.016-.616.144-.276.287-.553.489-.612.307-.141.719-.357.666-.573a1.289 1.289 0 0 1 .65-.992c.017-.1.039-.2.054-.3.233-.26.45-.416.685-.674.254-.358.144-.794.29-1.07a3.316 3.316 0 0 0 1.046-1.625c-.037-.318-.235-.774-.091-1.053.124-.175.522-.295.56-.494a6.4 6.4 0 0 0-.144-1.268c.05-.3.378-.533.34-.853a23.047 23.047 0 0 0-.107-2.5c.286-.038.322-.238.36-.434a16.42 16.42 0 0 0-.6-1.883c-.018-.417.32-.755.3-1.171a1.8 1.8 0 0 0-.669-.971c-.306-.378-.105-.95-.214-1.385-.091-.534-.489-.933-.562-1.567-.036-.316-.415-.3-.542-.634a5.479 5.479 0 0 1-.217-1.388c-.054-.218-.343-.178-.506-.318-.363-.594-.235-1.8-1.03-2.078.071-.395-.29-.476-.418-.812a1.225 1.225 0 0 1 1.177.774c.072.117.344.178.433.2.237.257.219.872.471 1.033.323.276.814.178.938.516.182.55.6.85.8 1.3a.856.856 0 0 0 .107.437c.327.277.364.593.6.851.542.635 1.087 1.271.832 2.141-.159.376.324.277.472.512.362.6.214 1.389.686 1.9a6.949 6.949 0 0 0 .708 2.834 3.491 3.491 0 0 0 .184 3.049s.288-.037.31-.138c.087-.5.99-.66.843-.9a10.271 10.271 0 0 1-.454-2.23 10.525 10.525 0 0 0-.037-2.378c-.072-.121-.146-.239-.217-.358a3.14 3.14 0 0 1-.128-1.367c-.054-.218-.217-.354-.269-.572l.072-.4c.2-.061.452.1.633.139.163.137.015.412.088.533.289.478.725.675.813 1.211-.015.1-.054.294-.068.4.072.632.451 1.127.542 1.663.036.316-.235.771-.107 1.111a4.951 4.951 0 0 1 .364 2.653c-.076.4.429.714.285.991s.039.315-.109.6c-.016.1-.213.154-.231.257.27.575-.14 1.447-.229 1.941-.018.1.307.2.376-.159.038-.221.413-.217.611-.276a1.155 1.155 0 0 0 .363-.938zm1.945 1.98a5.909 5.909 0 0 0 .164-1.406c-.179-.554-.589 0-.879.038a2.676 2.676 0 0 1-.307 1.68c-.124.18-.217.677.073.636a.881.881 0 0 0 .951-.948zm-.772 2.713a.528.528 0 0 0-.1-.615c-.252-.158-.578.079-.724.358s-.036.712.348.69c.089.023.35-.251.478-.433z" class="cls-3" transform="translate(-244.867 -47.864)"/>
                <path id="패스_2492" d="M322.865 55.378c.48.365.669.974 1.05 1.469l-.04.2c-.665.573-1.245-.379-1.425-.932a4.387 4.387 0 0 0-1.035-1.566c.02-.1.042-.2.06-.3-.237-.259-.544-.634-.237-.774.124-.178.343.181.594.337.381.497.453 1.13 1.033 1.566z" class="cls-3" transform="translate(-266.971 -50.273)"/>
                <path id="패스_2493" d="M327.894 51.532c.009.1-.153.271-.176.369a4.132 4.132 0 0 1-.9-1.067.572.572 0 0 1-.337-.2c-.087-.024-.068-.123-.048-.219.292-.028.518.239.767.409.087.022.2-.051.288-.029a.931.931 0 0 1 .406.737z" class="cls-3" transform="translate(-269.267 -48.969)"/>
                <path id="패스_2494" fill="#368634" d="M243.5 84.079a2.316 2.316 0 0 1 .285.272.448.448 0 0 0 .454.039c.147.011.281.4.434.409.218.1.354.488.568.673.144.095.3.233.441.329a4.734 4.734 0 0 0 .554.71c.139.178.367.115.521.125.295.107.412.532.622.8.076.006.208.268.2.349a3.328 3.328 0 0 0 .5.373c.065.09.058.255.121.345a25.555 25.555 0 0 1 1.723 2.384.993.993 0 0 1 .057.257 16.664 16.664 0 0 1 1.3 1.934 10.362 10.362 0 0 1 .377 1.027c.141.179.285.273.422.45a3.238 3.238 0 0 1 .442 1.2c-.011.167-.122.656-.407.383-.352-.361-.315-.855-.672-1.136a.817.817 0 0 0-.161-.384c-.143-.173-.4-.163-.463-.413.018-.249-.259-.451-.4-.626-.357-.513-.876-.7-1.308-1.222a.26.26 0 0 0-.232.072c-.081.16-.318.4-.1.658.294.18.433.519.8.7.222.176.277.677.412 1.1a1.4 1.4 0 0 0 .513.44c.219.175.132.441.338.707-.006.084-.086.158-.1.24.137.261.442.2.65.47.162-.153.384-.032.518.208-.248.233-.183.4-.277.648-.256.391.322.771.684.966.23.02.2.433.41.615.134.262.508.291.711.642.066.172-.092.242-.179.4-.021.252.274.356.419.45a.847.847 0 0 1 .271.441c-.233.062-.679-.245-.9-.267-.145-.062-.415-.39-.706-.453-.1-.022-.167.217-.275.195-.136-.023-.285-.052-.433-.082s-.54-.448-.708-.475c-.189-.033-.417.314-.6.284a2.832 2.832 0 0 1-.921-.253 5.924 5.924 0 0 1-.716-.345c-.149-.081-.108-.278-.244-.364s-.436-.09-.573-.176c-.545-.332-1.059-1.087-1.522-1.328-.31-.159-.568-.315-.906-.481-.168-.105-.286-.334-.5-.4-.639-.214-1.152-.619-1.881-.826-1.381-.391-2.526.4-3.65.98a.458.458 0 0 0-.239.031 8.218 8.218 0 0 1-.818.511 9.531 9.531 0 0 1-1.22.574c-.122.071-.133.295-.254.367-.184.107-.508.129-.687.242s-.185.3-.347.416a4.95 4.95 0 0 1-1.072.678 17.879 17.879 0 0 1-2.663.484c-.534.009-.9.452-1.7.449a5.509 5.509 0 0 1-3.425-.779c-.213-.186-.254-.687-.4-.781-.431-.284-.392-.862-.514-1.291-.139-.092-.443-.117-.425-.366a6.247 6.247 0 0 1 1.524-3.2c.176-.32.564-.455.593-.868a12.211 12.211 0 0 1 1.081-1.324c.088-.16-.044-.423.042-.581a19.061 19.061 0 0 1 2.652-3.111c.244-.229.419-.55.8-.6.154.011.3.023.39-.135a1.754 1.754 0 0 1 .742-.772c.872-.6 1.608-1.494 2.606-1.661.155-.073.244-.23.4-.3.163-.152.451.036.608-.033.742-.335 1.419-1.054 2.185-1.159.155-.069.244-.229.32-.225.677.057 1.477-.541 2.114.091a2.5 2.5 0 0 1 1.794.299zm5.189 7.262c.007-.083.009-.165.009-.247-.294-.181-.426-.687-.8-.787-.074 0-.228.074-.231.155a2.477 2.477 0 0 0 .4 1.262c.089-.326.316-.315.458-.06a.654.654 0 0 0 .16-.322z" transform="translate(-225.645 -63.28)"/>
            </g>
            <g id="그룹_2232" transform="translate(213.126 125.109)">
                <path id="패스_2495" d="M223.224 194.632l-1.334 1.388-3.707-3.617a8.488 8.488 0 0 1-1.744 2.2 11.706 11.706 0 0 1-2.017 1.469l-1.3-1.477a7.745 7.745 0 0 0 1.878-1.28 7.42 7.42 0 0 0 1.27-1.532 6.3 6.3 0 0 0 .949-3.287v-2.558h2.046v2.191a8.488 8.488 0 0 1-.083 1.224q-.082.586-.209 1.133zm4.235 6.28h-1.934v-9.786h-4.036v-1.862h4.036v-4.968h1.934z" class="cls-5" transform="translate(-213.126 -184.169)"/>
                <path id="패스_2496" d="M257.352 193.551h-6.92v.913h3.432v4.29h-6.628v.822h7.064v1.862h-9.074v-4.456h6.609v-.731h-6.7v-1.788h3.341v-.913H241.7v-1.828h15.648zm-3.654-5.88a3.05 3.05 0 0 1-.337 1.433 3.6 3.6 0 0 1-.9 1.121 4.334 4.334 0 0 1-1.377.713 5.584 5.584 0 0 1-1.727.255 5.65 5.65 0 0 1-1.653-.236 4.367 4.367 0 0 1-1.378-.694 3.352 3.352 0 0 1-.923-1.106 3.137 3.137 0 0 1-.337-1.47 3.293 3.293 0 0 1 .328-1.487 3.356 3.356 0 0 1 .914-1.142 3.967 3.967 0 0 1 1.351-.73 5.744 5.744 0 0 1 3.386 0 4.192 4.192 0 0 1 1.379.73 3.43 3.43 0 0 1 .932 1.123 3.193 3.193 0 0 1 .344 1.49zm-2.007-.02A1.57 1.57 0 0 0 251 186.3a2.764 2.764 0 0 0-1.643-.493 2.731 2.731 0 0 0-1.653.484 1.582 1.582 0 0 0-.666 1.359 1.531 1.531 0 0 0 .666 1.317 2.793 2.793 0 0 0 1.653.473A3.007 3.007 0 0 0 251 189a1.489 1.489 0 0 0 .691-1.349z" class="cls-5" transform="translate(-225.497 -184.073)"/>
                <path id="패스_2497" d="M286.359 195.267h-15.632v-1.844h15.632zm-3.4 6.693h-1.954v-3.809h-6.995v-1.863h8.949zm-.035-9.488h-8.84v-7.2h8.731v1.845h-6.794v.785h6.579v1.862h-6.575v.858h6.9z" class="cls-5" transform="translate(-238.061 -184.594)"/>
                <path id="패스_2498" d="M308.075 192.787h-7.432v-7.6h1.937v2.19h3.542v-2.19h1.954zm-1.954-1.844v-1.718h-3.541v1.718zm7.45 10.59h-8.964v-4.582h6.519V196h-6.611v-1.845h8.619v4.584h-6.483v.948h6.919zm.148-7.907H311.8v-1.77h-3.14v-1.827h3.14v-1.314h-3.14v-1.845h3.14v-2.575h1.919z" class="cls-5" transform="translate(-251.011 -184.169)"/>
                <path id="패스_2499" d="M336.995 194.686l-1.334 1.387-3.688-3.633a8.136 8.136 0 0 1-1.724 2.219 11.035 11.035 0 0 1-2.055 1.471l-1.3-1.482a8.768 8.768 0 0 0 1.891-1.333 7.675 7.675 0 0 0 1.27-1.515 6.683 6.683 0 0 0 .7-1.623 6.1 6.1 0 0 0 .229-1.626v-2.612h2.047v2.247a8.494 8.494 0 0 1-.086 1.214 10.547 10.547 0 0 1-.21 1.1zm4 6.226h-1.955v-16.617h1.954z" class="cls-5" transform="translate(-262.376 -184.169)"/>
            </g>
        </g>
    </g>
</svg>
