<svg xmlns="http://www.w3.org/2000/svg" width="180" height="64" viewBox="0 0 180 64">
    <defs>
        <style>
            .cls-2{fill:#052d65}.cls-3{fill:#005295}
        </style>
    </defs>
    <g id="logo_NIA_180x64px" transform="translate(-403 -802)">
        <path id="사각형_2475" fill="none" d="M0 0H180V64H0z" transform="translate(403 802)"/>
        <g id="그룹_2243" transform="translate(352.657 146.709)">
            <path id="패스_2520" d="M94.669 662.291L87.1 681.919h4.443l1.133-3.151h8.285l1.1 3.151h4.566l-7.469-19.628zm-.841 13.277l3.051-8.488 2.965 8.488z" class="cls-2" transform="translate(10.333)"/>
            <path id="사각형_1927" d="M0 0H4.367V19.628H0z" class="cls-2" transform="translate(91.306 662.291)"/>
            <path id="패스_2521" d="M82.227 675.568l-8.386-13.277h-4.368v19.628h4.12v-13.225l8.336 13.225h4.392v-19.628h-4.094z" class="cls-2" transform="translate(1.114)"/>
            <g id="그룹_2242" transform="translate(67.343 690.413)">
                <path id="패스_2522" d="M77.963 688.364a4.547 4.547 0 0 0-.894-2.779h1.885v-1.962h-4.241v-2.7h-3.129v2.7h-4.241v1.962h1.879a4.761 4.761 0 1 0 8.74 2.779m-6.649 0c0-1.639.818-2.68 1.835-2.68.994 0 1.812 1.042 1.812 2.68 0 1.611-.818 2.653-1.812 2.653-1.017 0-1.835-1.042-1.835-2.653" class="cls-3" transform="translate(-67.343 -680.671)"/>
                <path id="패스_2523" d="M157.886 689c2.557 0 4.641-1.588 4.641-4.045s-2.083-4.071-4.641-4.071-4.615 1.614-4.615 4.071S155.33 689 157.886 689m0-6.18c.918 0 1.639.819 1.639 2.135 0 1.29-.72 2.108-1.639 2.108s-1.636-.818-1.636-2.108c0-1.316.717-2.135 1.636-2.135" class="cls-3" transform="translate(-22.405 -680.689)"/>
                <path id="패스_2524" d="M105.8 691.974h11.986c.372 0 .5-.149.5-.5V681.6H115.3v3.274h-7.021V681.6H105.3v9.875c0 .347.125.5.5.5m9.5-5.111v2.9a.235.235 0 0 1-.248.248h-6.524a.235.235 0 0 1-.248-.248v-2.9z" class="cls-3" transform="translate(-47.491 -680.313)"/>
                <path id="패스_2525" d="M158.745 692.756v1.935h3.549v1.489h2.978v-14.886h-2.978v11.462z" class="cls-3" transform="translate(-19.543 -680.475)"/>
                <path id="사각형_1928" d="M0 0H2.978V14.07H0z" class="cls-3" transform="translate(106.599 .818)"/>
                <path id="패스_2526" d="M143.431 686.437c0 2.184 2.16 3.6 4.939 3.6 2.7 0 4.937-1.415 4.937-3.6a2.96 2.96 0 0 0-.571-1.761h2.307l.026-1.837h-5.137v-2.083h-3.125v2.083h-5.088v1.837h2.269a3 3 0 0 0-.557 1.761m4.939 1.687a1.706 1.706 0 1 1 1.96-1.687 1.785 1.785 0 0 1-1.96 1.687" class="cls-3" transform="translate(-28.447 -680.756)"/>
                <path id="패스_2527" d="M147.978 689.228c-3.076 0-5.509 1.611-5.509 4.094 0 2.455 2.432 4.069 5.509 4.069 3.052 0 5.509-1.614 5.509-4.069 0-2.482-2.457-4.094-5.509-4.094m0 6.227a2.179 2.179 0 1 1 2.556-2.134 2.322 2.322 0 0 1-2.556 2.134" class="cls-3" transform="translate(-28.054 -676.325)"/>
                <path id="사각형_1929" d="M0 0H17.046V2.008H0z" class="cls-3" transform="translate(111.461 10.149)"/>
                <path id="패스_2528" d="M134.3 694.282v-4.615h-3v6.328a.436.436 0 0 0 .5.5h12.1v-1.96h-9.354a.235.235 0 0 1-.248-.25" class="cls-3" transform="translate(-33.9 -676.096)"/>
                <path id="패스_2529" d="M73.162 694.2v-4.365h-3v6.078a.435.435 0 0 0 .495.5h12.111v-1.96h-9.356a.237.237 0 0 1-.25-.25" class="cls-3" transform="translate(-65.869 -676.01)"/>
                <path id="패스_2530" d="M156.668 691.606h2.977v-2.829h4.815v-2.009h-12.134v2.009h4.343z" class="cls-3" transform="translate(-22.9 -677.612)"/>
                <path id="패스_2531" d="M131.772 681.491h-2.977v13.845h-5.435V692.5a4.307 4.307 0 0 0 3.226-4.261 4.409 4.409 0 0 0-.838-2.654h1.681v-1.962h-3.995v-2.7h-3.127v2.7h-3.995v1.962h1.675a4.426 4.426 0 0 0-.832 2.654 4.291 4.291 0 0 0 3.227 4.263v2.834h-4.242v2.009h12.654v3.969h2.977v-12.108h2.507V687.2h-2.507zm-9.9 4.193c.943 0 1.71.969 1.71 2.556 0 1.563-.768 2.531-1.71 2.531-.969 0-1.736-.969-1.736-2.531 0-1.587.768-2.556 1.736-2.556" class="cls-3" transform="translate(-41.824 -680.671)"/>
                <path id="패스_2532" d="M158.118 694.062a.235.235 0 0 1-.248-.25v-3.248h-3v4.962a.435.435 0 0 0 .495.5h12.355v-1.96z" class="cls-3" transform="translate(-21.57 -675.627)"/>
                <path id="패스_2533" d="M134.562 689.714a10.041 10.041 0 0 0 5.052 3.2l.969-1.788c-2.83-.941-4.666-2.729-4.666-5.406v-2.161h3.574V681.6h-10.025v1.958h3.474v2.409c0 2.679-1.588 4.389-4.418 5.333l.969 1.788a9.282 9.282 0 0 0 5.071-3.378" class="cls-3" transform="translate(-35.348 -680.313)"/>
                <path id="패스_2534" d="M95.539 681.986c0-.349-.125-.5-.5-.5H82.166v1.96h10.123a.235.235 0 0 1 .248.25v4.913H80.279v2.009h7.047v3.25h-4.988v1.962h9.876a.234.234 0 0 1 .248.247v4.937h3v-6.649a.437.437 0 0 0-.5-.5h-4.683v-3.25h7.047v-2.009h-1.787z" class="cls-3" transform="translate(-60.578 -680.373)"/>
                <path id="패스_2535" d="M79.136 681.294h-2.979v14.07h2.978v-6.849h2.505V686.5h-2.504z" class="cls-3" transform="translate(-62.733 -680.475)"/>
                <path id="패스_2536" d="M102.984 691.353l.967-1.787c-2.828-.941-4.415-2.654-4.415-5.333v-.672h3.448V681.6h-9.776v1.958h3.349v.918c0 2.681-1.587 4.394-4.417 5.335l.969 1.788a9.314 9.314 0 0 0 5.029-3.32 9.5 9.5 0 0 0 4.846 3.07" class="cls-3" transform="translate(-54.375 -680.313)"/>
                <path id="패스_2537" d="M100.679 688.543c-2.778 0-5.036 1.837-5.036 4.616s2.259 4.59 5.036 4.59 5.062-1.812 5.062-4.59-2.283-4.616-5.062-4.616m0 7.271c-1.141 0-2.059-1.042-2.059-2.655 0-1.639.918-2.679 2.059-2.679s2.059 1.04 2.059 2.679c0 1.613-.917 2.655-2.059 2.655" class="cls-3" transform="translate(-52.543 -676.684)"/>
                <path id="패스_2538" d="M102.13 685.537h-3.424v1.933h3.424v4.864h2.978v-11.04h-2.978z" class="cls-3" transform="translate(-50.941 -680.475)"/>
                <path id="패스_2539" d="M113.993 688.9h-3v3.772h-7.022v2.009h17.048v-2.009h-7.024z" class="cls-3" transform="translate(-48.189 -676.496)"/>
            </g>
        </g>
    </g>
</svg>
