<svg xmlns="http://www.w3.org/2000/svg" width="190" height="64" viewBox="0 0 190 64">
    <defs>
        <style>
            .cls-2{fill:#003e92}.cls-3{fill:#fff}
        </style>
    </defs>
    <g id="logo_samsungcard_190x64px" transform="translate(-1008 -4592)">
        <path id="사각형_1874" fill="none" d="M0 0H190V64H0z" transform="translate(1008 4592)"/>
        <g id="그룹_2870" transform="translate(1014.983 4269.157)">
            <path id="패스_4253" d="M107.568 352.39c17.3-8.867 15.135-17.343-2.47-19.091-18.97-1.885-46.685 2.195-66 9.993l-2.677 1.148c-20.112 8.992-18.207 18.507-.254 20.244 19.615 1.9 49.434-1.979 68.959-11.072z" class="cls-2"/>
            <path id="패스_4254" d="M354.107 388.889s-3.3.267-3.383-2.4v-5.155s-.411-2.841 3.293-2.841c0 0 2.411-.079 3.047 1.352 0 0 .315.383.232 1.965h-2.569V381a.649.649 0 0 0-.67-.655s-.7.03-.7.578v5.33a.7.7 0 1 0 1.4-.05v-1.542h-.7v-1.435h3.3v3.028a2.117 2.117 0 0 1-.272 1.009 3.5 3.5 0 0 1-.37.482 3.422 3.422 0 0 1-2.606 1.142" class="cls-3" transform="translate(-250.274 -34.761)"/>
            <path id="패스_4255" d="M310.211 380.113h-2.57l.183 5.906h-.111l-2.607-5.9h-3.117v9.733h2.538l-.152-5.952h.113l2.7 5.952h3.024z" class="cls-3" transform="translate(-213.176 -35.992)"/>
            <path id="패스_4256" d="M260.845 379.937h-2.782v7.3s-.286 2.763 3.613 2.763c0 0 3.389.041 3.389-2.634v-7.427h-2.72v7.338s.037.8-.707.8a.734.734 0 0 1-.783-.783z" class="cls-3" transform="translate(-179.727 -35.859)"/>
            <path id="패스_4257" d="M223.075 381.989l-.005-1.22s.2-2-3.017-2.088c0 0-2.529-.167-3.253 1.2 0 0-.284.3-.284 1.362V382a2.53 2.53 0 0 0 .422 1.45 3.344 3.344 0 0 0 .882.783s1.274.687 2.038 1.079c0 0 .772.441.67 1.14a.755.755 0 0 1-.807.691.711.711 0 0 1-.682-.736v-.829h-2.73v1.2s-.076 2.3 3.431 2.3c0 0 3.351.069 3.508-2.361v-.981a2.558 2.558 0 0 0-1.185-2.272 9.055 9.055 0 0 0-1.126-.6 8.971 8.971 0 0 1-1.6-.912.93.93 0 0 1-.215-1.058.66.66 0 0 1 .676-.373s.715.039.715.628v.827z" class="cls-3" transform="translate(-147.936 -34.898)"/>
            <path id="패스_4258" d="M158.964 380.107l-.214 9.734h2.533l.031-7.335h.2l1.343 7.333h2.666l1.327-7.33h.175l.061 7.331h2.547l-.274-9.734h-4.237l-.859 5.328h-.2l-.82-5.328z" class="cls-3" transform="translate(-104.111 -35.988)"/>
            <path id="패스_4259" d="M122.85 389.806l-1.685-9.732h-4.305l-1.685 9.732h2.725l1-7.547h.225l1 7.547z" class="cls-3" transform="translate(-70.932 -35.962)"/>
            <path id="패스_4260" d="M82.36 381.989l-.005-1.22s.2-2-3.018-2.088c0 0-2.528-.167-3.253 1.2 0 0-.285.3-.285 1.362V382a2.527 2.527 0 0 0 .422 1.45 3.324 3.324 0 0 0 .882.783s1.274.687 2.038 1.079c0 0 .772.441.67 1.14a.755.755 0 0 1-.807.691.711.711 0 0 1-.681-.736v-.829h-2.731v1.2s-.076 2.3 3.431 2.3c0 0 3.351.069 3.508-2.361v-.981a2.558 2.558 0 0 0-1.186-2.272 9.092 9.092 0 0 0-1.126-.6 8.964 8.964 0 0 1-1.6-.912.93.93 0 0 1-.216-1.058.663.663 0 0 1 .677-.373s.715.039.715.628v.827z" class="cls-3" transform="translate(-40.793 -34.898)"/>
            <g id="그룹_2869" transform="translate(107.633 362.199)">
                <path id="패스_4261" d="M514.82 455.888h-1.667v13.749h1.667v-7.747h1.433v-1.429h-1.433z" class="cls-2" transform="translate(-481.595 -455.888)"/>
                <path id="패스_4262" d="M540.162 465.026V463.6h-6.837v-4.18h6.763v-1.429h-8.429v7.039h1.666z" class="cls-2" transform="translate(-495.686 -457.488)"/>
                <path id="사각형_2502" d="M0 0H10.064V1.429H0z" class="cls-2" transform="translate(35.363 10.943)"/>
                <path id="패스_4263" d="M418.423 461.717h1.506v-1.442h-1.474v-2.98h-1.732v7.051h1.7z" class="cls-2" transform="translate(-408.171 -456.959)"/>
                <path id="패스_4264" d="M389.855 495.037H398v-5.769h-8.142zm1.663-4.361h4.815v2.952h-4.815z" class="cls-2" transform="translate(-387.713 -481.304)"/>
                <path id="패스_4265" d="M458.97 464.346h1.7v-7.051h-1.731v2.372h-2.179v1.443h2.211z" class="cls-2" transform="translate(-438.655 -456.959)"/>
                <path id="패스_4266" d="M440.8 486.514c-2.528 0-4.577 1.542-4.577 3.445s2.05 3.446 4.577 3.446 4.579-1.542 4.579-3.446-2.046-3.445-4.579-3.445zm0 5.37c-1.572 0-2.847-.862-2.847-1.925s1.275-1.924 2.847-1.924 2.848.862 2.848 1.924-1.271 1.925-2.848 1.925z" class="cls-2" transform="translate(-423.022 -479.207)"/>
                <path id="패스_4267" d="M384.542 461.866c.512 1.635 2.776 3.128 2.776 3.128l.888-1.227c-3.09-1.581-2.863-5.394-2.863-5.394h-1.6s.227 3.813-2.864 5.394l.889 1.227s2.261-1.494 2.774-3.128z" class="cls-2" transform="translate(-380.877 -457.78)"/>
                <path id="패스_4268" d="M433.4 461.865a7.18 7.18 0 0 0 2.587 3l.888-1.226c-2.9-1.455-2.674-5.269-2.674-5.269h-1.6s.228 3.813-2.673 5.269l.888 1.226a7.175 7.175 0 0 0 2.584-3z" class="cls-2" transform="translate(-418.226 -457.779)"/>
                <path id="패스_4269" d="M481.575 458.944v1.385h4.3a10.743 10.743 0 0 1-.264 2.459h-4.219v1.429h3.8a6.93 6.93 0 0 1-4.1 4.247l.687 1.376s5.992-1.558 5.659-10.9z" class="cls-2" transform="translate(-457.178 -458.215)"/>
            </g>
        </g>
    </g>
</svg>
