<svg xmlns="http://www.w3.org/2000/svg" width="190" height="64" viewBox="0 0 190 64">
    <defs>
        <style>
            .cls-2{fill:#dc000c}.cls-3{fill:#1a1311}.cls-4{fill:#00367c}
        </style>
    </defs>
    <g id="logo_hyundaymobis_190x64px" transform="translate(-436 -4556)">
        <path id="사각형_1878" fill="none" d="M0 0H190V64H0z" transform="translate(436 4556)"/>
        <g id="그룹_2176" transform="translate(353.192 4303.131)">
            <g id="그룹_2174" transform="translate(138.388 278.593)">
                <path id="패스_2378" d="M191.543 299.026a11.7 11.7 0 0 1 20.378-7.84 13.089 13.089 0 1 0-6.855 19.4 11.71 11.71 0 0 1-13.523-11.556" class="cls-2" transform="translate(-160.222 -285.09)"/>
                <path id="패스_2379" d="M213.73 301.687a9.052 9.052 0 0 0-15.486-6.759 10.134 10.134 0 1 1 4.64 15.234 9.847 9.847 0 0 0 1.4.17 9.056 9.056 0 0 0 9.445-8.645" class="cls-2" transform="translate(-163.589 -286.855)"/>
                <path id="패스_2380" d="M147.184 310.371h6.255a2.666 2.666 0 0 1-1.564-2.393V291.47l6.853 16.1a8.777 8.777 0 0 0 2.665 3.265l7.907-19.5V308.3a2.245 2.245 0 0 1-1.558 2.021h6.852a3.711 3.711 0 0 1-1.841-2.714V288.8a1.906 1.906 0 0 1 1.517-1.8h-6.713a7.323 7.323 0 0 1-.472 2.215c-.5 1.4-5.842 15.021-5.842 15.021L153.9 287.1h-6.668a2.425 2.425 0 0 1 1.612 2.437v17.979a4.147 4.147 0 0 1-1.657 2.853" class="cls-3" transform="translate(-147.184 -285.707)"/>
                <path id="패스_2381" d="M253.6 287.115h7.126a2.879 2.879 0 0 0-1.7 2.4v18.662a2.628 2.628 0 0 0 1.7 2.229H253.6a3.618 3.618 0 0 0 1.662-2.229v-18.571a3.04 3.04 0 0 0-1.662-2.491" class="cls-3" transform="translate(-181.375 -285.741)"/>
                <path id="패스_2382" d="M280.1 291.409l-.028-4.409a24.722 24.722 0 0 0-5.565-.789s-8.389-.348-8.785 6.3c0 0-.086 4.152 5.2 6.292a39.343 39.343 0 0 1 5.287 2.665 3.238 3.238 0 0 1 1.749 2.93s.257 3.66-5.046 3.654c0 0-4.963-.024-7.714-3.263l1.223 4.9a24.586 24.586 0 0 0 6.643.876s8.646-.174 9-6.863a5.95 5.95 0 0 0-3.552-5.348s-3.189-1.51-6.34-3.151c0 0-2.241-1.206-2.241-3.366 0 0 .085-3.06 4.527-3.037 0 0 3.76-.178 5.638 2.619" class="cls-3" transform="translate(-185.1 -285.448)"/>
                <path id="패스_2383" d="M235.334 307.714l-4.4-.041v-8.8h3.322s5.482-.086 5.482 4.531c0 0 .17 3.968-4.4 4.313m-4.355-18.207a15.555 15.555 0 0 1 2.633-.088c4.052.3 3.88 3.368 3.88 3.368 0 3.8-4.573 3.665-4.573 3.665h-1.94zm7.246 7.5a5.552 5.552 0 0 0 3.364-4.895s-.041-4.721-6.472-4.939l-9.524.045a2.736 2.736 0 0 1 1.663 2.547V308.2a2.165 2.165 0 0 1-1.663 2.182h9.486s8.737-.378 8.737-7.251c0 0 .363-4.691-5.592-6.119" class="cls-3" transform="translate(-172.376 -285.761)"/>
            </g>
            <g id="그룹_2175" transform="translate(119.808 264.869)">
                <path id="패스_2384" d="M126.477 264.869v3.792h-4.3v-3.792h-2.367v9.952h2.367v-4h4.3v4h2.37v-9.952h-2.37z" class="cls-4" transform="translate(-119.808 -264.869)"/>
                <path id="패스_2385" d="M142.252 264.869l-2.478 3.941-2.477-3.941h-2.8l4.094 6.505v3.446h2.365v-3.446l4.089-6.505h-2.8z" class="cls-4" transform="translate(-124.528 -264.869)"/>
                <path id="패스_2386" d="M158.112 264.869v7.3a.489.489 0 0 1-.5.5h-3.8v-7.8h-2.37v9.951h7a1.885 1.885 0 0 0 2.034-2.031v-7.921h-2.367z" class="cls-4" transform="translate(-129.971 -264.869)"/>
                <path id="패스_2387" d="M174.995 264.869h-7v9.951h2.367v-7.8h3.8a.492.492 0 0 1 .5.5v7.3h2.365v-7.913a1.891 1.891 0 0 0-2.032-2.038z" class="cls-4" transform="translate(-135.288 -264.869)"/>
                <path id="패스_2388" d="M191.539 264.869h-7v9.951h7a1.885 1.885 0 0 0 2.034-2.031v-5.882a1.893 1.893 0 0 0-2.034-2.038zm-.332 2.67v4.613a.5.5 0 0 1-.506.512h-3.8v-5.641h3.783a.5.5 0 0 1 .523.516z" class="cls-4" transform="translate(-140.603 -264.869)"/>
                <path id="패스_2389" d="M202.969 264.869a1.888 1.888 0 0 0-2.031 2.038v7.913h2.362v-3.077h4.3v3.077h2.364v-9.951zm4.634 2.155v2.566h-4.3v-2.06a.507.507 0 0 1 .506-.506z" class="cls-4" transform="translate(-145.873 -264.869)"/>
                <path id="사각형_1863" d="M0 0H2.37V9.952H0z" class="cls-4" transform="translate(66.402)"/>
            </g>
        </g>
    </g>
</svg>
