<svg xmlns="http://www.w3.org/2000/svg" width="190" height="64" viewBox="0 0 190 64">
    <defs>
        <style>
            .cls-2{fill:#003580}
        </style>
    </defs>
    <g id="logo_samsung_190x64px" transform="translate(-436 -4455)">
        <g id="사각형_1870" fill="none" stroke="#fff">
            <path stroke="none" d="M0 0H190V64H0z" transform="translate(436 4455)"/>
            <path d="M0.5 0.5H189.5V63.5H0.5z" transform="translate(436 4455)"/>
        </g>
        <g id="그룹_2169" transform="translate(297.159 3914.569)">
            <path id="패스_2362" d="M381.854 579.106l-.311-18.346h5.79v23.149h-8.325l-5.766-19h-.149l.33 19h-5.741v-23.148h8.667l5.38 18.346h.125" class="cls-2" transform="translate(-94.647 -.583)"/>
            <path id="패스_2363" d="M198.19 562.915L195 584.12h-6.312l4.326-23.36h10.409l4.32 23.36h-6.292l-3.12-21.205h-.14" class="cls-2" transform="translate(-16.156 -.583)"/>
            <path id="패스_2364" d="M243.952 578.631l2.891-17.87h9.524l.523 23.36h-5.851l-.163-21.006h-.114l-3.908 21.006h-5.917l-3.923-21.006h-.131l-.145 21.006h-5.844l.532-23.36h9.533l2.877 17.87h.117" class="cls-2" transform="translate(-34.665 -.583)"/>
            <path id="패스_2365" d="M335.029 580.617a2.1 2.1 0 0 0 2.252-1.675 5.326 5.326 0 0 0 .048-.9v-17.281h5.935v16.749c0 .436-.048 1.311-.067 1.544-.4 4.365-3.866 5.767-8.167 5.767s-7.743-1.4-8.139-5.767c-.03-.233-.072-1.108-.058-1.544v-16.749h5.915v17.284a4.449 4.449 0 0 0 .046.9 2.1 2.1 0 0 0 2.236 1.675" class="cls-2" transform="translate(-76.733 -.583)"/>
            <path id="패스_2366" d="M162.691 576.944a3.118 3.118 0 0 1 .046 1.73 2.025 2.025 0 0 1-2.289 1.581 2.081 2.081 0 0 1-2.332-2.125l-.018-2.267h-6.257v1.8c0 5.22 4.091 6.785 8.475 6.785 4.247 0 7.723-1.437 8.27-5.331a11.549 11.549 0 0 0-.015-3.84c-.984-4.906-9.86-6.343-10.523-9.084a2.826 2.826 0 0 1-.027-1.225 1.927 1.927 0 0 1 2.133-1.579 2 2 0 0 1 2.184 2.107v1.463h5.833v-1.64c0-5.1-4.58-5.891-7.895-5.891-4.147 0-7.548 1.381-8.168 5.2a8.563 8.563 0 0 0 .047 3.136c1.023 4.789 9.328 6.159 10.535 9.18" class="cls-2"/>
            <path id="패스_2367" d="M298.106 577.016a3.086 3.086 0 0 1 .047 1.705 1.99 1.99 0 0 1-2.25 1.545 2.065 2.065 0 0 1-2.327-2.1v-2.246h-6.213v1.8c0 5.171 4.064 6.706 8.42 6.706 4.167 0 7.615-1.421 8.168-5.281a11.214 11.214 0 0 0-.03-3.81c-.975-4.835-9.754-6.267-10.4-8.993a3.1 3.1 0 0 1-.029-1.2 1.9 1.9 0 0 1 2.113-1.552 1.964 1.964 0 0 1 2.159 2.073v1.437h5.765v-1.62c0-5.035-4.528-5.824-7.79-5.824-4.12 0-7.494 1.343-8.09 5.137a7.375 7.375 0 0 0 .045 3.113c1 4.743 9.223 6.1 10.414 9.106" class="cls-2" transform="translate(-59.426 -.1)"/>
            <path id="패스_2368" d="M421.8 579.886a2.179 2.179 0 0 0 2.386-1.691 6.485 6.485 0 0 0 .051-.892v-3.38h-2.387v-3.427h8.274v6.278c0 .438-.018.76-.084 1.545-.388 4.23-4.082 5.769-8.232 5.769-4.133 0-7.81-1.54-8.189-5.769a10.82 10.82 0 0 1-.093-1.545v-9.828a12.416 12.416 0 0 1 .109-1.535c.508-4.393 4.039-5.778 8.173-5.778 4.149 0 7.8 1.371 8.21 5.778a10.45 10.45 0 0 1 .045 1.535l.013.761h-5.891v-1.3a4.831 4.831 0 0 0-.082-.894 2.136 2.136 0 0 0-2.341-1.685 2.179 2.179 0 0 0-2.319 1.685 5.356 5.356 0 0 0-.087 1.112V577.3c0 .3.014.629.042.892a2.191 2.191 0 0 0 2.4 1.691" class="cls-2" transform="translate(-114.751 -.088)"/>
        </g>
    </g>
</svg>
