<svg xmlns="http://www.w3.org/2000/svg" width="120" height="120" viewBox="0 0 120 120">
    <defs>
        <style>
            .cls-5{fill:#5a5b5e}
        </style>
    </defs>
    <g id="logo_suwoncity_120x120px" transform="translate(-1018 -578)">
        <path id="사각형_2476" fill="none" d="M0 0H120V120H0z" transform="translate(1018 578)"/>
        <g id="그룹_2230" transform="translate(924.25 355.75)">
            <path id="패스_2470" fill="#00973d" d="M161.8 377.523s-5.912-5.666-9.361-7.5a30.851 30.851 0 0 0-6.933-2.991 31.343 31.343 0 0 0-9.255-.7s-7.6.633-9.326.422a19.1 19.1 0 0 1-9.009-1.83 9.586 9.586 0 0 1-5.384-6.3h-7.782s-.035 7.285 8.622 12.071a27.255 27.255 0 0 0 11.3 3.308s2.112.6 8.059.176c0 0 7.214-.6 11.578 2.358a49.744 49.744 0 0 1 10.311 9.22" transform="translate(0 -93.67)"/>
            <path id="패스_2471" fill="#003e92" d="M274.56 264.99a32.277 32.277 0 0 0-10.03-4.786 71.99 71.99 0 0 0-12.739-1.83s-15.942-.7-18.581-.458l-1.619-18.968h-2.534l-.07-1.936a11.014 11.014 0 0 0 3.062-.633s1.126.106.809-2.463a7.255 7.255 0 0 1-4.5-3.343v-2.323h-1.126v.774s-.915.7-4.117.633c0 0-3.7.035-4.153-.528v-.809h-1.126v2.393s-.774 2.323-4.4 3.378c0 0-.387 2.112.739 2.463a16.2 16.2 0 0 0 3.1.563v1.865h-2.393l-.669 8.9-.481 7.789-.663 9.6 20.816-.246s13.443.246 18.018.563c0 0 10.135.106 15.59 4.188 0 0 3.59 2.182 3.378 5.138a4.222 4.222 0 0 1-2.323 2.991s-1.724 1.372-5.279.7c0 0-4.329-.88-6.335-.141 0 0-2.323.739-4.153 4.153 0 0-2.112 4.54-5.912 4.61 0 0-2.956.774-7.25-3.378l-7.179 8.235s4.716 5.314 9.044 7.5a9.706 9.706 0 0 0 11.789-1.337 24.928 24.928 0 0 0 4.364-5.6s2.78-4.856 7.6-5.279c0 0 5.349-.317 6.862-.563a9.7 9.7 0 0 0 8.622-8.164 14.162 14.162 0 0 0-6.161-13.651zm-54.97-21.256h-2.5v-2.5h2.5zm5.015-.017h-2.5v-2.5h2.5zm4.821 0h-2.5v-2.5h2.5z" transform="translate(-77.818)"/>
            <g id="그룹_2224" transform="translate(117.877 247.878)">
                <path id="패스_2472" fill="#e50019" d="M163.763 299.385s-3.484 2.358-4.575 2.534a12.817 12.817 0 0 1-7.813.317v.334a2.761 2.761 0 0 1 .827.264s-.017.246-.809 0v.475s.669.211 1.478.4c0 0-.07.229-1.46-.07v.528a8.944 8.944 0 0 0 2.833.6s.194.387-1.056.3l-1.39-.159s-.176.159.264.3a3.744 3.744 0 0 1 .722.387 11.918 11.918 0 0 1-1.355-.123v.334a12.677 12.677 0 0 1 1.971.7s-.123.176-.862-.07l-1.073-.264v.581a12 12 0 0 1 1.179.334l.017.141a4.174 4.174 0 0 1-.792-.017l-.387-.159v.528l.317.106-.334.264v.545a11.629 11.629 0 0 0 1.848.229s.7.229 1.056.3c0 0 .211.282-.722.123 0 0-.915-.053-1.355-.088a.725.725 0 0 1-.809.106v.774a14.8 14.8 0 0 0 8.112-.581 35.368 35.368 0 0 0 3.548-1.883 10.855 10.855 0 0 1 6.264-1.713l.481-7.789a11.94 11.94 0 0 0-6.125 1.412zm-11.93 8.552a4.957 4.957 0 0 1 1.267.211.921.921 0 0 1-1.268-.212zm2.393-3.73s-1.2-.176-1.161-.422a3.954 3.954 0 0 1 1.408.141h1.3a2.12 2.12 0 0 1-1.547.28z" transform="translate(-151.375 -297.968)"/>
            </g>
            <g id="그룹_2228" transform="translate(118.105 306.587)">
                <g id="그룹_2225" transform="translate(0 .616)">
                    <path id="패스_2473" d="M166.562 508.688h-5.472a3.136 3.136 0 0 1 1 1.108 3.73 3.73 0 0 1-1.285 3.66s-1.636 1.883-5.683 2.323l1.179 1s1.355.422 4.7-.88a7.372 7.372 0 0 0 2.851-2.059 6.612 6.612 0 0 0 3.449 2.164 15.12 15.12 0 0 0 3.941.739l1.39-1.109s-3.414-.352-5.3-1.847a3.857 3.857 0 0 1-1.848-3.361 1.631 1.631 0 0 1 1.056-1.689" class="cls-5" transform="translate(-154.298 -508.688)"/>
                    <path id="패스_2474" d="M152.187 542.768v2.252h7.971v6.229h3.325v-6.3h7.866v-2.2a1.771 1.771 0 0 1-1.021.422h-17.173a2 2 0 0 1-.968-.403z" class="cls-5" transform="translate(-152.187 -533.16)"/>
                </g>
                <g id="그룹_2226" transform="translate(26.435 .194)">
                    <path id="패스_2475" d="M255.311 507.189c-2.831 0-5.1 1.8-5.1 3.777s2.3 3.583 5.126 3.583 5-1.634 5-3.613-2.195-3.747-5.026-3.747zm-.023 5.961a2.213 2.213 0 1 1 1.891-2.19 2.057 2.057 0 0 1-1.892 2.19z" class="cls-5" transform="translate(-249.047 -507.189)"/>
                    <path id="패스_2476" d="M246.083 534.916v1.877h4.575v2.675h3.308V536.7h5.161v-1.76l-.938.188H247z" class="cls-5" transform="translate(-246.083 -527.11)"/>
                    <path id="패스_2477" d="M257.333 554.584h4.367a2.711 2.711 0 0 0-.446 1.032v2.206h11.5v1.5h-12.793a1.816 1.816 0 0 1-2.017-1.525v-2.087s.022-.329-.611-1.126z" class="cls-5" transform="translate(-254.166 -541.241)"/>
                    <path id="패스_2478" d="M281.916 518.009v1.431h4.434v1.689h3.285v-12.575s.047-.7 1.056-1.22H285.2s1.1.633 1.126 1.149v9.455z" class="cls-5" transform="translate(-271.828 -507.293)"/>
                </g>
                <g id="그룹_2227" transform="translate(51.726)">
                    <path id="패스_2479" d="M339.9 508.166h5.4a2.238 2.238 0 0 0-1.009 1.173s-.258 3.73.681 5.326c0 0 1.478 2.98 4.434 3.449l-1.455 1.267a6.734 6.734 0 0 1-5.279-3.449 7.066 7.066 0 0 1-5.231 3.543l-1.525-1.173a6.816 6.816 0 0 0 4.411-3.66s.938-1.149.586-5.349c0-.001.071-.423-1.013-1.127z" class="cls-5" transform="translate(-335.916 -507.697)"/>
                    <path id="패스_2480" d="M385 506.5h5.42a1.759 1.759 0 0 0-1.032 1.2v16.775h-3.238V507.72a1.676 1.676 0 0 0-1.15-1.22z" class="cls-5" transform="translate(-371.181 -506.5)"/>
                </g>
            </g>
            <g id="그룹_2229" transform="translate(118.148 327.79)">
                <path id="패스_2481" d="M157.653 584.448a1.809 1.809 0 0 0-2.053-1.685c-.7 0-1.892.2-1.892 1.454 0 .7.5.935.981 1.05l2.362.543a2.154 2.154 0 0 1 1.884 2.216c0 1.959-1.826 2.5-3.246 2.5a3.306 3.306 0 0 1-2.5-.79 2.543 2.543 0 0 1-.844-2.1h1.052c0 1.5 1.224 1.939 2.285 1.939.808 0 2.17-.208 2.17-1.4 0-.866-.4-1.143-1.762-1.466l-1.7-.392a2 2 0 0 1-1.768-1.951 2.533 2.533 0 0 1 2.853-2.554c2.9 0 3.186 1.724 3.232 2.635z" class="cls-5" transform="translate(-152.339 -581.813)"/>
                <path id="패스_2482" d="M186.641 582.563v5.378a3.005 3.005 0 0 1-3.337 3.121 2.87 2.87 0 0 1-3.187-2.971v-5.528h1.123v5.217c0 1.8 1.1 2.3 2.1 2.3a2.016 2.016 0 0 0 2.18-2.274v-5.24z" class="cls-5" transform="translate(-172.296 -582.352)"/>
                <path id="패스_2483" d="M209.663 590.853h-1.177l-2.157-8.285h1.211l1.546 6.739h.023l1.858-6.739h1.223l1.858 6.739h.023l1.546-6.739h1.235l-2.181 8.285h-1.177l-1.894-6.863h-.023z" class="cls-5" transform="translate(-191.129 -582.355)"/>
                <path id="패스_2484" d="M251.215 586.168c0 1.951-1.086 3.37-2.888 3.37s-2.887-1.419-2.887-3.37 1.086-3.369 2.887-3.369 2.888 1.419 2.888 3.369zm1.158 0c0-1.789-.95-4.355-4.046-4.355s-4.045 2.566-4.045 4.355.95 4.355 4.045 4.355 4.046-2.566 4.046-4.355z" class="cls-5" transform="translate(-218.397 -581.813)"/>
                <path id="패스_2485" d="M282.412 582.568h1.088v8.284h-1.26l-4.206-6.686h-.023v6.686h-1.088v-8.284h1.33l4.137 6.686h.023z" class="cls-5" transform="translate(-241.848 -582.355)"/>
                <path id="패스_2486" d="M321.16 584.518a2.159 2.159 0 0 0-2.32-1.719c-1.5 0-2.713 1.108-2.713 3.289 0 1.951.693 3.451 2.747 3.451.727 0 1.986-.346 2.366-2.273h1.085a3.5 3.5 0 0 1-3.625 3.258c-1.882 0-3.732-1.216-3.732-4.4 0-2.55 1.458-4.309 3.871-4.309a3.133 3.133 0 0 1 3.405 2.7z" class="cls-5" transform="translate(-269.183 -581.813)"/>
                <path id="패스_2487" d="M346.81 590.851h-1.123v-8.288h1.123z" class="cls-5" transform="translate(-291.253 -582.352)"/>
                <path id="패스_2488" d="M353.052 582.563h6.733v.985h-2.805v7.3h-1.123v-7.3h-2.8z" class="cls-5" transform="translate(-296.544 -582.352)"/>
                <path id="패스_2489" d="M381.573 590.851h-1.123v-3.336l-3.128-4.952h1.3l2.379 3.982 2.38-3.982h1.319l-3.128 4.952z" class="cls-5" transform="translate(-313.982 -582.352)"/>
            </g>
        </g>
    </g>
</svg>
