<svg xmlns="http://www.w3.org/2000/svg" width="190" height="64" viewBox="0 0 190 64">
    <defs>
        <style>
            .cls-5,.cls-6{fill:#231815}.cls-6{fill-rule:evenodd}
        </style>
    </defs>
    <g id="logo_hanhwa_190x64px" transform="translate(-1295 -4556)">
        <path id="사각형_1875" fill="none" d="M0 0H190V64H0z" transform="translate(1295 4556)"/>
        <g id="그룹_2188" transform="translate(1075.333 4325.959)">
            <path id="패스_2434" fill="#f2ad80" d="M265.738 263.654c-.659-5.991 5.627-10.8 14.035-10.737s15.77 4.98 16.428 10.975-5.621 10.8-14.036 10.738-15.766-4.978-16.427-10.976m32.029 1.865c-.761-7.433-9.226-13.525-18.908-13.6s-16.927 5.882-16.151 13.316c.754 7.444 9.221 13.524 18.9 13.611s16.917-5.883 16.157-13.321" transform="translate(-1.292 -.979)"/>
            <path id="패스_2435" fill="#eb7b3e" d="M283.038 279.5c-4.772 4.976-12.429 5.392-17.1.909-4.682-4.466-4.6-12.13.176-17.112s12.424-5.4 17.1-.921 4.589 12.141-.177 17.124m-17.671-16.361c-5.544 5.79-5.63 14.705-.2 19.905s14.321 4.711 19.867-1.077 5.635-14.7.2-19.9-14.324-4.722-19.87 1.07" transform="translate(-1.178 -1.477)"/>
            <path id="패스_2436" fill="#e75514" d="M264.695 243.011c9.918-3.722 19.728.042 21.9 8.4s-4.088 18.142-14.009 21.855c-9.92 3.739-19.726-.047-21.906-8.392s4.09-18.144 14.011-21.859m-9.209 3.187c-10.295 8.151-12.913 19.958-5.853 26.368s21.122 5.029 31.412-3.133 12.913-19.954 5.852-26.368-21.124-5.009-31.411 3.133"/>
            <path id="패스_2437" d="M392.563 253.962v2.411H390v1.789h2.567v1.1H390v1.8h2.567v2.766h2.673v-9.869z" class="cls-5" transform="translate(-10.978 -1.135)"/>
            <path id="패스_2438" d="M386.875 254.159h-9.088v6.128a3.1 3.1 0 0 0 3.437 3.012h7.063v-7.881c.006-.3 0-1.258-1.41-1.258m-6.538 1.893h5.388v5.357h-4.295a1.069 1.069 0 0 1-1.094-1.152z" class="cls-5" transform="translate(-10.049 -1.15)"/>
            <path id="패스_2439" d="M366.834 264.754c-3.16 0-5.722 2.141-5.722 4.787s2.562 4.791 5.722 4.791 5.724-2.154 5.724-4.791-2.563-4.787-5.724-4.787m-.008 7.694a2.931 2.931 0 1 1 3.168-2.92 3 3 0 0 1-3.168 2.92" class="cls-5" transform="translate(-8.781 -1.956)"/>
            <path id="패스_2440" d="M370.887 253.962v3.673H369.6v-3.673h-2.151v9.678h2.151v-4.046h1.283v4.046h2.153v-9.678z" class="cls-5" transform="translate(-9.263 -1.135)"/>
            <path id="패스_2441" d="M361.482 258.348a3.569 3.569 0 0 1-.207-.733 20.69 20.69 0 0 1 0-3.46h-2.688a23.625 23.625 0 0 1-.016 3.341 6.41 6.41 0 0 1-.214.852c-.427 1.307-1.888 3.31-3.885 3.41v1.874a6.272 6.272 0 0 0 5.445-3.152 6.283 6.283 0 0 0 5.443 3.169v-1.89c-2-.1-3.456-2.1-3.878-3.41" class="cls-5" transform="translate(-8.276 -1.15)"/>
            <path id="패스_2442" d="M389 264.754c-3.158 0-5.721 2.141-5.721 4.787s2.563 4.791 5.721 4.791 5.723-2.154 5.723-4.791-2.561-4.787-5.723-4.787m0 7.694a2.931 2.931 0 1 1 3.166-2.92 3 3 0 0 1-3.166 2.92" class="cls-5" transform="translate(-10.467 -1.956)"/>
            <path id="패스_2443" d="M329.554 260.421v-2.042h-2.732v-4.415h-2.669V267h2.669v-6.575z" class="cls-5" transform="translate(-5.97 -1.135)"/>
            <path id="패스_2444" d="M325.856 271.823h-10.027a1.593 1.593 0 0 1-1.278-.545 2.338 2.338 0 0 1-.431-1.68v-1.954h-2.674v3c0 .8.2 3.2 3.6 3.219h10.813z" class="cls-5" transform="translate(-5.003 -2.176)"/>
            <path id="사각형_1866" d="M0 0H6.093V1.737H0z" class="cls-5" transform="translate(306.558 251.963)"/>
            <path id="패스_2445" d="M314.512 258.017c-3 0-5.07 1.743-5.07 3.9 0 1.886 2.058 3.891 5.07 3.891 3.074 0 5.074-2.059 5.074-3.891 0-2.153-1.97-3.9-5.074-3.9m-.015 6.127a2.412 2.412 0 0 1-2.523-2.306 2.571 2.571 0 0 1 5.08.016 2.436 2.436 0 0 1-2.557 2.29" class="cls-5" transform="translate(-4.851 -1.443)"/>
            <path id="패스_2446" d="M320.386 255.56h-11.865v1.673h11.865z" class="cls-5" transform="translate(-4.781 -1.256)"/>
            <path id="패스_2447" d="M351.166 260.479h-2.725v-6.609h-2.69v11.767a3 3 0 0 1-1.1 2.493 6.677 6.677 0 0 1-2.956.654h-3.057v-3.218h-2.656v3.218h-4.817v2.08H341.8c.065 0 2.921 0 3.884-1.108l.1-.1v3.8h2.659v-10.83h2.725z" class="cls-6" transform="translate(-6.503 -1.128)"/>
            <path id="사각형_1867" d="M0 0H6.112V1.762H0z" class="cls-5" transform="translate(327.589 251.863)"/>
            <path id="사각형_1868" d="M0 0H11.926V1.73H0z" class="cls-5" transform="translate(324.763 254.283)"/>
            <path id="패스_2448" d="M337.293 258.105h-.033v1.73h.033a2.351 2.351 0 0 1 2.525 2.249 2.5 2.5 0 0 1-2.558 2.423v1.732h.033c3.056 0 5.083-2.182 5.083-4.085 0-2.249-1.994-4.049-5.083-4.049m-.033 0c-2.991 0-5.048 1.8-5.048 4.049 0 1.972 2.058 4.085 5.048 4.085v-1.732a2.492 2.492 0 0 1-2.525-2.423 2.351 2.351 0 0 1 2.525-2.249z" class="cls-6" transform="translate(-6.583 -1.45)"/>
        </g>
    </g>
</svg>
