<svg xmlns="http://www.w3.org/2000/svg" width="190" height="64" viewBox="0 0 190 64">
    <defs>
        <style>
            .cls-2{fill:#002758}
        </style>
    </defs>
    <g id="logo_hyundaihaesang_190x64px" transform="translate(-1008 -4510)">
        <g id="그룹_2305" transform="translate(-35 -46)">
            <path id="사각형_1873" fill="none" d="M0 0H190V64H0z" transform="translate(1043 4556)"/>
            <g id="그룹_2187" transform="translate(1037.287 4492.857)">
                <path id="패스_2423" d="M97.473 82.056v4.113h3.054v3.241h-3.054v4.8h-3.784V82.056z" class="cls-2" transform="translate(75.172 3.221)"/>
                <path id="패스_2424" d="M88.729 94.163c0-3.418 2.992-6.223 7.048-6.223s7.04 2.8 7.04 6.223-3 6.254-7.04 6.254-7.048-2.832-7.048-6.254zm7.008 3.121a3.11 3.11 0 1 0 0-6.206 3.106 3.106 0 1 0 0 6.206z" class="cls-2" transform="translate(69.686 9.728)"/>
                <path id="패스_2425" d="M90.514 82.059c-.021 3.418-.19 6.227-5.191 8.564l1.824 2.78a10.343 10.343 0 0 0 5.511-4.17 10.375 10.375 0 0 0 5.517 4.17l1.819-2.78c-5-2.337-5.172-5.147-5.189-8.564z" class="cls-2" transform="translate(65.919 3.225)"/>
                <path id="패스_2426" d="M71.057 87.776h-2v-5.7H65.5v24.564h3.56V91.354h2v15.286h3.67V82.079h-3.673z" class="cls-2" transform="translate(43.994 3.247)"/>
                <path id="패스_2427" d="M84.509 87.776h-1.725v-5.7h-3.607v24.564h3.607V91.354h1.726v15.286h3.712V82.079h-3.713z" class="cls-2" transform="translate(59.123 3.247)"/>
                <path id="패스_2428" d="M49.593 89.724h3.885V94.6h11.567v3.179H49.593z" class="cls-2" transform="translate(26.407 11.701)"/>
                <path id="패스_2429" d="M56.652 95.054h-2.871V91.9h2.871v-2.121h-2.873v-3.163h2.873v-4.543h3.782v18.066h-3.782z" class="cls-2" transform="translate(31.037 3.24)"/>
                <g id="그룹_2186" transform="translate(70.271 84.233)">
                    <path id="패스_2430" d="M77.029 81.56v1.961h-4.317v3h2.131a5.034 5.034 0 0 0-2.02 4.214c0 2.99 2.569 5.536 6.12 5.536s6.111-2.546 6.111-5.536a5.042 5.042 0 0 0-2.015-4.214h2.133v-3H80.86V81.56zm4.481 9.112a2.573 2.573 0 1 1-2.575-2.58 2.634 2.634 0 0 1 2.575 2.58z" class="cls-2" transform="translate(-18.297 -81.56)"/>
                    <path id="패스_2431" d="M51.671 81.57v1.95h-4.8v3h2.674a4.822 4.822 0 0 0-1.967 3.955c0 2.984 2.567 5.406 6.115 5.406s6.12-2.422 6.12-5.406a4.843 4.843 0 0 0-1.965-3.955h2.666v-3h-4.8v-1.95zm4.593 8.845a2.576 2.576 0 1 1-2.575-2.443 2.521 2.521 0 0 1 2.575 2.443z" class="cls-2" transform="translate(-46.872 -81.549)"/>
                </g>
                <path id="패스_2432" d="M70.146 94.946h-6.174v-9.312h5.076v-3.227h-8.93v15.774h10.028z" class="cls-2" transform="translate(38.047 3.61)"/>
                <path id="패스_2433" fill="#ef7000" d="M37.236 89.127a9.972 9.972 0 0 0 9.992-9.984h9.217l-.011 30.722H44.918V96.811h-7.682v13.054H25.713V79.143h11.523z"/>
            </g>
        </g>
    </g>
</svg>
