<svg width="56" height="56" viewBox="0 0 56 56" fill="none" xmlns="http://www.w3.org/2000/svg">
<path d="M36 28.468C36.0002 28.3077 35.9688 28.149 35.9076 28.0009C35.8463 27.8528 35.7564 27.7183 35.643 27.605L28.149 20.112C27.9201 19.8831 27.6097 19.7545 27.286 19.7545C26.9623 19.7545 26.6519 19.8831 26.423 20.112C26.1941 20.3409 26.0655 20.6513 26.0655 20.975C26.0655 21.2987 26.1941 21.6091 26.423 21.838L33.054 28.468L26.423 35.099C26.3097 35.2123 26.2199 35.3469 26.1586 35.4949C26.0974 35.643 26.0658 35.8016 26.0659 35.9619C26.0659 36.1221 26.0975 36.2807 26.1589 36.4287C26.2203 36.5768 26.3102 36.7112 26.4235 36.8245C26.5368 36.9378 26.6714 37.0276 26.8194 37.0889C26.9675 37.1501 27.1261 37.1817 27.2864 37.1816C27.4466 37.1816 27.6052 37.15 27.7532 37.0886C27.9013 37.0272 28.0357 36.9373 28.149 36.824L35.643 29.331C35.7564 29.2177 35.8463 29.0832 35.9076 28.9351C35.9688 28.787 36.0002 28.6283 36 28.468V28.468Z" fill="#ABAEBE"/>
</svg>
