<svg width="56" height="56" viewBox="0 0 56 56" fill="none" xmlns="http://www.w3.org/2000/svg">
<path d="M20 27.532C19.9998 27.6923 20.0312 27.851 20.0924 27.9991C20.1537 28.1472 20.2436 28.2817 20.357 28.395L27.851 35.888C28.0799 36.1169 28.3903 36.2455 28.714 36.2455C29.0377 36.2455 29.3481 36.1169 29.577 35.888C29.8059 35.6591 29.9345 35.3487 29.9345 35.025C29.9345 34.7013 29.8059 34.3909 29.577 34.162L22.946 27.532L29.577 20.901C29.6903 20.7877 29.7801 20.6531 29.8414 20.5051C29.9026 20.357 29.9342 20.1984 29.9341 20.0381C29.9341 19.8779 29.9025 19.7193 29.8411 19.5713C29.7797 19.4232 29.6898 19.2888 29.5765 19.1755C29.4632 19.0622 29.3286 18.9724 29.1806 18.9111C29.0325 18.8499 28.8739 18.8183 28.7136 18.8184C28.5534 18.8184 28.3948 18.85 28.2468 18.9114C28.0987 18.9728 27.9643 19.0627 27.851 19.176L20.357 26.669C20.2436 26.7823 20.1537 26.9168 20.0924 27.0649C20.0312 27.213 19.9998 27.3717 20 27.532V27.532Z" fill="#ABAEBE"/>
</svg>
