<svg xmlns="http://www.w3.org/2000/svg" width="42" height="42" viewBox="0 0 42 42">
    <defs>
        <style>
            .cls-3{fill:none;stroke:#03020f;stroke-width:1.5px}
        </style>
    </defs>
    <g id="ico_sound_42px" transform="translate(-753 -1112)">
        <path id="사각형_2226" fill="none" d="M0 0H42V42H0z" transform="translate(753 1112)"/>
        <g id="ico_sound_42px-2" transform="translate(9)">
            <circle id="타원_100" cx="10" cy="10" r="10" fill="#316cbe" transform="translate(747 1130)"/>
            <g id="그룹_2530" transform="translate(-5672.266 -2555.439)">
                <path id="패스_2984" d="M6514.93 3688.3v15.05a2.537 2.537 0 0 1-.725 1.889 2.96 2.96 0 0 1-2.721.846 2.682 2.682 0 0 1-2.143-1.621 2.566 2.566 0 0 1-.2-.987q-.02-6.646-.011-13.292v-1.752-15.234a2.559 2.559 0 0 1 1.107-2.2 2.832 2.832 0 0 1 4.681 2.178q.023 7.567.012 15.123z" class="cls-3" transform="translate(-70.356)"/>
                <path id="패스_2985" d="M6589.356 3736.071c0-3.142.006-6.284 0-9.426a2.4 2.4 0 0 1 1.432-2.288c1.87-.959 4.292.178 4.354 2.031.01.312 0 .625 0 .938v8.053c0 .692-.032 1.384-.03 2.076q.01 3.934.03 7.868c0 .16 0 .32-.006.48a2.571 2.571 0 0 1-1.926 2.174c-1.851.532-3.708-.525-3.839-2.184-.011-.137-.01-.274-.01-.412v-9.311z" class="cls-3" transform="translate(-140.751 -47.78)"/>
                <path id="패스_2986" d="M6434.751 3730.6V3736.064c0 3.131-.007 6.263 0 9.394a2.389 2.389 0 0 1-1.425 2.244c-1.85.959-4.274-.157-4.35-2-.037-.892-.011-1.784-.012-2.677v-4.233-4.136-8.207a2.351 2.351 0 0 1 1.436-2.168c1.916-.978 4.314.2 4.343 2.136.02 1.4 0 2.791 0 4.187z" class="cls-3" transform="translate(0 -47.707)"/>
            </g>
        </g>
    </g>
</svg>
