<svg id="ico_workerlogin" xmlns="http://www.w3.org/2000/svg" width="88" height="68" viewBox="0 0 88 68">
    <defs>
        <style>
            .cls-7{opacity:.1}.cls-8{fill:#fff}.cls-10{fill:#6f9ee2}.cls-12{fill:#e0eaf9}.cls-16{fill:#888989}
        </style>
    </defs>
    <path id="사각형_2808" data-name="사각형 2808" style="fill:none" d="M0 0h88v68H0z"/>
    <g id="그룹_2910" data-name="그룹 2910" transform="translate(-745 -767.116)">
        <g id="그룹_2908" data-name="그룹 2908" transform="translate(747.016 774.053)">
            <path id="패스_4305" data-name="패스 4305" d="M793.088 2990.221c0 .669-14.72 1.211-32.878 1.211s-32.878-.542-32.878-1.211c0-.469 7.231-.875 17.809-1.077q1.291-.025 2.646-.045 1.052-.016 2.139-.029c3.235-.039 6.693-.061 10.284-.061 6.5 0 12.553.069 17.652.189l1.241.031c1.617.042 3.126.089 4.51.141 5.859.219 9.475.519 9.475.851z" transform="translate(-725.404 -2930.744)" style="fill:#0071bc;opacity:.17"/>
            <g id="그룹_2891" data-name="그룹 2891" transform="translate(42.508 22.287)">
                <g id="그룹_2890" data-name="그룹 2890">
                    <g id="lock">
                        <path id="패스_4306" data-name="패스 4306" d="m2357.758 1646.213-2.77.005v-.135l-.015-7.243a7.092 7.092 0 0 0-7.063-7.069h-.05a7.107 7.107 0 0 0-7.084 7.114l.014 7.227v.135l-2.77.006v-.132l-.015-7.23a9.862 9.862 0 0 1 9.849-9.89h.056a9.846 9.846 0 0 1 9.833 9.833l.015 7.246z" transform="translate(-2335.976 -1629.002)" style="fill:#4cd3bb"/>
                        <path id="패스_4307" data-name="패스 4307" d="M2285.192 2292.417a2.153 2.153 0 0 1-2.149 2.158l-9.785.02-9.743.02a2.153 2.153 0 0 1-2.157-2.148l-.033-15.757a2.153 2.153 0 0 1 2.043-2.155h.105l2.665-.006 7.119-.015 7.078-.015 2.665-.005h.1a2.153 2.153 0 0 1 2.052 2.146z" transform="translate(-2261.326 -2257.436)" style="fill:#fec147"/>
                        <g id="그룹_2889" data-name="그룹 2889" transform="translate(8.338 21.364)" style="opacity:.3">
                            <circle id="타원_114" data-name="타원 114" cx="2.539" cy="2.539" r="2.539" transform="rotate(-45 4.335 1.796)" style="stroke:#1d1d1b;stroke-linecap:round;stroke-miterlimit:10;stroke-width:.727px"/>
                            <path id="사각형_2531" data-name="사각형 2531" transform="rotate(-.119 2382.547 -1116.48)" d="M0 0h2.539v4.962H0z"/>
                        </g>
                    </g>
                </g>
                <path id="패스_4308" data-name="패스 4308" class="cls-7" d="M2723.274 1648.224a2.153 2.153 0 0 0-2.052-2.146l-.015-7.246a9.846 9.846 0 0 0-9.833-9.833h-.029v2.77h.029a7.091 7.091 0 0 1 7.063 7.068l.015 7.244-7.078.015h-.029v20.063h.029l9.784-.02a2.153 2.153 0 0 0 2.149-2.158z" transform="translate(-2699.441 -1628.999)"/>
            </g>
            <g id="그룹_2893" data-name="그룹 2893" transform="translate(19.484)">
                <g id="그룹_2892" data-name="그룹 2892">
                    <path id="패스_4309" data-name="패스 4309" class="cls-8" d="M1422.157 791.14v.484l-.026 3.291v.2l-.018 2.214-.011 1.329v.581l-.116 14.4-.027 3.353-.034 4.234-.027 3.356-.033 4.128-.027 3.358-.042 5.178-.035 4.343a4.369 4.369 0 0 1-1.675 3.394 4.541 4.541 0 0 1-.573.387 4.612 4.612 0 0 1-2.333.6l-21.666-.174a4.6 4.6 0 0 1-2.813-.977 4.515 4.515 0 0 1-.753-.748 4.329 4.329 0 0 1-.944-2.734l.236-29.383.053-6.52.008-.963.047-5.787.008-.943.055-6.86a4.486 4.486 0 0 1 4.581-4.386l3.945.032 1.006.008 6 .048 1.051.008 8.385.068h.563l.712.006a4.557 4.557 0 0 1 4.07 2.525 4.31 4.31 0 0 1 .433 1.95z" transform="translate(-1390.995 -786.506)"/>
                    <path id="패스_4310" data-name="패스 4310" d="M1418.444 844.505a3.341 3.341 0 0 1-1.264.235l-21.666-.174a3.291 3.291 0 0 1-2.3-.95 3.253 3.253 0 0 1-.232-.255q-.53.389-1.04.723a4.515 4.515 0 0 0 .753.748c3.036-.039 6.281-.06 9.652-.06 6.1 0 11.781.069 16.568.189a4.33 4.33 0 0 1-.471-.456zm3.273-55.3a4.557 4.557 0 0 0-4.07-2.525l-.712-.006h-.563l-8.385-.068-1.051-.008-6-.048-1.006-.008-3.945-.032a4.486 4.486 0 0 0-4.581 4.386l-.055 6.86-.008.943-.047 5.787-.008.963-.053 6.52-.236 29.383a4.329 4.329 0 0 0 .944 2.734 4.515 4.515 0 0 0 .753.748 4.6 4.6 0 0 0 2.813.977l21.666.174a4.612 4.612 0 0 0 2.333-.6 4.541 4.541 0 0 0 .573-.387 4.369 4.369 0 0 0 1.675-3.394l.035-4.343.042-5.178.027-3.358.033-4.128.027-3.356.034-4.234.027-3.353.116-14.4v-.581l.011-1.329.018-2.214v-.2l.026-3.291v-.484a4.31 4.31 0 0 0-.432-1.949zm-7.674-1.31 2.314.019h.563l.717.006a3.288 3.288 0 0 1 2.582 1.264 3.1 3.1 0 0 1 .66 1.942V791.605l-.026 3.29v.2l-.018 2.214-.011 1.329v.581l-.117 14.429-.027 3.356-.034 4.242-.027 3.363-.033 4.138-.027 3.377-.043 5.293-.033 4.16a3.116 3.116 0 0 1-.975 2.241 3.269 3.269 0 0 1-1.054.678 3.341 3.341 0 0 1-1.264.235l-21.666-.174a3.291 3.291 0 0 1-2.3-.95 3.253 3.253 0 0 1-.232-.255 3.1 3.1 0 0 1-.707-2l.234-29.038.055-6.875.008-.963.046-5.747.008-.939.055-6.894a3.118 3.118 0 0 1 .975-2.241 3.292 3.292 0 0 1 2.318-.913l3.593.029z" transform="translate(-1390.995 -786.506)" style="fill:#78abf4"/>
                </g>
            </g>
            <g id="그룹_2904" data-name="그룹 2904" transform="translate(22.939 10.139)">
                <g id="그룹_2896" data-name="그룹 2896" transform="translate(4.163)">
                    <path id="패스_4311" data-name="패스 4311" class="cls-10" d="M1694.794 1177.7a7.945 7.945 0 0 1-5.434 7.534q-.34.113-.693.2a7.941 7.941 0 0 1-1.207.185h-.039q-.279.02-.564.02-.244 0-.483-.014l-.12-.008a7.936 7.936 0 0 1-1.207-.185q-.353-.082-.693-.2a7.938 7.938 0 1 1 10.44-7.534z" transform="translate(-1678.92 -1169.763)"/>
                    <path id="패스_4312" data-name="패스 4312" class="cls-8" d="m1775.221 1257.514-.455-.285-.67-.816v-.252a.8.8 0 0 0 0-.08 2.564 2.564 0 0 0 .556-.312 3.057 3.057 0 0 0 1.071-1.733q.026-.09.047-.178a.308.308 0 0 0 .112.148.159.159 0 0 0 .124.023.11.11 0 0 0 .035-.02.945.945 0 0 0 .249-.35l.014-.032a2.321 2.321 0 0 0 .118-.685 4.258 4.258 0 0 0-.012-.733.4.4 0 0 0-.017-.086c-.031-.1-.106-.209-.161-.219l.024-.109a5.922 5.922 0 0 0-.164-2.722 1.838 1.838 0 0 0-.51-.824l-.026-.023a1.853 1.853 0 0 0-.7-.389 7.037 7.037 0 0 1-.508-.17 2.379 2.379 0 0 0-1.965.112 1.219 1.219 0 0 0-.436-.17 1.259 1.259 0 0 0-.72.089l-.1.043a2.69 2.69 0 0 0-.929.646 2.659 2.659 0 0 0-.423.608 4.108 4.108 0 0 0-.335 1.125 4.154 4.154 0 0 0 .133 1.791v.006a.435.435 0 0 0-.135.207.409.409 0 0 0-.017.086 4.258 4.258 0 0 0-.012.733 2.317 2.317 0 0 0 .118.685l.013.032a.949.949 0 0 0 .249.35.107.107 0 0 0 .035.02.16.16 0 0 0 .124-.023.405.405 0 0 0 .15-.274c.039.139.085.283.141.432a3.519 3.519 0 0 0 .588 1.108 2.752 2.752 0 0 0 1.033.752l-.034.385-.674.82-.455.285-3.332 1.5a7.933 7.933 0 0 0 3.094 1.907q.34.113.692.2a7.938 7.938 0 0 0 1.207.185l.12.008q.15.009.3.012h.182q.284 0 .564-.02h.039a7.952 7.952 0 0 0 1.207-.185q.353-.083.693-.2a7.937 7.937 0 0 0 3.094-1.907z" transform="translate(-1765.019 -1245.449)"/>
                    <g id="그룹_2895" data-name="그룹 2895">
                        <g id="그룹_2894" data-name="그룹 2894">
                            <path id="패스_4313" data-name="패스 4313" class="cls-10" d="M1686.857 1170.9a6.8 6.8 0 0 1 4.8 11.627 6.839 6.839 0 0 1-2.652 1.635 6.534 6.534 0 0 1-.593.167 6.826 6.826 0 0 1-1.034.158h-.035c-.16.011-.322.017-.484.017-.139 0-.278 0-.417-.012l-.1-.007a6.831 6.831 0 0 1-1.035-.158c-.2-.046-.4-.1-.593-.167a6.828 6.828 0 0 1-4.12-3.8 6.805 6.805 0 0 1 6.266-9.46m0-1.134a7.939 7.939 0 0 0-2.5 15.471q.34.113.693.2a7.936 7.936 0 0 0 1.207.185l.12.008q.24.014.483.014.284 0 .564-.02h.039a7.941 7.941 0 0 0 1.207-.185q.353-.082.693-.2a7.938 7.938 0 0 0-2.5-15.471z" transform="translate(-1678.92 -1169.763)"/>
                        </g>
                    </g>
                </g>
                <g id="그룹_2902" data-name="그룹 2902" transform="translate(0 19.848)">
                    <rect id="사각형_2532" data-name="사각형 2532" width="11.862" height="3.374" rx="1.687" transform="translate(6.026 15.713)" style="fill:#ed5157"/>
                    <g id="그룹_2897" data-name="그룹 2897" transform="translate(8.643 16.719)">
                        <path id="패스_4314" data-name="패스 4314" class="cls-8" d="m1848.3 2552.961.258-.025a.316.316 0 0 0 .095.191.287.287 0 0 0 .193.061.3.3 0 0 0 .193-.054.161.161 0 0 0 .065-.127.12.12 0 0 0-.027-.08.222.222 0 0 0-.1-.057q-.047-.016-.213-.058a.718.718 0 0 1-.3-.13.342.342 0 0 1-.121-.265.339.339 0 0 1 .057-.188.356.356 0 0 1 .164-.133.66.66 0 0 1 .259-.046.553.553 0 0 1 .373.109.382.382 0 0 1 .131.289l-.266.012a.225.225 0 0 0-.073-.146.266.266 0 0 0-.168-.045.3.3 0 0 0-.181.048.1.1 0 0 0-.042.082.1.1 0 0 0 .04.08.7.7 0 0 0 .244.088 1.294 1.294 0 0 1 .287.094.372.372 0 0 1 .145.134.414.414 0 0 1-.01.421.375.375 0 0 1-.178.147.746.746 0 0 1-.286.048.569.569 0 0 1-.383-.115.5.5 0 0 1-.156-.335z" transform="translate(-1848.296 -2552.051)"/>
                        <path id="패스_4315" data-name="패스 4315" class="cls-8" d="M1896.873 2554.214v-1.314h.266v1.315z" transform="translate(-1895.588 -2552.876)"/>
                        <path id="패스_4316" data-name="패스 4316" class="cls-8" d="M1915.408 2552.906v-.222h.573v.524a.729.729 0 0 1-.242.142.88.88 0 0 1-.321.061.719.719 0 0 1-.36-.086.55.55 0 0 1-.231-.248.8.8 0 0 1-.077-.35.758.758 0 0 1 .086-.365.579.579 0 0 1 .252-.245.68.68 0 0 1 .315-.066.628.628 0 0 1 .383.1.463.463 0 0 1 .177.284l-.264.049a.279.279 0 0 0-.1-.153.316.316 0 0 0-.192-.056.36.36 0 0 0-.277.11.465.465 0 0 0-.1.328.516.516 0 0 0 .1.351.348.348 0 0 0 .273.117.464.464 0 0 0 .167-.033.579.579 0 0 0 .144-.08v-.167z" transform="translate(-1912.992 -2552.051)"/>
                        <path id="패스_4317" data-name="패스 4317" class="cls-8" d="M1970.622 2554.214v-1.314h.258l.538.879v-.879h.247v1.315h-.266l-.53-.858v.858z" transform="translate(-1967.386 -2552.876)"/>
                        <path id="패스_4318" data-name="패스 4318" class="cls-8" d="M2039.688 2554.214v-1.314h.266v1.315z" transform="translate(-2034.625 -2552.876)"/>
                        <path id="패스_4319" data-name="패스 4319" class="cls-8" d="M2059.4 2554.214v-1.314h.259l.538.879v-.879h.247v1.315h-.267l-.53-.858v.858z" transform="translate(-2053.813 -2552.876)"/>
                    </g>
                    <g id="그룹_2899" data-name="그룹 2899" transform="translate(0 6.2)">
                        <rect id="사각형_2533" data-name="사각형 2533" class="cls-12" width="24.199" height="4.534" rx="2.267"/>
                        <g id="lock-2" data-name="lock" transform="translate(21.735 1.264)">
                            <path id="패스_4320" data-name="패스 4320" class="cls-10" d="M2348.426 2203.143h-.149v-.4a.382.382 0 0 0-.382-.382.384.384 0 0 0-.383.383v.4h-.149v-.4a.532.532 0 0 1 .533-.533.524.524 0 0 1 .207.042.531.531 0 0 1 .169.114.522.522 0 0 1 .114.169.528.528 0 0 1 .042.207z" transform="translate(-2347.25 -2202.213)"/>
                            <rect id="사각형_2534" data-name="사각형 2534" class="cls-10" width="1.287" height="1.083" rx=".542" transform="translate(0 .923)"/>
                            <g id="그룹_2898" data-name="그룹 2898" transform="translate(.506 1.21)">
                                <circle id="타원_115" data-name="타원 115" class="cls-12" cx=".137" cy=".137" r=".137"/>
                                <path id="사각형_2535" data-name="사각형 2535" class="cls-12" transform="translate(.069 .21)" d="M0 0h.137v.268H0z"/>
                            </g>
                        </g>
                    </g>
                    <g id="그룹_2901" data-name="그룹 2901">
                        <rect id="사각형_2536" data-name="사각형 2536" class="cls-12" width="24.199" height="4.534" rx="2.267"/>
                        <g id="그룹_2900" data-name="그룹 2900" transform="translate(21.556 1.281)">
                            <ellipse id="타원_116" data-name="타원 116" class="cls-10" cx=".433" cy=".494" rx=".433" ry=".494" transform="translate(.39)"/>
                            <path id="사각형_2537" data-name="사각형 2537" class="cls-10" d="M.81 0h.027a.81.81 0 0 1 .81.81H0A.81.81 0 0 1 .81 0z" transform="translate(0 1.189)"/>
                        </g>
                    </g>
                </g>
                <g id="그룹_2903" data-name="그룹 2903" transform="translate(.058 32.215)">
                    <rect id="사각형_2538" data-name="사각형 2538" class="cls-12" width="7.372" height=".813" rx=".407"/>
                    <rect id="사각형_2539" data-name="사각형 2539" width="11.543" height=".813" rx=".407" transform="translate(12.54)" style="fill:#95cbe2"/>
                </g>
            </g>
            <g id="그룹_2907" data-name="그룹 2907" transform="translate(0 25.672)">
                <g id="그룹_2906" data-name="그룹 2906">
                    <g id="그룹_2905" data-name="그룹 2905">
                        <path id="패스_4321" data-name="패스 4321" d="M730.19 1840.924a36.792 36.792 0 0 0 12.992-2.395 30.445 30.445 0 0 0 12.992 2.395 70.318 70.318 0 0 1-.076 7.464 32.916 32.916 0 0 1-.764 5.859 28.185 28.185 0 0 1-1.478 4.331c-2.49 5.407-9.359 8.775-10.674 9.4a21.792 21.792 0 0 1-9.859-8.177 18.989 18.989 0 0 1-2.395-5.5 28.941 28.941 0 0 1-.611-6.267c-.07-1.787-.136-4.21-.127-7.11z" transform="translate(-728.186 -1836.371)" style="fill:#33d3b7"/>
                        <path id="패스_4322" data-name="패스 4322" class="cls-8" d="M669.459 1759.1a30.44 30.44 0 0 0 11.884 2.415c.386 0 .756-.007 1.108-.02a70.3 70.3 0 0 1-.076 7.464 32.922 32.922 0 0 1-.764 5.859 28.189 28.189 0 0 1-1.478 4.331c-2.49 5.407-9.359 8.775-10.674 9.4a21.794 21.794 0 0 1-9.859-8.177 18.988 18.988 0 0 1-2.395-5.5 28.94 28.94 0 0 1-.611-6.267 167.91 167.91 0 0 1-.127-7.107 36.789 36.789 0 0 0 12.992-2.395m.041-2.158-.752.285a34.778 34.778 0 0 1-12.285 2.265h-1.993l-.006 1.993a169.68 169.68 0 0 0 .129 7.193c.078 2 .169 3.421.287 4.483a14.9 14.9 0 0 0 .385 2.2 20.623 20.623 0 0 0 1.408 3.863 22.175 22.175 0 0 0 7.07 8.381 25.7 25.7 0 0 0 4.927 2.784l.832.357.818-.389a33.393 33.393 0 0 0 5.215-3.1 24.838 24.838 0 0 0 3.529-3.083 16.023 16.023 0 0 0 2.889-4.192 30.049 30.049 0 0 0 1.6-4.692 37.261 37.261 0 0 0 .818-6.208 72.666 72.666 0 0 0 .079-7.677l-.084-1.99-1.99.072c-.343.012-.692.019-1.035.019a28.441 28.441 0 0 1-11.1-2.256l-.74-.314z" transform="translate(-654.463 -1756.944)"/>
                    </g>
                </g>
                <path id="패스_4323" data-name="패스 4323" class="cls-7" d="m1222.894 1790.749.818-.389a33.39 33.39 0 0 0 5.214-3.1 24.833 24.833 0 0 0 3.529-3.083 16.023 16.023 0 0 0 2.889-4.192 30.074 30.074 0 0 0 1.6-4.692 37.27 37.27 0 0 0 .818-6.208 72.65 72.65 0 0 0 .079-7.677l-.084-1.99-1.99.072c-.343.012-.691.019-1.035.019a28.441 28.441 0 0 1-11.1-2.256l-.741-.314" transform="translate(-1207.856 -1756.944)"/>
                <path id="패스_4324" data-name="패스 4324" class="cls-8" d="m989.006 2138.43-4.862-5.157 2.275-2.145 2.376 2.52 5.622-7.131 2.455 1.936z" transform="translate(-975.423 -2116.74)"/>
            </g>
        </g>
        <g id="그룹_2909" data-name="그룹 2909" transform="translate(803.878 767.491)" style="opacity:.738">
            <g id="그룹_2886" data-name="그룹 2886">
                <path id="패스_4302" data-name="패스 4302" class="cls-16" d="M1760.216 257.692h.917c.226.069.464.075.693.13a5.408 5.408 0 0 1 2.806 1.648 5.285 5.285 0 0 1 1.19 2.126 5.346 5.346 0 0 1 .2 1.855 5.566 5.566 0 0 1-.274 1.406 5.385 5.385 0 0 1-1.183 1.972 5.621 5.621 0 0 1-1.407 1.081.044.044 0 0 0-.051.035.073.073 0 0 0-.058.026.336.336 0 0 0-.2.1.852.852 0 0 0-.206.075c-.027-.005-.042.01-.052.033l-.1.03c-.025 0-.05 0-.063.024a.441.441 0 0 0-.13.042c-.025 0-.049-.005-.064.022l-.086.023c-.049.01-.105 0-.139.053-.088 0-.081.056-.076.115-.034.032-.021.074-.021.112v4.121c0 .038-.013.079.02.112v.108a1.181 1.181 0 0 0 0 .494v.13c-.027.021-.027.042 0 .064v.108a.279.279 0 0 0 0 .236v.108c-.031.029-.02.067-.02.1v2.572c0 .034-.011.072.02.1v.044c-.024.016-.022.04-.02.065-.026.025-.061.042-.069.082a.046.046 0 0 0-.042.045 5.165 5.165 0 0 0-.41.428.045.045 0 0 0-.042.045c-.126.126-.258.247-.376.38a3.072 3.072 0 0 0-.314.348.263.263 0 0 0-.042.03c-.16.169-.322.336-.478.508-.061.067-.1.066-.158 0-.309-.356-.623-.709-.937-1.061q-.31-.349-.625-.694a.411.411 0 0 1-.1-.3c.006-.509 0-1.018 0-1.526 0-.152 0-.152.157-.152h1.548c.058 0 .106 0 .105-.081v-1.041c0-.09-.034-.106-.114-.106h-1.569c-.1 0-.13-.03-.129-.13V272.2c0-.129.009-.138.142-.139h1.01c.079 0 .119-.02.118-.109v-.666c0-.072-.03-.084-.095-.093-.267-.039-.535.01-.8-.014-.081-.007-.164.015-.245.014s-.134-.037-.131-.14c.007-.258 0-.516 0-.774a.474.474 0 0 0-.019-.148.727.727 0 0 0 .016-.286c0-.085.031-.115.114-.111h.311c.103 0 .143-.024.137-.132a4.642 4.642 0 0 1 0-.472c.005-.1-.042-.127-.125-.128h-.34c-.077 0-.1-.028-.1-.1v-.676c.051-.148.031-.2-.1-.267a7.087 7.087 0 0 1-.535-.31 5.6 5.6 0 0 1-.717-.556 5.4 5.4 0 0 1-.953-1.125 4.8 4.8 0 0 1-.635-1.488 5.691 5.691 0 0 1-.153-.949 5.626 5.626 0 0 1 .342-2.365c.023-.063.072-.118.058-.192a.03.03 0 0 0 .006-.019c.061-.035.074-.1.1-.158a5.007 5.007 0 0 1 .886-1.319c.086-.09.163-.188.244-.283a.814.814 0 0 0 .069-.049 6.179 6.179 0 0 1 1.243-.861 5.38 5.38 0 0 1 1.495-.5c.158-.028.317-.043.476-.062.041.003.069.004.08-.031zm-1.786 5.869H1757c-.116 0-.18.057-.185.162a2.588 2.588 0 0 0 .028.525 3.784 3.784 0 0 0 .876 1.937 3.919 3.919 0 0 0 .981.821 3.666 3.666 0 0 0 1.5.487c.1.01.107.048.105.127-.015.721.005 1.443 0 2.164-.01 1.717 0 3.434 0 5.151a2.24 2.24 0 0 1 .019.321 7 7 0 0 0-.017.794.2.2 0 0 0 .09.184c.133.082.271-.007.272-.177v-8.413c0-.146 0-.147.138-.148a3 3 0 0 0 .916-.159 3.745 3.745 0 0 0 2.063-1.591 3.61 3.61 0 0 0 .584-1.955c0-.193-.039-.234-.232-.234h-5.7zm3.372-3.048a1.2 1.2 0 0 0-1.2-1.172 1.177 1.177 0 0 0-1.173 1.191 1.163 1.163 0 0 0 1.171 1.172 1.184 1.184 0 0 0 1.2-1.192z" transform="translate(-1755.217 -257.691)"/>
                <path id="패스_4303" data-name="패스 4303" d="M1793.9 394.054h5.7c.193 0 .233.041.231.234a3.609 3.609 0 0 1-.583 1.955 3.745 3.745 0 0 1-2.063 1.591 3 3 0 0 1-.916.159c-.138 0-.138 0-.138.148v8.413c0 .17-.138.259-.272.177a.2.2 0 0 1-.089-.184 6.948 6.948 0 0 1 .017-.794 2.222 2.222 0 0 0-.019-.321c0-1.717-.006-3.434 0-5.151 0-.722-.017-1.443 0-2.164 0-.079-.008-.117-.105-.127a3.667 3.667 0 0 1-1.5-.487 3.924 3.924 0 0 1-.981-.821 3.782 3.782 0 0 1-.876-1.937 2.58 2.58 0 0 1-.028-.525c.005-.1.069-.161.185-.162zm2.16.345h-3.247c-.178 0-.178 0-.161.181v.011a3.474 3.474 0 0 0 .442 1.345 3.427 3.427 0 0 0 5.324.772 3.39 3.39 0 0 0 1.051-2.171c.01-.136 0-.137-.13-.137z" transform="translate(-1790.691 -388.185)" style="fill:#31bcbc"/>
            </g>
            <path id="패스_4304" data-name="패스 4304" class="cls-16" d="M1804.116 402.072h3.28c.135 0 .14 0 .13.137a3.39 3.39 0 0 1-1.051 2.171 3.423 3.423 0 0 1-5.324-.772 3.471 3.471 0 0 1-.442-1.345v-.011c-.016-.181-.016-.181.161-.181z" transform="translate(-1798.743 -395.858)"/>
        </g>
        <circle id="타원_117" data-name="타원 117" cx="2.5" cy="2.5" r="2.5" transform="translate(745 776)" style="opacity:.49;fill:#595b8e"/>
        <circle id="타원_118" data-name="타원 118" cx="5" cy="5" r="5" transform="translate(823 822)" style="opacity:.575;fill:#595b8e"/>
    </g>
</svg>
