<svg xmlns="http://www.w3.org/2000/svg" width="120" height="120" viewBox="0 0 120 120">
    <defs>
        <style>
            .cls-5{fill:none}.cls-2{fill:#03020f}.cls-5{stroke:#03020f;stroke-linecap:round;stroke-linejoin:round;stroke-width:3.3px}
        </style>
    </defs>
    <g id="ico_finalevaluation_120px" transform="translate(-1299 -3239)">
        <path id="사각형_2786" fill="none" d="M0 0H120V120H0z" transform="translate(1299 3239)"/>
        <g id="그룹_3425" transform="translate(-3 -3.919)">
            <rect id="사각형_2525" width="41" height="4" class="cls-2" rx="2" transform="translate(1345 3273.919)"/>
            <rect id="사각형_2526" width="41" height="4" class="cls-2" rx="2" transform="translate(1344.881 3285.116)"/>
            <rect id="사각형_2527" width="26" height="4" class="cls-2" rx="2" transform="translate(1345 3296.313)"/>
            <g id="그룹_3424">
                <circle id="타원_356" cx="20" cy="20" r="20" fill="#316cbe" transform="translate(1310 3308)"/>
                <path id="패스_4310" fill="#03020f" stroke="#03020f" stroke-width="0.7px" d="M752.728 208.789a19.927 19.927 0 0 1 15.638 6.7c.612.668 1.412 1.494.515 2.362-.946.915-1.673-.023-2.279-.676a17.617 17.617 0 0 0-16.147-5.778 17.968 17.968 0 1 0 7.892 34.974 18.394 18.394 0 0 0 12.81-16.02c.056-.976-.212-2.378 1.284-2.3 1.439.074 1.165 1.452 1.117 2.43-.576 11.937-12.26 20.98-24.033 18.621-11.374-2.278-18.506-12.585-16.328-23.918a20.151 20.151 0 0 1 19.531-16.395z" transform="translate(638.194 3091.528)"/>
                <path id="패스_4296" d="M246.955 327.372H236.87a12.748 12.748 0 0 1-12.748-12.748v-54.4a12.749 12.749 0 0 1 12.748-12.744h35.267a12.748 12.748 0 0 1 12.748 12.748v19.337" class="cls-5" transform="translate(1110.878 3009.439)"/>
                <path id="패스_4312" d="M2093.691 2976.676l7.979 8.858 22.287-18.056" class="cls-5" transform="translate(-709 343)"/>
            </g>
        </g>
    </g>
</svg>
