<svg xmlns="http://www.w3.org/2000/svg" width="20" height="20" viewBox="0 0 20 20">
    <defs>
        <style>
            .cls-3{fill:#1054b2}
        </style>
    </defs>
    <g id="ico_Q_A_20px" transform="translate(-158 -212)">
        <path id="사각형_2472" fill="none" d="M0 0H20V20H0z" transform="translate(158 212)"/>
        <g id="그룹_2863" transform="translate(1 -.5)">
            <path id="합치기_42" fill="#fff" stroke="#fff" stroke-linejoin="round" d="M9.4 10.556H5.529A5.028 5.028 0 1 1 5.529.5h4.944a5.029 5.029 0 0 1 1.764 9.737l-1.474 2.535z" transform="translate(159.5 216)"/>
            <g id="그룹_2862" transform="translate(142.918 -126.647)">
                <path id="패스_4244" d="M22.52 349.3a1.339 1.339 0 0 1-.28.514l.413.389-.392.409-.432-.41a1.517 1.517 0 0 1-.921.25 1.655 1.655 0 0 1-1.163-.42 2.245 2.245 0 0 1 .014-2.976 1.686 1.686 0 0 1 1.159-.413 1.664 1.664 0 0 1 1.172.437 1.829 1.829 0 0 1 .547 1.414 2.4 2.4 0 0 1-.117.806zm-1.364.483a1.349 1.349 0 0 0 .168-.061l-.364-.347.386-.4.366.344a1.706 1.706 0 0 0 .12-.307 1.8 1.8 0 0 0 .053-.461 1.534 1.534 0 0 0-.248-.937.848.848 0 0 0-.723-.33.884.884 0 0 0-.713.317 1.445 1.445 0 0 0-.266.95 1.314 1.314 0 0 0 .38 1.059.888.888 0 0 0 .592.208.976.976 0 0 0 .249-.031z" class="cls-3"/>
                <path id="패스_4245" d="M23.262 348.852a1.754 1.754 0 0 1 .528-.459l.075-.047a1.5 1.5 0 0 1-.241-.359.877.877 0 0 1-.086-.382.753.753 0 0 1 .267-.614 1.045 1.045 0 0 1 .692-.221.926.926 0 0 1 .641.226.741.741 0 0 1 .253.579.829.829 0 0 1-.152.517 1.473 1.473 0 0 1-.446.367l.518.627a1.04 1.04 0 0 0 .137-.275 1.093 1.093 0 0 0 .051-.315h.617a1.959 1.959 0 0 1-.158.663 1.878 1.878 0 0 1-.253.417l.653.78h-.842l-.251-.3a1.524 1.524 0 0 1-.34.25 1.394 1.394 0 0 1-.649.145 1.143 1.143 0 0 1-.864-.322 1.011 1.011 0 0 1-.311-.715.953.953 0 0 1 .161-.562zm.68.862a.513.513 0 0 0 .379.149.722.722 0 0 0 .329-.079.939.939 0 0 0 .252-.175l-.673-.819a1.209 1.209 0 0 0-.349.3.525.525 0 0 0-.086.291.462.462 0 0 0 .148.333zm.307-1.928a3.107 3.107 0 0 0 .2.252 1.276 1.276 0 0 0 .218-.174.4.4 0 0 0 .127-.286.3.3 0 0 0-.077-.2.288.288 0 0 0-.23-.087.341.341 0 0 0-.18.051.259.259 0 0 0-.126.24.37.37 0 0 0 .068.204z" class="cls-3"/>
                <path id="패스_4246" d="M27.851 346.757h.849l1.273 3.6h-.813l-.238-.74H27.6l-.244.74h-.787zM27.8 349h.922l-.455-1.416z" class="cls-3"/>
            </g>
        </g>
    </g>
</svg>
