<svg xmlns="http://www.w3.org/2000/svg" width="42" height="42" viewBox="0 0 42 42">
    <path data-name="사각형 2833" style="fill:none" d="M0 0h42v42H0z"/>
    <g data-name="그룹 2920" transform="translate(-301.871 -3281.606)">
        <circle data-name="타원 222" cx="8.69" cy="8.69" r="8.69" transform="translate(306 3299.376)" style="fill:#316cbe"/>
        <g data-name="그룹 2919">
            <path data-name="패스 4363" d="M1691.613 654.278c-3.145 0-6.291-.047-9.434.022-1.276.028-1.75-.355-1.717-1.69a11.176 11.176 0 0 1 22.323.183c.005 1.191-.467 1.517-1.573 1.5-3.199-.045-6.399-.015-9.599-.015zm-.045-11.283a10.311 10.311 0 0 0-10.094 8.547c-.186 1.2 0 1.854 1.452 1.84 5.838-.056 11.677-.041 17.515-.01 1.193.006 1.531-.43 1.353-1.6a10.3 10.3 0 0 0-10.226-8.777z" transform="translate(-1363.043 2657.668)" style="stroke-width:.4px;stroke:#03020f"/>
            <path data-name="패스 4364" d="M1698.046 628.449a5.524 5.524 0 1 1-5.447-5.508 5.4 5.4 0 0 1 5.447 5.508zm-.748.01a4.765 4.765 0 1 0-4.751 4.728 4.857 4.857 0 0 0 4.753-4.727z" transform="translate(-1363.943 2666.51)" style="fill:#03020f;stroke-width:.5px;stroke:#03020f"/>
        </g>
    </g>
</svg>
