<svg xmlns="http://www.w3.org/2000/svg" width="170" height="170" viewBox="0 0 170 170">
    <defs>
        <style>
            .cls-3{fill:#03020f}
        </style>
    </defs>
    <g id="ico_fast_170px" transform="translate(-465 -2958)">
        <path id="패스_2995" fill="#0b3496" d="M733.9 1065.9a85 85 0 1 1 85-85 85.1 85.1 0 0 1-85 85zm0-166.745a81.745 81.745 0 1 0 81.744 81.744A81.838 81.838 0 0 0 733.9 899.15z" transform="translate(-183.896 2062.105)"/>
        <g id="그룹_2596" transform="translate(5.999 32)">
            <g id="그룹_2554" transform="translate(488.997 2999.949)">
                <circle id="타원_93" cx="21" cy="21" r="21" fill="#316cbe" transform="translate(.003 .051)"/>
            </g>
            <g id="그룹_2565" transform="translate(502.859 2961)">
                <g id="그룹_2556" transform="translate(0 40.763)">
                    <path id="패스_2996" d="M700.312 1048.537a15.288 15.288 0 0 1-4.732-.63 1.638 1.638 0 0 1-1.116-1.446c-.469-7.206 7.434-19.8 10.508-24.406L702 1020.9a1.635 1.635 0 0 1-.994-1.92 28.043 28.043 0 0 1 13.171-17.9l-3.568-1.752a1.636 1.636 0 0 1-.912-1.381c-.108-2.034 2.266-8.284 10.49-9.338l.417 3.242c-4.964.637-6.862 3.537-7.435 5.091l5.47 2.685a1.634 1.634 0 0 1-.195 3.015c-.427.148-10.231 3.665-13.884 15.745l3.515 1.367a1.635 1.635 0 0 1 .741 2.469c-3.036 4.282-10.557 16.223-11.077 22.861 6.554 1.175 20.008-3.091 24.916-4.948a1.635 1.635 0 0 1 2.2 1.34l.434 3.746a24.32 24.32 0 0 0 18.74-9.46 1.634 1.634 0 0 1 2.967.573l1.215 5.958a7.236 7.236 0 0 0 3.287-1.243c2.416-1.649 4.018-4.748 4.63-8.964l3.236.472c-.983 6.761-4.019 9.95-6.392 11.435a8.992 8.992 0 0 1-6.607 1.42 1.638 1.638 0 0 1-1.106-1.231l-.794-3.895a27.9 27.9 0 0 1-20.648 8.225 1.634 1.634 0 0 1-1.606-1.446l-.367-3.166c-4.203 1.459-14.211 4.637-21.532 4.637z" class="cls-3" transform="translate(-694.444 -988.609)"/>
                </g>
                <g id="그룹_2557" transform="translate(54.981)">
                    <path id="패스_2997" d="M777.373 947.5h-14.026a1.635 1.635 0 0 1-1.635-1.635v-5.494a1.635 1.635 0 0 1 1.635-1.635h14.026a1.635 1.635 0 0 1 1.635 1.635v5.494a1.635 1.635 0 0 1-1.635 1.635zm-12.392-3.269h10.757v-2.225h-10.757z" class="cls-3" transform="translate(-761.712 -938.736)"/>
                </g>
                <g id="그룹_2558" transform="translate(30.977 9.933)">
                    <path id="패스_2998" d="M765 1019.885a32.651 32.651 0 0 1-4.379-65.007v-2.457h3.269v3.919a1.634 1.634 0 0 1-1.492 1.628 29.39 29.39 0 1 0 5.21 0 1.634 1.634 0 0 1-1.492-1.628v-5.453h3.269v3.989a32.651 32.651 0 0 1-4.385 65.009z" class="cls-3" transform="translate(-732.344 -950.889)"/>
                </g>
                <g id="그룹_2561" transform="translate(82.539 14.73)">
                    <g id="그룹_2559" transform="translate(0 2.666)">
                        <path id="사각형_2209" d="M0 0H5.552V3.269H0z" transform="rotate(-49.714 4.57 2.118)"/>
                    </g>
                    <g id="그룹_2560" transform="translate(.859)">
                        <path id="사각형_2210" d="M0 0H3.269V7.658H0z" transform="rotate(-49.71 2.69 1.246)"/>
                    </g>
                </g>
                <g id="그룹_2562" transform="translate(63.629 46.271)">
                    <path id="패스_2999" d="M772.293 1021.509v-3.269a22.917 22.917 0 0 0 22.891-22.892h3.269a26.19 26.19 0 0 1-26.16 26.161z" transform="translate(-772.293 -995.348)"/>
                </g>
                <g id="그룹_2563" transform="translate(64.763 27.831)">
                    <path id="사각형_2211" d="M0 0H15.952V3.27H0z" transform="rotate(-58.048 12.197 6.768)"/>
                </g>
                <g id="그룹_2564" transform="translate(57.228 39.87)">
                    <path id="패스_3000" d="M770.862 1000.319a6.4 6.4 0 1 1 6.4-6.4 6.409 6.409 0 0 1-6.4 6.4zm0-9.533a3.132 3.132 0 1 0 3.131 3.132 3.136 3.136 0 0 0-3.131-3.133z" transform="translate(-764.461 -987.516)"/>
                </g>
            </g>
        </g>
    </g>
</svg>
