<svg id="ico_qna_42px" xmlns="http://www.w3.org/2000/svg" width="42" height="42" viewBox="0 0 42 42">
    <defs>
        <style>
            .cls-2,.cls-3{fill:none;stroke:#03020f}.cls-2{stroke-width:1.2px}
        </style>
    </defs>
    <path id="사각형_2838" data-name="사각형 2838" style="fill:none" d="M0 0h42v42H0z"/>
    <path id="패스_4367" data-name="패스 4367" class="cls-2" d="M1 0h16.265a1 1 0 0 1 1 1v11.885a1 1 0 0 1-1 1H1a1 1 0 0 1-1-1V1a1 1 0 0 1 1-1z" transform="translate(19.834 7.971)"/>
    <g id="그룹_2933" data-name="그룹 2933" transform="translate(-1323.96 -3017.483)">
        <path id="패스_4371" data-name="패스 4371" class="cls-2" d="M-2701.719 3085.115h13.38" transform="translate(4047.956 -55.719)"/>
        <path id="패스_4372" data-name="패스 4372" class="cls-2" d="M-2701.719 3085.115h13.38" transform="translate(4047.956 -52.719)"/>
        <path id="패스_4369" data-name="패스 4369" class="cls-2" d="M-2701.719 3085.115h13.38" transform="translate(4047.956 -49.719)"/>
    </g>
    <path id="패스_4366" data-name="패스 4366" class="cls-3" d="M-2701.719 3085.115h13.38" transform="translate(2719.956 -3066.719)"/>
    <path id="패스_4368" data-name="패스 4368" class="cls-3" d="M-2701.719 3085.115h13.38" transform="translate(2719.956 -3063.719)"/>
    <path id="패스_4365" data-name="패스 4365" d="M1695.054 628.319h-16.434a.916.916 0 0 0-.916.916v12.053a.916.916 0 0 0 .916.916h3.945l-1.776 3 5.035-3h9.229a.916.916 0 0 0 .916-.916v-12.053a.916.916 0 0 0-.915-.916z" transform="translate(-1663.773 -613.792)" style="fill:#fff;stroke:#03020f"/>
    <circle id="타원_223" data-name="타원 223" cx="8.668" cy="8.668" r="8.668" transform="translate(3.901 16.693)" style="fill:#316cbe"/>
    <path id="패스_4370" data-name="패스 4370" class="cls-2" d="M1695.054 628.319h-16.434a.916.916 0 0 0-.916.916v12.053a.916.916 0 0 0 .916.916h3.945l-1.776 3 5.035-3h9.229a.916.916 0 0 0 .916-.916v-12.053a.916.916 0 0 0-.915-.916z" transform="translate(-1663.773 -613.792)"/>
    <path id="패스_4375" data-name="패스 4375" d="M.424-3.365a3.862 3.862 0 0 1 .252-1.159A2.877 2.877 0 0 1 1.3-5.5a2.9 2.9 0 0 1 1.023-.667 3.953 3.953 0 0 1 1.47-.246 3.853 3.853 0 0 1 1.385.233 3.232 3.232 0 0 1 1.029.615 2.719 2.719 0 0 1 .647.867 2.348 2.348 0 0 1 .227 1v.272A2.471 2.471 0 0 1 6.613-2a3.724 3.724 0 0 1-1.45 1.172 2.023 2.023 0 0 0-.712.563 1.152 1.152 0 0 0-.22.693v.842h-1.58V.4A4.491 4.491 0 0 1 2.7-.316a2 2 0 0 1 .181-.576 1.566 1.566 0 0 1 .35-.46 2.445 2.445 0 0 1 .557-.369 3.225 3.225 0 0 0 1.088-.757 1.448 1.448 0 0 0 .4-.99v-.182a1.2 1.2 0 0 0-.1-.466 1.429 1.429 0 0 0-.276-.428 1.3 1.3 0 0 0-.466-.311 1.7 1.7 0 0 0-.647-.117 1.893 1.893 0 0 0-.783.149 1.579 1.579 0 0 0-.55.4 1.679 1.679 0 0 0-.33.589 2.529 2.529 0 0 0-.123.7zm2.123 5.736H4.3v1.722H2.547z" transform="translate(19.312 22.579)" style="fill:#03020f"/>
</svg>
