<svg xmlns="http://www.w3.org/2000/svg" width="170.001" height="170" viewBox="0 0 170.001 170">
    <defs>
        <style>
            .cls-3{fill:none;stroke:#000;stroke-linecap:round;stroke-linejoin:round;stroke-width:3px}
        </style>
    </defs>
    <g id="ico_aidata_170px" transform="translate(-554.999 -3660)">
        <circle id="타원_12" cx="20" cy="20" r="20" fill="#316cbe" transform="translate(587 3755)"/>
        <path id="패스_4012" fill="#0b3496" d="M259.744 342.286a85 85 0 1 1 85-85 85.1 85.1 0 0 1-85 85zm0-166.745a81.745 81.745 0 1 0 81.745 81.744 81.837 81.837 0 0 0-81.745-81.744z" transform="translate(380.255 3487.714)"/>
        <g id="그룹_2579" transform="translate(594.852 3684.181)">
            <path id="패스_4013" d="M6532.522 3359.882c-1.76 3.567-3.642 7.046-6.673 9.748-4.78 4.261-10.575 6.281-16.7 7.49a33.549 33.549 0 0 1-11.127.621c-5.1-.692-8.39-3.619-5.882-9.247.95-2.129.267-4-1.888-5.3-2-1.2-3.287-2.7-1.159-5.015a1.547 1.547 0 0 0-.226-2.217c-1.289-1.346-1.13-2.871-.306-4.44 1.385-2.64 1.154-3.4-1.387-4.722-.624-.326-1.295-.562-1.944-.842-2.474-1.071-3.038-2.652-1.362-4.709 2.863-3.519 5.8-6.988 8.9-10.294 2.563-2.731 3.969-5.517 2.213-9.227a5.927 5.927 0 0 1 .005-4.438c3.792-11.432 10.563-20.32 21.962-25.042a40.3 40.3 0 0 1 17.795-2.8c10.056.543 19.023 3.7 25.842 11.437 5 5.678 7.428 12.463 8.142 20.015 1.088 11.5-2.41 21.966-6.72 32.3a64.749 64.749 0 0 0-4.691 14.761 51.99 51.99 0 0 0-.687 13.087c.384 4.008 1.128 7.959 1.481 11.963" class="cls-3" transform="translate(-6482.91 -3289.375)"/>
            <path id="패스_4014" d="M6488.6 3311.308c4.639-7.572 10.708-13.165 19.746-15.065 12.762-2.686 24.174-.715 33.048 9.552 2.992 3.462 4.336 7.885 5.1 12.469 2.064 12.342-2.3 23.338-7.018 34.237a65.193 65.193 0 0 0-5.146 23.4c-.22 5.3.747 10.63 1.838 15.865" class="cls-3" transform="translate(-6467.362 -3288.689)"/>
            <path id="패스_4015" d="M6544.575 3350.411c-2.914 7.731-9.3 10.952-16.7 12.777-2.271.562-4.629.772-6.947 1.144" class="cls-3" transform="translate(-6501.082 -3282.132)"/>
            <path id="패스_4016" d="M6531.326 3372.562a38.712 38.712 0 0 1 .835 10.579" class="cls-3" transform="translate(-6500.353 -3279.503)"/>
        </g>
    </g>
</svg>
