<svg xmlns="http://www.w3.org/2000/svg" width="120" height="120" viewBox="0 0 120 120">
    <defs>
        <style>
            .cls-4{fill:none}.cls-3{fill:#03020f;stroke:#03020f}.cls-4{stroke:#03020f;stroke-miterlimit:10;stroke-width:2px}
        </style>
    </defs>
    <g id="ico_mou_120px" transform="translate(-529 -3085)">
        <path id="사각형_2785" fill="none" d="M0 0H120V120H0z" transform="translate(529 3085)"/>
        <g id="그룹_3419" transform="translate(13.208 .812)">
            <circle id="타원_355" cx="18" cy="18" r="18" fill="#316cbe" transform="translate(519.792 3148.527)"/>
            <g id="그룹_2915" transform="translate(533.221 3104.188)">
                <g id="그룹_2914">
                    <path id="패스_4308" d="M423.4-514.59a3.157 3.157 0 0 1-2.183-1.545 11.958 11.958 0 0 0-19.46-1.056c-1.239 1.584-2.473 2.727-4.449 3.013a4.678 4.678 0 0 0-.651.175 18.217 18.217 0 0 0-12.957 17.336c-.015 3.376 0 6.751 0 10.127v11.882c0 .68-.04 1.507.9 1.519.9.011.971-.771.988-1.477.007-.27 0-.54 0-.81.008-6.976-.033-13.952.036-20.928.078-7.846 4.684-13.818 12.215-16.019.909-.266 1.438-.327 1.241 1a11.766 11.766 0 0 0 3.109 10.076 12.113 12.113 0 0 0 13.86 2.818 12.092 12.092 0 0 0 7.087-11.979c-.237-2.329-.209-2.408 2-1.617 5.891 2.109 9.812 6.074 11.011 12.34.946 4.945.322 9.962.361 14.946a3.356 3.356 0 0 1-3.462 3.1 3.294 3.294 0 0 1-3.454-3.233c-.11-3.281-.055-6.569-.076-9.853a12.038 12.038 0 0 0-.073-1.614.854.854 0 0 0-.912-.819.894.894 0 0 0-.853.891 9.811 9.811 0 0 0-.056 1.078c0 3.286-.018 6.571.012 9.857a5.337 5.337 0 0 0 5.57 5.611 5.419 5.419 0 0 0 5.27-5.673c.01-3.466.005-6.932 0-10.4.002-9.442-5.818-16.706-15.074-18.746zm-12.442 15.243a10.146 10.146 0 0 1-10.076-10.163 10.266 10.266 0 0 1 10.425-10.29 10.339 10.339 0 0 1 9.973 10.35 10.238 10.238 0 0 1-10.322 10.103z" class="cls-3" transform="translate(-339.695 521.703)"/>
                    <path id="패스_4309" d="M357.283-475.406c-.017-.619-.322-1.065-.977-1.05a.922.922 0 0 0-.9.987c-.024.359-.022.719-.022 1.079v20.389c-.008 8.29-4.19 14.1-12.057 16.739-1.439.484-1.585.334-1.424-1.189a11.742 11.742 0 0 0-4.744-11.256 11.5 11.5 0 0 0-12.115-1.442 12.019 12.019 0 0 0-7.155 12.942c.114.823.161 1.4-.935 1.087-7.149-2.045-12.389-7.776-12.528-15.534-.069-3.824-.035-7.651 0-11.477.023-2.326 1.412-3.768 3.5-3.764 2.068 0 3.441 1.479 3.46 3.8.028 3.33.009 6.661.024 9.991 0 .752-.11 1.734.979 1.731 1.006 0 .908-.938.91-1.649.009-3.421.035-6.841-.006-10.261a5.334 5.334 0 0 0-5.379-5.542 5.367 5.367 0 0 0-5.431 5.632c-.025 3.555-.008 7.111 0 10.667.01 9.339 5.947 16.591 15.155 18.5a2.751 2.751 0 0 1 1.945 1.277 12.037 12.037 0 0 0 20.5.268 3.281 3.281 0 0 1 2.18-1.586c9.235-1.995 15.026-9.176 15.025-18.593v-19.579c-.006-.727.012-1.447-.005-2.167zm-27.427 45.594a10.248 10.248 0 0 1-10.192-10.1 10.244 10.244 0 0 1 10.236-10.342 10.221 10.221 0 0 1 10.2 10.367 10.3 10.3 0 0 1-10.244 10.075z" class="cls-3" transform="translate(-302.467 500.964)"/>
                </g>
                <circle id="타원_353" cx="11.959" cy="11.959" r="11.959" class="cls-4" transform="translate(15.507 49.067)"/>
                <circle id="타원_354" cx="11.959" cy="11.959" r="11.959" class="cls-4" transform="translate(59.319 .222)"/>
            </g>
        </g>
    </g>
</svg>
