<svg xmlns="http://www.w3.org/2000/svg" width="20" height="20" viewBox="0 0 20 20">
    <defs>
        <style>
            .cls-2{fill:#fff}
        </style>
    </defs>
    <g id="ico_global_20px" transform="translate(4663 460)">
        <path id="사각형_1758" fill="none" d="M0 0H20V20H0z" transform="translate(-4663 -460)"/>
        <g id="globalization" transform="translate(-4662 -460.668)">
            <path id="패스_2276" d="M274.216 141.4a18.343 18.343 0 0 1-3.246.37v3.117h3.694a16.9 16.9 0 0 0-.448-3.487z" class="cls-2" transform="translate(-261.489 -134.805)"/>
            <path id="패스_2277" d="M3.693 110.652a17.989 17.989 0 0 1 .48-3.735 11.83 11.83 0 0 1-2.492-.994A8.9 8.9 0 0 0 0 110.652z" class="cls-2" transform="translate(0 -100.575)"/>
            <path id="패스_2278" d="M3.693 270.97H0a8.9 8.9 0 0 0 1.68 4.73 11.831 11.831 0 0 1 2.492-.994 17.986 17.986 0 0 1-.479-3.736z" class="cls-2" transform="translate(0 -259.795)"/>
            <path id="패스_2279" d="M271.956 2.217a2.645 2.645 0 0 0-.985-.549V5.88a17.348 17.348 0 0 0 2.959-.331 10.747 10.747 0 0 0-.594-1.462 5.847 5.847 0 0 0-1.38-1.87z" class="cls-2" transform="translate(-261.489)"/>
            <path id="패스_2280" d="M69.452 406.48a10.979 10.979 0 0 0-2.1.812c.083.09.168.18.256.267a8.939 8.939 0 0 0 3.536 2.183 7.915 7.915 0 0 1-1.017-1.576 11.844 11.844 0 0 1-.675-1.686z" class="cls-2" transform="translate(-64.997 -390.531)"/>
            <path id="패스_2281" d="M157.05 4.087a10.745 10.745 0 0 0-.594 1.462 17.348 17.348 0 0 0 2.959.331V1.668a2.646 2.646 0 0 0-.985.549 5.847 5.847 0 0 0-1.38 1.87z" class="cls-2" transform="translate(-150.981)"/>
            <path id="패스_2282" d="M393.26 270.97a18 18 0 0 1-.479 3.735 11.834 11.834 0 0 1 2.492.994 8.9 8.9 0 0 0 1.68-4.729z" class="cls-2" transform="translate(-379.038 -259.795)"/>
            <path id="패스_2283" d="M338 15.59a10.971 10.971 0 0 0 2.1-.812c-.083-.09-.168-.18-.256-.267a8.94 8.94 0 0 0-3.536-2.183 7.917 7.917 0 0 1 1.017 1.576A11.849 11.849 0 0 1 338 15.59z" class="cls-2" transform="translate(-324.534 -10.288)"/>
            <path id="패스_2284" d="M273.335 391.773a10.743 10.743 0 0 0 .594-1.462 17.339 17.339 0 0 0-2.959-.331v4.212a2.643 2.643 0 0 0 .985-.549 5.845 5.845 0 0 0 1.38-1.87z" class="cls-2" transform="translate(-261.488 -374.608)"/>
            <path id="패스_2285" d="M392.781 106.919a18 18 0 0 1 .479 3.735h3.693a8.9 8.9 0 0 0-1.68-4.729 11.833 11.833 0 0 1-2.492.994z" class="cls-2" transform="translate(-379.038 -100.577)"/>
            <path id="패스_2286" d="M270.97 270.97v3.117a18.335 18.335 0 0 1 3.246.37 16.9 16.9 0 0 0 .448-3.487z" class="cls-2" transform="translate(-261.489 -259.802)"/>
            <path id="패스_2287" d="M139.171 144.889v-3.117a18.343 18.343 0 0 1-3.246-.37 16.906 16.906 0 0 0-.448 3.487z" class="cls-2" transform="translate(-130.737 -134.805)"/>
            <path id="패스_2288" d="M69.452 15.59a11.836 11.836 0 0 1 .678-1.685 7.915 7.915 0 0 1 1.017-1.576 8.94 8.94 0 0 0-3.536 2.183c-.087.087-.172.177-.256.267a10.974 10.974 0 0 0 2.097.811z" class="cls-2" transform="translate(-64.997 -10.288)"/>
            <path id="패스_2289" d="M338 406.48a11.832 11.832 0 0 1-.678 1.685 7.912 7.912 0 0 1-1.017 1.576 8.94 8.94 0 0 0 3.536-2.183q.131-.131.256-.267a10.979 10.979 0 0 0-2.097-.811z" class="cls-2" transform="translate(-324.535 -390.531)"/>
            <path id="패스_2290" d="M139.171 270.97h-3.694a16.907 16.907 0 0 0 .448 3.487 18.336 18.336 0 0 1 3.246-.37z" class="cls-2" transform="translate(-130.737 -259.802)"/>
            <path id="패스_2291" d="M158.43 393.645a2.646 2.646 0 0 0 .985.549v-4.212a17.349 17.349 0 0 0-2.959.331 10.736 10.736 0 0 0 .594 1.462 5.847 5.847 0 0 0 1.38 1.87z" class="cls-2" transform="translate(-150.981 -374.609)"/>
        </g>
    </g>
</svg>
