<svg xmlns="http://www.w3.org/2000/svg" width="140" height="140" viewBox="0 0 140 140">
    <defs>
        <style>
            .cls-5,.cls-6{stroke:none}.cls-6{fill:#03020f}
        </style>
    </defs>
    <g id="ico_img_140px" transform="translate(-513 -1896)">
        <path id="사각형_2520" fill="none" d="M0 0H140V140H0z" transform="translate(513 1896)"/>
        <g id="ico_img_42px" transform="translate(44.302 783.801)">
            <circle id="타원_101" cx="30" cy="30" r="30" fill="#316cbe" transform="translate(470.754 1188.175)"/>
            <g id="그룹_2531" fill="none" transform="translate(500.754 1119.535)">
                <g id="패스_2973" opacity="0.998">
                    <path d="M4.247 0h72.2a4.247 4.247 0 0 1 4.247 4.247v72.2a4.247 4.247 0 0 1-4.247 4.247h-72.2A4.247 4.247 0 0 1 0 76.445V4.247A4.247 4.247 0 0 1 4.247 0z" class="cls-5" transform="translate(0 22.337)"/>
                    <path d="M4.247 3.3c-.522 0-.947.425-.947.947v72.198c0 .522.425.947.947.947h72.198c.522 0 .947-.425.947-.947V4.247c0-.522-.425-.947-.947-.947H4.247m0-3.3h72.198c2.345 0 4.246 1.901 4.246 4.247v72.198c0 2.345-1.9 4.246-4.246 4.246H4.247C1.9 80.691 0 78.791 0 76.445V4.247C0 1.9 1.901 0 4.247 0z" class="cls-6" transform="translate(0 22.337)"/>
                </g>
                <g id="패스_2974">
                    <path d="M4.247 0h72.2a4.247 4.247 0 0 1 4.247 4.247v72.2a4.247 4.247 0 0 1-4.247 4.247h-72.2A4.247 4.247 0 0 1 0 76.445V4.247A4.247 4.247 0 0 1 4.247 0z" class="cls-5" transform="translate(25.429 3.951)"/>
                    <path d="M4.247 3.3c-.522 0-.947.425-.947.947v72.198c0 .522.425.947.947.947h72.198c.522 0 .947-.425.947-.947V4.247c0-.522-.425-.947-.947-.947H4.247m0-3.3h72.198c2.345 0 4.246 1.901 4.246 4.247v72.198c0 2.345-1.9 4.246-4.246 4.246H4.247C1.9 80.691 0 78.791 0 76.445V4.247C0 1.9 1.901 0 4.247 0z" class="cls-6" transform="translate(25.429 3.951)"/>
                </g>
            </g>
        </g>
    </g>
</svg>
