<svg xmlns="http://www.w3.org/2000/svg" width="20" height="20" viewBox="0 0 20 20">
    <defs>
        <style>
            .cls-2{fill:#fff}
        </style>
    </defs>
    <g id="ico_AI_data_20px_" transform="translate(-157 -152)">
        <path id="사각형_2343" fill="none" d="M0 0H20V20H0z" transform="translate(157 152)"/>
        <g id="그룹_2653" transform="translate(-5404.188 -2916.132)">
            <g id="그룹_2652" transform="translate(5564.247 3072.145)">
                <path id="패스_4134" d="M5604.38 3072.424c.4.1.8.163 1.188.3a3.849 3.849 0 0 1 2.3 2.159 4.081 4.081 0 0 1-1.014 4.719 8.4 8.4 0 0 0-.832.838c-.137.163-.21.162-.33.036-.293-.309-.595-.609-.9-.907a1.107 1.107 0 0 0-1.89.7c-.005.141-.06.209-.2.2a.869.869 0 0 0-.711.311q-1.4 1.417-2.82 2.822a.673.673 0 0 1-1.042.063.772.772 0 0 1-.042-1.152c.534-.544 1.078-1.078 1.618-1.616.428-.427.858-.854 1.284-1.283.118-.118.251-.249.076-.416s-.3-.044-.42.079q-1.458 1.458-2.918 2.912a.766.766 0 0 1-1.293-.758.943.943 0 0 1 .218-.331q1.4-1.418 2.813-2.827c.058-.058.12-.113.172-.176a.224.224 0 0 0-.013-.339.212.212 0 0 0-.319.005c-.171.167-.343.332-.512.5l-2.418 2.428a.815.815 0 0 1-1.032.2.742.742 0 0 1-.209-1.135c1.323-1.345 2.66-2.677 4.008-4.03.095.083.174.146.246.217.318.315.63.636.951.949a1.488 1.488 0 0 0 2.1-.023 1.5 1.5 0 0 0 .005-2.084c-.328-.337-.653-.677-1-1-.165-.152-.142-.238.015-.367a4.164 4.164 0 0 1 2.34-.974c.042 0 .253-.027.312-.037z" class="cls-2" transform="translate(-5593.626 -3072.417)"/>
                <path id="패스_4135" d="M5569.763 3072.722c.408.086.824.135 1.22.259a3.83 3.83 0 0 1 1.617 1.048q.667.693 1.363 1.359a1.04 1.04 0 0 1 .016 1.451 1.023 1.023 0 0 1-1.481-.058c-.422-.433-.857-.852-1.278-1.286-.135-.138-.216-.11-.341.016q-2 2-4.012 4c-.052.052-.108.1-.173.161a3.071 3.071 0 0 1-.81-1.153 4.01 4.01 0 0 1 .456-4.132 4.52 4.52 0 0 1 2.85-1.632c.05-.011.1-.02.157-.029h.035z" class="cls-2" transform="translate(-5565.514 -3072.708)"/>
                <path id="패스_4136" d="M5729.554 3290.271a.657.657 0 0 1-.347.63.547.547 0 0 1-.652-.062c-.357-.327-.7-.669-1.03-1.025a.58.58 0 0 1 .06-.809.569.569 0 0 1 .8-.06c.362.332.7.686 1.041 1.044a.794.794 0 0 1 .128.282z" class="cls-2" transform="translate(-5720.102 -3279.066)"/>
                <path id="패스_4137" d="M5755.255 3260.923a2.017 2.017 0 0 1 .39.226c.306.284.6.583.889.884a.618.618 0 0 1 .031.884.594.594 0 0 1-.864.037c-.349-.313-.679-.648-1-.994a.542.542 0 0 1-.06-.647.78.78 0 0 1 .614-.39z" class="cls-2" transform="translate(-5746.059 -3252.439)"/>
                <path id="패스_4138" d="M5701.554 3318.386a1.65 1.65 0 0 1-.381-.2c-.326-.3-.64-.623-.947-.947a.567.567 0 0 1 .023-.836.585.585 0 0 1 .841-.051c.337.313.667.637.98.973a.533.533 0 0 1 .094.659.746.746 0 0 1-.61.402z" class="cls-2" transform="translate(-5693.998 -3305.222)"/>
                <path id="패스_4139" d="M5784.274 3235.6a.642.642 0 0 1-.341.643.557.557 0 0 1-.651-.057c-.349-.323-.693-.654-1.012-1.006a.6.6 0 0 1 .076-.861.552.552 0 0 1 .818.011c.315.295.625.6.918.914a1.371 1.371 0 0 1 .192.356z" class="cls-2" transform="translate(-5772.372 -3226.866)"/>
            </g>
            <path id="패스_4140" d="M5565.425 3079.108s-3.039-3.446.4-6.14a4.121 4.121 0 0 1 5.5.5" class="cls-2"/>
            <path id="패스_4141" d="M5739.6 3073.235a4.077 4.077 0 0 1 5.9.605" class="cls-2" transform="translate(-167.523 -.08)"/>
        </g>
    </g>
</svg>
