<svg xmlns="http://www.w3.org/2000/svg" width="120" height="120" viewBox="0 0 120 120">
    <defs>
        <style>
            .cls-3{fill:#03020f}
        </style>
    </defs>
    <g id="ico_evaluation_120px" transform="translate(-1267 -2915)">
        <path id="사각형_2784" fill="none" d="M0 0H120V120H0z" transform="translate(1267 2915)"/>
        <g id="그룹_3415" transform="translate(37 -.71)">
            <circle id="타원_352" cx="20" cy="20" r="20" fill="#316cbe" transform="translate(1239 2983)"/>
            <g id="그룹_2912" transform="translate(-252.584 124.656)">
                <path id="패스_4305" d="M0 16.893a16.9 16.9 0 0 0 2.21 8.359 1.609 1.609 0 1 0 2.795-1.594 13.668 13.668 0 1 1 5.2 5.164 1.609 1.609 0 1 0-1.577 2.8A16.882 16.882 0 0 0 27.6 29.949l10.844 10.77a1.609 1.609 0 0 0 2.268-2.283L29.883 27.681A16.89 16.89 0 1 0 0 16.893zm6.084-.684a1.609 1.609 0 0 0 0 1.85c.057.08.251.355.371.507a22.647 22.647 0 0 0 3.555 3.665 11.033 11.033 0 0 0 6.883 2.706 11.033 11.033 0 0 0 6.882-2.706 22.625 22.625 0 0 0 3.555-3.665c.121-.152.315-.426.371-.507a1.609 1.609 0 0 0 0-1.85c-.057-.08-.25-.355-.371-.507a22.628 22.628 0 0 0-3.555-3.665 11.032 11.032 0 0 0-6.882-2.706 11.033 11.033 0 0 0-6.883 2.706A22.622 22.622 0 0 0 6.456 15.7c-.121.154-.314.429-.371.509zm3.356.925c2.56-3.043 5.06-4.585 7.454-4.585s4.894 1.542 7.452 4.585c-2.558 3.043-5.063 4.585-7.452 4.585S12 20.178 9.441 17.134zm7.372-3.057a3.057 3.057 0 1 1-3.057 3.057 3.057 3.057 0 0 1 3.058-3.057z" transform="translate(1552.681 2842.448)"/>
                <rect id="사각형_2525" width="41" height="4" class="cls-3" rx="2" transform="translate(1529.3 2820.054)"/>
                <path id="패스_4296" fill="none" stroke="#03020f" stroke-linecap="round" stroke-linejoin="round" stroke-width="3.3px" d="M246.955 327.372H236.87a12.748 12.748 0 0 1-12.748-12.748v-54.4a12.749 12.749 0 0 1 12.748-12.744h35.267a12.748 12.748 0 0 1 12.748 12.748v19.337" transform="translate(1295.178 2555.574)"/>
                <rect id="사각형_2526" width="41" height="4" class="cls-3" rx="2" transform="translate(1529.182 2831.251)"/>
                <rect id="사각형_2527" width="26" height="4" class="cls-3" rx="2" transform="translate(1529.3 2842.448)"/>
            </g>
        </g>
    </g>
</svg>
