<svg id="Layer_1" data-name="Layer 1" xmlns="http://www.w3.org/2000/svg" viewBox="0 0 170 170"><defs><style>.cls-1{fill:#253d8e;}.cls-2{fill:#386cb5;}.cls-3,.cls-4,.cls-6,.cls-7{fill:none;}.cls-4,.cls-6,.cls-7{stroke:#0b0b13;}.cls-4{stroke-width:3px;}.cls-5{fill:#fff;}.cls-6{stroke-miterlimit:4;stroke-width:3px;}.cls-7{stroke-miterlimit:4;stroke-width:3px;}.cls-8{fill:#0b0b13;}</style></defs><g id="ico_accurate_170px-2" data-name="ico accurate 170px-2"><g id="ico_accurate_170px-3" data-name="ico accurate 170px-3"><path id="패스_2995" data-name="패스 2995" class="cls-1" d="M85.18,169.91a85,85,0,1,1,85-85A85,85,0,0,1,85.18,169.91Zm0-166.74a81.75,81.75,0,1,0,81.74,81.75h0A81.84,81.84,0,0,0,85.18,3.16Z"/><g id="그룹_2597" data-name="그룹 2597"><g id="그룹_2554" data-name="그룹 2554"><circle id="타원_93" data-name="타원 93" class="cls-2" cx="53.34" cy="94.74" r="21"/></g><g id="그룹_2569" data-name="그룹 2569"><g id="그룹_2564" data-name="그룹 2564"><path id="패스_3000" data-name="패스 3000" d="M89.34,97.84a6.4,6.4,0,1,1,6.4-6.4A6.41,6.41,0,0,1,89.34,97.84Zm0-9.54a3.14,3.14,0,1,0,3.14,3.14h0a3.15,3.15,0,0,0-3.14-3.13Z"/></g><g id="타원_94" data-name="타원 94"><circle class="cls-3" cx="89.84" cy="89.24" r="29.5"/><circle class="cls-4" cx="89.84" cy="89.24" r="28"/></g><g id="타원_97" data-name="타원 97"><circle class="cls-3" cx="88.84" cy="89.24" r="41.5"/><circle class="cls-4" cx="88.84" cy="89.24" r="40"/></g><g id="타원_95" data-name="타원 95"><circle class="cls-3" cx="89.34" cy="90.74" r="16"/><circle class="cls-4" cx="89.34" cy="90.74" r="14.5"/></g><rect id="사각형_2212" data-name="사각형 2212" class="cls-5" x="87.79" y="61.36" width="45.37" height="6" transform="translate(-8.27 111.76) rotate(-51.98)"/><g id="그룹_2568" data-name="그룹 2568"><path id="패스_3006" data-name="패스 3006" class="cls-6" d="M88.94,91.47l34.17-42.62"/><path id="패스_3007" data-name="패스 3007" class="cls-7" d="M129.57,32.16l-8,9.24L122,47l2.68,2.1,5.44-.24L138,39.62,131.87,38Z"/><circle id="타원_96" data-name="타원 96" class="cls-8" cx="89.5" cy="91.11" r="4.5"/></g></g></g></g></g></svg>