<svg xmlns="http://www.w3.org/2000/svg" width="140" height="140" viewBox="0 0 140 140">
    <g>
        <path fill="none" d="M0 0H140V140H0z" transform="translate(-890 -1883) translate(890 1883)"/>
        <g transform="translate(-890 -1883) translate(901.54 1892.54)">
            <circle cx="30" cy="30" r="30" fill="#316cbe" transform="translate(-5.54 61.46)"/>
            <g fill="none">
                <path d="M45.095 13.04a10 10 0 0 1 16.81 0l35.157 54.542A10 10 0 0 1 88.657 83H18.343a10 10 0 0 1-8.405-15.418z" transform="rotate(90 61.5 60.96)"/>
                <path fill="#03020f" d="M53.5 11.758c-1.097 0-2.181.265-3.136.766-1.014.534-1.854 1.309-2.495 2.304L12.712 69.37c-1.35 2.094-1.444 4.65-.251 6.837 1.192 2.187 3.391 3.493 5.882 3.493h70.314c2.49 0 4.69-1.306 5.882-3.493 1.193-2.187 1.099-4.743-.25-6.837L59.13 14.828c-.64-.995-1.48-1.77-2.495-2.304-.955-.501-2.039-.766-3.136-.766m0-3.3c3.218 0 6.436 1.527 8.405 4.582l35.157 54.542C101.352 74.237 96.574 83 88.657 83H18.343c-7.917 0-12.694-8.763-8.405-15.418L45.095 13.04c1.969-3.055 5.187-4.582 8.405-4.582z" transform="rotate(90 61.5 60.96)"/>
            </g>
        </g>
    </g>
</svg>
