<svg xmlns="http://www.w3.org/2000/svg" width="42" height="42" viewBox="0 0 42 42">
    <defs>
        <style>
            .cls-5,.cls-6{stroke:none}.cls-6{fill:#03020f}
        </style>
    </defs>
    <g id="ico_img_42px" transform="translate(-461 -1113)">
        <path id="사각형_2225" fill="none" d="M0 0H42V42H0z" transform="translate(461 1113)"/>
        <g id="ico_img_42px-2" transform="translate(1 -1.535)">
            <circle id="타원_101" cx="10" cy="10" r="10" fill="#316cbe" transform="translate(460 1132)"/>
            <g id="그룹_2531" fill="none" transform="translate(-13 -4)">
                <g id="패스_2973" opacity="0.998">
                    <path d="M1.206 0h20.5a1.206 1.206 0 0 1 1.206 1.206v20.5a1.206 1.206 0 0 1-1.206 1.206h-20.5A1.206 1.206 0 0 1 0 21.708V1.206A1.206 1.206 0 0 1 1.206 0z" class="cls-5" transform="translate(483.892 1128.756)"/>
                    <path d="M1.5 1.5v19.914h19.914V1.5H1.5M1.206 0h20.502c.666 0 1.206.54 1.206 1.206v20.502c0 .666-.54 1.206-1.206 1.206H1.206C.54 22.914 0 22.374 0 21.708V1.206C0 .54.54 0 1.206 0z" class="cls-6" transform="translate(483.892 1128.756)"/>
                </g>
                <g id="패스_2974">
                    <path d="M1.206 0h20.5a1.206 1.206 0 0 1 1.206 1.206v20.5a1.206 1.206 0 0 1-1.206 1.206h-20.5A1.206 1.206 0 0 1 0 21.708V1.206A1.206 1.206 0 0 1 1.206 0z" class="cls-5" transform="translate(491.113 1123.535)"/>
                    <path d="M1.5 1.5v19.914h19.914V1.5H1.5M1.206 0h20.502c.666 0 1.206.54 1.206 1.206v20.502c0 .666-.54 1.206-1.206 1.206H1.206C.54 22.914 0 22.374 0 21.708V1.206C0 .54.54 0 1.206 0z" class="cls-6" transform="translate(491.113 1123.535)"/>
                </g>
            </g>
        </g>
    </g>
</svg>
