<svg xmlns="http://www.w3.org/2000/svg" width="170.001" height="170" viewBox="0 0 170.001 170">
    <defs>
        <style>
            .cls-3{fill:none;stroke:#03020f;stroke-width:3px}
        </style>
    </defs>
    <g id="ico_datadesign_170px" transform="translate(-1176.999 -3775)">
        <g id="ico_datadesign_170px-2" transform="translate(0 105)">
            <circle id="타원_102" cx="20" cy="20" r="20" fill="#316cbe" transform="translate(1203 3757)"/>
            <path id="패스_4017" fill="#0b3496" d="M259.744 342.286a85 85 0 1 1 85-85 85.1 85.1 0 0 1-85 85zm0-166.745a81.745 81.745 0 1 0 81.745 81.744 81.837 81.837 0 0 0-81.745-81.744z" transform="translate(1002.255 3497.714)"/>
            <path id="패스_4019" d="M6529.938 3564.075c.031-.032.061-.065.091-.1a44.879 44.879 0 0 0 12.692-31.322h-45.046l31.783 30.942z" class="cls-3" transform="translate(-5228.756 223.985)"/>
            <path id="패스_4020" d="M6496.545 3490.868h-.1v45.045h45.045a45.044 45.044 0 0 0-44.945-45.045z" class="cls-3" transform="translate(-5229.084 209.871)"/>
            <path id="패스_4021" fill="none" stroke="#03020f" stroke-miterlimit="10" stroke-width="3px" d="M6532.563 3573.165l-.48-.481-31.95-31.1.105-45.117c.034 0-.036-.16 0-.16v-.089a45.279 45.279 0 1 0 32.43 76.863l-.013-.013z" transform="translate(-5241.602 216.786)"/>
        </g>
    </g>
</svg>
