<svg id="ico_qna" xmlns="http://www.w3.org/2000/svg" width="122" height="66" viewBox="0 0 122 66">
    <defs>
        <clipPath id="clip-path">
            <circle id="타원_103" data-name="타원 103" class="cls-1" cx="13.683" cy="13.683" r="13.683"/>
        </clipPath>
        <style>
            .cls-1{fill:#fff}.cls-7{fill:none}.cls-5{fill:#a9a8e2}.cls-7{stroke:#fff;stroke-linecap:round;opacity:.946}.cls-10{fill:#3ba799}.cls-11{fill:#ac2438}
        </style>
    </defs>
    <path id="사각형_2807" data-name="사각형 2807" style="fill:none" d="M0 0h122v66H0z"/>
    <g id="그룹_2882" data-name="그룹 2882" transform="translate(-1378.869 -763.335)">
        <g id="그룹_2871" data-name="그룹 2871" transform="translate(1422.652 764.335)">
            <path id="패스_4270" data-name="패스 4270" d="M1135.533 165.515a2.256 2.256 0 1 1 2.256 2.256 2.259 2.259 0 0 1-2.256-2.256zm.227 0a2.029 2.029 0 1 0 2.029-2.029 2.031 2.031 0 0 0-2.029 2.029z" transform="translate(-1135.533 -163.259)" style="fill:#6568a3;stroke:#6b6aa4"/>
        </g>
        <g id="마스크_그룹_2" data-name="마스크 그룹 2" transform="translate(1391.548 768.806)" style="clip-path:url(#clip-path)">
            <g id="그룹_2872" data-name="그룹 2872" transform="translate(-12.952 -4.789)">
                <path id="패스_4271" data-name="패스 4271" class="cls-5" d="m2317.969 705.434 23.787-26.88-.1.051a19.363 19.363 0 0 0-2.312 1.474l-21.74 24.567a6.035 6.035 0 0 0 .315.7c.019.031.034.06.05.088z" transform="translate(-2316.24 -675.89)"/>
                <path id="패스_4284" data-name="패스 4284" class="cls-5" d="m2317.969 705.434 23.787-26.88-.1.051a19.363 19.363 0 0 0-2.312 1.474l-21.74 24.567a6.035 6.035 0 0 0 .315.7c.019.031.034.06.05.088z" transform="translate(-2317.608 -676.574)"/>
                <path id="패스_4272" data-name="패스 4272" class="cls-5" d="m2256.477 683.717 26.829-30.318q-.758.223-1.5.5l-25.882 29.248a6.425 6.425 0 0 0 .553.57z" transform="translate(-2253.442 -652.508)"/>
                <path id="패스_4273" data-name="패스 4273" class="cls-5" d="m2208.109 675.359 28.52-32.228q-.618.079-1.232.2l-27.991 31.63q.339.212.703.398z" transform="translate(-2203.345 -642.964)"/>
                <path id="패스_4274" data-name="패스 4274" class="cls-5" d="m2166.752 673.94 29.358-33.176q-.532-.01-1.067.009l-29.125 32.912q.41.142.834.255z" transform="translate(-2159.904 -640.76)"/>
                <path id="패스_4275" data-name="패스 4275" class="cls-5" d="m2130.417 675.8 29.523-33.362q-.468-.078-.942-.131l-29.533 33.373c.314.052.635.091.952.12z" transform="translate(-2121.163 -642.2)"/>
                <path id="패스_4276" data-name="패스 4276" class="cls-5" d="m2098.147 681.715 29.083-32.865q-.415-.137-.839-.248l-29.32 33.133q.542.004 1.076-.02z" transform="translate(-2086.17 -648.049)"/>
                <path id="패스_4277" data-name="패스 4277" class="cls-5" d="m2069.3 691.325 28.224-31.894q-.368-.188-.747-.352l-28.562 32.276q.551-.022 1.085-.03z" transform="translate(-2054.43 -657.788)"/>
                <path id="패스_4278" data-name="패스 4278" class="cls-5" d="m2043.612 704.623 27.305-30.855a11.019 11.019 0 0 0-.663-.448l-27.654 31.256q.512.016 1.012.047z" transform="translate(-2026.018 -671.025)"/>
                <path id="패스_4279" data-name="패스 4279" class="cls-5" d="m2020.752 721.306 26.367-29.8c-.193-.181-.39-.357-.591-.528l-26.724 30.2q.48.058.948.128z" transform="translate(-2000.614 -687.443)"/>
                <path id="패스_4282" data-name="패스 4282" class="cls-5" d="m2020.752 721.306 26.367-29.8c-.193-.181-.39-.357-.591-.528l-26.724 30.2q.48.058.948.128z" transform="translate(-1999.246 -686.074)"/>
                <path id="패스_4283" data-name="패스 4283" class="cls-5" d="m2020.752 721.306 26.367-29.8c-.193-.181-.39-.357-.591-.528l-26.724 30.2q.48.058.948.128z" transform="translate(-1997.877 -684.712)"/>
                <path id="패스_4280" data-name="패스 4280" class="cls-5" d="m1963.387 785.548 23.706-26.788q-.234-.333-.472-.664l-24.021 27.145q.392.148.787.307z" transform="translate(-1936.556 -749.826)"/>
                <path id="패스_4281" data-name="패스 4281" class="cls-5" d="m1946.027 809.527 22.92-25.9-.351-.508-.113-.164-23.212 26.23q.376.165.756.342z" transform="translate(-1917.189 -772.933)"/>
            </g>
        </g>
        <g id="그룹_2873" data-name="그룹 2873" transform="translate(1379.869 811.173)">
            <path id="패스_4285" data-name="패스 4285" class="cls-5" d="M2844.809 408.53a4.035 4.035 0 1 1 4.035 4.035 4.04 4.04 0 0 1-4.035-4.035zm1.118 0a2.917 2.917 0 1 0 2.917-2.917 2.92 2.92 0 0 0-2.917 2.917z" transform="translate(-2844.809 -404.495)"/>
        </g>
        <g id="그룹_2874" data-name="그룹 2874" transform="translate(1495.171 794.119)">
            <path id="패스_4270-2" data-name="패스 4270" d="M1135.533 165.515a2.256 2.256 0 1 1 2.256 2.256 2.259 2.259 0 0 1-2.256-2.256zm.227 0a2.029 2.029 0 1 0 2.029-2.029 2.031 2.031 0 0 0-2.029 2.029z" transform="translate(-1135.533 -163.259)" style="stroke:#a9a8e2;fill:#a9a8e2"/>
        </g>
        <g id="그룹_2875" data-name="그룹 2875" transform="translate(1488.012 812.909)">
            <path id="패스_4286" data-name="패스 4286" class="cls-5" d="M119.456 916.073a.627.627 0 1 0 .627-.627.627.627 0 0 0-.627.627z" transform="translate(-114.586 -915.446)"/>
            <circle id="타원_104" data-name="타원 104" class="cls-5" cx=".627" cy=".627" transform="rotate(-165.7 3.254 1.85)" r=".627"/>
            <path id="패스_4287" data-name="패스 4287" class="cls-5" d="M119.456 1054.257a.627.627 0 1 0 .627-.627.627.627 0 0 0-.627.627z" transform="translate(-114.586 -1047.514)"/>
            <circle id="타원_105" data-name="타원 105" class="cls-5" cx=".627" cy=".627" transform="translate(4.87 9.174)" r=".627"/>
            <circle id="타원_106" data-name="타원 106" class="cls-5" cx=".627" cy=".627" transform="rotate(-176.796 3.233 6.675)" r=".627"/>
            <path id="패스_4288" data-name="패스 4288" class="cls-5" d="M174.185 916.073a.627.627 0 1 0 .627-.627.627.627 0 0 0-.627.627z" transform="translate(-171.737 -915.446)"/>
            <circle id="타원_107" data-name="타원 107" class="cls-5" cx=".627" cy=".627" transform="rotate(-172.106 1.957 2.071)" r=".627"/>
            <path id="패스_4289" data-name="패스 4289" class="cls-5" d="M174.185 1054.257a.627.627 0 1 0 .627-.627.627.627 0 0 0-.627.627z" transform="translate(-171.737 -1047.514)"/>
            <circle id="타원_108" data-name="타원 108" class="cls-5" cx=".627" cy=".627" transform="translate(2.448 9.174)" r=".627"/>
            <circle id="타원_109" data-name="타원 109" class="cls-5" cx=".627" cy=".627" transform="rotate(-178.852 1.912 6.731)" r=".627"/>
            <path id="패스_4290" data-name="패스 4290" class="cls-5" d="M229.489 1054.257a.627.627 0 1 0 .627-.627.627.627 0 0 0-.627.627z" transform="translate(-229.489 -1047.514)"/>
            <path id="패스_4291" data-name="패스 4291" class="cls-5" d="M229.489 1123.35a.627.627 0 1 0 .627-.627.627.627 0 0 0-.627.627z" transform="translate(-229.489 -1113.549)"/>
            <path id="패스_4292" data-name="패스 4292" class="cls-5" d="M229.489 1192.441a.627.627 0 1 0 .627-.627.627.627 0 0 0-.627.627z" transform="translate(-229.489 -1179.582)"/>
        </g>
        <g id="그룹_2880" data-name="그룹 2880" transform="translate(1420.83 774.477)">
            <path id="패스_4297" data-name="패스 4297" class="cls-7" d="M-3854.3 780.5v4.174" transform="translate(3858.736 -780.5)"/>
            <path id="패스_4298" data-name="패스 4298" class="cls-7" d="M.393 0 0 2.907" transform="rotate(25.97 1.282 19.163)"/>
            <path id="패스_4299" data-name="패스 4299" class="cls-7" d="M.393 2.906 0 0" transform="rotate(154.03 .354 2.18)"/>
        </g>
        <g id="그룹_2881" data-name="그룹 2881" transform="translate(1404.547 765.385)">
            <path id="합치기_1" data-name="합치기 1" d="M8.189 37.627H6a6 6 0 0 1-6-6V6a6 6 0 0 1 6-6h30.417a6 6 0 0 1 6 6v25.628a6 6 0 0 1-6 6h-20.6l-.377 10.747z" transform="translate(0 15.051)" style="fill:#ea4059"/>
            <path id="합치기_2" data-name="합치기 2" d="M22.994 37.627H6a6 6 0 0 1-6-6V6a6 6 0 0 1 6-6h33.838a6 6 0 0 1 6 6v25.628a6 6 0 0 1-6 6h-8.81l-7.9 11.435z" transform="translate(34.207)" style="fill:#32cdb9"/>
            <g id="그룹_2878" data-name="그룹 2878" transform="translate(51.607 6.809)">
                <path id="패스_4293" data-name="패스 4293" class="cls-10" d="M1630.851 533.716a6.1 6.1 0 0 1 .465-2.2 7.391 7.391 0 0 1 3.982-4.156 10.926 10.926 0 0 1 9.622.289 6.84 6.84 0 0 1 3.231 3.4 5.591 5.591 0 0 1-1.107 6.5c-.956 1.022-2.034 1.93-3.06 2.886q-.5.465-1.012.913a3.435 3.435 0 0 0-1.164 2.658c-.006.316-.017.633-.016.949 0 .146-.042.217-.2.216-1.344-.006-2.689-.007-4.033-.01a.264.264 0 0 1-.071-.027c0-.711-.034-1.43.007-2.145a6.186 6.186 0 0 1 2.18-4.366c1.044-.937 2.12-1.839 3.182-2.756a3.109 3.109 0 0 0-.563-5.252 4.729 4.729 0 0 0-6.862 2.861c-.082.259-.106.631-.285.74s-.53-.021-.8-.055l-3.236-.4c-.081-.008-.156-.025-.26-.045z" transform="translate(-1630.851 -526.386)"/>
                <path id="패스_4294" data-name="패스 4294" class="cls-10" d="M1691.444 703.514h-4.731v-4.731h4.731z" transform="translate(-1680.085 -678.328)"/>
            </g>
            <g id="그룹_2879" data-name="그룹 2879" transform="translate(21.208 22.849)">
                <path id="패스_4295" data-name="패스 4295" class="cls-11" d="m1691.218 626.14-.875-17.317h6.052c0 .2.008.4 0 .594-.259 5.357-.528 10.714-.767 16.071-.024.546-.207.678-.723.663-1.205-.036-2.405-.011-3.687-.011z" transform="translate(-1689.952 -608.823)"/>
                <path id="패스_4296" data-name="패스 4296" class="cls-11" d="M1688.59 698.691a3.43 3.43 0 1 1 6.858.1 3.281 3.281 0 0 1-3.414 3.4 3.318 3.318 0 0 1-3.444-3.5z" transform="translate(-1688.59 -675.973)"/>
            </g>
            <g id="그룹_2876" data-name="그룹 2876" transform="translate(48.186 6.809)">
                <path id="패스_4293-2" data-name="패스 4293" class="cls-1" d="M1630.851 533.716a6.1 6.1 0 0 1 .465-2.2 7.391 7.391 0 0 1 3.982-4.156 10.926 10.926 0 0 1 9.622.289 6.84 6.84 0 0 1 3.231 3.4 5.591 5.591 0 0 1-1.107 6.5c-.956 1.022-2.034 1.93-3.06 2.886q-.5.465-1.012.913a3.435 3.435 0 0 0-1.164 2.658c-.006.316-.017.633-.016.949 0 .146-.042.217-.2.216-1.344-.006-2.689-.007-4.033-.01a.264.264 0 0 1-.071-.027c0-.711-.034-1.43.007-2.145a6.186 6.186 0 0 1 2.18-4.366c1.044-.937 2.12-1.839 3.182-2.756a3.109 3.109 0 0 0-.563-5.252 4.729 4.729 0 0 0-6.862 2.861c-.082.259-.106.631-.285.74s-.53-.021-.8-.055l-3.236-.4c-.081-.008-.156-.025-.26-.045z" transform="translate(-1630.851 -526.386)"/>
                <path id="패스_4294-2" data-name="패스 4294" class="cls-1" d="M1691.444 703.514h-4.731v-4.731h4.731z" transform="translate(-1680.085 -678.328)"/>
            </g>
            <g id="그룹_2877" data-name="그룹 2877" transform="translate(16.932 22.849)">
                <path id="패스_4295-2" data-name="패스 4295" class="cls-1" d="m1691.218 626.14-.875-17.317h6.052c0 .2.008.4 0 .594-.259 5.357-.528 10.714-.767 16.071-.024.546-.207.678-.723.663-1.205-.036-2.405-.011-3.687-.011z" transform="translate(-1689.952 -608.823)"/>
                <path id="패스_4296-2" data-name="패스 4296" class="cls-1" d="M1688.59 698.691a3.43 3.43 0 1 1 6.858.1 3.281 3.281 0 0 1-3.414 3.4 3.318 3.318 0 0 1-3.444-3.5z" transform="translate(-1688.59 -675.973)"/>
            </g>
        </g>
    </g>
</svg>
