<svg xmlns="http://www.w3.org/2000/svg" width="20" height="20" viewBox="0 0 20 20">
    <path fill="#1054b2" d="M1070.22 687.4a.372.372 0 0 1-.385-.023 2.976 2.976 0 0 1-.637-.5c-1.133-1.356-2.24-2.736-3.359-4.105-.406-.5-.816-.99-1.235-1.474a2.172 2.172 0 0 1-.208-2.849q.389-.594.782-1.185c.336-.5.673-.562 1.089-.128.431.449.8.961 1.224 1.421.681.745 1.392 1.459 2.067 2.21.25.278.41.288.661 0 1.966-2.211 3.93-4.424 5.92-6.609 1.732-1.9 3.5-3.769 5.252-5.647a4.229 4.229 0 0 1 2.1-1.065.373.373 0 0 1 .062-.011.408.408 0 0 1 .346.624c-.492.757-1.026 1.483-1.524 2.236q-4.982 7.535-9.96 15.073a7.643 7.643 0 0 1-1.133 1.386 4.839 4.839 0 0 1-1.062.646z" transform="translate(-1063.96 -667.439)"/>
</svg>
