<svg xmlns="http://www.w3.org/2000/svg" width="20" height="20" viewBox="0 0 20 20">
    <defs>
        <style>
            .cls-2{fill:#fff}
        </style>
    </defs>
    <g id="ico_DTstore_20px" transform="translate(-160 -322)">
        <path id="사각형_2472" fill="none" d="M0 0H20V20H0z" transform="translate(160 322)"/>
        <g id="그룹_3458" transform="translate(-376.714 265.945)">
            <g id="그룹_3457" transform="translate(539.714 61.055)">
                <g id="그룹_3456">
                    <g id="그룹_3455">
                        <path id="패스_4794" d="M554.5 63.283l-2.149-2.149a.269.269 0 0 0-.19-.079h-5.373a.269.269 0 0 0 0 .537h5.262l1.612 1.612h-13.031l1.612-1.612h3.113a.269.269 0 0 0 0-.537h-3.224a.269.269 0 0 0-.19.079l-2.149 2.149a.268.268 0 0 0-.079.19v1.075a2.047 2.047 0 0 0 .358 1.159v5.647a.269.269 0 0 0 .269.269h1.791a.269.269 0 1 0 0-.537h-1.522v-4.841a3.476 3.476 0 0 1 4.746.362 2.059 2.059 0 0 1 3.582 0 2.059 2.059 0 0 1 3.582 0 2.047 2.047 0 0 0 1.164-.362v4.839h-.9v-3.671a.269.269 0 0 0-.269-.269h-4.3a.269.269 0 0 0-.269.269v3.672h-1.516a.269.269 0 1 0 0 .537h7.522a.269.269 0 0 0 .269-.269v-5.646a2.048 2.048 0 0 0 .358-1.159v-1.075a.268.268 0 0 0-.079-.19zm-4.4 7.8h-1.61v-3.4h1.61zm2.149 0h-1.612v-3.4h1.612zm1.791-6.537a1.522 1.522 0 0 1-3.045 0 .269.269 0 1 0-.537 0 1.522 1.522 0 1 1-3.045 0 .269.269 0 0 0-.537 0 1.522 1.522 0 1 1-3.045 0 .269.269 0 1 0-.537 0 1.522 1.522 0 0 1-3.045 0v-.806h13.791v.806z" class="cls-2" transform="translate(-539.714 -61.055)"/>
                        <path id="패스_4795" d="M651.2 394.164a.448.448 0 1 0 .448.448.448.448 0 0 0-.448-.448z" class="cls-2" transform="translate(-647.526 -384.493)"/>
                        <path id="패스_4796" d="M712.885 394.164a.448.448 0 1 0 .448.448.448.448 0 0 0-.448-.448z" class="cls-2" transform="translate(-707.422 -384.493)"/>
                        <path id="패스_4797" d="M606.18 308.264a.268.268 0 0 0-.212-.1h-2.507a.269.269 0 1 0 0 .537h2.163l-.224.9h-2.436l-.315-1.575a.269.269 0 0 0-.263-.216h-.716a.269.269 0 0 0 0 .537h.5l.315 1.575a.268.268 0 0 0 .263.216h2.866a.269.269 0 0 0 .261-.2l.358-1.433a.269.269 0 0 0-.053-.241z" class="cls-2" transform="translate(-599.61 -300.638)"/>
                    </g>
                </g>
            </g>
            <path id="패스_4798" d="M550 150.145l.347 1.918 1.18.592 1.444-.283.847-1.274.014-1.03z" class="cls-2" transform="translate(-9.991 -86.428)"/>
            <path id="패스_4799" d="M786.551 141.092l.005 1.4.47.768.872.69.814.087 1.11-.232.847-.834-.01-1.883z" class="cls-2" transform="translate(-239.671 -77.711)"/>
            <path id="패스_4800" d="M786.551 141.092v1.4l.426.768.79.69.737.087 1.005-.232.768-.834-.009-1.883z" class="cls-2" transform="translate(-243.136 -77.699)"/>
            <path id="패스_4801" d="M786.551 141.092v1.4l.426.768.79.69.737.087 1.005-.232.768-.834-.009-1.883z" class="cls-2" transform="translate(-235.856 -77.711)"/>
        </g>
    </g>
</svg>
