<svg xmlns="http://www.w3.org/2000/svg" width="20" height="20" viewBox="0 0 20 20">
    <defs>
        <style>
            .cls-2{fill:#fff}
        </style>
    </defs>
    <g id="ico_DTbuilder_20px" transform="translate(-160 -266)">
        <path id="사각형_2472" fill="none" d="M0 0H20V20H0z" transform="translate(160 266)"/>
        <g id="그룹_3451" transform="translate(-44.015 169)">
            <path id="패스_4786" d="M378.65 419.344h-.45a1.011 1.011 0 0 1-.117-.008 2.046 2.046 0 0 0 .031.477c.083.465.293.825.487.853a4.915 4.915 0 0 0 1.119 1.778 2.762 2.762 0 0 0 .9.607 1.816 1.816 0 0 0 1.383 0 2.8 2.8 0 0 0 .927-.634 4.951 4.951 0 0 0 1.093-1.756c.186-.055.381-.4.46-.848a2.071 2.071 0 0 0 .031-.47h-.546a.834.834 0 0 1 .043.3 1.442 1.442 0 0 1-.023.23c0 .021-.009.04-.014.06a.917.917 0 0 1-.228.476.193.193 0 0 1-.065.038.11.11 0 0 1-.119-.026 3.858 3.858 0 0 1-1.187 1.809 2.339 2.339 0 0 1-.245.167 1.607 1.607 0 0 1-.817.239 1.72 1.72 0 0 1-1.042-.389 3.834 3.834 0 0 1-1.208-1.826.121.121 0 0 1-.061.032.169.169 0 0 1-.142-.062 1.025 1.025 0 0 1-.223-.518c0-.015 0-.03-.006-.045 0-.16.008-.317.019-.471-.005-.001-.002-.007 0-.013z" class="cls-2" transform="translate(-167.554 -314.628)"/>
            <path id="패스_4787" d="M219.531 687.829a4.5 4.5 0 0 0-.726-1.532 2 2 0 0 0-1.287-.816l-.071-.014a4.936 4.936 0 0 0-.813-.093 4.443 4.443 0 0 1-.572-.056c-.189.5-1.12.865-2.266.865s-2.076-.364-2.266-.865a4.451 4.451 0 0 1-.573.056 4.89 4.89 0 0 0-.813.092l-.071.014a1.959 1.959 0 0 0-1.2.707 4.345 4.345 0 0 0-.813 1.64 1.16 1.16 0 0 0-.011.592 1.086 1.086 0 0 0 .091.253 1.412 1.412 0 0 0 .636.546l.115-.228a2.157 2.157 0 0 1 3.606-.379h2.6a2.157 2.157 0 0 1 3.606.379l.116.228a1.414 1.414 0 0 0 .637-.546 1.079 1.079 0 0 0 .1-.3 1.173 1.173 0 0 0-.025-.543z" class="cls-2" transform="translate(0 -576.688)"/>
            <path id="패스_4788" d="M356.565 104.163h6.3a.444.444 0 1 0 0-.889h-.121a3.03 3.03 0 0 0-1.662-2.7l-.251 1.424a.232.232 0 0 1-.229.192.229.229 0 0 1-.04 0 .232.232 0 0 1-.188-.269l.287-1.626a.608.608 0 0 0-.516-.287h-.86a.607.607 0 0 0-.516.287l.287 1.626a.232.232 0 0 1-.188.269.235.235 0 0 1-.041 0 .232.232 0 0 1-.229-.192l-.251-1.423a3.029 3.029 0 0 0-1.662 2.7h-.121a.444.444 0 0 0 0 .889z" class="cls-2" transform="translate(-145.922)"/>
            <path id="패스_4789" d="M316.637 901.748h1.163a1.466 1.466 0 0 0-2.617 0h-3.341a1.465 1.465 0 0 0-2.617 0h1.161l.147.255.235.407-.235.407-.147.255h-1.161a1.466 1.466 0 0 0 2.617 0h3.341a1.466 1.466 0 0 0 2.617 0h-1.161l-.148-.255-.235-.407.235-.407z" class="cls-2" transform="translate(-99.717 -789.134)"/>
        </g>
    </g>
</svg>
