<svg xmlns="http://www.w3.org/2000/svg" width="170.001" height="170" viewBox="0 0 170.001 170">
    <defs>
        <style>
            .cls-3{fill:#03020f}
        </style>
    </defs>
    <g id="ico_easy_170px" transform="translate(-1285 -2958)">
        <g id="그룹_2532" transform="translate(1285 2958)">
            <path id="패스_2987" fill="#0b3496" d="M259.744 342.286a85 85 0 1 1 85-85 85.1 85.1 0 0 1-85 85zm0-166.745a81.745 81.745 0 1 0 81.745 81.744 81.837 81.837 0 0 0-81.745-81.744z" transform="translate(-174.744 -172.286)"/>
        </g>
        <g id="그룹_2598" transform="translate(10 32)">
            <circle id="타원_92" cx="21" cy="21" r="21" fill="#316cbe" transform="translate(1316 3004)"/>
            <g id="그룹_2551" transform="translate(1334.991 2958.806)">
                <g id="그룹_2547" transform="translate(0 22.139)">
                    <g id="그룹_2533" transform="translate(11.024)">
                        <path id="패스_2988" d="M253.248 290.159l-2.3-2.3 2.616-2.616.551-9.71a1.619 1.619 0 0 1 .149-.594l10.273-22.1c.192-.373 1.663-3.048 4.221-3.206 1.646-.1 3.153.824 4.491 2.756 2.408 3.474 1.515 9.247.474 13.171l23.927-23.927a6.172 6.172 0 0 1 4.279-1.828 5.978 5.978 0 0 1 4.291 1.723 5.871 5.871 0 0 1 1.722 4.29 6.172 6.172 0 0 1-1.827 4.28l-2.3-2.3a2.939 2.939 0 0 0 .874-2.032 2.65 2.65 0 0 0-.769-1.935 2.72 2.72 0 0 0-1.935-.769 2.934 2.934 0 0 0-2.032.874l-25.895 25.895a1.622 1.622 0 0 1-.871.452l-2.012.352a1.628 1.628 0 0 1-1.8-2.2c1.111-2.825 3.489-10.881 1.194-14.191-.716-1.034-1.3-1.393-1.614-1.362-.533.033-1.252.914-1.5 1.4l-10.108 21.751-.569 10.02a1.621 1.621 0 0 1-.474 1.059z" class="cls-3" transform="translate(-250.947 -239.802)"/>
                    </g>
                    <g id="그룹_2534" transform="translate(41.979 7.992)">
                        <path id="사각형_2198" d="M0 0H30.986V3.255H0z" class="cls-3" transform="rotate(-45 26.449 10.956)"/>
                    </g>
                    <g id="그룹_2537" transform="translate(42.231 20.945)">
                        <g id="그룹_2535">
                            <path id="패스_2989" d="M291.6 276.545l-2.3-2.3 6.88-6.879a5.988 5.988 0 1 1 8.465 8.465l-2.3-2.3a2.735 2.735 0 1 0-3.862-3.862z" class="cls-3" transform="translate(-289.294 -265.539)"/>
                        </g>
                        <g id="그룹_2536" transform="translate(5.368 7.989)">
                            <path id="사각형_2199" d="M0 0H10.856V3.255H0z" class="cls-3" transform="rotate(-45.001 9.266 3.838)"/>
                        </g>
                    </g>
                    <g id="그룹_2540" transform="translate(52.381 29.884)">
                        <g id="그룹_2538" transform="translate(.117)">
                            <path id="패스_2990" d="M310.377 286.815l-2.3-2.3a2.735 2.735 0 1 0-3.862-3.862l-2.3-2.3a5.988 5.988 0 1 1 8.466 8.466z" class="cls-3" transform="translate(-301.911 -276.523)"/>
                        </g>
                        <g id="그룹_2539" transform="translate(0 7.99)">
                            <path id="사각형_2200" d="M0 0H8.884V3.255H0z" class="cls-3" transform="rotate(-45 7.583 3.141)"/>
                        </g>
                    </g>
                    <g id="그룹_2543" transform="translate(32.937 38.705)">
                        <g id="그룹_2541" transform="translate(23.07)">
                            <path id="패스_2991" d="M314.688 297.653l-2.3-2.3a2.942 2.942 0 0 0 .875-2.034 2.644 2.644 0 0 0-.77-1.934 2.812 2.812 0 0 0-3.967.1l-2.3-2.3a6.067 6.067 0 0 1 8.57-.1 5.872 5.872 0 0 1 1.723 4.29 6.177 6.177 0 0 1-1.831 4.278z" class="cls-3" transform="translate(-306.222 -287.362)"/>
                        </g>
                        <g id="그룹_2542" transform="translate(0 7.99)">
                            <path id="패스_2992" d="M280.176 323.578l-2.3-2.3 2.833-2.834a1.631 1.631 0 0 1 .658-.4l7.148-2.269 18.595-18.594 2.3 2.3-18.875 18.875a1.631 1.631 0 0 1-.658.4l-7.148 2.269z" class="cls-3" transform="translate(-277.874 -297.18)"/>
                        </g>
                    </g>
                    <g id="그룹_2544" transform="translate(0 44.159)">
                        <path id="패스_2993" d="M269.732 334.439l-2.3-2.3 6.436-6.436-27.728-27.728-6.44 6.435-2.3-2.3 7.586-7.586a1.675 1.675 0 0 1 2.3 0l30.03 30.029a1.627 1.627 0 0 1 0 2.3z" class="cls-3" transform="translate(-237.401 -294.065)"/>
                    </g>
                    <g id="그룹_2545" transform="translate(21.716 67.946)">
                        <path id="사각형_2201" d="M0 0H3.255V10.394H0z" class="cls-3" transform="rotate(-44.998 2.778 1.15)"/>
                    </g>
                    <g id="그룹_2546" transform="translate(18.591 64.824)">
                        <path id="패스_2994" d="M261.874 322.711a1.6 1.6 0 0 1-1.156-.48 1.626 1.626 0 0 1-.472-1.147 1.4 1.4 0 0 1 .033-.317 1.484 1.484 0 0 1 .09-.31 1.346 1.346 0 0 1 .155-.276 1.263 1.263 0 0 1 .448-.448 1.372 1.372 0 0 1 .277-.155 1.525 1.525 0 0 1 .309-.089 1.64 1.64 0 0 1 1.465.439 1.456 1.456 0 0 1 .2.252 1.877 1.877 0 0 1 .155.276 2.223 2.223 0 0 1 .09.31 1.4 1.4 0 0 1 .033.317 1.651 1.651 0 0 1-.122.626 1.532 1.532 0 0 1-.358.522 1.158 1.158 0 0 1-.244.2 1.328 1.328 0 0 1-.277.155 2.02 2.02 0 0 1-.309.09 2.211 2.211 0 0 1-.317.035z" class="cls-3" transform="translate(-260.246 -319.457)"/>
                    </g>
                </g>
                <g id="그룹_2548" transform="translate(31.966)">
                    <path id="사각형_2202" d="M0 0H3.255V14.445H0z" class="cls-3" transform="rotate(-8.078 3.236 .228)"/>
                </g>
                <g id="그룹_2549" transform="translate(43.237 7.642)">
                    <path id="사각형_2203" d="M0 0H14.445V3.255H0z" class="cls-3" transform="rotate(-53.088 11.56 5.775)"/>
                </g>
                <g id="그룹_2550" transform="translate(16.073 12.451)">
                    <path id="사각형_2204" d="M0 0H3.255V14.445H0z" class="cls-3" transform="rotate(-53.06 2.607 1.302)"/>
                </g>
            </g>
        </g>
    </g>
</svg>
