<svg xmlns="http://www.w3.org/2000/svg" width="42" height="42" viewBox="0 0 42 42">
    <g>
        <path fill="none" d="M0 0H42V42H0z" transform="translate(-1024 -1115) translate(1024 1115)"/>
        <g transform="translate(-1024 -1115) translate(-1 2)">
            <circle cx="10" cy="10" r="10" fill="#316cbe" transform="translate(1029 1131)"/>
            <g fill="none">
                <path d="M13.82 2.6a2 2 0 0 1 3.36 0l11.828 18.315A2 2 0 0 1 27.327 24H3.673a2 2 0 0 1-1.68-3.085z" transform="rotate(90 -26 1091)"/>
                <path fill="#03020f" d="M15.5 3.186c-.102 0-.291.03-.42.23L3.252 21.728c-.14.217-.072.413-.019.51.053.098.181.261.44.261h23.654c.259 0 .387-.163.44-.26.053-.098.12-.294-.02-.511L15.92 3.415c-.129-.199-.318-.229-.42-.229m0-1.5c.643 0 1.286.305 1.68.915l11.828 18.314c.86 1.33-.096 3.085-1.68 3.085H3.672c-1.585 0-2.54-1.754-1.68-3.085L13.82 2.6c.394-.61 1.037-.915 1.68-.915z" transform="rotate(90 -26 1091)"/>
            </g>
        </g>
    </g>
</svg>
