<svg xmlns="http://www.w3.org/2000/svg" width="20" height="20" viewBox="0 0 20 20">
    <g>
        <path fill="none" d="M0 0H20V20H0z" transform="translate(-160 -102) translate(160 102)"/>
        <g transform="translate(-160 -102) translate(0 3.5)">
            <path fill="#fff" stroke="#fff" stroke-width="0.2px" d="M354.765 470.055c-.146.412-.254.757-.389 1.093a6.99 6.99 0 0 1-13.423-2.942c0-.176.009-.315-.239-.31-.229.005-.252.121-.257.308a7.5 7.5 0 0 0 8.946 7.563 7.336 7.336 0 0 0 5.531-4.671 15.6 15.6 0 0 0 .46-1.593c-.2-.009-.309-.017-.413-.017-.956 0-1.912.008-2.868 0-1.375-.014-.961.173-1.96-.836a.263.263 0 0 0-.023-.022c-.179-.137-.168-.26-.007-.418.382-.376.75-.766 1.122-1.153a2.333 2.333 0 0 0 .162-.222c-.385-.069-.689-.093-.943.22-.216.265-.484.487-.712.744-.146.164-.252.148-.391 0-.255-.276-.519-.543-.785-.809a.7.7 0 0 0-.864-.1c.421.438.826.878 1.252 1.3.18.176.2.29.008.469-.342.324-.664.67-.991 1.01-.092.1-.173.2-.291.34.4.062.711.1.984-.216s.593-.58.945-.916c.149.17.31.34.458.521a1.757 1.757 0 0 0 1.506.644c.912-.02 1.825-.006 2.738 0 .123-.016.247 0 .444.013zm-9-.033c.365 0 .731-.006 1.1 0 .209 0 .318-.057.317-.291s-.131-.255-.312-.253h-1.514c-.417 0-.418 0-.419-.435 0-.3 0-.6.005-.9.006-.211-.114-.245-.286-.251s-.28.042-.276.25c.01.537.008 1.074 0 1.61 0 .191.065.273.261.268.371-.003.747.003 1.123.003zm.325-1.36c.236 0 .47-.006.706 0 .191.007.237-.092.232-.258s-.007-.307-.228-.3h-1.379c-.225 0-.225.141-.228.3s.023.272.224.263c.224-.013.449-.004.673-.004zm-4.915-1.875a2.416 2.416 0 0 1 .031-.249 6.993 6.993 0 0 1 13.73 2.065c0 .178-.034.352.236.353.253 0 .26-.157.264-.343a7.755 7.755 0 0 0-.595-3.138 7.515 7.515 0 0 0-8.393-4.412 7.406 7.406 0 0 0-5.6 4.944 10.471 10.471 0 0 0-.328 1.28.726.726 0 0 0 .172.034c2.072 0 4.144.018 6.216.023.2 0 .256-.083.261-.271.008-.3-.182-.288-.386-.288h-5.186zm-.651.5v.026l.2.008" transform="translate(-177.953 -360.397)"/>
            <circle cx="5" cy="5" r="5" fill="#fff" transform="translate(165 103)"/>
            <path fill="#1054b2" d="M383.412 473.084v-1.766c0-.131 0-.136.137-.136h2.209a.185.185 0 0 1 .18.091c.149.234.3.464.457.7.017.026.044.052.03.085s-.061.027-.094.027h-1.776c-.136 0-.136 0-.136.133v.28c0 .074.028.105.1.1h2.4c.031 0 .071.013.09-.018s-.016-.057-.032-.082l-.8-1.228c-.043-.066-.036-.081.049-.081h.981a.151.151 0 0 1 .138.088q.315.5.633 1c.06.094.063.092.123 0 .207-.323.416-.644.618-.969a.223.223 0 0 1 .219-.119c.3.007.6 0 .9 0 .031 0 .071-.012.088.021s-.018.051-.032.074c-.251.4-.523.786-.77 1.188-.113.182-.235.358-.357.536a.107.107 0 0 0 0 .138q.477.719.951 1.44c.07.107.137.217.209.324.041.062.016.081-.048.081h-.99a.124.124 0 0 1-.115-.063c-.226-.357-.455-.714-.682-1.07-.048-.075-.061-.076-.109 0q-.334.525-.665 1.051a.156.156 0 0 1-.149.084h-.946c-.028 0-.063.008-.081-.02s.008-.059.025-.084l.858-1.305c.015-.023.043-.047.029-.076s-.052-.01-.08-.011h-2.43c-.127 0-.129 0-.13.123v.314c0 .159 0 .159.162.159h1.715c.027 0 .083-.013.106.024s-.016.068-.035.1l-.452.689a.174.174 0 0 1-.165.089h-2.218c-.109 0-.118-.009-.118-.119q.003-.9.003-1.792z" transform="translate(-216.698 -365.217)"/>
        </g>
    </g>
</svg>
