<svg xmlns="http://www.w3.org/2000/svg" width="12.2" height="12.2" viewBox="0 0 12.2 12.2">
    <defs>
        <style>
            .cls-1{fill:#1054b2;stroke:#1054b2;stroke-width:.2px}
        </style>
    </defs>
    <g id="ico_newpage_12px" transform="translate(-113.512 -81.449)">
        <path id="패스_4319" d="M124.472 117.713v6.043a.717.717 0 0 1-.717.717h-9.427a.717.717 0 0 1-.717-.717v-9.427a.717.717 0 0 1 .717-.717h6.043a.418.418 0 0 1 .418.418.418.418 0 0 1-.418.418h-5.764a.159.159 0 0 0-.159.159v8.869a.159.159 0 0 0 .159.159h8.869a.159.159 0 0 0 .159-.159v-5.764a.418.418 0 0 1 .418-.418.418.418 0 0 1 .419.419z" class="cls-1" transform="translate(0 -30.923)"/>
        <path id="패스_4320" d="M253.026 81.912v2.3a.363.363 0 0 1-.363.363h-.019a.363.363 0 0 1-.363-.363v-1.321a.028.028 0 0 0-.048-.02l-4.659 4.659a.381.381 0 0 1-.518.026.373.373 0 0 1-.018-.545l4.668-4.668a.028.028 0 0 0-.02-.048h-1.324a.363.363 0 0 1-.363-.363v-.019a.363.363 0 0 1 .363-.363h2.3a.363.363 0 0 1 .364.362z" class="cls-1" transform="translate(-127.414)"/>
    </g>
</svg>
