<svg xmlns="http://www.w3.org/2000/svg" width="848" height="496" viewBox="0 0 848 496">
    <defs>
        <linearGradient id="linear-gradient" x1=".008" x2="1.024" y1=".014" y2="1" gradientUnits="objectBoundingBox">
            <stop offset="0" stop-color="#2958d7"/>
            <stop offset="1" stop-color="#6ad0e8"/>
        </linearGradient>
        <filter id="사각형_2692" width="640" height="137" x="104" y="306" filterUnits="userSpaceOnUse">
            <feOffset dy="5"/>
            <feGaussianBlur result="blur" stdDeviation="5"/>
            <feFlood flood-color="#9dabbe" flood-opacity=".302"/>
            <feComposite in2="blur" operator="in"/>
            <feComposite in="SourceGraphic"/>
        </filter>
        <style>
            .cls-5{fill:#fff}.cls-4{fill:#03020f}.cls-5{stroke:#707070}.cls-7{stroke:none}.cls-8{fill:none}
        </style>
    </defs>
    <g id="img_textclassification" transform="translate(-349 -840)">
        <rect id="img_boundingbox" width="848" height="496" fill="url(#linear-gradient)" rx="10" transform="translate(349 840)"/>
        <rect id="사각형_2691" width="730" height="362" fill="#fff" rx="10" transform="translate(408 931)"/>
        <g filter="url(#사각형_2692)" transform="translate(349 840)">
            <g id="사각형_2692-2" fill="#fff" stroke="#c1d5e8" transform="translate(119 316)">
                <rect width="610" height="107" class="cls-7" rx="10"/>
                <rect width="609" height="106" x=".5" y=".5" class="cls-8" rx="9.5"/>
            </g>
        </g>
        <path id="패스_4694" d="M11.22-8.721H4.386v-1.717h6.834zm1.734-4.845H11.22v1.785H4.386v-1.785H2.652v6.222h10.3zM4.3-3.179H2.55v4.2h10.676V-.408H4.3zM.85-6.052v1.411h6.222V-1.9h1.751v-2.741h5.95v-1.411zm25.619-4.59h-8.806v4.318h10.931v-1.411h-9.163v-1.6h8.823v-4.182H17.629v1.417h8.84zM29.9-4.964H15.98v1.411h3.434v4.879h1.751v-4.879h3.553v4.879h1.751v-4.879h3.451zm15.5-5.627v1.581h-3.75v1.36h3.757v1.394h1.751v-7.786h-1.751v2.091h-3.179a7.524 7.524 0 0 0 .119-1.411h-6.868v1.411h4.93c-.238 2.142-2.125 3.825-5.763 4.607l.612 1.428c3.383-.765 5.644-2.329 6.6-4.675zM38.947-.238v-1.411h8.211v-3.978h-10v1.394h8.245v1.275H37.2v4.131h10.383V-.238zm18.666-5.168a35.866 35.866 0 0 0 .425-6v-1.02h-7.8v1.411h6.086a32 32 0 0 1-.424 5.456zm-3.434-2.618h-1.717V-3.4c-1.071.017-2.108.034-3.043.034l.187 1.445a59.227 59.227 0 0 0 9.367-.6l-.085-1.292c-1.5.2-3.111.289-4.709.357zm9.554.289h-2.261v-6.307H59.7V1.309h1.768v-7.565h2.261zm2.635 1.275a1.311 1.311 0 0 0 1.309-1.36 1.33 1.33 0 0 0-1.309-1.394 1.33 1.33 0 0 0-1.309 1.394 1.311 1.311 0 0 0 1.309 1.36zm0 6.681a1.3 1.3 0 0 0 1.309-1.36 1.33 1.33 0 0 0-1.309-1.394 1.33 1.33 0 0 0-1.309 1.394 1.3 1.3 0 0 0 1.309 1.36zm8.075-9.69a2.184 2.184 0 0 1 2.346-2.231A2.174 2.174 0 0 1 79.1-9.469a2.17 2.17 0 0 1-2.312 2.21 2.18 2.18 0 0 1-2.345-2.21zm9.1-1.037v2.074h-2.929a3.4 3.4 0 0 0 .153-1.037 4.024 4.024 0 0 0-.136-1.037zm0 3.485V-5h1.751v-9.061h-1.756v2.125h-3.706a4.1 4.1 0 0 0-3.043-1.241 3.741 3.741 0 0 0-4.012 3.706 3.738 3.738 0 0 0 4.012 3.691 4.066 4.066 0 0 0 3.043-1.241zM80.172-.068c-2.176 0-3.451-.561-3.451-1.615 0-1.02 1.275-1.6 3.451-1.6 2.193 0 3.451.578 3.451 1.6 0 1.054-1.258 1.615-3.451 1.615zm0-4.59c-3.2 0-5.168 1.1-5.168 2.975C75 .2 76.976 1.309 80.172 1.309S85.357.2 85.357-1.683c0-1.87-1.989-2.975-5.185-2.975zm16.745-7.616h-3.672v-1.734h-1.751v1.734h-3.706v1.411h9.129zm-6.579 5.049c0-.952.833-1.53 2.04-1.53s2.023.578 2.023 1.53c0 .935-.816 1.513-2.023 1.513s-2.04-.578-2.04-1.513zm2.907 2.788c1.7-.272 2.805-1.326 2.805-2.788 0-1.734-1.5-2.873-3.672-2.873-2.193 0-3.689 1.139-3.689 2.873 0 1.462 1.105 2.5 2.805 2.788v1.5c-1.428.051-2.805.051-3.978.051l.238 1.445a56.022 56.022 0 0 0 9.469-.612l-.136-1.292c-1.224.187-2.533.272-3.842.34zm8.653-3.2h-2.193v-6.426h-1.751V1.309h1.751v-7.5h2.195zm6.885.646h5.355v-5.695h-7.157v1.428h5.389V-8.4h-5.355v6.086h1.309a42.275 42.275 0 0 0 7.633-.544l-.187-1.428a43.951 43.951 0 0 1-6.987.527zm8.262-7.089V1.343h1.768v-15.419zm14.671 5.814h-7.021v-1.9h7.021zm1.751-5.185h-1.751v1.887h-7.021v-1.887h-1.751v6.613h10.523zm1.717 8.262h-13.923v1.411h3.332v5.1h1.768v-5.1h3.723v5.1h1.751v-5.1h3.349z" class="cls-4" transform="translate(471 1139)"/>
        <path id="패스_4695" d="M-74.7-12.256v1.072h5.2c-.256 2.432-2.448 4.32-5.952 5.232l.528 1.04c4.192-1.12 6.832-3.68 6.832-7.344zm2.864 8.928h6.7V-.08h-6.7zm-1.28 4.3h9.28v-5.34h-9.28zm7.968-14.144v8.112h1.312v-8.112zm10.272 7.84a10.444 10.444 0 0 0 .128-1.648 10.444 10.444 0 0 0-.128-1.648h1.952v3.3zm-2.944 2.144c-1.136 0-1.872-1.456-1.872-3.792 0-2.32.736-3.776 1.872-3.776 1.152 0 1.872 1.456 1.872 3.776-.004 2.34-.724 3.796-1.876 3.796zm4.9-6.512h-2.224a2.873 2.873 0 0 0-2.672-2.272c-1.856 0-3.056 1.92-3.056 4.992 0 3.088 1.2 5.008 3.056 5.008 1.248 0 2.16-.832 2.672-2.272h2.224V.48h1.248v-13.328h-1.248zm2.816-3.472V1.184h1.248v-14.352zm15.88 4.052c-2.608-.288-5.1-1.7-5.1-3.44v-.54h-1.344v.544c0 1.744-2.528 3.152-5.136 3.44l.448.992c2.288-.288 4.448-1.3 5.344-2.832.912 1.536 3.072 2.544 5.344 2.832zm.7 2.992v-1.056h-12.988v1.056h5.84V-4.7h-4.272v1h8.464v1.312h-8.42v3.412h10.144V0h-8.864v-1.424h8.432V-4.7h-4.172v-1.428zm15.5 1.808h1.328v-8.832h-1.328v2.544h-2.368v1.072h2.368v1.5h-2.368v1.076h2.368zm-7.376-6.7h2.16v4.656c-.72.032-1.456.064-2.16.08zm5.312 4.4c-.592.08-1.232.144-1.872.192v-4.592h1.424v-1.06h-7.544v1.056h1.424v4.752c-.64.016-1.264.016-1.808.016l.144 1.088a57.068 57.068 0 0 0 8.32-.48zM-21.424.144C-23.6.144-24.9-.432-24.9-1.44c0-.976 1.3-1.568 3.472-1.568s3.472.592 3.472 1.568c.004 1.008-1.292 1.584-3.468 1.584zm0-4.16c-2.976 0-4.784.928-4.784 2.576 0 1.664 1.808 2.608 4.784 2.608 2.96 0 4.768-.944 4.768-2.608 0-1.648-1.808-2.576-4.768-2.576zm10.48 1.088h-1.312V1.04H-2.3V-.032h-8.64zm4.16-2.048v-1.568H-2.3v-1.024h-8.688v-1.568h8.384V-12.7h-9.716v1.024h8.42v1.568h-8.384v3.568h4.176v1.568h-5.856V-3.9h13.02v-1.076zm8.16-6.656v1.088H6.64C6.336-7.152 4.368-4.4.7-2.56l.72 1.024c4.64-2.32 6.512-6.016 6.512-10.1zm12.576 4.288h-2.3v-5.824h-1.316V1.184h1.312v-7.44h2.3zM29.088-4.32h1.328v-8.832h-1.328v2.544H26.72v1.072h2.368v1.5H26.72v1.076h2.368zm-7.376-6.7h2.16v4.656c-.72.032-1.456.064-2.16.08zm5.312 4.4c-.592.08-1.232.144-1.872.192v-4.592h1.424v-1.06h-7.552v1.056h1.424v4.752c-.64.016-1.264.016-1.808.016l.144 1.088a57.068 57.068 0 0 0 8.32-.48zM25.68.144c-2.176 0-3.472-.576-3.472-1.584 0-.976 1.3-1.568 3.472-1.568s3.472.592 3.472 1.568c0 1.008-1.296 1.584-3.472 1.584zm0-4.16c-2.976 0-4.784.928-4.784 2.576C20.9.224 22.7 1.168 25.68 1.168c2.96 0 4.768-.944 4.768-2.608 0-1.648-1.808-2.576-4.768-2.576zm15.936-2.24a4.926 4.926 0 0 1-3.488-4.4v-.528h3.152v-1.072h-7.664v1.072h3.2v.544a5.23 5.23 0 0 1-3.616 4.7l.688 1.024A6.082 6.082 0 0 0 37.5-8.48a5.921 5.921 0 0 0 3.46 3.248zm-4.688 3.232H43.7v2.96h-6.772zM35.648.992h9.328v-5.056h-9.328zm8-14.16v3.6h-2.832v1.088h2.832v3.712h1.328v-8.4zm5.44 6.928a1.066 1.066 0 0 0 1.056-1.1 1.075 1.075 0 0 0-1.056-1.14 1.075 1.075 0 0 0-1.056 1.136 1.066 1.066 0 0 0 1.056 1.104zm0 6.448A1.057 1.057 0 0 0 50.144-.9a1.085 1.085 0 0 0-1.056-1.136A1.085 1.085 0 0 0 48.032-.9 1.057 1.057 0 0 0 49.088.208zM56.416-4.4l2.672-4c.336-.576.656-1.152.944-1.728h.068C60.064-9.52 60-8.576 60-8v3.6zm6.528 0h-1.552v-7.328h-1.616L54.9-4.192v.96H60V0h1.392v-3.232h1.552zM65.52.208A1.057 1.057 0 0 0 66.576-.9a1.085 1.085 0 0 0-1.056-1.132A1.085 1.085 0 0 0 64.464-.9 1.057 1.057 0 0 0 65.52.208zm6.24 0a3.809 3.809 0 0 0 3.84-4.032c0-2.576-1.584-3.728-3.536-3.728a3.368 3.368 0 0 0-1.744.464l.288-3.392h4.432v-1.248h-5.712L68.96-6.24l.784.48a3.191 3.191 0 0 1 1.956-.688 2.373 2.373 0 0 1 2.432 2.672 2.535 2.535 0 0 1-2.5 2.768 3.858 3.858 0 0 1-2.88-1.3l-.72.96A4.982 4.982 0 0 0 71.76.208z" class="cls-4" transform="translate(1002 1098)"/>
        <path id="패스_4696" d="M-124.84-5.42h2.06v-11.1h-2.06v3.08h-2.62v1.66h2.62v1.64h-2.62v1.66h2.62zm-8.8-8.14h2.3v5.44c-.78.04-1.54.06-2.3.08zm6.32 5.12c-.66.08-1.34.16-2.04.18v-5.3h1.62v-1.68h-9.52v1.68h1.64V-8h-2.12l.24 1.7a64.8 64.8 0 0 0 10.3-.64zm-1.48 8.4c-2.58 0-4.02-.62-4.02-1.72 0-1.14 1.44-1.74 4.02-1.74s4.04.6 4.04 1.74c0 1.1-1.46 1.72-4.04 1.72zm0-5.06c-3.78 0-6.08 1.22-6.08 3.34 0 2.08 2.3 3.3 6.08 3.3s6.1-1.22 6.1-3.3c0-2.12-2.32-3.34-6.1-3.34zm13.4 1.5h-2.06v5.1h12.62V-.16h-10.56zm5.06-2.74v-1.72h5.46v-1.58h-10.58v-1.68h10.22v-4.7h-12.28v1.58h10.24v1.64h-10.2v4.74h5.08v1.72h-7.18v1.66h16.4v-1.66zm9.88-8.28v1.68h6.32c-.42 4.16-2.8 7.34-7.22 9.6l1.14 1.58c5.9-2.98 8.14-7.62 8.14-12.86zm15.84 5.22h-2.74v-7.14h-2.06V1.52h2.06v-9.2h2.74zm7.3-5.86c-2.82 0-4.9 1.78-4.9 4.34s2.08 4.34 4.9 4.34 4.92-1.78 4.92-4.34-2.1-4.34-4.92-4.34zm0 1.76a2.615 2.615 0 0 1 2.9 2.58 2.626 2.626 0 0 1-2.9 2.58 2.619 2.619 0 0 1-2.88-2.58 2.608 2.608 0 0 1 2.88-2.58zm6.96-3.04v18.1h2.08v-18.1zM-82.8-2.26a62.867 62.867 0 0 0 11.5-.8l-.14-1.5a82.567 82.567 0 0 1-11.62.6zm24.36-8.88a2.569 2.569 0 0 1 2.76-2.62 2.558 2.558 0 0 1 2.72 2.62 2.553 2.553 0 0 1-2.72 2.6 2.565 2.565 0 0 1-2.76-2.6zm10.7-1.22v2.44h-3.44a4 4 0 0 0 .18-1.22 4.735 4.735 0 0 0-.16-1.22zm0 4.1v2.38h2.06v-10.66h-2.06v2.5h-4.36a4.826 4.826 0 0 0-3.58-1.46 4.4 4.4 0 0 0-4.72 4.36 4.4 4.4 0 0 0 4.72 4.34 4.784 4.784 0 0 0 3.58-1.46zM-51.7-.08c-2.56 0-4.06-.66-4.06-1.9 0-1.2 1.5-1.88 4.06-1.88 2.58 0 4.06.68 4.06 1.88 0 1.24-1.48 1.9-4.06 1.9zm0-5.4c-3.76 0-6.08 1.3-6.08 3.5 0 2.22 2.32 3.52 6.08 3.52s6.1-1.3 6.1-3.52c0-2.2-2.34-3.5-6.1-3.5zm20.1-8.96h-4.32v-2.04h-2.06v2.04h-4.36v1.66h10.74zm-7.74 5.94c0-1.12.98-1.8 2.4-1.8s2.38.68 2.38 1.8c0 1.1-.96 1.78-2.38 1.78s-2.4-.68-2.4-1.78zm3.42 3.28c2-.32 3.3-1.56 3.3-3.28 0-2.04-1.76-3.38-4.32-3.38-2.58 0-4.34 1.34-4.34 3.38 0 1.72 1.3 2.94 3.3 3.28v1.76c-1.68.06-3.3.06-4.68.06l.28 1.7a65.908 65.908 0 0 0 11.14-.72l-.16-1.52c-1.44.22-2.98.32-4.52.4zm10.18-3.76h-2.58v-7.56h-2.06V1.54h2.06v-8.82h2.58zm18.7 3.56h2.06v-11.1h-2.06v3.08h-2.62v1.66h2.62v1.64h-2.62v1.66h2.62zm-8.8-8.14h2.3v5.44c-.78.04-1.54.06-2.3.08zm6.32 5.12c-.66.08-1.34.16-2.04.18v-5.3h1.62v-1.68h-9.52v1.68h1.64V-8h-2.12l.24 1.7a64.8 64.8 0 0 0 10.3-.64zM-11-.04c-2.58 0-4.02-.62-4.02-1.72 0-1.14 1.44-1.74 4.02-1.74s4.04.6 4.04 1.74c0 1.1-1.46 1.72-4.04 1.72zm0-5.06c-3.78 0-6.08 1.22-6.08 3.34 0 2.08 2.3 3.3 6.08 3.3s6.1-1.22 6.1-3.3c0-2.12-2.32-3.34-6.1-3.34zM8.98-8.08a5.948 5.948 0 0 1-4.22-5.44v-.3h3.76v-1.66h-9.66v1.66h3.82v.3A6.29 6.29 0 0 1-1.76-7.7L-.7-6.08a7.4 7.4 0 0 0 4.46-4.26 7.033 7.033 0 0 0 4.22 3.86zm-5.6 4.52h7.82v3.24H3.38zM1.36 1.32h11.86V-5.2H1.36zm9.8-17.86v4.4h-3.2v1.68h3.2v4.44h2.06v-10.52zm13.46 2.24c2.64 0 4.3.74 4.3 2 0 1.28-1.66 2.02-4.3 2.02-2.66 0-4.32-.74-4.32-2.02 0-1.26 1.66-2 4.32-2zm0 5.68c3.9 0 6.44-1.38 6.44-3.68 0-2.28-2.54-3.66-6.44-3.66s-6.44 1.38-6.44 3.66c0 2.3 2.54 3.68 6.44 3.68zm-4.04 4.56H18.5V1.2h12.46V-.48H20.58zm-4.14-3.1v1.68h16.34v-1.68zM46.18-9.3h-4.4v-4.56h4.4zm5.66-3.24v1.84h-3.66v-1.84zM48.18-9.1h3.66v2.88h2.08v-10.3h-2.08v2.4h-3.66v-1.38h-8.44v7.82h8.44zm6.08 5.54V-5.1h-5.18v-1.6h-2.1v1.6H41.8v1.54h5.18c-.12 1.56-2.5 3.16-5.9 3.5l.68 1.54c2.9-.34 5.18-1.5 6.28-3.06 1.08 1.54 3.34 2.72 6.22 3.06l.66-1.54c-3.36-.38-5.7-2-5.82-3.5zm13.62-4.52a5.948 5.948 0 0 1-4.22-5.44v-.3h3.76v-1.66h-9.66v1.66h3.82v.3a6.29 6.29 0 0 1-4.44 5.82l1.06 1.62a7.4 7.4 0 0 0 4.46-4.26 7.033 7.033 0 0 0 4.22 3.86zm-5.6 4.52h7.82v3.24h-7.82zm-2.02 4.88h11.86V-5.2H60.26zm9.8-17.86v4.4h-3.2v1.68h3.2v4.44h2.06v-10.52zm20.18.02h-2.06V-3.4h2.06zM77.72-10.8a2.635 2.635 0 0 1 2.78-2.74 2.646 2.646 0 0 1 2.78 2.74 2.657 2.657 0 0 1-2.78 2.74 2.646 2.646 0 0 1-2.78-2.74zm7.56 0a4.519 4.519 0 0 0-4.78-4.52 4.536 4.536 0 0 0-4.8 4.52 4.547 4.547 0 0 0 4.8 4.52 4.53 4.53 0 0 0 4.78-4.52zM80.52-.48v-4.24h-2.08V1.2h12.32V-.48zm13.92-14.14v1.68h6.32c-.42 4.16-2.8 7.34-7.22 9.6l1.14 1.58c5.9-2.98 8.14-7.62 8.14-12.86zm15.84 5.22h-2.74v-7.14h-2.06V1.52h2.06v-9.2h2.74zm7.36 3.12a10.355 10.355 0 0 0 2.28.24 9.26 9.26 0 0 0 2.28-.26v3.94h-4.56zm2.28-7.58c2.72 0 4.62 1.2 4.62 3.1 0 1.92-1.9 3.12-4.62 3.12-2.74 0-4.64-1.2-4.64-3.12 0-1.9 1.9-3.1 4.64-3.1zm4.34 11.5v-4.7a4.176 4.176 0 0 0 2.3-3.7c0-2.88-2.8-4.72-6.64-4.72-3.86 0-6.64 1.84-6.64 4.72a4.153 4.153 0 0 0 2.3 3.7v4.7h-3.82v1.68h16.36v-1.68zm8.24-2.34h2.02c-.34-2.98 3.22-4.06 3.22-6.98 0-2.34-1.62-3.66-3.94-3.66a5.233 5.233 0 0 0-3.98 1.92l1.3 1.18a3.258 3.258 0 0 1 2.42-1.22 1.831 1.831 0 0 1 1.96 1.94c0 2.18-3.48 3.46-3 6.82zm1.04 4.96a1.531 1.531 0 0 0 1.54-1.6 1.565 1.565 0 0 0-1.54-1.64A1.553 1.553 0 0 0 132-1.34a1.519 1.519 0 0 0 1.54 1.6z" class="cls-4" transform="translate(768 1188)"/>
        <g id="타원_363" class="cls-5" transform="translate(585 1224)">
            <circle cx="11" cy="11" r="11" class="cls-7"/>
            <circle cx="11" cy="11" r="10.5" class="cls-8"/>
        </g>
        <g id="타원_364" class="cls-5" transform="translate(683 1224)">
            <circle cx="11" cy="11" r="11" class="cls-7"/>
            <circle cx="11" cy="11" r="10.5" class="cls-8"/>
        </g>
        <g id="타원_365" class="cls-5" transform="translate(793 1224)">
            <circle cx="11" cy="11" r="11" class="cls-7"/>
            <circle cx="11" cy="11" r="10.5" class="cls-8"/>
        </g>
        <g id="타원_366" class="cls-5" transform="translate(891 1224)">
            <circle cx="11" cy="11" r="11" class="cls-7"/>
            <circle cx="11" cy="11" r="10.5" class="cls-8"/>
        </g>
        <path id="패스_4697" d="M-9.156 0h5.88v-1.33h-2.016v-8.97H-6.51a6.33 6.33 0 0 1-2.24.784V-8.5h1.85v7.17h-2.256zM5.7-5.656a4.164 4.164 0 0 1-2.956-3.808v-.21h2.632v-1.162h-6.762v1.162h2.674v.21A4.4 4.4 0 0 1-1.82-5.39l.742 1.134a5.183 5.183 0 0 0 3.122-2.982A4.923 4.923 0 0 0 5-4.536zM1.778-2.492h5.474v2.268H1.778zM.364.924h8.3V-3.64h-8.3zm6.86-12.5V-8.5h-2.24v1.176h2.24v3.108h1.442v-7.364z" class="cls-4" transform="translate(633 1241)"/>
        <path id="패스_4698" d="M-15.68 0h6.65v-1.372h-2.576c-.5 0-1.148.042-1.68.1C-11.1-3.36-9.52-5.418-9.52-7.406a2.914 2.914 0 0 0-3.108-3.094 4.043 4.043 0 0 0-3.136 1.54l.91.9a2.8 2.8 0 0 1 2.03-1.148 1.68 1.68 0 0 1 1.75 1.89c0 1.694-1.568 3.7-4.606 6.384zm9.31.182a1.071 1.071 0 0 0 1.078-1.12A1.1 1.1 0 0 0-6.37-2.086 1.1 1.1 0 0 0-7.448-.938 1.071 1.071 0 0 0-6.37.182zm5.7 0a3.4 3.4 0 0 0 3.47-3.57A2.963 2.963 0 0 0-.336-6.664 2.9 2.9 0 0 0-1.75-6.3l.238-2.646H2.31V-10.3h-5.222l-.308 4.882.784.518a2.711 2.711 0 0 1 1.652-.588 1.911 1.911 0 0 1 1.96 2.156 2.014 2.014 0 0 1-2.044 2.2A3.3 3.3 0 0 1-3.276-2.24l-.77 1.05A4.56 4.56 0 0 0-.672.182zm12.304-5.838A4.164 4.164 0 0 1 8.68-9.464v-.21h2.632v-1.162H4.55v1.162h2.674v.21A4.4 4.4 0 0 1 4.116-5.39l.742 1.134A5.183 5.183 0 0 0 7.98-7.238a4.923 4.923 0 0 0 2.954 2.7zm-3.92 3.164h5.474v2.268H7.714zM6.3.924h8.3V-3.64H6.3zm6.86-12.5V-8.5h-2.24v1.176h2.24v3.108h1.44v-7.364z" class="cls-4" transform="translate(737 1241)"/>
        <path id="패스_4700" d="M-14.392-4.018l2.03-3.108c.294-.532.574-1.064.826-1.582h.056c-.028.56-.084 1.428-.084 1.988v2.7zm5.656 0h-1.316V-10.3h-1.862l-4.1 6.454v1.078h4.452V0h1.512v-2.772h1.316zm2.366 4.2a1.071 1.071 0 0 0 1.078-1.12A1.1 1.1 0 0 0-6.37-2.086 1.1 1.1 0 0 0-7.448-.938 1.071 1.071 0 0 0-6.37.182zm5.7 0a3.4 3.4 0 0 0 3.47-3.57A2.963 2.963 0 0 0-.336-6.664 2.9 2.9 0 0 0-1.75-6.3l.238-2.646H2.31V-10.3h-5.222l-.308 4.882.784.518a2.711 2.711 0 0 1 1.652-.588 1.911 1.911 0 0 1 1.96 2.156 2.014 2.014 0 0 1-2.044 2.2A3.3 3.3 0 0 1-3.276-2.24l-.77 1.05A4.56 4.56 0 0 0-.672.182zm12.304-5.838A4.164 4.164 0 0 1 8.68-9.464v-.21h2.632v-1.162H4.55v1.162h2.674v.21A4.4 4.4 0 0 1 4.116-5.39l.742 1.134A5.183 5.183 0 0 0 7.98-7.238a4.923 4.923 0 0 0 2.954 2.7zm-3.92 3.164h5.474v2.268H7.714zM6.3.924h8.3V-3.64H6.3zm6.86-12.5V-8.5h-2.24v1.176h2.24v3.108h1.44v-7.364z" class="cls-4" transform="translate(945 1241)"/>
        <path id="패스_4699" d="M-6.608.182c1.89 0 3.444-1.092 3.444-2.954a2.609 2.609 0 0 0-2.128-2.576v-.07A2.491 2.491 0 0 0-3.514-7.84c0-1.708-1.3-2.66-3.15-2.66a4.343 4.343 0 0 0-2.954 1.246l.84 1.008a3.017 3.017 0 0 1 2.058-.98 1.442 1.442 0 0 1 1.582 1.5c0 1.036-.672 1.806-2.7 1.806v1.19c2.324 0 3.052.742 3.052 1.89a1.73 1.73 0 0 1-1.96 1.708 3.33 3.33 0 0 1-2.438-1.136l-.784 1.036A4.277 4.277 0 0 0-6.608.182zM5.7-5.656a4.164 4.164 0 0 1-2.956-3.808v-.21h2.632v-1.162h-6.762v1.162h2.674v.21A4.4 4.4 0 0 1-1.82-5.39l.742 1.134a5.183 5.183 0 0 0 3.122-2.982A4.923 4.923 0 0 0 5-4.536zM1.778-2.492h5.474v2.268H1.778zM.364.924h8.3V-3.64h-8.3zm6.86-12.5V-8.5h-2.24v1.176h2.24v3.108h1.442v-7.364z" class="cls-4" transform="translate(841 1241)"/>
        <circle id="타원_367" cx="7" cy="7" r="7" fill="#1054b2" transform="translate(895 1228)"/>
        <path id="패스_4693" d="M11.6 8.862a5.469 5.469 0 0 0-3.3 5.1c0 1.87.726 2.97 2.134 2.97a1.71 1.71 0 0 0 1.76-1.848 1.669 1.669 0 0 0-1.76-1.694.9.9 0 0 0-.242.022 3.447 3.447 0 0 1 2.156-3.124zm5.5 0a5.469 5.469 0 0 0-3.3 5.1c0 1.87.726 2.97 2.134 2.97a1.71 1.71 0 0 0 1.76-1.848 1.669 1.669 0 0 0-1.76-1.694.9.9 0 0 0-.242.022 3.447 3.447 0 0 1 2.156-3.124zm10.582 3.1h4.18v-2.4H20.508v2.4h4.224v1.122c0 3.454-1.65 7.172-5.038 8.69l1.65 2.31a9.677 9.677 0 0 0 4.906-5.94 9.087 9.087 0 0 0 4.862 5.434l1.588-2.286a8.678 8.678 0 0 1-5.016-8.206zM33.73 7.63v20.262h2.9V7.63zm10.714 14.894h8.25v2.86h-8.25zm-2.86 5.126h13.948v-7.392H41.584zm13.574-11.814a26.623 26.623 0 0 0 .462-5.676V8.532H41.694v2.31H52.76a23.373 23.373 0 0 1-.484 4.994H39.428v2.31h18.348v-2.31zM59.492 9.7v2.33h2.728c-.154 4.07-.946 7-3.63 9.966l2.266 1.65c3.608-4 4.114-8.36 4.114-13.948zm6.16 0v2.33h2.178c-.154 4.51-.88 7.9-3.564 11.286l2.288 1.606c3.542-4.378 4-9.372 4-15.224zm12.078 5.85h-2.618V7.608h-2.926V27.87h2.926v-9.922h2.618zm8.69-3.586h4.18v-2.4H79.248v2.4h4.224v1.122c0 3.454-1.65 7.172-5.038 8.69l1.65 2.31a9.677 9.677 0 0 0 4.906-5.94 9.087 9.087 0 0 0 4.862 5.434l1.584-2.288a8.678 8.678 0 0 1-5.016-8.206zm6.05-4.334v20.262h2.9V7.63zm23.914-.022v20.328h2.9V7.608zm-7.984 1.43c-3.058 0-5.324 2.772-5.324 7.216 0 4.466 2.266 7.26 5.324 7.26s5.324-2.794 5.324-7.26c-.002-4.444-2.268-7.216-5.324-7.216zm0 2.618c1.5 0 2.53 1.606 2.53 4.6 0 3.014-1.034 4.62-2.53 4.62s-2.53-1.606-2.53-4.62c-.002-2.994 1.03-4.6 2.53-4.6zm27.72 10.89h2.9V7.63h-2.9v4.862h-3.146v2.442h3.146zm-2.772-5.412a49.017 49.017 0 0 1-7.612.484v-2.156h6.226v-6.49h-9.13v2.31h6.27v2h-6.248v6.668h1.672a54.406 54.406 0 0 0 9.042-.506zm-4.884 8.1v-3.876h-2.9v6.182h13.97v-2.31zM149.01 13.68a2.586 2.586 0 0 1 5.17 0 2.586 2.586 0 0 1-5.17 0zm11.022-1.1v2.2H156.8a4.7 4.7 0 0 0 .132-1.1 5.825 5.825 0 0 0-.11-1.1zm0 4.51v2.42h2.9V7.63h-2.9v2.64h-4.466a5.543 5.543 0 0 0-3.982-1.562 5.04 5.04 0 0 0-5.324 4.972 5.036 5.036 0 0 0 5.324 4.95 5.5 5.5 0 0 0 3.938-1.54zm-3.96 8.58c-2.662 0-4.07-.572-4.07-1.76s1.408-1.76 4.07-1.76 4.092.572 4.092 1.76-1.43 1.76-4.092 1.76zm0-5.764c-4.268 0-6.93 1.474-6.93 4 0 2.508 2.662 4 6.93 4 4.29 0 6.952-1.5 6.952-4 0-2.526-2.662-4-6.952-4zm21.582-10.054h-4.488V7.718h-2.9v2.134h-4.536v2.288h11.924zm-8.14 6.908c0-1.056.88-1.628 2.2-1.628s2.2.572 2.2 1.628-.88 1.628-2.2 1.628-2.2-.572-2.2-1.628zm3.652 3.652c2.112-.418 3.5-1.8 3.5-3.652 0-2.288-2.046-3.828-4.95-3.828s-4.95 1.54-4.95 3.828c0 1.848 1.386 3.234 3.5 3.652v1.716c-1.782.044-3.454.044-4.906.044l.352 2.354a64.661 64.661 0 0 0 12.254-.836l-.22-2.09c-1.452.22-3.014.33-4.576.418zm11.044-4.532h-2.53V7.63h-2.9v20.262h2.9v-9.614h2.53zm17.27-2.772h-11.154V8.356h-2.9v7.062h14.054zm-11.33 8.316h-2.926v6.05h14.366v-2.332h-11.44zm-4.994-3.938v2.332H203.5v-2.332zm26.95-4.334a2.57 2.57 0 0 1 5.126 0 2.569 2.569 0 0 1-5.126 0zm11 1.166v4.026h2.9V7.63h-2.9v4.334h-3.256a5.059 5.059 0 0 0-5.192-3.586c-3.036 0-5.324 2-5.324 4.774 0 2.794 2.288 4.8 5.324 4.8a5.1 5.1 0 0 0 5.214-3.63zm-7.084 11.176h-2.046V23.58h2.046zm8.668-6.16h-2.86v1.518a5.107 5.107 0 0 1-3.146 4.73V19.51h-2.662v1.98h-2.046v-1.98h-2.684v8.14h7.392v-1.518l1.144 1.738a6.16 6.16 0 0 0 3.388-3.168 5.985 5.985 0 0 0 3.476 3.168l1.43-2.156a4.811 4.811 0 0 1-3.432-4.862zm9.548-8.272a2.379 2.379 0 0 1 2.552 2.464 2.554 2.554 0 0 1-5.1 0 2.379 2.379 0 0 1 2.548-2.464zm8.448 3.63v4.268h2.9V7.63h-2.9v4.708h-3.256a5.079 5.079 0 0 0-5.192-3.674c-3.014 0-5.3 2.024-5.3 4.862s2.288 4.862 5.3 4.862a5.1 5.1 0 0 0 5.214-3.7zm1.012 5.06h-2.86v.748a5.6 5.6 0 0 1-2.31 4.51 5.386 5.386 0 0 1-2.266-4.51v-.748h-2.816v.748a5.217 5.217 0 0 1-3.74 5.016l1.43 2.09a6.3 6.3 0 0 0 3.74-3.388 6.259 6.259 0 0 0 3.674 3.608 6.51 6.51 0 0 0 3.652-3.674 6.133 6.133 0 0 0 3.828 3.454l1.452-2.09A5.007 5.007 0 0 1 243.7 20.5zm8.206-7.9h6.556V9.5H249v13.574h1.738a50.444 50.444 0 0 0 9.35-.66l-.286-2.4a50.366 50.366 0 0 1-7.9.638zm15.136 3.258h-2.948V7.63h-2.9v20.306h2.9V17.508h2.948zm3.388 11.2a2.115 2.115 0 1 0-2-2.112 2.026 2.026 0 0 0 2 2.11zm22.088-18.7v20.326h2.9V7.608zm-7.986 1.43c-3.058 0-5.324 2.772-5.324 7.216 0 4.466 2.266 7.26 5.324 7.26s5.324-2.794 5.324-7.26c0-4.446-2.266-7.218-5.324-7.218zm0 2.618c1.5 0 2.53 1.606 2.53 4.6 0 3.014-1.034 4.62-2.53 4.62s-2.53-1.61-2.53-4.624c0-2.992 1.034-4.598 2.53-4.598zm27.72 9.438h2.9V7.63h-2.9V13h-3.5v2.354h3.5zM299.512 9.148v2.332h6.028c-.418 2.9-2.552 5.126-7.062 6.49l1.188 2.266c6.116-1.914 9-5.544 9-11.088zM309.786 19.6H306.9v.66c0 2.31-2.046 4.664-6.336 5.324l1.122 2.288c3.168-.55 5.434-2 6.644-3.938 1.21 1.936 3.454 3.366 6.622 3.894l1.148-2.268c-4.29-.66-6.314-3.014-6.314-5.3zm17.16-9.086c2.728 0 4.356.66 4.356 1.892 0 1.254-1.628 1.87-4.356 1.87-2.706 0-4.334-.616-4.334-1.87 0-1.234 1.628-1.894 4.334-1.894zm0 6.072c4.422 0 7.348-1.606 7.348-4.18s-2.926-4.18-7.348-4.18c-4.4 0-7.326 1.606-7.326 4.18s2.926 4.178 7.326 4.178zm-4.026 5.06h-2.9v5.9h14.036V25.23H322.92zm-5.126-3.674v2.31h18.3V17.97zM84.209 43.68a2.586 2.586 0 0 1 5.17 0 2.586 2.586 0 0 1-5.17 0zm11.022-1.1v2.2H92a4.7 4.7 0 0 0 .132-1.1 5.825 5.825 0 0 0-.11-1.1zm0 4.51v2.42h2.9V37.63h-2.9v2.64h-4.466a5.543 5.543 0 0 0-3.982-1.562 4.973 4.973 0 1 0 0 9.922 5.5 5.5 0 0 0 3.938-1.54zm-3.96 8.58c-2.662 0-4.07-.572-4.07-1.76s1.408-1.76 4.07-1.76 4.092.572 4.092 1.76-1.43 1.76-4.092 1.76zm0-5.764c-4.268 0-6.93 1.474-6.93 4 0 2.508 2.662 4 6.93 4 4.29 0 6.952-1.5 6.952-4 0-2.526-2.662-4-6.952-4zm21.582-10.054h-4.488v-2.134h-2.9v2.134h-4.532v2.288h11.924zm-8.14 6.908c0-1.056.88-1.628 2.2-1.628s2.2.572 2.2 1.628-.88 1.628-2.2 1.628-2.2-.572-2.2-1.628zm3.652 3.652c2.112-.418 3.5-1.8 3.5-3.652 0-2.288-2.046-3.828-4.95-3.828s-4.95 1.54-4.95 3.828c0 1.848 1.386 3.234 3.5 3.652v1.716c-1.782.044-3.454.044-4.906.044l.352 2.354a64.66 64.66 0 0 0 12.254-.836l-.22-2.09c-1.452.22-3.014.33-4.576.418zm11.044-4.532h-2.53v-8.25h-2.9v20.262h2.9v-9.614h2.53zm17.776-8.228h-2.926v14.542h2.926zm-13.706 6.424a2.528 2.528 0 0 1 2.684-2.64 2.629 2.629 0 1 1 0 5.258 2.534 2.534 0 0 1-2.684-2.618zm8.184 0a5.525 5.525 0 1 0-5.5 5.126 5.2 5.2 0 0 0 5.5-5.126zM126.6 55.23v-4.466h-2.9v6.776h13.992v-2.31zm14.259-15.53v2.354h6.622c-.528 4.488-3.036 7.7-7.744 10.12l1.628 2.222c6.732-3.41 9.042-8.624 9.042-14.7zm17.776 5.654H155.8v-7.746h-2.9v20.24h2.9V47.75h2.838zm14.058 2.992a17.674 17.674 0 0 0 .11-1.936 14.019 14.019 0 0 0-.132-1.98h1.782v3.916zm-4.268 2.706c-1.144 0-1.8-1.54-1.8-4.642s.66-4.62 1.8-4.62c1.122 0 1.782 1.518 1.782 4.62s-.66 4.64-1.782 4.64zm6.028-8.954h-2.332c-.748-1.958-2.046-3.036-3.7-3.036-2.706 0-4.4 2.772-4.4 7.348 0 4.6 1.694 7.37 4.4 7.37 1.672 0 2.97-1.122 3.718-3.08h2.31v6.27h2.706V37.96h-2.706zm4.026-4.488v20.26h2.75V37.608zm22.352 4.95c-4.554-.44-6.754-2.486-6.754-4.444v-.376h-2.992v.374c0 1.958-2.2 4-6.754 4.444l.946 2.178c3.5-.374 6.028-1.694 7.3-3.542 1.276 1.848 3.784 3.168 7.282 3.542zm.9 5.3v-2.288h-18.3v2.288h7.678v1.3h-5.588v2.156h11.132v1.1h-11.11v5.324h14.5v-2.18h-11.62v-1.144h11.088v-5.258h-5.5v-1.3zm18.106-10.208h-2.926v14.542h2.926zm-13.706 6.424a2.528 2.528 0 0 1 2.684-2.64 2.629 2.629 0 1 1 0 5.258 2.534 2.534 0 0 1-2.682-2.618zm8.184 0a5.525 5.525 0 1 0-5.5 5.126 5.2 5.2 0 0 0 5.502-5.126zm-5.06 11.154v-4.466h-2.9v6.776h13.992v-2.31zm14.258-15.53v2.354h6.622c-.528 4.488-3.036 7.7-7.744 10.12l1.628 2.222c6.732-3.41 9.042-8.624 9.042-14.7zm17.776 5.654h-2.838v-7.746h-2.9v20.24h2.9V47.75h2.838zm3.828 5.1h2.816c-.33-3.1 3.5-4.158 3.5-7.282 0-2.816-1.936-4.18-4.576-4.18a6.087 6.087 0 0 0-4.62 2.2l1.782 1.628a3.393 3.393 0 0 1 2.442-1.232 1.716 1.716 0 0 1 1.87 1.8c-.002 2.118-3.742 3.526-3.214 7.068zm1.408 5.852a2.115 2.115 0 1 0-2-2.112 2.026 2.026 0 0 0 2 2.114zm7.018-9.636a5.4 5.4 0 0 0 3.322-5.082c0-1.892-.748-2.992-2.134-2.992a1.71 1.71 0 0 0-1.76 1.848 1.669 1.669 0 0 0 1.76 1.694.749.749 0 0 0 .22-.022 3.453 3.453 0 0 1-2.134 3.146zm5.5 0a5.4 5.4 0 0 0 3.322-5.082c0-1.892-.748-2.992-2.134-2.992a1.711 1.711 0 0 0-1.76 1.848 1.669 1.669 0 0 0 1.76 1.694.748.748 0 0 0 .22-.022 3.453 3.453 0 0 1-2.134 3.146zM28.813 67.608v20.328h2.9V67.608zm-7.986 1.43c-3.058 0-5.324 2.772-5.324 7.216 0 4.466 2.266 7.26 5.324 7.26s5.324-2.794 5.324-7.26c0-4.444-2.266-7.216-5.324-7.216zm0 2.618c1.5 0 2.53 1.606 2.53 4.6 0 3.014-1.034 4.62-2.53 4.62s-2.53-1.606-2.53-4.62c.003-2.994 1.034-4.6 2.53-4.6zm20.108.352h2.948v-2.354h-9.02v2.354h3.256V73c0 3.476-1.056 7.106-4 8.976l1.716 2.134a9.406 9.406 0 0 0 3.718-5.434 8.308 8.308 0 0 0 3.608 4.95l1.694-2.112c-2.93-1.714-3.92-5.128-3.92-8.514zm4.114 2.53h-2.574v2.354h2.574v10.076h2.706V67.96h-2.706zm4.092-6.93V87.87h2.75V67.608zm5.434 2.09v2.332H57.3c-.154 4.07-.946 7-3.63 9.966l2.266 1.65c3.608-4 4.114-8.36 4.114-13.948zm6.16 0v2.332h2.178c-.154 4.51-.88 7.9-3.564 11.286l2.288 1.606c3.542-4.378 4-9.372 4-15.224zm12.078 5.852h-2.618v-7.942h-2.926V87.87h2.926v-9.922h2.618zm8.69-3.586h4.18v-2.4H74.331v2.4h4.224v1.122c0 3.454-1.65 7.172-5.038 8.69l1.65 2.31a9.677 9.677 0 0 0 4.906-5.94 9.087 9.087 0 0 0 4.862 5.434l1.584-2.288a8.678 8.678 0 0 1-5.019-8.206zm6.05-4.334v20.262h2.9V67.63zm22.022 5.478H98.421v-4.752h-2.9v7.062h14.058zm-11.33 8.316h-2.926v6.05h14.366v-2.332h-11.44zm-4.994-3.938v2.332H111.6v-2.332zm29.04 4.334h-2.9v5.72h14.058v-2.31h-11.158zm.088-9.24h7.9v1.76h-7.9zm5.368 5.742v-1.694h5.412v-8.272h-2.882v1.98h-7.9v-1.98H119.5v8.272h5.346v1.694h-7.678v2.31h18.326v-2.31zm25.542-1.452a6.262 6.262 0 0 1-4.576-5.808h3.938v-2.31h-10.89v2.31h3.982a6.582 6.582 0 0 1-4.774 6.182l1.474 2.288a7.931 7.931 0 0 0 4.84-4.378 7.531 7.531 0 0 0 4.6 3.982zM144.2 82.9h10.912v5.016h2.9v-7.328H144.2zm10.912-15.246v4.816h-2.992v2.33h2.992v4.884h2.9V67.652zm12.914 5.5a2.569 2.569 0 1 1 2.552 2.4 2.324 2.324 0 0 1-2.549-2.402zm11 1.166v4.026h2.9V67.63h-2.9v4.334h-3.256a5.059 5.059 0 0 0-5.192-3.586c-3.036 0-5.324 2-5.324 4.774 0 2.794 2.288 4.8 5.324 4.8a5.1 5.1 0 0 0 5.214-3.63zm-7.084 11.176H169.9V83.58h2.046zm8.668-6.16h-2.86v1.518a5.107 5.107 0 0 1-3.146 4.73V79.51h-2.662v1.98H169.9v-1.98h-2.684v8.14h7.392v-1.518l1.144 1.738a6.16 6.16 0 0 0 3.388-3.168 5.985 5.985 0 0 0 3.476 3.168l1.43-2.156a4.811 4.811 0 0 1-3.432-4.862zm20.29-6.228h-11.157v-4.752h-2.9v7.062H200.9zm-11.33 8.316h-2.926v6.05h14.366v-2.332h-11.44zm-4.994-3.938v2.332h18.348v-2.332zm41.624-.308c-4.576-.792-7.084-3.938-7.084-6.908v-1.452h-3.1v1.452c0 2.9-2.53 6.116-7.084 6.908l1.232 2.42a10.171 10.171 0 0 0 7.392-5.236 10.269 10.269 0 0 0 7.414 5.236zm-17.71 5.9v2.354h18.348v-2.358zm30.206.242v-3.37h5.764v-2.288h-11.289V75.55h10.67v-2.244h-10.67v-1.98H244.3v-2.31h-14.08V79.95h5.566v3.366h-7.722v2.354h18.348v-2.354zm13-6.138h6.578v-7.836H248.7v2.31h6.6v3.234h-6.578v8.338h1.826a55.567 55.567 0 0 0 9.944-.7l-.308-2.354a50.706 50.706 0 0 1-8.492.66zm9.9-9.57v20.324h2.9V67.608zm20.834 5.258v2.35h3.17v7.194h2.9V67.63h-2.9v5.236zm1.342 4.664a6.236 6.236 0 0 1-4.576-5.962V71.3h3.938v-2.31h-10.89v2.31h3.982v.286a6.512 6.512 0 0 1-4.774 6.292l1.452 2.31a7.945 7.945 0 0 0 4.862-4.4 7.5 7.5 0 0 0 4.6 4zm-5.72 7.7v-4.052h-2.9v6.358h13.816v-2.31zm13.86-15.092v2.31h5.126c-.374 3.982-2.09 6.908-6.16 9.284l1.694 2.024c5.654-3.3 7.326-7.942 7.326-13.618zm13.816-2.508v7.634h-1.8v-7.11h-2.706v18.876h2.706V77.6h1.8v10.3h2.772V67.63zm15.6 15.664V80.28h6.138v-2.332h-11.751v-2.266H327v-6.754h-14.19v2.31h11.33v2.178h-11.307v6.864h5.588v3.014h-7.7v2.376h18.348v-2.376zM71.647 108.344a17.676 17.676 0 0 0 .11-1.936 14.018 14.018 0 0 0-.132-1.98h1.782v3.916zm-4.268 2.706c-1.144 0-1.8-1.54-1.8-4.642s.66-4.62 1.8-4.62c1.122 0 1.782 1.518 1.782 4.62s-.661 4.642-1.782 4.642zm6.028-8.954h-2.332c-.748-1.958-2.046-3.036-3.7-3.036-2.706 0-4.4 2.772-4.4 7.348 0 4.6 1.694 7.37 4.4 7.37 1.672 0 2.97-1.122 3.718-3.08h2.31v6.27h2.706V97.96h-2.702zm4.026-4.488v20.262h2.75V97.608zm22.352 4.95c-4.554-.44-6.754-2.486-6.754-4.444v-.374h-2.992v.374c0 1.958-2.2 4-6.754 4.444l.946 2.178c3.5-.374 6.028-1.694 7.3-3.542 1.276 1.848 3.784 3.168 7.282 3.542zm.9 5.3v-2.288h-18.3v2.288h7.678v1.3h-5.59v2.156h11.132v1.1H84.5v5.324H99v-2.178H87.377v-1.144h11.088v-5.258h-5.5v-1.3zM116 109.51h2.9V97.63H116v3.7h-3.7v2.354h3.7zm-1.848-2.926a6.163 6.163 0 0 1-4.532-6.226v-1.672h-2.948v1.8a6.678 6.678 0 0 1-4.884 6.644l1.518 2.332a8 8 0 0 0 4.906-4.51 7.34 7.34 0 0 0 4.422 3.916zm-2.09 9.086c-2.662 0-4.048-.55-4.048-1.694 0-1.166 1.386-1.716 4.048-1.716 2.64 0 4.026.55 4.026 1.716-.001 1.144-1.388 1.694-4.027 1.694zm0-5.654c-4.312 0-6.952 1.452-6.952 3.96 0 2.464 2.64 3.916 6.952 3.916 4.29 0 6.93-1.452 6.93-3.916-.001-2.508-2.641-3.96-6.931-3.96zm18.638-9.966c2.948 0 4.334.418 4.334 1.32 0 .946-1.386 1.342-4.334 1.342-2.926 0-4.312-.4-4.312-1.342-.005-.902 1.381-1.32 4.312-1.32zm0 4.774c4.642 0 7.348-1.21 7.348-3.454 0-2.222-2.706-3.454-7.348-3.454-4.62 0-7.326 1.232-7.326 3.454-.005 2.244 2.701 3.454 7.326 3.454zm-4.158 9.592h11.088V109.2h-13.997v2.134h11.132v1.078h-11.11v5.324h14.5v-2.176h-11.618zm-4.994-8.624v2.266h18.3v-2.266zm35.86-6.028h-4.532v-2.156h-2.926v2.156h-4.488v2.266h11.924zm-8.184 6.886c0-1.1.9-1.694 2.2-1.694 1.276 0 2.2.594 2.2 1.694 0 1.122-.924 1.716-2.2 1.716-1.303 0-2.205-.594-2.205-1.716zm7.172 0c0-2.288-2.068-3.894-4.972-3.894s-4.972 1.606-4.972 3.894c0 2.332 2.068 3.916 4.972 3.916s4.967-1.584 4.967-3.916zm-5.148 5.016h-2.9v5.874h13.794v-2.31h-10.89zm10.164-7.854V97.63h-2.9v15.158h2.9v-6.578h2.684v-2.4zm9.592 2.97c3.718-.264 6.248-1.3 7.524-2.9 1.254 1.606 3.784 2.64 7.5 2.9l.858-2.156c-4.334-.264-6.314-1.518-6.688-2.9h5.72v-2.27h-5.962v-1.782h-2.9v1.782h-5.94v2.266h5.72c-.374 1.386-2.354 2.64-6.688 2.9zm7.48 8.976c-2.75 0-4.092-.4-4.092-1.3 0-.924 1.342-1.3 4.092-1.3s4.092.374 4.092 1.3c-.005.904-1.347 1.3-4.097 1.3zm0-4.73c-4.422 0-7.018 1.21-7.018 3.432s2.6 3.432 7.018 3.432 7.04-1.21 7.04-3.432-2.624-3.432-7.045-3.432zm-9.108-3.41v2.288h18.3v-2.288zm31.46 4.576h3.256v3.19h-3.256zm6.094 0h2.75v-2.288h-14.437v2.288h2.728v3.19h-2.926v2.266h14.828v-2.266h-2.948zm-3.036-5.962v-1.738h5.764v-2.288H198.5v-4.18h-2.9v6.468h5.39v1.738h-7.678v2.31h18.3v-2.31zm25.806-8.58h-2.926v14.542h2.926zm-13.706 6.424a2.528 2.528 0 0 1 2.684-2.64 2.629 2.629 0 1 1 0 5.258 2.534 2.534 0 0 1-2.689-2.618zm8.184 0a5.525 5.525 0 1 0-5.5 5.126 5.2 5.2 0 0 0 5.495-5.126zm-5.06 11.154v-4.466h-2.9v6.776H230.2v-2.31zm20.68-11.55a2.586 2.586 0 0 1 5.17 0 2.586 2.586 0 0 1-5.17 0zm11.022-1.1v2.2h-3.234a4.7 4.7 0 0 0 .132-1.1 5.825 5.825 0 0 0-.11-1.1zm0 4.51v2.42h2.9V97.63h-2.9v2.64h-4.466a5.543 5.543 0 0 0-3.982-1.562 4.973 4.973 0 1 0 0 9.922 5.5 5.5 0 0 0 3.938-1.54zm-3.96 8.58c-2.662 0-4.07-.572-4.07-1.76s1.408-1.76 4.07-1.76 4.092.572 4.092 1.76-1.435 1.76-4.097 1.76zm0-5.764c-4.268 0-6.93 1.474-6.93 4 0 2.508 2.662 4 6.93 4 4.29 0 6.952-1.5 6.952-4-.005-2.526-2.667-4-6.957-4zm21.582-10.054h-4.488v-2.134h-2.9v2.134h-4.532v2.288h11.924zm-8.14 6.908c0-1.056.88-1.628 2.2-1.628s2.2.572 2.2 1.628-.88 1.628-2.2 1.628-2.202-.572-2.202-1.628zm3.652 3.652c2.112-.418 3.5-1.8 3.5-3.652 0-2.288-2.046-3.828-4.95-3.828s-4.95 1.54-4.95 3.828c0 1.848 1.386 3.234 3.5 3.652v1.716c-1.782.044-3.454.044-4.906.044l.352 2.354a64.661 64.661 0 0 0 12.254-.836l-.22-2.09c-1.452.22-3.014.33-4.576.418zm11.044-4.532h-2.53v-8.25h-2.9v20.262h2.9v-9.614h2.53zm3.564 10.428a2.115 2.115 0 1 0-2-2.112 2.026 2.026 0 0 0 1.995 2.112z" class="cls-4" transform="translate(601 955)"/>
    </g>
</svg>
