<svg xmlns="http://www.w3.org/2000/svg" width="848" height="496" viewBox="0 0 848 496">
    <defs>
        <linearGradient id="linear-gradient" x1=".008" x2="1.024" y1=".014" y2="1" gradientUnits="objectBoundingBox">
            <stop offset="0" stop-color="#2958d7"/>
            <stop offset="1" stop-color="#6ad0e8"/>
        </linearGradient>
        <filter id="사각형_2744" width="377" height="324" x="70" y="115" filterUnits="userSpaceOnUse">
            <feOffset dy="5"/>
            <feGaussianBlur result="blur" stdDeviation="5"/>
            <feFlood flood-color="#9dabbe" flood-opacity=".302"/>
            <feComposite in2="blur" operator="in"/>
            <feComposite in="SourceGraphic"/>
        </filter>
        <style>
            .cls-4{fill:#03020f}.cls-8{fill:#8f04e6;opacity:.719}
        </style>
    </defs>
    <g id="img_boundingbox" transform="translate(-364 -168)">
        <path id="img_boundingbox-2" fill="url(#linear-gradient)" d="M10 0h828a10 10 0 0 1 10 10v476a10 10 0 0 1-10 10H10a10 10 0 0 1-10-10V10A10 10 0 0 1 10 0z" transform="translate(364 168)"/>
        <rect id="사각형_2681" width="730" height="362" fill="#fff" rx="10" transform="translate(423 259)"/>
        <g filter="url(#사각형_2744)" transform="translate(364 168)">
            <g id="사각형_2744-2" fill="#fff" stroke="#c1d5e8" transform="translate(85 125)">
                <rect width="347" height="294" stroke="none" rx="10"/>
                <rect width="346" height="293" x=".5" y=".5" fill="none" rx="9.5"/>
            </g>
        </g>
        <path id="패스_4686" d="M-152.647-8.206c0-3.5 1.54-5.588 3.96-5.588s3.96 2.09 3.96 5.588c0 3.652-1.54 5.852-3.96 5.852s-3.96-2.2-3.96-5.852zm11.374 9.746a5.749 5.749 0 0 1-1.782.264 4.17 4.17 0 0 1-3.7-1.738c3.234-.836 5.346-3.828 5.346-8.272 0-5.28-2.97-8.382-7.282-8.382s-7.282 3.08-7.282 8.382c0 4.642 2.31 7.722 5.786 8.382a7.11 7.11 0 0 0 6.754 4.246 6.792 6.792 0 0 0 2.728-.484zm4.4-1.232a2.026 2.026 0 0 0 2.024-2.108 2.026 2.026 0 0 0-2.024-2.112 2.022 2.022 0 0 0-2 2.112 2.022 2.022 0 0 0 2 2.108zm19.514-11.132h-1.166v-2.266h1.166zm2.376-6.688h-2.376v2.244h-1.166v-2.244h-2.354v8.954h5.9zm-9.042 6.688h-1.21v-2.266h1.21zm2.354-6.688h-2.354v2.244h-1.21v-2.244h-2.376v8.954h5.94zm-.308 15.774h10.89v-5.456h-13.816v2.222h10.956v1.144h-10.912v5.566h14.41V-.506h-11.528zm10.89-12.716v-3.916h-2.838v10.45h2.838v-4.18h1.936v-2.354zm4.048-2.4v2.31h6.6c-.462 2.838-2.97 5.192-7.48 6.424l1.21 2.31c6.028-1.738 9.416-5.544 9.416-11.044zM-102-5.324h-2.9V1.54h13.772V-.77H-102zm10.164-7.392v-5.654h-2.9v14.5h2.9v-6.47h2.706v-2.376zM-70.9-9.174c-3.19-.946-4.576-3.212-4.62-5.522h3.96v-2.332h-10.951v2.328h4.026a6.56 6.56 0 0 1-4.774 6.2l1.452 2.266a7.892 7.892 0 0 0 4.884-4.366 7.469 7.469 0 0 0 4.642 3.67zM-73.645-.33c-2.6 0-3.982-.55-3.982-1.694 0-1.166 1.386-1.716 3.982-1.716 2.574 0 3.96.55 3.96 1.716 0 1.144-1.386 1.694-3.96 1.694zm0-5.654c-4.224 0-6.864 1.474-6.864 3.96 0 2.464 2.64 3.916 6.864 3.916 4.2 0 6.842-1.452 6.842-3.916.003-2.486-2.64-3.96-6.842-3.96zm6.622-7.722v-4.664h-2.9v12.034h2.9v-4.994h2.684v-2.376zm5.06-2.838v13.618h9.746v-13.618zm6.886 2.288v9.042H-59.1v-9.042zm6.006-4.114V1.936h2.9V-18.37zm12.65 1.342c-3.168 0-5.566 2.09-5.566 4.994 0 2.926 2.4 4.994 5.566 4.994s5.588-2.068 5.588-4.994c0-2.904-2.42-4.994-5.588-4.994zm0 2.486a2.494 2.494 0 0 1 2.75 2.508 2.494 2.494 0 0 1-2.75 2.508 2.494 2.494 0 0 1-2.75-2.508 2.494 2.494 0 0 1 2.75-2.508zm7.48-3.85V1.936h2.9v-20.328zm-13.53 16.214A65.309 65.309 0 0 0-29.865-3.1l-.176-2.09a91.126 91.126 0 0 1-12.8.66zm40.238-8.932a19.165 19.165 0 0 0 .633-5.456v-1.144h-7.26v2.288h4.422a16.861 16.861 0 0 1-.589 4.022zm-9.2.066a12.686 12.686 0 0 0 1.056-5.588v-1.078h-6.27v2.288h3.432a12.8 12.8 0 0 1-1.056 3.96zm9.35 7.612v-2.244h-5.43v-1.606h-2.948v1.606h-5.412v2.244h5.3c-.462 1.386-2.42 2.728-6.116 3.08l.968 2.156c3.256-.352 5.544-1.474 6.732-3.036C-7.8.352-5.489 1.452-2.233 1.8l.968-2.156C-4.961-.7-6.941-2.046-7.4-3.432zm-5.126-6.8v-2.86h-2.838v2.86H-18.1V-7.9H.165v-2.33zm16.482-1.054h-3.96v-3.872h3.96zm2.86-6.138H2.475V-9h9.658zM7.359-1.914h10.472v-5.544H4.455v2.244h10.516V-4H4.477v5.65H18.4V-.594H7.359zm10.472-12.562v-3.894h-2.9v10.12h2.9v-3.85h2.662v-2.376zm13.222-1.012c2.728 0 4.356.66 4.356 1.892 0 1.254-1.628 1.87-4.356 1.87-2.706 0-4.334-.616-4.334-1.87 0-1.232 1.628-1.892 4.334-1.892zm0 6.072c4.422 0 7.348-1.606 7.348-4.18s-2.926-4.18-7.348-4.18c-4.4 0-7.326 1.606-7.326 4.18s2.926 4.18 7.326 4.18zm-4.026 5.06h-2.9v5.9h14.032V-.77H27.027zM21.9-8.03v2.31h18.3v-2.31zM60-11.484h-8.333v-3.608H60zm2.838-5.9H48.807V-9.2h14.036zm2.2 10.34H46.695v2.31h7.656v6.626h2.9V-4.73h7.788zm4.708-5.038a2.419 2.419 0 0 1 2.554-2.57 2.442 2.442 0 0 1 2.6 2.574 2.436 2.436 0 0 1-2.6 2.552 2.413 2.413 0 0 1-2.549-2.552zm11 1.232v6.05h2.9v-13.57h-2.9v5.17h-3.207a5.1 5.1 0 0 0-5.239-3.916 5.066 5.066 0 0 0-5.324 5.038A5.062 5.062 0 0 0 72.3-7.062a5.145 5.145 0 0 0 5.214-3.784zM78.37-6.01H75.4v.55c0 1.98-2.156 4.378-6.4 4.994L70.081 1.8c3.256-.484 5.566-1.958 6.776-3.894C78.067-.132 80.4 1.32 83.7 1.8l1.055-2.262c-4.312-.594-6.38-2.882-6.38-4.994zm25.19-12.342h-2.926v14.546h2.926zm-13.701 6.428a2.528 2.528 0 0 1 2.684-2.64 2.5 2.5 0 0 1 2.662 2.64 2.505 2.505 0 0 1-2.662 2.618 2.534 2.534 0 0 1-2.684-2.618zm8.184 0a5.2 5.2 0 0 0-5.5-5.148 5.22 5.22 0 0 0-5.522 5.148A5.229 5.229 0 0 0 92.543-6.8a5.21 5.21 0 0 0 5.5-5.124zM92.983-.77v-4.466h-2.9V1.54h13.992V-.77zm14.7-15.532v2.354h6.617c-.528 4.488-3.036 7.7-7.744 10.12l1.628 2.222c6.732-3.41 9.042-8.624 9.042-14.7zm17.776 5.654h-2.838v-7.744h-2.9v20.24h2.9V-8.25h2.838zm8.25 3.96a11.927 11.927 0 0 0 2.222.2 12.168 12.168 0 0 0 2.244-.2v3.872H133.7zm2.222-8.4c2.816 0 4.708 1.144 4.708 3.168 0 2-1.892 3.168-4.708 3.168s-4.686-1.166-4.686-3.168c-.004-2.028 1.866-3.172 4.682-3.172zm5.126 12.276v-4.95a4.825 4.825 0 0 0 2.442-4.158c0-3.322-3.19-5.456-7.568-5.456-4.356 0-7.546 2.134-7.546 5.456a4.735 4.735 0 0 0 2.442 4.158v4.95h-4.048v2.35h18.348v-2.354zm8.69-2.728h2.816c-.33-3.1 3.5-4.158 3.5-7.282 0-2.816-1.936-4.18-4.576-4.18a6.087 6.087 0 0 0-4.62 2.2l1.782 1.628a3.393 3.393 0 0 1 2.442-1.232 1.716 1.716 0 0 1 1.87 1.8c-.006 2.112-3.746 3.52-3.218 7.062zm1.404 5.848a2.026 2.026 0 0 0 2.024-2.108 2.026 2.026 0 0 0-2.024-2.112 2.022 2.022 0 0 0-2 2.112 2.022 2.022 0 0 0 2 2.108z" class="cls-4" transform="translate(966 324)"/>
        <path id="패스_4691" d="M-128.414-10.824h-1.166v-2.266h1.166zm2.376-6.688h-2.376v2.244h-1.166v-2.244h-2.354v8.954h5.9zm-9.042 6.688h-1.21v-2.266h1.21zm2.354-6.688h-2.354v2.244h-1.21v-2.244h-2.376v8.954h5.94zm-.308 15.774h10.89v-5.456h-13.816v2.222H-125v1.144h-10.912v5.566h14.41V-.506h-11.528zm10.89-12.716v-3.916h-2.838v10.45h2.838v-4.18h1.936v-2.354zm4.048-2.4v2.31h6.6c-.462 2.838-2.97 5.192-7.48 6.424l1.21 2.31c6.028-1.738 9.416-5.544 9.416-11.044zm5.038 11.528h-2.9V1.54h13.772V-.77h-10.868zm10.164-7.392v-5.652h-2.9v14.5h2.9v-6.47h2.706v-2.376zm20.944 3.544c-3.19-.946-4.576-3.212-4.62-5.522h3.96v-2.332h-10.956v2.328h4.026a6.56 6.56 0 0 1-4.774 6.2l1.452 2.266a7.892 7.892 0 0 0 4.884-4.366 7.469 7.469 0 0 0 4.642 3.67zM-84.7-.33c-2.6 0-3.982-.55-3.982-1.694 0-1.166 1.386-1.716 3.982-1.716 2.574 0 3.96.55 3.96 1.716 0 1.144-1.386 1.694-3.96 1.694zm0-5.654c-4.224 0-6.864 1.474-6.864 3.96 0 2.464 2.64 3.916 6.864 3.916 4.2 0 6.842-1.452 6.842-3.916 0-2.486-2.642-3.96-6.842-3.96zm6.622-7.722v-4.664h-2.9v12.034h2.9v-4.994h2.684v-2.376zm5.06-2.838v13.618h9.746v-13.618zm6.886 2.288v9.042h-4.026v-9.042zm6.006-4.114V1.936h2.9V-18.37zm12.65 1.342c-3.168 0-5.566 2.09-5.566 4.994 0 2.926 2.4 4.994 5.566 4.994s5.588-2.068 5.588-4.994c0-2.904-2.42-4.994-5.588-4.994zm0 2.486a2.494 2.494 0 0 1 2.75 2.508 2.494 2.494 0 0 1-2.75 2.508 2.494 2.494 0 0 1-2.75-2.508 2.494 2.494 0 0 1 2.75-2.508zm7.48-3.85V1.936h2.9v-20.328zm-13.53 16.214A65.309 65.309 0 0 0-40.92-3.1l-.176-2.09a91.126 91.126 0 0 1-12.8.66zm40.238-8.932a19.165 19.165 0 0 0 .638-5.456v-1.144h-7.26v2.288h4.422a16.861 16.861 0 0 1-.594 4.026zm-9.2.066a12.686 12.686 0 0 0 1.056-5.588v-1.078H-27.7v2.288h3.432a12.8 12.8 0 0 1-1.056 3.96zm9.35 7.612v-2.244h-5.434v-1.606h-2.948v1.606h-5.412v2.244h5.3c-.462 1.386-2.42 2.728-6.116 3.08l.968 2.156c3.256-.352 5.544-1.474 6.732-3.036 1.188 1.584 3.5 2.684 6.754 3.036l.968-2.156C-16.016-.7-18-2.046-18.458-3.432zm-5.126-6.8v-2.86H-21.1v2.86h-8.05V-7.9h18.26v-2.33zm16.478-1.056h-3.96v-3.872h3.96zm2.86-6.138H-8.58V-9h9.658zM-3.7-1.914H6.776v-5.544H-6.6v2.244H3.916V-4H-6.578v5.65H7.348V-.594H-3.7zM6.776-14.476v-3.894h-2.9v10.12h2.9v-3.85h2.662v-2.376zM20-15.488c2.728 0 4.356.66 4.356 1.892 0 1.254-1.628 1.87-4.356 1.87-2.706 0-4.334-.616-4.334-1.87-.002-1.232 1.626-1.892 4.334-1.892zm0 6.072c4.422 0 7.348-1.606 7.348-4.18s-2.928-4.18-7.348-4.18c-4.4 0-7.326 1.606-7.326 4.18S15.6-9.416 20-9.416zm-4.026 5.06h-2.9v5.9H27.1V-.77H15.972zM10.846-8.03v2.31h18.3v-2.31zm37.906-5.39h-7.9v-1.188h7.9zm2.882-4.642h-2.882v1.342h-7.9v-1.342h-2.88v6.776h13.662zM53.966-7.92v-2.288H35.64v2.288h7.678v1.254H37.73v2.134h11.132v1.012h-11.11v5.258h14.5V-.418H40.634v-1.1h11.088v-5.148h-5.5V-7.92zm5.39-.858h6.336v-2.266h-6.336v-3.3h6.622V-16.7h-9.526v14.016h1.716a59.533 59.533 0 0 0 9.284-.55l-.264-2.31a53 53 0 0 1-7.832.528zm15.114-1.914h-2.948v-7.678h-2.9V1.914h2.9V-8.294h2.948zm17.53-2.2H80.85v-4.752h-2.9v7.062H92zM80.674-4.576h-2.926v6.05h14.366V-.858h-11.44zM75.68-8.514v2.332h18.348v-2.332zm32.252-8.294h-2.926v2.948c0 3.762-1.54 7.634-4.95 9.24l1.738 2.354A9.663 9.663 0 0 0 106.48-8.1a9.227 9.227 0 0 0 4.378 5.456l1.76-2.288c-3.256-1.606-4.686-5.28-4.686-8.932zm11.352 6.226h-2.948v-7.788h-2.9V1.892h2.9V-8.162h2.948zm1.936-2.662V-7h1.738a48.789 48.789 0 0 0 9.438-.616l-.242-2.332a43.59 43.59 0 0 1-8.052.616v-1.76h6.336v-6.094H121.2v2.332h6.38v1.606zm8.558 12.936c-2.64 0-4-.506-4-1.628s1.364-1.628 4-1.628 4 .506 4 1.628-1.36 1.628-4 1.628zm0-5.478c-4.224 0-6.864 1.408-6.864 3.85 0 2.42 2.64 3.85 6.864 3.85s6.864-1.43 6.864-3.85c0-2.442-2.642-3.85-6.864-3.85zm6.666-7.854v-4.708h-2.9V-6.2h2.9v-5.06h2.684v-2.38z" class="cls-4" transform="translate(608 336)"/>
        <path id="패스_4687" fill="#9b3ded" d="M4.6-6.1l.44-1.62c.44-1.54.88-3.22 1.26-4.84h.08c.44 1.6.84 3.3 1.3 4.84l.44 1.62zM9.8 0h3.1L8.14-14.8H4.66L-.08 0h3l1.04-3.8h4.8zm4.4 0h2.92v-7.7a3.218 3.218 0 0 1 2.34-1.26c1.1 0 1.58.62 1.58 2.34V0h2.94v-6.98c0-2.82-1.04-4.5-3.46-4.5a5.162 5.162 0 0 0-3.64 1.76h-.08l-.2-1.48h-2.4zm15.82.28c2.92 0 4.46-1.58 4.46-3.54 0-2.08-1.64-2.82-3.12-3.38-1.18-.44-2.28-.74-2.28-1.56 0-.64.48-1.08 1.48-1.08a4.312 4.312 0 0 1 2.42.96l1.32-1.78a6.269 6.269 0 0 0-3.82-1.38c-2.52 0-4.16 1.42-4.16 3.44 0 1.86 1.64 2.72 3.06 3.26 1.18.46 2.34.84 2.34 1.68 0 .7-.5 1.18-1.62 1.18a4.862 4.862 0 0 1-3-1.22L25.76-1.3A7.057 7.057 0 0 0 30.02.28zM38.38 0h3.36l1.14-4.88c.24-1.04.4-2.08.62-3.26h.1c.22 1.18.4 2.2.64 3.26L45.42 0h3.46l2.76-11.2h-2.72L47.7-5.66c-.22 1.08-.36 2.16-.56 3.26h-.1c-.24-1.1-.44-2.18-.7-3.26l-1.4-5.54h-2.62l-1.34 5.54c-.28 1.06-.48 2.16-.7 3.26h-.08c-.2-1.1-.34-2.18-.56-3.26l-1.22-5.54h-2.94zm19.9.28A7.065 7.065 0 0 0 62.2-.96l-1-1.8a4.616 4.616 0 0 1-2.52.78 2.943 2.943 0 0 1-3.1-2.8h6.9a5.464 5.464 0 0 0 .14-1.34c0-3.1-1.6-5.36-4.68-5.36-2.68 0-5.22 2.26-5.22 5.9 0 3.68 2.44 5.86 5.56 5.86zm-2.74-7a2.525 2.525 0 0 1 2.44-2.48c1.44 0 2.12.96 2.12 2.48zM64.84 0h2.92v-6.68c.64-1.62 1.7-2.2 2.58-2.2a3.53 3.53 0 0 1 1.16.18l.52-2.54a3.168 3.168 0 0 0-1.32-.24 3.88 3.88 0 0 0-3.18 2.26h-.08l-.2-1.98h-2.4z" transform="translate(839 366)"/>
        <path id="패스_4688" d="M11.88 10.38H4.644v-1.3h7.236zm1.836-4.014H11.88v1.35H4.644v-1.35H2.808v5.418h10.908zm1.908 8.01V12.9H.882v1.476h6.426v1.332h-4.68v1.386h9.324v1.152h-9.27v4h11.556V20.82h-9.72v-1.278h9.252v-3.834H9.18v-1.332zm4.194-.792h5.436V12.09h-5.436V9.066h5.742v-1.53h-7.6v11.052h1.314a45.593 45.593 0 0 0 7.578-.486l-.18-1.512a41.417 41.417 0 0 1-6.858.486zm12.6-1.08H29.88v-6.39h-1.854V22.4h1.854v-8.37h2.538zm14.31-1.71h-9.306V6.708h-1.854v5.6h11.16zm-9.414 6.444H35.46v4.788h11.358v-1.494h-9.5zM33.66 14.25v1.494h14.76V14.25zm25.956-6.768h-1.854v2.664c0 3.006-1.584 6.084-4.122 7.326l1.134 1.494a8.4 8.4 0 0 0 3.926-5.094 8.1 8.1 0 0 0 3.744 4.788l1.134-1.476a7.888 7.888 0 0 1-3.96-7.038zm9.432 5.094H66.51V6.132h-1.854v16.254h1.854v-8.28h2.538zm10.71.5a37.42 37.42 0 0 1-6.984.522v-1.85H78.3V7.1h-7.38v1.5h5.544v1.746h-5.508v4.77h1.314a41.479 41.479 0 0 0 7.686-.522zm-2.016 7.884c-2.3 0-3.6-.558-3.6-1.6 0-1.026 1.3-1.584 3.6-1.584 2.286 0 3.6.558 3.6 1.584 0 1.046-1.314 1.604-3.6 1.604zm0-4.626c-3.366 0-5.418 1.116-5.418 3.024s2.052 3.024 5.418 3.024 5.418-1.116 5.418-3.024-2.052-3.02-5.418-3.02zM83 10.074v-3.96h-1.856v9.792H83V11.6h2.3v-1.53zM87.192 24.6a4.22 4.22 0 0 0 2.952-4.05c0-1.386-.594-2.232-1.6-2.232A1.345 1.345 0 0 0 87.1 19.65a1.3 1.3 0 0 0 1.386 1.332.738.738 0 0 0 .2-.018 2.794 2.794 0 0 1-1.962 2.466zm17.28-14.382v1.512h2.88v4.086h1.854V6.132h-1.854v4.086zm.936 3.618a5.331 5.331 0 0 1-3.816-4.9v-.212h3.384V7.23h-8.694v1.494h3.438v.234a5.707 5.707 0 0 1-3.978 5.292l.954 1.476a6.727 6.727 0 0 0 4.014-3.906 6.349 6.349 0 0 0 3.78 3.474zm-1.6 7.128c-2.322 0-3.636-.576-3.636-1.638s1.314-1.638 3.636-1.638c2.286 0 3.618.576 3.618 1.638s-1.334 1.638-3.62 1.638zm0-4.716c-3.4 0-5.49 1.152-5.49 3.078 0 1.944 2.088 3.078 5.49 3.078 3.384 0 5.472-1.134 5.472-3.078-.002-1.926-2.09-3.078-5.474-3.078zm19.926-1.62h1.854v-8.5h-1.854v1.858h-2.916V9.48h2.916v1.494h-2.916v1.494h2.916zm-3.17-2.228a40.091 40.091 0 0 1-5.976.36v-1.6h5.2V6.888h-7.056V8.31h5.22V9.8h-5.182v4.4h1.17a45.08 45.08 0 0 0 6.768-.36zm-3.816 8.46v-1.44h8.838v-4.05h-10.692v1.4h8.856v1.314h-8.82v4.194h11.232v-1.422zm21.42-7.02a5.348 5.348 0 0 1-3.816-4.9v-.306h3.384V7.14h-8.694v1.494h3.438v.324a5.619 5.619 0 0 1-4 5.2l.954 1.458a6.637 6.637 0 0 0 4.014-3.816 6.433 6.433 0 0 0 3.8 3.474zM131 18.138h9.108v4.248h1.854v-5.742H131zm9.108-12.024V10.2h-2.844v1.53h2.844v4.1h1.854V6.114zm18.162.018h-1.85V17.94h1.854zm-11.264 5.148a2.5 2.5 0 0 1 5 0 2.5 2.5 0 0 1-5 0zm6.8 0a4.318 4.318 0 1 0-4.3 4.068 4.067 4.067 0 0 0 4.304-4.068zm-4.284 9.288v-3.816h-1.872v5.328h11.088v-1.512zM170.82 7.482h-1.854v2.664c0 3.006-1.584 6.084-4.122 7.326l1.134 1.494a8.4 8.4 0 0 0 3.924-5.094 8.1 8.1 0 0 0 3.744 4.788l1.134-1.476a7.888 7.888 0 0 1-3.96-7.038zm9.432 5.094h-2.538V6.132h-1.854v16.254h1.854v-8.28h2.538zm10.71.5a37.42 37.42 0 0 1-6.984.522v-1.85h5.522V7.1h-7.38v1.5h5.544v1.746h-5.504v4.77h1.314a41.479 41.479 0 0 0 7.686-.522zm-2.016 7.884c-2.3 0-3.6-.558-3.6-1.6 0-1.026 1.3-1.584 3.6-1.584 2.286 0 3.6.558 3.6 1.584 0 1.046-1.314 1.604-3.6 1.604zm0-4.626c-3.366 0-5.418 1.116-5.418 3.024s2.052 3.024 5.418 3.024 5.418-1.116 5.418-3.024-2.052-3.02-5.418-3.02zm5.256-6.264V6.114h-1.854v9.792h1.852V11.6h2.3v-1.53zM198.4 24.6a4.22 4.22 0 0 0 2.952-4.05c0-1.386-.594-2.232-1.6-2.232a1.345 1.345 0 0 0-1.44 1.332 1.3 1.3 0 0 0 1.386 1.332.738.738 0 0 0 .2-.018 2.794 2.794 0 0 1-1.962 2.466zm9-7.47c-1.422 0-2.394-1.53-2.394-4.068s.972-4.068 2.394-4.068c1.4 0 2.394 1.53 2.394 4.068s-.994 4.068-2.394 4.068zm0-9.81c-2.43 0-4.176 2.232-4.176 5.742s1.746 5.724 4.176 5.724 4.176-2.214 4.176-5.724-1.75-5.742-4.176-5.742zm10.8 5.166h-2.538V6.132H213.8V22.4h1.854v-8.384h2.546zm12.29-3.258h-9.162v4.05h11.322v-1.422h-9.5v-1.3h9.18V6.492h-11.038v1.44h9.2zm-7.308 9.414h7.362v2.07h-7.362zm-1.818 3.546h11v-5.022h-11zm-1.944-7.74v1.476h14.76v-1.476zm18.918-5.274h5.706V7.662h-7.56v10.746h1.332a40.117 40.117 0 0 0 7.6-.54l-.2-1.53a39.244 39.244 0 0 1-6.876.522zm12.618 3.2h-2.538v-6.26h-1.854V22.4h1.854v-8.5h2.538zm8.6-4.536c2.412 0 3.87.594 3.87 1.656 0 1.044-1.458 1.638-3.87 1.638s-3.888-.594-3.888-1.638c.004-1.058 1.48-1.652 3.892-1.652zm0 4.716c3.546 0 5.8-1.152 5.8-3.06 0-1.926-2.25-3.1-5.8-3.1s-5.8 1.17-5.8 3.1c.008 1.912 2.258 3.064 5.804 3.064zm3.744 8.154h-7.5v-2.48h7.5zm3.6-5.6V13.62h-14.7v1.494h6.426v1.638h-4.662v5.436h11.16v-5.436h-4.644v-1.638z" class="cls-4" transform="translate(839 376)"/>
        <path id="패스_4689" fill="#2e5ed0" d="M-68.4.28a5.99 5.99 0 0 0 4.72-2.18l-1.56-1.84a4.115 4.115 0 0 1-3.06 1.46c-2.34 0-3.86-1.94-3.86-5.16 0-3.18 1.68-5.1 3.92-5.1a3.817 3.817 0 0 1 2.72 1.24l1.56-1.88a6.037 6.037 0 0 0-4.34-1.9c-3.74 0-6.88 2.86-6.88 7.74 0 4.94 3.04 7.62 6.78 7.62zm9.42 0a4 4 0 0 0 1.52-.26l-.36-2.18a1.657 1.657 0 0 1-.4.04c-.28 0-.6-.22-.6-.88v-12.96h-2.92v12.82c0 2.08.72 3.42 2.76 3.42zm6.66 0a4.5 4.5 0 0 0 3.58-1.88h.08l.22 1.6h2.4v-11.2h-2.94v7.56a2.7 2.7 0 0 1-2.28 1.4c-1.08 0-1.56-.6-1.56-2.34v-6.62h-2.94v7c0 2.8 1.04 4.48 3.44 4.48zm14.08 0a7.065 7.065 0 0 0 3.92-1.24l-1-1.8a4.616 4.616 0 0 1-2.52.78 2.943 2.943 0 0 1-3.1-2.8h6.9a5.464 5.464 0 0 0 .14-1.34c0-3.1-1.6-5.36-4.68-5.36-2.68 0-5.22 2.26-5.22 5.9 0 3.68 2.44 5.86 5.56 5.86zm-2.74-7a2.525 2.525 0 0 1 2.44-2.48c1.44 0 2.12.96 2.12 2.48zM-23.4 4.86c3.74 0 6.08-1.72 6.08-3.98 0-1.96-1.46-2.8-4.16-2.8h-1.9c-1.32 0-1.76-.32-1.76-.92a1.116 1.116 0 0 1 .48-.96 4.77 4.77 0 0 0 1.44.26c2.4 0 4.32-1.28 4.32-3.8a2.818 2.818 0 0 0-.52-1.7h1.92v-2.16h-4.04a5.269 5.269 0 0 0-1.68-.28c-2.38 0-4.52 1.42-4.52 4.06a3.7 3.7 0 0 0 1.48 2.92v.08a2.779 2.779 0 0 0-1.24 2.1 2.123 2.123 0 0 0 1.02 1.88v.1a2.719 2.719 0 0 0-1.6 2.32c0 1.98 2.04 2.88 4.68 2.88zm.18-10.22a1.817 1.817 0 0 1-1.76-2.06c0-1.32.76-2.06 1.76-2.06s1.74.74 1.74 2.06-.76 2.06-1.74 2.06zm.26 8.36c-1.64 0-2.68-.54-2.68-1.48a1.68 1.68 0 0 1 .74-1.3 6.321 6.321 0 0 0 1.56.16h1.36c1.2 0 1.86.2 1.86 1 0 .88-1.16 1.62-2.84 1.62zM-11.12.28A7.065 7.065 0 0 0-7.2-.96l-1-1.8a4.616 4.616 0 0 1-2.52.78 2.943 2.943 0 0 1-3.1-2.8h6.9a5.464 5.464 0 0 0 .14-1.34c0-3.1-1.6-5.36-4.68-5.36-2.68 0-5.22 2.26-5.22 5.9 0 3.68 2.44 5.86 5.56 5.86zm-2.74-7a2.525 2.525 0 0 1 2.44-2.48c1.44 0 2.12.96 2.12 2.48zM-4.56 0h2.92v-7.7A3.218 3.218 0 0 1 .7-8.96c1.1 0 1.58.62 1.58 2.34V0h2.94v-6.98c0-2.82-1.04-4.5-3.46-4.5a5.162 5.162 0 0 0-3.64 1.76h-.08l-.2-1.48h-2.4zm17.48.28a7.065 7.065 0 0 0 3.92-1.24l-1-1.8a4.616 4.616 0 0 1-2.52.78 2.943 2.943 0 0 1-3.1-2.8h6.9a5.464 5.464 0 0 0 .14-1.34c0-3.1-1.6-5.36-4.68-5.36-2.68 0-5.22 2.26-5.22 5.9C7.36-1.9 9.8.28 12.92.28zm-2.74-7a2.525 2.525 0 0 1 2.44-2.48c1.44 0 2.12.96 2.12 2.48zM19.48 0h2.92v-6.68c.64-1.62 1.7-2.2 2.58-2.2a3.53 3.53 0 0 1 1.16.18l.52-2.54a3.168 3.168 0 0 0-1.32-.24 3.88 3.88 0 0 0-3.18 2.26h-.08l-.2-1.98h-2.4zm10.66.28a5.266 5.266 0 0 0 3.38-1.48h.06L33.8 0h2.4v-6.54c0-3.24-1.46-4.94-4.3-4.94A8.947 8.947 0 0 0 27.22-10l1.06 1.94a6.328 6.328 0 0 1 3.08-1.06c1.38 0 1.86.84 1.9 1.94-4.5.48-6.44 1.74-6.44 4.14A3.181 3.181 0 0 0 30.14.28zm.96-2.3c-.86 0-1.48-.38-1.48-1.26 0-1 .92-1.74 3.64-2.1v2.26a2.969 2.969 0 0 1-2.16 1.1zM42.72.28a7.238 7.238 0 0 0 2.36-.42l-.48-2.14a3.272 3.272 0 0 1-1.1.24c-1 0-1.52-.6-1.52-1.88v-4.96h2.76v-2.32h-2.76v-3h-2.46l-.34 3-1.72.14v2.18h1.58v4.96c0 2.52 1.02 4.2 3.68 4.2zm4.1-.28h2.92v-11.2h-2.92zm1.48-13a1.628 1.628 0 0 0 1.74-1.6 1.6 1.6 0 0 0-1.74-1.6 1.611 1.611 0 0 0-1.76 1.6A1.634 1.634 0 0 0 48.3-13zM57.38.28c2.8 0 5.38-2.16 5.38-5.86 0-3.74-2.58-5.9-5.38-5.9S52-9.32 52-5.58c0 3.7 2.58 5.86 5.38 5.86zm0-2.4C55.86-2.12 55-3.48 55-5.58c0-2.12.86-3.5 2.38-3.5s2.38 1.38 2.38 3.5c0 2.1-.86 3.46-2.38 3.46zM65.02 0h2.92v-7.7a3.218 3.218 0 0 1 2.34-1.26c1.1 0 1.58.62 1.58 2.34V0h2.94v-6.98c0-2.82-1.04-4.5-3.46-4.5a5.162 5.162 0 0 0-3.64 1.76h-.08l-.2-1.48h-2.4z" transform="translate(915 450)"/>
        <path id="패스_4690" d="M9.558 12.45H8.136v-2.106h1.422zm1.548-5.58H9.558v2.052H8.136V6.87h-1.53v7.056h4.5zM4.23 12.45H2.754v-2.106H4.23zm1.53-5.58H4.23v2.052H2.754V6.87h-1.53v7.056H5.76zm-.612 12.51h8.964v-4.086H3.276v1.44h9.018v1.278H3.312v4.23h11.376v-1.458h-9.54zm8.964-9.864V6.132h-1.818v8.5h1.818v-3.6h1.818V9.516zm3.816-2.142v1.512H23.6c-.324 2.574-2.628 4.68-6.354 5.814l.774 1.476c4.734-1.44 7.6-4.5 7.6-8.8zm3.618 9.342h-1.872v5.364h10.944v-1.512h-9.072zm8.424-5.832V6.132h-1.854V17.9h1.854v-5.49h2.322v-1.53zm17.118 2.9a5.027 5.027 0 0 1-3.834-4.7v-.306h3.4V7.284h-8.73v1.494h3.456V9.1a5.533 5.533 0 0 1-3.98 5.186l.936 1.458a6.616 6.616 0 0 0 4.032-3.78 6.1 6.1 0 0 0 3.816 3.258zM45 20.928c-2.268 0-3.582-.576-3.582-1.62 0-1.062 1.314-1.62 3.582-1.62s3.582.558 3.582 1.62c0 1.044-1.314 1.62-3.582 1.62zm0-4.7c-3.348 0-5.418 1.134-5.418 3.078 0 1.926 2.07 3.078 5.418 3.078s5.418-1.152 5.418-3.078c0-1.942-2.07-3.076-5.418-3.076zm5.238-6.138V6.132h-1.854v9.72h1.854v-4.23h2.3v-1.53zm4.554-2.43v10.748h7.632V7.662zm5.814 1.476v7.776h-4V9.138zm4.824-3.022v16.308h1.87V6.114zm10.116 1.152c-2.538 0-4.41 1.6-4.41 3.906s1.872 3.906 4.41 3.906 4.428-1.6 4.428-3.906-1.89-3.906-4.428-3.906zm0 1.584a2.336 2.336 0 1 1-2.592 2.322 2.353 2.353 0 0 1 2.592-2.322zm6.264-2.736V22.4h1.872V6.114zm-11.2 12.852a56.58 56.58 0 0 0 10.35-.72l-.126-1.35a74.311 74.311 0 0 1-10.458.54zm32.6-6.93a18.1 18.1 0 0 0 .486-4.554v-.774h-5.65V8.2h3.834a17.446 17.446 0 0 1-.468 3.636zm-7.218.018a12.067 12.067 0 0 0 .774-4.608v-.738h-4.984V8.2h3.168a11.23 11.23 0 0 1-.774 3.582zm7.38 5.85v-1.458h-4.534v-1.494h-1.89v1.494h-4.536V17.9h4.5c-.288 1.422-2.3 2.718-5.148 3.024l.63 1.386a7.671 7.671 0 0 0 5.49-2.754c.972 1.44 2.97 2.448 5.49 2.754l.63-1.386c-2.826-.324-4.86-1.6-5.13-3.024zm-4.266-5v-2.578h-1.834V12.9h-6.714v1.494h14.67V12.9zm14.184-.774h-3.96V8.454h3.96zm1.818-5.148H107.5V13.6h7.614zm-4.122 12.258h8.64v-4.198h-10.492V16.5h8.658v1.386h-8.622v4.3h11v-1.474h-9.18zm8.64-9.774V6.132h-1.854v8.208h1.854v-3.348h2.286v-1.53zm11.036-1.336c2.376 0 3.87.666 3.87 1.8 0 1.152-1.494 1.818-3.87 1.818-2.394 0-3.888-.666-3.888-1.818 0-1.13 1.494-1.8 3.888-1.8zm0 5.112c3.51 0 5.8-1.242 5.8-3.312 0-2.052-2.286-3.294-5.8-3.294s-5.8 1.242-5.8 3.294c.004 2.07 2.29 3.312 5.8 3.312zm-3.636 4.1h-1.872v4.738h11.214v-1.512h-9.342zm-3.726-2.79v1.512h14.706v-1.508zm31.23-4.176h-7.236v-1.3h7.236zm1.836-4.014h-1.836v1.35h-7.236V6.366h-1.836v5.418h10.908zm1.908 8.01V12.9h-14.742v1.476h6.426v1.332h-4.68v1.386h9.322v1.152h-9.27v4h11.556V20.82h-9.72v-1.278h9.252v-3.834h-4.59v-1.332zm4.194-.792h5.432v-1.49h-5.436V9.066h5.742v-1.53h-7.6v11.052h1.314a45.593 45.593 0 0 0 7.578-.486l-.18-1.512a41.417 41.417 0 0 1-6.858.486zm12.6-1.08h-2.538V6.114h-1.854V22.4h1.854v-8.37h2.538zm14.31-1.71h-9.306V6.708h-1.854v5.6h11.16zm-9.414 6.444h-1.854v4.788h11.358v-1.49h-9.5zm-3.654-2.984v1.494h14.76V14.25zm25.956-6.768h-1.854v2.664c0 3.006-1.584 6.084-4.122 7.326l1.134 1.494a8.4 8.4 0 0 0 3.924-5.094 8.1 8.1 0 0 0 3.744 4.788l1.134-1.476a7.888 7.888 0 0 1-3.96-7.038zm9.432 5.094h-2.538V6.132h-1.854v16.254h1.854v-8.28h2.54zm10.71.5a37.42 37.42 0 0 1-6.984.522v-1.85h5.526V7.1h-7.38v1.5h5.544v1.746h-5.508v4.77h1.314a41.479 41.479 0 0 0 7.686-.522zm-2.016 7.884c-2.3 0-3.6-.558-3.6-1.6 0-1.026 1.3-1.584 3.6-1.584 2.286 0 3.6.558 3.6 1.584 0 1.046-1.314 1.604-3.6 1.604zm0-4.626c-3.366 0-5.418 1.116-5.418 3.024s2.052 3.024 5.418 3.024 5.418-1.116 5.418-3.024-2.052-3.02-5.418-3.02zm5.256-6.264V6.114h-1.854v9.792h1.854V11.6h2.3v-1.53zm4.194 14.53a4.22 4.22 0 0 0 2.952-4.05c0-1.386-.594-2.232-1.6-2.232a1.345 1.345 0 0 0-1.44 1.332 1.3 1.3 0 0 0 1.386 1.332.738.738 0 0 0 .2-.018 2.794 2.794 0 0 1-1.962 2.466zM9.648 37.218v1.512h2.88v4.086h1.854v-9.684h-1.854v4.086zm.936 3.618a5.331 5.331 0 0 1-3.816-4.9v-.216h3.384v-1.49H1.458v1.494H4.9v.234A5.707 5.707 0 0 1 .918 41.25l.954 1.476a6.727 6.727 0 0 0 4.014-3.906 6.349 6.349 0 0 0 3.78 3.474zm-1.6 7.128c-2.322 0-3.636-.576-3.636-1.638s1.314-1.638 3.636-1.638c2.286 0 3.618.576 3.618 1.638s-1.334 1.638-3.62 1.638zm0-4.716c-3.4 0-5.49 1.152-5.49 3.078 0 1.944 2.088 3.078 5.49 3.078 3.384 0 5.472-1.134 5.472-3.078-.002-1.926-2.09-3.078-5.474-3.078zm10.3-5.886a2.254 2.254 0 0 1 2.484-2.214 2.225 2.225 0 1 1 0 4.428 2.254 2.254 0 0 1-2.49-2.214zm9.612-.972v1.89h-3.03a3.883 3.883 0 0 0 .108-.918 3.427 3.427 0 0 0-.126-.972zm0 3.348v1.638h1.872v-8.262H28.89v1.818h-3.834a4.385 4.385 0 0 0-3.294-1.314c-2.448 0-4.248 1.548-4.248 3.744 0 2.178 1.8 3.744 4.248 3.744a4.379 4.379 0 0 0 3.33-1.368zm-6.864 7.992v-1.44h8.73v-4.14H20.178v1.44h8.748v1.332H20.2v4.266h11.1V47.73zm21.312-6.894a5.348 5.348 0 0 1-3.816-4.9v-.306h3.384v-1.49h-8.694v1.494h3.438v.324a5.619 5.619 0 0 1-4 5.2l.954 1.458a6.637 6.637 0 0 0 4.018-3.816 6.433 6.433 0 0 0 3.8 3.474zm-7.164 4.3h9.108v4.248h1.854v-5.74H36.18zm9.108-12.024V37.2h-2.844v1.53h2.844v4.1h1.854v-9.72zm18.162.018H61.6v11.81h1.85zm-11.268 5.15a2.5 2.5 0 1 1 2.5 2.466 2.372 2.372 0 0 1-2.5-2.466zm6.8 0a4.318 4.318 0 1 0-4.3 4.068 4.067 4.067 0 0 0 4.304-4.068zM54.7 47.568v-3.816h-1.87v5.328h11.088v-1.512zM76 34.482h-1.858v2.664c0 3.006-1.584 6.084-4.122 7.326l1.134 1.494a8.4 8.4 0 0 0 3.924-5.094 8.1 8.1 0 0 0 3.744 4.788l1.134-1.476A7.888 7.888 0 0 1 76 37.146zm9.432 5.094H82.89v-6.444h-1.854v16.254h1.854v-8.28h2.538zm10.71.5a37.421 37.421 0 0 1-6.984.522v-1.85h5.522V34.1H87.3v1.5h5.544v1.746h-5.508v4.77h1.314a41.479 41.479 0 0 0 7.686-.522zm-2.016 7.884c-2.3 0-3.6-.558-3.6-1.6 0-1.026 1.3-1.584 3.6-1.584 2.286 0 3.6.558 3.6 1.584-.004 1.046-1.318 1.604-3.604 1.604zm0-4.626c-3.366 0-5.418 1.116-5.418 3.024s2.052 3.024 5.418 3.024 5.418-1.116 5.418-3.024-2.056-3.02-5.422-3.02zm5.256-6.264v-3.96h-1.858v9.792h1.854V38.6h2.3v-1.53zm4.19 14.53a4.22 4.22 0 0 0 2.952-4.05c0-1.386-.594-2.232-1.6-2.232a1.345 1.345 0 0 0-1.44 1.332 1.3 1.3 0 0 0 1.386 1.332.738.738 0 0 0 .2-.018 2.794 2.794 0 0 1-1.97 2.466zm12.87-7.47c-1.422 0-2.394-1.53-2.394-4.068s.972-4.068 2.394-4.068c1.4 0 2.394 1.53 2.394 4.068s-.99 4.068-2.394 4.068zm0-9.81c-2.43 0-4.176 2.232-4.176 5.742s1.746 5.724 4.176 5.724 4.176-2.214 4.176-5.724-1.746-5.742-4.176-5.742zm10.8 5.166H124.7v-6.354h-1.85V49.4h1.85v-8.384h2.538zm12.294-3.258h-9.162v4.05H141.7v-1.422h-9.5v-1.3h9.18v-4.064h-11.042v1.44h9.2zm-7.308 9.414h7.362v2.07h-7.362zm-1.818 3.546h11v-5.022h-11zm-1.944-7.74v1.476h14.76v-1.476zm18.918-5.274h5.706v-1.512h-7.56v10.746h1.332a40.117 40.117 0 0 0 7.6-.54l-.2-1.53a39.244 39.244 0 0 1-6.876.522zM160 39.378h-2.538v-6.264h-1.852V49.4h1.854v-8.5H160zm8.6-4.536c2.412 0 3.87.594 3.87 1.656 0 1.044-1.458 1.638-3.87 1.638s-3.888-.594-3.888-1.638c.006-1.062 1.482-1.656 3.894-1.656zm0 4.716c3.546 0 5.8-1.152 5.8-3.06 0-1.926-2.25-3.1-5.8-3.1s-5.8 1.17-5.8 3.1c.01 1.908 2.26 3.06 5.806 3.06zm3.744 8.154h-7.506v-2.484h7.506zm3.6-5.6V40.62h-14.7v1.494h6.426v1.638h-4.662v5.436h11.16v-5.436h-4.644v-1.638zm9.036-7.344c2.52 0 3.87.486 3.87 1.422 0 .918-1.35 1.4-3.87 1.4s-3.87-.486-3.87-1.4c.006-.934 1.356-1.42 3.876-1.42zm0 4.212c3.636 0 5.8-.99 5.8-2.79 0-1.818-2.16-2.808-5.8-2.808-3.654 0-5.8.99-5.8 2.808.01 1.802 2.152 2.792 5.806 2.792zm-3.744 7.488h9.252v-3.886H179.37v1.4h9.306v1.17h-9.27v4.086h11.556V47.82h-9.72zm-3.618-6.534v1.476h14.724v-1.474zM211.3 38.01h-3.744v-2.628h3.654v-1.494h-5.51V39.5h5.6zm-6.3-.4a22.057 22.057 0 0 1-3.87.4v-2.628h3.708v-1.494h-5.562V39.5h.936a22.71 22.71 0 0 0 4.95-.414zm1.206 5.832H204.3v.414c0 1.962-2.088 3.582-5.328 4.014l.684 1.458c2.574-.4 4.608-1.512 5.6-3.15.99 1.638 3.024 2.754 5.6 3.15l.7-1.458c-3.258-.432-5.346-2.052-5.346-4.014zm-8.332-2.642v1.512h14.706V40.8zm26.01-6.12h-3.87v-1.692h-1.854v1.692h-3.87v1.494h9.594zm-6.966 4.95c0-.918.864-1.476 2.16-1.476s2.178.558 2.178 1.476c0 .936-.882 1.494-2.178 1.494s-2.16-.558-2.16-1.494zm6.1 0c0-1.71-1.584-2.862-3.942-2.862-2.34 0-3.942 1.152-3.942 2.862 0 1.728 1.6 2.88 3.942 2.88 2.36 0 3.944-1.152 3.944-2.88zm2.106 8.082h-6.714v-1.494h6.714zm0-2.934h-6.714v-1.494h-1.836v5.9h10.386v-5.9h-1.836zm4.14-7.6h-2.3v-4.05h-1.854v9.486h1.854v-3.902h2.3zm4.176-2.466h-1.836v10.57h1.386a38.825 38.825 0 0 0 7.938-.774l-.2-1.548a37.646 37.646 0 0 1-7.29.738zm8.784-1.584v16.258h1.854V33.132zm7.308 3.042h5.706v-1.508h-7.56v10.746h1.332a40.117 40.117 0 0 0 7.6-.54l-.2-1.53a39.244 39.244 0 0 1-6.876.522zm12.618 3.2h-2.538v-6.256h-1.852V49.4h1.854v-8.5h2.538zm3.024 8.856a1.378 1.378 0 0 0 1.386-1.44 1.389 1.389 0 1 0-2.772 0 1.378 1.378 0 0 0 1.388 1.448z" class="cls-4" transform="translate(839 460)"/>
        <path id="사각형_2745" fill="#6997ff" d="M0 0H290V54H0z" opacity="0.435" transform="translate(468 358)"/>
        <path id="사각형_2736" d="M0 0H104V27H0z" class="cls-8" transform="translate(622 358)"/>
        <path id="사각형_2737" d="M0 0H191V27H0z" class="cls-8" transform="translate(468 385)"/>
        <path id="패스_4692" d="M10.62 13.5H9.04v-2.34h1.58zm1.72-6.2h-1.72v2.28H9.04V7.3h-1.7v7.84h5zM4.7 13.5H3.06v-2.34H4.7zm1.7-6.2H4.7v2.28H3.06V7.3h-1.7v7.84H6.4zm-.68 13.9h9.96v-4.54H3.64v1.6h10.02v1.42H3.68v4.7h12.64v-1.62H5.72zm9.96-10.96V6.48h-2.02v9.44h2.02v-4h2.02v-1.68zm3.74-2.38v1.68h6.3c-.36 2.86-2.92 5.2-7.06 6.46l.86 1.64c5.26-1.6 8.44-5 8.44-9.78zm4.02 10.38h-2.08v5.96h12.16v-1.68H23.44zm9.36-6.48V6.48h-2.06v13.08h2.06v-6.1h2.58v-1.7zm18.02 3.22a5.585 5.585 0 0 1-4.26-5.22v-.34h3.78V7.76h-9.7v1.66h3.84v.36a6.148 6.148 0 0 1-4.42 5.76l1.04 1.62a7.351 7.351 0 0 0 4.48-4.2 6.783 6.783 0 0 0 4.24 3.62zm-2.32 7.94c-2.52 0-3.98-.64-3.98-1.8 0-1.18 1.46-1.8 3.98-1.8s3.98.62 3.98 1.8c0 1.16-1.46 1.8-3.98 1.8zm0-5.22c-3.72 0-6.02 1.26-6.02 3.42 0 2.14 2.3 3.42 6.02 3.42s6.02-1.28 6.02-3.42c0-2.16-2.3-3.42-6.02-3.42zm5.82-6.82v-4.4h-2.06v10.8h2.06v-4.7h2.56v-1.7zm4.56-2.7v11.94h8.48V8.18zm6.46 1.64v8.64H60.9V9.82zm5.36-3.36v18.12h2.08V6.46zm10.74 1.28c-2.82 0-4.9 1.78-4.9 4.34s2.08 4.34 4.9 4.34 4.92-1.78 4.92-4.34-2.1-4.34-4.92-4.34zm0 1.76a2.6 2.6 0 1 1-2.88 2.58 2.615 2.615 0 0 1 2.88-2.58zm6.96-3.04v18.1h2.08V6.46zM75.96 20.74a62.867 62.867 0 0 0 11.5-.8l-.14-1.5a82.567 82.567 0 0 1-11.62.6zm35.22-7.7a20.113 20.113 0 0 0 .54-5.06v-.86h-6.28v1.66h4.26a19.385 19.385 0 0 1-.52 4.04zm-8.02.02a13.408 13.408 0 0 0 .86-5.12v-.82h-5.54v1.66H102a12.478 12.478 0 0 1-.86 3.98zm8.2 6.5v-1.62h-5.04v-1.66h-2.1v1.66h-5.04v1.62h5c-.32 1.58-2.56 3.02-5.72 3.36l.7 1.54c2.8-.34 5.02-1.48 6.1-3.06 1.08 1.6 3.3 2.72 6.1 3.06l.7-1.54c-3.14-.36-5.4-1.78-5.7-3.36zM106.62 14v-2.86h-2.04V14h-7.46v1.66h16.3V14zm15.26-.86h-4.4V9.06h4.4zm2.02-5.72h-8.46v7.36h8.46zm-4.58 13.62h9.6v-4.66h-11.66V18h9.62v1.54h-9.58v4.78h12.22v-1.64h-10.2zm9.6-10.86v-3.7h-2.06v9.12h2.06v-3.72h2.54v-1.7zm11.76-1.48c2.64 0 4.3.74 4.3 2 0 1.28-1.66 2.02-4.3 2.02-2.66 0-4.32-.74-4.32-2.02 0-1.26 1.66-2 4.32-2zm0 5.68c3.9 0 6.44-1.38 6.44-3.68 0-2.28-2.54-3.66-6.44-3.66s-6.44 1.38-6.44 3.66c0 2.3 2.54 3.68 6.44 3.68zm-4.04 4.56h-2.08v5.26h12.46v-1.68h-10.38zm-4.14-3.1v1.68h16.34v-1.68zm33.7-4.64h-8.04V9.76h8.04zm2.04-4.46h-2.04v1.5h-8.04v-1.5h-2.04v6.02h12.12zm2.12 8.9V14h-16.38v1.64h7.14v1.48h-5.2v1.54h10.36v1.28h-10.3v4.44h12.84V22.8h-10.8v-1.42h10.28v-4.26h-5.1v-1.48zm4.16-.88h6.04V13.1h-6.04V9.74h6.38v-1.7h-8.44v12.28h1.46a50.659 50.659 0 0 0 8.42-.54l-.2-1.68a46.019 46.019 0 0 1-7.62.54zm14-1.2h-2.82v-7.1h-2.06v18.1h2.06v-9.3h2.82zm15.4-1.9h-10.34V7.12h-2.06v6.22h12.4zm-10.46 7.16h-2.06v5.32h12.62v-1.66h-10.56zm-4.06-3.32v1.66h16.4V15.5zm27.84-7.52h-2.06v2.96c0 3.34-1.76 6.76-4.58 8.14l1.26 1.66a9.333 9.333 0 0 0 4.36-5.66 9 9 0 0 0 4.16 5.32l1.26-1.64c-2.72-1.34-4.4-4.6-4.4-7.82zm10.48 5.66h-2.82V6.48h-2.06v18.06h2.06v-9.2h2.82zm11.4.56a41.578 41.578 0 0 1-7.76.58v-2.06h6.14V7.56h-8.2v1.66h6.16v1.94h-6.12v5.3h1.46a46.088 46.088 0 0 0 8.54-.58zm-2.24 8.76c-2.56 0-4-.62-4-1.78 0-1.14 1.44-1.76 4-1.76 2.54 0 4 .62 4 1.76 0 1.16-1.46 1.78-4 1.78zm0-5.14c-3.74 0-6.02 1.24-6.02 3.36s2.28 3.36 6.02 3.36 6.02-1.24 6.02-3.36-2.28-3.36-6.02-3.36zm5.84-6.96v-4.4h-2.06v10.88h2.06v-4.78h2.56v-1.7zM246.88 27a4.689 4.689 0 0 0 3.28-4.5c0-1.54-.66-2.48-1.78-2.48a1.494 1.494 0 0 0-1.6 1.48 1.442 1.442 0 0 0 1.54 1.48.82.82 0 0 0 .22-.02 3.1 3.1 0 0 1-2.18 2.74zM10.72 41.02v1.68h3.2v4.54h2.06V36.48h-2.06v4.54zm1.04 4.02a5.923 5.923 0 0 1-4.24-5.44v-.24h3.76V37.7H1.62v1.66h3.82v.26a6.341 6.341 0 0 1-4.42 5.88l1.06 1.64a7.475 7.475 0 0 0 4.46-4.34 7.055 7.055 0 0 0 4.2 3.86zm-1.78 7.92c-2.58 0-4.04-.64-4.04-1.82s1.46-1.82 4.04-1.82c2.54 0 4.02.64 4.02 1.82s-1.48 1.82-4.02 1.82zm0-5.24c-3.78 0-6.1 1.28-6.1 3.42 0 2.16 2.32 3.42 6.1 3.42 3.76 0 6.08-1.26 6.08-3.42 0-2.14-2.32-3.42-6.08-3.42zm10.94-6.54a2.5 2.5 0 0 1 2.76-2.46 2.472 2.472 0 1 1 0 4.92 2.5 2.5 0 0 1-2.76-2.46zM31.6 40.1v2.1h-3.36a4.314 4.314 0 0 0 .12-1.02 3.808 3.808 0 0 0-.14-1.08zm0 3.72v1.82h2.08v-9.18H31.6v2.02h-4.26a4.872 4.872 0 0 0-3.66-1.46c-2.72 0-4.72 1.72-4.72 4.16 0 2.42 2 4.16 4.72 4.16a4.866 4.866 0 0 0 3.7-1.52zm-7.62 8.88v-1.6h9.7v-4.6H21.92v1.6h9.72v1.48h-9.7v4.74h12.34V52.7zm23.18-7.66a5.942 5.942 0 0 1-4.24-5.44v-.34h3.76V37.6h-9.66v1.66h3.82v.36a6.243 6.243 0 0 1-4.44 5.78l1.06 1.62a7.374 7.374 0 0 0 4.46-4.24 7.148 7.148 0 0 0 4.22 3.86zm-7.96 4.78h10.12v4.72h2.06v-6.38H39.2zm10.12-13.36V41h-3.16v1.7h3.16v4.56h2.06v-10.8zm19.68.02h-2.06V49.6H69zM56.48 42.2a2.78 2.78 0 1 1 2.78 2.74 2.635 2.635 0 0 1-2.78-2.74zm7.56 0a4.8 4.8 0 1 0-4.78 4.52 4.519 4.519 0 0 0 4.78-4.52zm-4.76 10.32v-4.24H57.2v5.92h12.32v-1.68zm22.66-14.54h-2.06v2.96c0 3.34-1.76 6.76-4.58 8.14l1.26 1.66a9.332 9.332 0 0 0 4.36-5.66 9 9 0 0 0 4.16 5.32l1.26-1.64c-2.72-1.34-4.4-4.6-4.4-7.82zm10.48 5.66H89.6v-7.16h-2.06v18.06h2.06v-9.2h2.82zm11.4.56a41.578 41.578 0 0 1-7.76.58v-2.06h6.14v-5.16H94v1.66h6.16v1.94h-6.12v5.3h1.46a46.088 46.088 0 0 0 8.54-.58zm-2.24 8.76c-2.56 0-4-.62-4-1.78 0-1.14 1.44-1.76 4-1.76 2.54 0 4 .62 4 1.76 0 1.16-1.46 1.78-4 1.78zm0-5.14c-3.74 0-6.02 1.24-6.02 3.36s2.28 3.36 6.02 3.36 6.02-1.24 6.02-3.36-2.28-3.36-6.02-3.36zm5.84-6.96v-4.4h-2.06v10.88h2.06v-4.78h2.56v-1.7zM111.58 57a4.689 4.689 0 0 0 3.28-4.5c0-1.54-.66-2.48-1.78-2.48a1.494 1.494 0 0 0-1.6 1.48 1.442 1.442 0 0 0 1.54 1.48.82.82 0 0 0 .22-.02 3.1 3.1 0 0 1-2.18 2.74zm13.3-8.3c-1.58 0-2.66-1.7-2.66-4.52s1.08-4.52 2.66-4.52c1.56 0 2.66 1.7 2.66 4.52s-1.1 4.52-2.66 4.52zm0-10.9c-2.7 0-4.64 2.48-4.64 6.38s1.94 6.36 4.64 6.36 4.64-2.46 4.64-6.36-1.94-6.38-4.64-6.38zm12 5.74h-2.82v-7.06H132v18.08h2.06v-9.32h2.82zm13.16-3.62h-10.18v4.5h12.58v-1.58h-10.56V41.4h10.2v-4.52h-12.26v1.6h10.22zm-8.12 10.46h8.18v2.3h-8.18zm-2.02 3.94h12.22v-5.58H139.9zm-2.16-8.6v1.64h16.4v-1.64zm20.52-5.86h6.34v-1.68h-8.4v11.94h1.48a44.575 44.575 0 0 0 8.44-.6l-.22-1.7a43.6 43.6 0 0 1-7.64.58zm14.02 3.56h-2.82v-6.96h-2.06v18.1h2.06v-9.44h2.82zm9.06-5.04c2.68 0 4.3.66 4.3 1.84 0 1.16-1.62 1.82-4.3 1.82s-4.32-.66-4.32-1.82c0-1.18 1.64-1.84 4.32-1.84zm0 5.24c3.94 0 6.44-1.28 6.44-3.4 0-2.14-2.5-3.44-6.44-3.44s-6.44 1.3-6.44 3.44c0 2.12 2.5 3.4 6.44 3.4zm4.16 9.06h-8.34v-2.76h8.34zm4-6.22V44.8h-16.34v1.66h7.14v1.82h-5.18v6.04h12.4v-6.04h-5.16v-1.82zm9.54-8.16c2.8 0 4.3.54 4.3 1.58 0 1.02-1.5 1.56-4.3 1.56s-4.3-.54-4.3-1.56c0-1.04 1.5-1.58 4.3-1.58zm0 4.68c4.04 0 6.44-1.1 6.44-3.1 0-2.02-2.4-3.12-6.44-3.12-4.06 0-6.44 1.1-6.44 3.12 0 2 2.38 3.1 6.44 3.1zm-4.16 8.32h10.28v-4.32H192.8v1.56h10.34v1.3h-10.3v4.54h12.84V52.8h-10.8zm-4.02-7.26v1.64h16.36v-1.64zm36.42-2.14h-4.16v-2.92h4.06v-1.66h-6.12v6.24h6.22zm-7-.44a24.508 24.508 0 0 1-4.3.44v-2.92h4.12v-1.66h-6.18v6.24h1.04a25.233 25.233 0 0 0 5.5-.46zm1.34 6.48h-2.12v.46c0 2.18-2.32 3.98-5.92 4.46l.76 1.62c2.86-.44 5.12-1.68 6.22-3.5 1.1 1.82 3.36 3.06 6.22 3.5l.78-1.62c-3.62-.48-5.94-2.28-5.94-4.46zM212.36 45v1.68h16.34V45zm28.4-6.8h-4.3v-1.88h-2.06v1.88h-4.3v1.66h10.66zm-7.74 5.5c0-1.02.96-1.64 2.4-1.64s2.42.62 2.42 1.64c0 1.04-.98 1.66-2.42 1.66s-2.4-.62-2.4-1.66zm6.78 0c0-1.9-1.76-3.18-4.38-3.18-2.6 0-4.38 1.28-4.38 3.18 0 1.92 1.78 3.2 4.38 3.2 2.62 0 4.38-1.28 4.38-3.2zm2.34 8.98h-7.46v-1.66h7.46zm0-3.26h-7.46v-1.66h-2.04v6.56h11.54v-6.56h-2.04zm4.6-8.44h-2.56v-4.5h-2.06v10.54h2.06v-4.34h2.56zm4.14-2.74h-2.04v11.74h1.54a43.138 43.138 0 0 0 8.82-.86l-.22-1.72a41.829 41.829 0 0 1-8.1.82zm9.76-1.76v18.06h2.06V36.48zm7.62 3.38h6.34v-1.68h-8.4v11.94h1.48a44.574 44.574 0 0 0 8.44-.6l-.22-1.7a43.6 43.6 0 0 1-7.64.58zm14.02 3.56h-2.82v-6.96h-2.06v18.1h2.06v-9.44h2.82zm2.86 9.84a1.531 1.531 0 0 0 1.54-1.6 1.543 1.543 0 1 0-3.08 0 1.531 1.531 0 0 0 1.54 1.6zM16.2 74.56h-4.46v-4.82h4.28v-1.68H9.68v8.16h6.52zm-7.48-.5a22.614 22.614 0 0 1-4.3.46v-4.76h4.14v-1.68h-6.2v8.14h1.06a25.051 25.051 0 0 0 5.48-.46zm1.46 6.58v-3.58H8.12v3.58h-7.1v1.7h16.36v-1.7zm19.22-12.1h-4.3v-2.08h-2.06v2.08h-4.3v1.64H29.4zm-7.74 5.9c0-1.14.98-1.82 2.4-1.82 1.44 0 2.42.68 2.42 1.82s-.98 1.82-2.42 1.82c-1.42 0-2.4-.68-2.4-1.82zm6.78 0c0-2.04-1.78-3.42-4.38-3.42-2.58 0-4.38 1.38-4.38 3.42 0 2.06 1.8 3.42 4.38 3.42 2.6 0 4.38-1.36 4.38-3.42zm-4.98 4.54h-2.08v5.22h12.16v-1.68H23.46zm9.36-6.74v-5.76h-2.06v13.54h2.06v-6.08h2.56v-1.7zM36.98 87a4.689 4.689 0 0 0 3.28-4.5c0-1.54-.66-2.48-1.78-2.48a1.494 1.494 0 0 0-1.6 1.48 1.442 1.442 0 0 0 1.54 1.48.82.82 0 0 0 .22-.02 3.1 3.1 0 0 1-2.18 2.74zm18.84-12.82a35.306 35.306 0 0 1-7.54.58v-5.12h5.98v-1.68h-8.04v8.5h1.46a37.476 37.476 0 0 0 8.34-.62zm-5.6 4.04h-2.08v5.98H60.3v-1.68H50.22zm9.36-6.58v-5.18h-2.06v13.08h2.06v-6.2h2.56v-1.7zm19.02.94c-3.54-.5-6.2-2.68-6.2-4.9v-.74h-2.12v.74c0 2.28-2.64 4.44-6.2 4.94l.8 1.64a8.9 8.9 0 0 0 6.46-3.94 8.962 8.962 0 0 0 6.48 3.88zm-11.38 6.36h-2.06v5.26h12.56v-1.68h-10.5zm-4.06-3.4v1.66h7.32v3.38h2.06V77.2h7v-1.66zm23.52 3.42a2.52 2.52 0 1 1 2.56-2.52 2.425 2.425 0 0 1-2.56 2.52zm0-6.74a4.231 4.231 0 1 0 4.54 4.22 4.242 4.242 0 0 0-4.54-4.22zm1.02-5.52h-2.08v2.6h-4.36v1.66h10.78V69.3H87.7zm5.96-.22v18.06h2.08V66.48zm10.92 4.7a2.756 2.756 0 1 1 2.76 2.46 2.5 2.5 0 0 1-2.76-2.46zm10.68-1.08v2.1h-3.36a4.314 4.314 0 0 0 .12-1.02 3.808 3.808 0 0 0-.14-1.08zm0 3.72v1.82h2.08v-9.18h-2.08v2.02H111a4.872 4.872 0 0 0-3.66-1.46c-2.72 0-4.72 1.72-4.72 4.16 0 2.42 2 4.16 4.72 4.16a4.866 4.866 0 0 0 3.7-1.52zm-7.62 8.88v-1.6h9.7v-4.6h-11.76v1.6h9.72v1.48h-9.7v4.74h12.34V82.7zm22.14-11.68v1.68h3.2v4.54h2.06V66.48h-2.06v4.54zm1.04 4.02a5.923 5.923 0 0 1-4.24-5.44v-.24h3.76V67.7h-9.66v1.66h3.82v.26a6.341 6.341 0 0 1-4.42 5.88l1.06 1.64a7.475 7.475 0 0 0 4.46-4.34 7.055 7.055 0 0 0 4.2 3.86zm-1.78 7.92c-2.58 0-4.04-.64-4.04-1.82s1.46-1.82 4.04-1.82c2.54 0 4.02.64 4.02 1.82s-1.48 1.82-4.02 1.82zm0-5.24c-3.78 0-6.1 1.28-6.1 3.42 0 2.16 2.32 3.42 6.1 3.42 3.76 0 6.08-1.26 6.08-3.42 0-2.14-2.32-3.42-6.08-3.42zm16.9-9.42c2.8 0 4.3.54 4.3 1.58 0 1.02-1.5 1.56-4.3 1.56s-4.3-.54-4.3-1.56c0-1.04 1.5-1.58 4.3-1.58zm0 4.68c4.04 0 6.44-1.1 6.44-3.1 0-2.02-2.4-3.12-6.44-3.12-4.06 0-6.44 1.1-6.44 3.12 0 2 2.38 3.1 6.44 3.1zm-4.16 8.32h10.28v-4.32H139.7v1.56h10.34v1.3h-10.3v4.54h12.84V82.8h-10.8zm-4.02-7.26v1.64h16.36v-1.64zm36.04.96h-10.46v-5.26h10.32v-1.68h-12.38v8.6h12.52zm-14.52 5.52v1.7h16.38v-1.7zm20.36-5.9h6.04v-6.54h-8.1v1.66h6.08v3.22h-6.04v7.34h1.42a45.952 45.952 0 0 0 8.2-.56l-.18-1.68a43.9 43.9 0 0 1-7.42.54zm10.24-8.18v6.78h-3.16v1.7h3.16v9.64h2.06V66.44zm7.66 2.12h-2.06v11.42h1.2a34.7 34.7 0 0 0 6.38-.54l-.22-1.76a33.516 33.516 0 0 1-5.3.54zm10.54-2.08v7.18h-2.14v-6.82H204v16.8h1.94v-8.28h2.14v9.18h1.96V66.48zm5.32 1.9v1.68h6.44c-.36 4.16-2.6 7.34-7.34 9.62l1.1 1.64c6.2-3 8.36-7.56 8.36-12.94zm11.82-1.9v18.06h2.06V66.48zm14.04 14.2v-4.26h5.34v-1.66h-10.46V69.5h10.3v-1.66h-12.36v8.58h5.12v4.26h-7.12v1.7h16.36v-1.7zm17.58-1.72a2.52 2.52 0 1 1 2.52-2.52 2.4 2.4 0 0 1-2.52 2.52zm0-6.74a4.228 4.228 0 1 0 4.48 4.22 4.2 4.2 0 0 0-4.48-4.22zm1-5.48h-2.06v2.52h-4.3v1.68h10.58v-1.68h-4.22zm10.54 7h-2.78v-7.26h-2.08v18.08h2.08v-9.1h2.78zm9.96 1.9v-3.28h3.86v3.28zm-2.02 2.78h-4.34V69.8h4.34zm5.88-11.96v4.24h-3.86v-2.54h-8.38v11.88h8.38V77.3h3.86v7.28h2.08V66.46zM2.66 104.58c3.12-.4 5.54-1.86 6.5-3.86.98 2 3.42 3.46 6.56 3.86l.76-1.64c-3.4-.42-5.78-2.12-5.94-3.98h5.32v-1.64H2.52v1.64H7.8c-.16 1.86-2.5 3.56-5.92 3.98zm2.48 4.48H3.06v5.14h12.46v-1.68H5.14zm5.04-2.98v-2.76H8.12v2.76H1v1.66h16.38v-1.66zm21.44-4.82v2.08h-4.38v1.68h4.38v2.08h2.06V96.48h-2.06v3.1H27.9a10.214 10.214 0 0 0 .16-1.8h-8.2v1.66h6c-.36 2.82-2.7 5.04-6.94 6.22l.82 1.64c3.9-1.14 6.56-3.16 7.68-6.04zm-3.86 11.58c-2.44 0-3.98-.7-3.98-1.96 0-1.24 1.54-1.94 3.98-1.94 2.46 0 4 .7 4 1.94 0 1.26-1.54 1.96-4 1.96zm0-5.52c-3.66 0-6.02 1.36-6.02 3.56 0 2.22 2.36 3.58 6.02 3.58s6.04-1.36 6.04-3.58c0-2.2-2.38-3.56-6.04-3.56zm9.22 9.68a4.689 4.689 0 0 0 3.28-4.5c0-1.54-.66-2.48-1.78-2.48a1.494 1.494 0 0 0-1.6 1.48 1.442 1.442 0 0 0 1.54 1.48.82.82 0 0 0 .22-.02 3.1 3.1 0 0 1-2.18 2.74zm13.3-8.3c-1.58 0-2.66-1.7-2.66-4.52s1.08-4.52 2.66-4.52c1.56 0 2.66 1.7 2.66 4.52s-1.1 4.52-2.66 4.52zm0-10.9c-2.7 0-4.64 2.48-4.64 6.38s1.94 6.36 4.64 6.36 4.64-2.46 4.64-6.36-1.94-6.38-4.64-6.38zm12 5.74h-2.82v-7.06H57.4v18.08h2.06v-9.32h2.82zm13.16-3.62H65.26v4.5h12.58v-1.58H67.28v-1.44h10.2v-4.52H65.22v1.6h10.22zm-8.12 10.46h8.18v2.3h-8.18zm-2.02 3.94h12.22v-5.58H65.3zm-2.16-8.6v1.64h16.4v-1.64zm20.52-5.86H90v-1.68h-8.4v11.94h1.48a44.574 44.574 0 0 0 8.44-.6l-.22-1.7a43.6 43.6 0 0 1-7.64.58zm14.02 3.56h-2.82v-6.96H92.8v18.1h2.06v-9.44h2.82zm9.06-5.04c2.68 0 4.3.66 4.3 1.84 0 1.16-1.62 1.82-4.3 1.82s-4.32-.66-4.32-1.82c0-1.18 1.64-1.84 4.32-1.84zm0 5.24c3.94 0 6.44-1.28 6.44-3.4 0-2.14-2.5-3.44-6.44-3.44s-6.44 1.3-6.44 3.44c0 2.12 2.5 3.4 6.44 3.4zm4.16 9.06h-8.34v-2.76h8.34zm4-6.22v-1.66H98.56v1.66h7.14v1.82h-5.18v6.04h12.4v-6.04h-5.16v-1.82zm1.94 10.54a4.689 4.689 0 0 0 3.28-4.5c0-1.54-.66-2.48-1.78-2.48a1.494 1.494 0 0 0-1.6 1.48 1.442 1.442 0 0 0 1.54 1.48.82.82 0 0 0 .22-.02 3.1 3.1 0 0 1-2.18 2.74zm12.56-8.24c-1.22 0-1.98-1.6-1.98-4.46s.76-4.48 1.98-4.48 1.98 1.62 1.98 4.48-.76 4.46-1.98 4.46zm0-10.88c-2.34 0-3.88 2.44-3.88 6.42 0 3.94 1.54 6.4 3.88 6.4s3.88-2.46 3.88-6.4c0-3.98-1.54-6.42-3.88-6.42zm9.4-1.4v7.04h-2.06v-6.7h-1.94v16.86h1.94v-8.48h2.06v9.32h1.96V96.48zm13.94 4.54v1.68h3.2v4.54H158V96.48h-2.06v4.54zm1.04 4.02a5.923 5.923 0 0 1-4.24-5.44v-.24h3.76V97.7h-9.66v1.66h3.82v.26a6.341 6.341 0 0 1-4.42 5.88l1.06 1.64a7.475 7.475 0 0 0 4.46-4.34 7.055 7.055 0 0 0 4.2 3.86zm-1.78 7.92c-2.58 0-4.04-.64-4.04-1.82s1.46-1.82 4.04-1.82c2.54 0 4.02.64 4.02 1.82s-1.48 1.82-4.02 1.82zm0-5.24c-3.78 0-6.1 1.28-6.1 3.42 0 2.16 2.32 3.42 6.1 3.42 3.76 0 6.08-1.26 6.08-3.42 0-2.14-2.32-3.42-6.08-3.42zm9.3 9.28a4.689 4.689 0 0 0 3.28-4.5c0-1.54-.66-2.48-1.78-2.48a1.494 1.494 0 0 0-1.6 1.48 1.442 1.442 0 0 0 1.54 1.48.82.82 0 0 0 .22-.02 3.1 3.1 0 0 1-2.18 2.74zm14.82-19.02h-2.06v2.96c0 3.34-1.76 6.76-4.58 8.14l1.26 1.66a9.333 9.333 0 0 0 4.36-5.66 9 9 0 0 0 4.16 5.32l1.26-1.64c-2.72-1.34-4.4-4.6-4.4-7.82zm10.48 5.66h-2.82v-7.16h-2.06v18.06h2.06v-9.2h2.82zm11.4.56a41.577 41.577 0 0 1-7.76.58v-2.06h6.14v-5.16h-8.2v1.66h6.16v1.94h-6.12v5.3h1.46a46.087 46.087 0 0 0 8.54-.58zm-2.24 8.76c-2.56 0-4-.62-4-1.78 0-1.14 1.44-1.76 4-1.76 2.54 0 4 .62 4 1.76 0 1.16-1.46 1.78-4 1.78zm0-5.14c-3.74 0-6.02 1.24-6.02 3.36s2.28 3.36 6.02 3.36 6.02-1.24 6.02-3.36-2.28-3.36-6.02-3.36zm5.84-6.96v-4.4h-2.06v10.88h2.06v-4.78h2.56v-1.7zm21.86.9h-10.38v-3h10.26V97.1h-12.3v6.32h12.42zm-6.34 11.18c-2.64 0-4.12-.58-4.12-1.7 0-1.1 1.48-1.7 4.12-1.7s4.14.6 4.14 1.7c0 1.12-1.5 1.7-4.14 1.7zm0-4.98c-3.86 0-6.22 1.2-6.22 3.28 0 2.1 2.36 3.3 6.22 3.3 3.88 0 6.22-1.2 6.22-3.3 0-2.08-2.34-3.28-6.22-3.28zm-8.1-3.04v1.7h16.32v-1.7zm25.84-6.62c2.8 0 4.3.54 4.3 1.58 0 1.02-1.5 1.56-4.3 1.56s-4.3-.54-4.3-1.56c0-1.04 1.5-1.58 4.3-1.58zm0 4.68c4.04 0 6.44-1.1 6.44-3.1 0-2.02-2.4-3.12-6.44-3.12-4.06 0-6.44 1.1-6.44 3.12 0 2 2.38 3.1 6.44 3.1zm-4.16 8.32h10.28v-4.32h-12.36v1.56h10.34v1.3h-10.3v4.54h12.84v-1.58h-10.8zm-4.02-7.26v1.64h16.36v-1.64zm27.34-6.3c-2.82 0-4.9 1.78-4.9 4.34s2.08 4.34 4.9 4.34 4.92-1.78 4.92-4.34-2.1-4.34-4.92-4.34zm0 1.76a2.6 2.6 0 1 1-2.88 2.58 2.615 2.615 0 0 1 2.88-2.58zm6.96-3.04v18.1h2.08v-18.1zm-12.44 14.28a62.867 62.867 0 0 0 11.5-.8l-.14-1.5a82.568 82.568 0 0 1-11.62.6zm18.32-12.56v11.94h8.48V98.18zm6.46 1.64v8.64h-4.44v-8.64zm5.36-3.36v18.12h2.08V96.46zm15.6 2.08h-4.3v-2.08h-2.06v2.08h-4.3v1.64h10.66zm-7.74 5.9c0-1.14.98-1.82 2.4-1.82 1.44 0 2.42.68 2.42 1.82s-.98 1.82-2.42 1.82c-1.42 0-2.4-.68-2.4-1.82zm6.78 0c0-2.04-1.78-3.42-4.38-3.42-2.58 0-4.38 1.38-4.38 3.42 0 2.06 1.8 3.42 4.38 3.42 2.6 0 4.38-1.36 4.38-3.42zm-4.98 4.54h-2.08v5.22h12.16v-1.68h-10.08zm9.36-6.74v-5.76h-2.06v13.54h2.06v-6.08h2.56v-1.7zM3.8 129.86h6.34v-1.68h-8.4v11.94h1.48a44.574 44.574 0 0 0 8.44-.6l-.22-1.7a43.6 43.6 0 0 1-7.64.58zm14.02 3.56H15v-6.96h-2.06v18.1H15v-9.44h2.82zm13.38-3.48a38.876 38.876 0 0 1-.7 8.26l2.08.22a41.353 41.353 0 0 0 .7-8.48v-1.78H20.42v1.68H31.2zm-4.32 10.54v-6.36H24.8v6.36h-6.08v1.7h16.32v-1.7zM50.9 128.2h-4.3v-1.88h-2.06v1.88h-4.3v1.66H50.9zm-7.74 5.5c0-1.02.96-1.64 2.4-1.64s2.42.62 2.42 1.64c0 1.04-.98 1.66-2.42 1.66s-2.4-.62-2.4-1.66zm6.78 0c0-1.9-1.76-3.18-4.38-3.18-2.6 0-4.38 1.28-4.38 3.18 0 1.92 1.78 3.2 4.38 3.2 2.62 0 4.38-1.28 4.38-3.2zm2.34 8.98h-7.46v-1.66h7.46zm0-3.26h-7.46v-1.66h-2.04v6.56h11.54v-6.56h-2.04zm4.6-8.44h-2.56v-4.5h-2.06v10.54h2.06v-4.34h2.56zm4.14-2.74h-2.04v11.74h1.54a43.138 43.138 0 0 0 8.82-.86l-.22-1.72a41.83 41.83 0 0 1-8.1.82zm9.76-1.76v18.06h2.06v-18.06zm7.62 3.38h6.34v-1.68h-8.4v11.94h1.48a44.574 44.574 0 0 0 8.44-.6l-.22-1.7a43.6 43.6 0 0 1-7.64.58zm14.02 3.56H89.6v-6.96h-2.06v18.1h2.06v-9.44h2.82zm2.86 9.84a1.531 1.531 0 0 0 1.54-1.6 1.543 1.543 0 1 0-3.08 0 1.531 1.531 0 0 0 1.54 1.6zM13.2 160.22a40.708 40.708 0 0 1-.7 8.56l2.08.22a44.782 44.782 0 0 0 .68-8.78v-1.94H2.76v1.66H13.2zm-12.18 10.1v1.7h16.34v-1.7zm30.6-.56h2.06v-13.28h-2.06v4.56H28.5v1.74h3.12zm-2.8-4.54a43.74 43.74 0 0 1-7.36.48v-2.48h6.02v-5.52h-8.1v1.66h6.04v2.28h-6v5.74h1.42a48.184 48.184 0 0 0 8.16-.48zm-4.88 7.3v-3.76h-2.06v5.44h12.3v-1.68zm15.12-12.24h4.8v-1.68h-6.84v11.74h1.22a31.7 31.7 0 0 0 6.56-.5l-.18-1.7a25.976 25.976 0 0 1-5.56.5zm7.12 2.96h-3.56v1.68h3.56v8.76h1.94v-16.82h-1.94zm3.68-6.78v18.06h1.98v-18.06zm18.66 8.52a5.585 5.585 0 0 1-4.26-5.22v-.34h3.78v-1.66h-9.7v1.66h3.84v.36a6.148 6.148 0 0 1-4.42 5.76l1.04 1.62a7.351 7.351 0 0 0 4.48-4.2 6.783 6.783 0 0 0 4.24 3.62zm-2.32 7.94c-2.52 0-3.98-.64-3.98-1.8 0-1.18 1.46-1.8 3.98-1.8s3.98.62 3.98 1.8c0 1.16-1.46 1.8-3.98 1.8zm0-5.22c-3.72 0-6.02 1.26-6.02 3.42 0 2.14 2.3 3.42 6.02 3.42s6.02-1.28 6.02-3.42c0-2.16-2.3-3.42-6.02-3.42zm5.82-6.82v-4.4h-2.06v10.8h2.06v-4.7h2.56v-1.7zm4.56-2.7v11.94h8.48v-11.94zm6.46 1.64v8.64H78.6v-8.64zm5.36-3.36v18.12h2.08v-18.12zm19.42 5.2H97.48v-4.54h-2.06v6.22h12.4zm-10.46 7.16H95.3v5.32h12.62v-1.66H97.36zm-4.06-3.32v1.66h16.4v-1.66zm22.18-6.74v1.68h5.06c-.28 3.64-1.92 6.6-5.82 8.86l1.2 1.46c5.08-2.92 6.66-7.18 6.66-12zm12.74-2.28v7.06h-2.06v-6.58h-1.94v16.74h1.94v-8.48h2.06v9.32h1.96v-18.06zm17.18 4.02v1.7h-3.74v-1.7zm-5.76 3.08h-4.26v-2.36h4.26zm2.02.22h3.74v2.04h2.08v-9.36h-2.08v2.44h-3.74v-1.64h-2.02v2.36h-4.26v-2.36h-2.04v7.94h8.32zm-3.88 8.9v-1.54h9.7v-4.52h-11.76v1.62h9.72v1.38h-9.7v4.68h12.34v-1.62zm31.62-10.5c-3.62-.48-6.18-2.48-6.18-4.74v-.68h-2.12v.68c0 2.24-2.6 4.26-6.18 4.74l.76 1.62c2.94-.44 5.32-1.82 6.46-3.74 1.16 1.94 3.58 3.28 6.48 3.74zm-7.26 10.76c-2.66 0-4.12-.54-4.12-1.58s1.46-1.6 4.12-1.6 4.14.56 4.14 1.6-1.48 1.58-4.14 1.58zm0-4.74c-3.88 0-6.22 1.14-6.22 3.16s2.34 3.16 6.22 3.16c3.9 0 6.22-1.14 6.22-3.16s-2.32-3.16-6.22-3.16zm1.04-2.94v-2.46h-2.06v2.46H154v1.66h16.34v-1.66zm21.32-8.82v18.12h2.08v-18.12zm-7.54 1.34c-2.68 0-4.64 2.48-4.64 6.36 0 3.92 1.96 6.38 4.64 6.38 2.7 0 4.66-2.46 4.66-6.38 0-3.88-1.96-6.36-4.66-6.36zm0 1.86c1.58 0 2.68 1.7 2.68 4.5 0 2.84-1.1 4.54-2.68 4.54-1.56 0-2.66-1.7-2.66-4.54 0-2.8 1.1-4.5 2.66-4.5zm16.52 9.1c-1.24 0-2-1.62-2-4.48s.76-4.46 2-4.46 2 1.6 2 4.46-.76 4.48-2 4.48zm5.78-5.44h-1.94c-.22-3.38-1.68-5.44-3.84-5.44-2.34 0-3.88 2.44-3.88 6.4s1.54 6.42 3.88 6.42c2.2 0 3.68-2.16 3.86-5.68h1.92v8.66h1.92v-16.86h-1.92zm3.62-6.84v18.04h1.96v-18.04zM213.4 160h2.56v-1.66h-4.58v11.62h.84a18.817 18.817 0 0 0 4.06-.34l-.18-1.68a20.229 20.229 0 0 1-2.7.3zm5.58 0h2.78v-1.66h-4.82v11.62h.9a17.546 17.546 0 0 0 4.52-.38l-.2-1.68a15.127 15.127 0 0 1-3.18.36zm8.66 3.42h-2.4v-6.96h-2.08v18.1h2.08v-9.42h2.4zm3.74 1.38h6.18v-6.72h-8.26v1.68h6.22v3.38h-6.18v7.14h1.48a45.327 45.327 0 0 0 8.54-.62l-.22-1.68a42.9 42.9 0 0 1-7.76.6zm14.04-1.3h-2.78v-7.06h-2.08v18.12h2.08v-9.34h2.78zm18.76-.46a20.113 20.113 0 0 0 .54-5.06v-.86h-6.28v1.66h4.26a19.385 19.385 0 0 1-.52 4.04zm-8.02.02a13.407 13.407 0 0 0 .86-5.12v-.82h-5.54v1.66H255a12.478 12.478 0 0 1-.86 3.98zm8.2 6.5v-1.62h-5.04v-1.66h-2.1v1.66h-5.04v1.62h5c-.32 1.58-2.56 3.02-5.72 3.36l.7 1.54c2.8-.34 5.02-1.48 6.1-3.06 1.08 1.6 3.3 2.72 6.1 3.06l.7-1.54c-3.14-.36-5.4-1.78-5.7-3.36zm-4.74-5.56v-2.86h-2.04V164h-7.46v1.66h16.3V164zm15.26-.86h-4.4v-4.08h4.4zm2.02-5.72h-8.46v7.36h8.46zm-4.58 13.62h9.6v-4.66h-11.66V168h9.62v1.54h-9.58v4.78h12.22v-1.64h-10.2zm9.6-10.86v-3.7h-2.06v9.12h2.06v-3.72h2.54v-1.7zm16.38-3.72v18.12h2.08v-18.12zm-7.54 1.34c-2.68 0-4.64 2.48-4.64 6.36 0 3.92 1.96 6.38 4.64 6.38 2.7 0 4.66-2.46 4.66-6.38 0-3.88-1.96-6.36-4.66-6.36zm0 1.86c1.58 0 2.68 1.7 2.68 4.5 0 2.84-1.1 4.54-2.68 4.54-1.56 0-2.66-1.7-2.66-4.54 0-2.8 1.1-4.5 2.66-4.5zM3.8 189.86h6.34v-1.68h-8.4v11.94h1.48a44.574 44.574 0 0 0 8.44-.6l-.22-1.7a43.6 43.6 0 0 1-7.64.58zm14.02 3.56H15v-6.96h-2.06v18.1H15v-9.44h2.82zm13.28-1.56H20.7v5.84h12.84v-1.68H22.72v-2.52h10.42v-5.72H20.66v1.68H31.1zm-12.38 8.82v1.7h16.36v-1.7zm20.48-10.82h6.34v-1.68h-8.4v11.94h1.48a44.574 44.574 0 0 0 8.44-.6l-.22-1.7a43.6 43.6 0 0 1-7.64.58zm14.02 3.56H50.4v-6.96h-2.06v18.1h2.06v-9.44h2.82zm13.38-3.48a38.876 38.876 0 0 1-.7 8.26l2.08.22a41.352 41.352 0 0 0 .7-8.48v-1.78H55.82v1.68H66.6zm-4.32 10.54v-6.36H60.2v6.36h-6.08v1.7h16.32v-1.7zM86.3 188.2H82v-1.88h-2.06v1.88h-4.3v1.66H86.3zm-7.74 5.5c0-1.02.96-1.64 2.4-1.64s2.42.62 2.42 1.64c0 1.04-.98 1.66-2.42 1.66s-2.4-.62-2.4-1.66zm6.78 0c0-1.9-1.76-3.18-4.38-3.18-2.6 0-4.38 1.28-4.38 3.18 0 1.92 1.78 3.2 4.38 3.2 2.62 0 4.38-1.28 4.38-3.2zm2.34 8.98h-7.46v-1.66h7.46zm0-3.26h-7.46v-1.66h-2.04v6.56h11.54v-6.56h-2.04zm4.6-8.44h-2.56v-4.5h-2.06v10.54h2.06v-4.34h2.56zm4.14-2.74h-2.04v11.74h1.54a43.139 43.139 0 0 0 8.82-.86l-.22-1.72a41.83 41.83 0 0 1-8.1.82zm9.76-1.76v18.06h2.06v-18.06zm7.62 3.38h6.34v-1.68h-8.4v11.94h1.48a44.575 44.575 0 0 0 8.44-.6l-.22-1.7a43.6 43.6 0 0 1-7.64.58zm14.02 3.56H125v-6.96h-2.06v18.1H125v-9.44h2.82zm2.86 9.84a1.531 1.531 0 0 0 1.54-1.6 1.543 1.543 0 1 0-3.08 0 1.531 1.531 0 0 0 1.54 1.6z" class="cls-4" transform="translate(469 355)"/>
    </g>
</svg>
