<svg xmlns="http://www.w3.org/2000/svg" width="848" height="496" viewBox="0 0 848 496">
    <defs>
        <filter id="사각형_1960" width="283" height="91" x="116" y="176" filterUnits="userSpaceOnUse">
            <feOffset dy="5"/>
            <feGaussianBlur result="blur" stdDeviation="5"/>
            <feFlood flood-color="#9dabbe" flood-opacity=".302"/>
            <feComposite in2="blur" operator="in"/>
            <feComposite in="SourceGraphic"/>
        </filter>
        <filter id="사각형_2704" width="283" height="91" x="451" y="176" filterUnits="userSpaceOnUse">
            <feOffset dy="5"/>
            <feGaussianBlur result="blur-2" stdDeviation="5"/>
            <feFlood flood-color="#9dabbe" flood-opacity=".302"/>
            <feComposite in2="blur-2" operator="in"/>
            <feComposite in="SourceGraphic"/>
        </filter>
        <filter id="사각형_2702" width="283" height="91" x="116" y="251" filterUnits="userSpaceOnUse">
            <feOffset dy="5"/>
            <feGaussianBlur result="blur-3" stdDeviation="5"/>
            <feFlood flood-color="#9dabbe" flood-opacity=".302"/>
            <feComposite in2="blur-3" operator="in"/>
            <feComposite in="SourceGraphic"/>
        </filter>
        <filter id="사각형_2705" width="283" height="91" x="451" y="251" filterUnits="userSpaceOnUse">
            <feOffset dy="5"/>
            <feGaussianBlur result="blur-4" stdDeviation="5"/>
            <feFlood flood-color="#9dabbe" flood-opacity=".302"/>
            <feComposite in2="blur-4" operator="in"/>
            <feComposite in="SourceGraphic"/>
        </filter>
        <filter id="사각형_2703" width="283" height="91" x="116" y="335" filterUnits="userSpaceOnUse">
            <feOffset dy="5"/>
            <feGaussianBlur result="blur-5" stdDeviation="5"/>
            <feFlood flood-color="#9dabbe" flood-opacity=".302"/>
            <feComposite in2="blur-5" operator="in"/>
            <feComposite in="SourceGraphic"/>
        </filter>
        <filter id="사각형_2706" width="283" height="91" x="451" y="335" filterUnits="userSpaceOnUse">
            <feOffset dy="5"/>
            <feGaussianBlur result="blur-6" stdDeviation="5"/>
            <feFlood flood-color="#9dabbe" flood-opacity=".302"/>
            <feComposite in2="blur-6" operator="in"/>
            <feComposite in="SourceGraphic"/>
        </filter>
        <linearGradient id="linear-gradient" x1=".008" x2="1.024" y1=".014" y2="1" gradientUnits="objectBoundingBox">
            <stop offset="0" stop-color="#2958d7"/>
            <stop offset="1" stop-color="#6ad0e8"/>
        </linearGradient>
        <style>
            .cls-4{fill:#fff;stroke:#c1d5e8}.cls-5{fill:#2c2c44}.cls-6{stroke:none}.cls-7{fill:none}
        </style>
    </defs>
    <g id="img_qacollection" transform="translate(-366 -2855)">
        <rect id="img_boundingbox" width="848" height="496" fill="url(#linear-gradient)" rx="10" transform="translate(366 2855)"/>
        <rect id="사각형_2695" width="730" height="362" fill="#fff" rx="10" transform="translate(425 2946)"/>
        <path id="패스_4726" fill="#03020f" d="M10.692-7.974a4.5 4.5 0 0 1-3.6-4.608v-1.674h-2.97v1.4A5.21 5.21 0 0 1 .27-7.524l1.548 2.268a6.313 6.313 0 0 0 3.816-3.33A5.91 5.91 0 0 0 9.18-5.742zM8.424-.5c-1.944 0-2.9-.324-2.9-1.134s.956-1.156 2.9-1.156c1.962 0 2.916.342 2.916 1.152S10.386-.5 8.424-.5zm0-4.5c-3.528 0-5.8 1.242-5.8 3.366 0 2.106 2.268 3.366 5.8 3.366 3.546 0 5.814-1.26 5.814-3.366C14.238-3.762 11.97-5 8.424-5zm5.616-6.5v-3.672h-2.916v9.828h2.916v-3.8h2.106V-11.5zm12.654-2.61h-3.258v-1.206H20.52v1.206h-3.312v2.052h9.486zM21.96-9.954c.954 0 1.458.162 1.458.594s-.5.594-1.458.594-1.46-.162-1.46-.594.506-.594 1.46-.594zm5.13 3.294c-1.17.144-2.394.234-3.654.306v-.684c1.692-.306 2.736-1.134 2.736-2.322 0-1.512-1.656-2.43-4.212-2.43s-4.212.918-4.212 2.43c0 1.188 1.062 2 2.772 2.3v.774c-1.332.036-2.61.036-3.762.036l.324 2.16a60.577 60.577 0 0 0 10.206-.648zM24.8-.324c-2.142 0-2.952-.144-2.952-.63 0-.5.81-.648 2.934-.648 2.142 0 2.952.144 2.952.648.004.486-.806.63-2.934.63zm-.014-3.366c-3.708 0-5.868.954-5.868 2.736 0 1.764 2.16 2.718 5.868 2.718 3.726 0 5.886-.954 5.886-2.718 0-1.782-2.16-2.736-5.886-2.736zm5.8-6.858v-4.644h-2.92v11.376h2.916V-8.19h1.944v-2.358zm5.346 4.212a1.9 1.9 0 0 0 1.908-1.98 1.9 1.9 0 0 0-1.908-1.98 1.893 1.893 0 0 0-1.908 1.98 1.893 1.893 0 0 0 1.904 1.98zm0 6.588a1.919 1.919 0 0 0 1.908-2 1.914 1.914 0 0 0-1.908-1.98 1.9 1.9 0 0 0-1.908 1.98 1.908 1.908 0 0 0 1.904 2zm18-8.406a4.6 4.6 0 0 1-3.762-4.68v-1.6H47.2v1.6a4.956 4.956 0 0 1-3.924 4.95L44.694-5.6a6.337 6.337 0 0 0 4-3.222 6.251 6.251 0 0 0 3.834 2.952zM45.954-2.2H54.7v3.928h2.916v-6.21H45.954zM54.7-15.174v10.026h2.916v-10.026zm14.618 6.138a28.638 28.638 0 0 1-6.084.5v-3.312h4.734v-2.282h-7.632v7.9h1.476a34.579 34.579 0 0 0 7.776-.522zM67.644-.558c-1.926 0-2.916-.36-2.916-1.224 0-.882.99-1.242 2.916-1.242 1.944 0 2.934.36 2.934 1.242 0 .864-.99 1.224-2.934 1.224zm0-4.752c-3.492 0-5.8 1.332-5.8 3.528s2.3 3.528 5.8 3.528c3.51 0 5.814-1.332 5.814-3.528S71.154-5.31 67.644-5.31zm5.67-6.084v-3.8h-2.952V-5.6h2.952v-3.454h2.052v-2.34zm6.714 7.074c-.7 0-1.062-1.026-1.062-3.528s.36-3.528 1.062-3.528c.72 0 1.08 1.026 1.08 3.528s-.36 3.528-1.08 3.528zm4.554-4.842h-.9c-.306-3.132-1.656-4.968-3.654-4.968-2.25 0-3.69 2.34-3.69 6.282s1.44 6.282 3.69 6.282c2.07 0 3.438-1.962 3.672-5.274h.882V.99h2.7v-15.966h-2.7zm3.492-6.048V1.674h2.754V-15.21zm11.142 1.224h-2.934v2.142c0 3.258-.954 6.534-4.014 7.92l1.8 2.322a7.358 7.358 0 0 0 3.672-4.374 6.994 6.994 0 0 0 3.582 4.086l1.728-2.286c-2.988-1.314-3.834-4.392-3.834-7.668zm4.824-1.224v5.058h-2.862v2.322h2.862v9.576h2.916V-15.21zm10.6 8.46c3.06-.378 4.968-1.53 5.958-3.114.99 1.584 2.916 2.736 5.976 3.114l1.044-2.268c-3.528-.4-4.914-1.818-5.22-3.132h4.482v-2.268h-12.616v2.268h4.554c-.306 1.314-1.692 2.736-5.22 3.132zm13.608.72h-15.3v2.286h6.12v5.472h2.916v-5.472h6.264zm11.574-4.284h-5.832v-1.962h5.832zm2.862-4.212H131.13v6.462h11.556zM133.9-3.492h-2.916v4.95h11.952V-.828H133.9zm-4.59-3.492v2.268h6.444v2.538h2.916v-2.538h5.94v-2.268zm21.2 3.06a1.552 1.552 0 0 1-1.6-1.764 1.552 1.552 0 0 1 1.6-1.764 1.544 1.544 0 0 1 1.6 1.764 1.544 1.544 0 0 1-1.594 1.764zm0-5.868a4.115 4.115 0 0 0-4.374 4.1 4.115 4.115 0 0 0 4.374 4.1 4.115 4.115 0 0 0 4.374-4.1 4.115 4.115 0 0 0-4.368-4.1zm1.458-5.076h-2.916v2.07h-3.432v2.286h9.774V-12.8h-3.42zm9.36 6.1H159.1v-6.408h-2.916V1.692h2.916V-6.39h2.232zm1.674-4.716v2.284h5.256c-.378 3.546-2.034 5.9-6.228 7.92l1.512 2.268c6.192-2.952 7.686-7.146 7.686-12.474zm10.35-1.71V1.674h2.916v-16.866z" transform="translate(497 3014)"/>
        <g filter="url(#사각형_1960)" transform="translate(366 2855)">
            <g id="사각형_1960-2" class="cls-4" transform="translate(131 186)">
                <rect width="253" height="61" class="cls-6" rx="10"/>
                <rect width="252" height="60" x=".5" y=".5" class="cls-7" rx="9.5"/>
            </g>
        </g>
        <g filter="url(#사각형_2704)" transform="translate(366 2855)">
            <g id="사각형_2704-2" class="cls-4" transform="translate(466 186)">
                <rect width="253" height="61" class="cls-6" rx="10"/>
                <rect width="252" height="60" x=".5" y=".5" class="cls-7" rx="9.5"/>
            </g>
        </g>
        <path id="패스_4724" d="M3.69-6.714c0-2.862 1.26-4.572 3.24-4.572s3.24 1.71 3.24 4.572c0 2.988-1.26 4.788-3.24 4.788s-3.24-1.8-3.24-4.788zM13 1.26a4.7 4.7 0 0 1-1.458.216A3.412 3.412 0 0 1 8.514.054c2.646-.684 4.374-3.132 4.374-6.768 0-4.32-2.43-6.858-5.958-6.858S.972-11.052.972-6.714c0 3.8 1.89 6.318 4.734 6.858a5.817 5.817 0 0 0 5.526 3.474 5.557 5.557 0 0 0 2.232-.4zM16.6.252a1.658 1.658 0 0 0 1.656-1.728A1.658 1.658 0 0 0 16.6-3.2a1.654 1.654 0 0 0-1.638 1.728A1.654 1.654 0 0 0 16.6.252zm9.05-7.164a7.877 7.877 0 0 0 5.868-3.528A7.914 7.914 0 0 0 37.4-6.912l.67-1.458c-3.1-.414-5.382-2.2-5.49-4.086h4.914v-1.494h-11.97v1.494h4.95c-.108 1.89-2.394 3.672-5.49 4.086zm13.23 1.188H24.174v1.494h6.372V1.4H32.4v-5.63h6.462zm12.672-4.032h-7.326v-2.916h7.326zm1.818-4.392H42.408v5.868H53.37zm-9.18 10.53h-1.854v4.7h11.3V-.432H44.19zm-3.654-3.06v1.494h6.588v3.042h1.854v-3.042h6.3v-1.494zm21.132 3.042A2.164 2.164 0 0 1 59.4-5.9a2.164 2.164 0 0 1 2.268-2.268A2.164 2.164 0 0 1 63.936-5.9a2.164 2.164 0 0 1-2.268 2.264zm0-6.066a3.782 3.782 0 0 0-4.032 3.8 3.771 3.771 0 0 0 4.032 3.8A3.781 3.781 0 0 0 65.7-5.9a3.792 3.792 0 0 0-4.032-3.8zm.9-4.932h-1.854v2.268h-3.87v1.512h9.522v-1.512h-3.8zm9.486 6.3h-2.5v-6.534H67.68V1.4h1.872v-8.19h2.5zm7.254-5.184h-1.854v2.664c0 3.132-1.692 6.246-4.284 7.416l1.1 1.548a8.448 8.448 0 0 0 4.14-5.238 8.114 8.114 0 0 0 4.03 4.878l1.08-1.476a7.873 7.873 0 0 1-4.212-7.128zm5.508-1.368V1.422h1.872v-16.308zm18.63.018h-1.764v9.306h1.764zM90.7-5.166a10.1 10.1 0 0 0 4.842-3.762h2.88v3.15h1.746v-8.748h-1.744v4.086h-2.142a9.3 9.3 0 0 0 .54-3.258H90.54v1.498h4.36c-.306 2.5-1.962 4.41-5.112 5.67zm10.764.144h-1.816v.922a4.673 4.673 0 0 1-2.106 3.758A4.448 4.448 0 0 1 95.508-4.1v-.918h-1.8v.918A4.49 4.49 0 0 1 90.54-.054l.918 1.35a5.51 5.51 0 0 0 3.132-2.88 5.1 5.1 0 0 0 2.988 3.024 5.35 5.35 0 0 0 2.952-3.1 5.3 5.3 0 0 0 3.186 2.96l.9-1.35a4.3 4.3 0 0 1-3.15-4.05zm8.982 1.152c-1.386 0-2.34-1.512-2.34-4.086 0-2.52.954-4.05 2.34-4.05 1.4 0 2.358 1.53 2.358 4.05.002 2.574-.952 4.086-2.356 4.086zm7.254-11.016v6.066h-3.168c-.252-2.988-1.908-4.86-4.086-4.86-2.394 0-4.1 2.232-4.1 5.724 0 3.528 1.71 5.742 4.1 5.742 2.232 0 3.888-1.944 4.1-5.094h3.15v8.73h1.872v-16.308zm10.044 9.234a9.32 9.32 0 0 0 2.052.216 8.334 8.334 0 0 0 2.052-.234v3.546h-4.1zm2.052-6.822c2.448 0 4.158 1.08 4.158 2.79 0 1.728-1.71 2.808-4.158 2.808-2.466 0-4.176-1.08-4.176-2.808.002-1.71 1.712-2.79 4.18-2.79zm3.904 10.35v-4.23a3.758 3.758 0 0 0 2.07-3.33c0-2.592-2.52-4.248-5.976-4.248-3.474 0-5.976 1.656-5.976 4.248a3.738 3.738 0 0 0 2.07 3.33v4.23h-3.438v1.512h14.724v-1.512zm7.42-2.106h1.818c-.306-2.682 2.9-3.654 2.9-6.282 0-2.106-1.458-3.294-3.546-3.294a4.71 4.71 0 0 0-3.582 1.728l1.17 1.062a2.932 2.932 0 0 1 2.178-1.1 1.648 1.648 0 0 1 1.764 1.746c-.002 1.964-3.134 3.116-2.702 6.14zm.936 4.464a1.378 1.378 0 0 0 1.386-1.44 1.409 1.409 0 0 0-1.386-1.476 1.4 1.4 0 0 0-1.386 1.476 1.367 1.367 0 0 0 1.386 1.44z" class="cls-5" transform="translate(550 3079)"/>
        <path id="패스_4725" d="M4.14-5.49l.4-1.458c.4-1.386.792-2.9 1.134-4.356h.072c.4 1.44.756 2.97 1.17 4.356l.4 1.458zM8.82 0h2.79L7.326-13.32H4.194L-.072 0h2.7l.936-3.42h4.32zm5.454.252a1.658 1.658 0 0 0 1.656-1.728A1.658 1.658 0 0 0 14.274-3.2a1.654 1.654 0 0 0-1.638 1.728A1.654 1.654 0 0 0 14.274.252zM29.2-14.526c-3.546 0-5.8 1.17-5.8 3.114 0 1.926 2.25 3.114 5.8 3.114S35-9.486 35-11.412c-.008-1.944-2.258-3.114-5.8-3.114zm0 1.44c2.412 0 3.87.594 3.87 1.674 0 1.062-1.458 1.656-3.87 1.656s-3.888-.594-3.888-1.656c-.004-1.08 1.472-1.674 3.888-1.674zm-5.6 8.838v5.436h11.16v-5.436zm9.34 1.476v2.484h-7.506v-2.484zM21.834-7.11v1.476H36.54V-7.11zm17.19.27a1.291 1.291 0 0 0 1.3 1.3 1.291 1.291 0 0 0 1.3-1.3 1.291 1.291 0 0 0-1.3-1.3 1.291 1.291 0 0 0-1.3 1.3zm5.994 0a1.291 1.291 0 0 0 1.3 1.3 1.291 1.291 0 0 0 1.3-1.3 1.291 1.291 0 0 0-1.3-1.3 1.291 1.291 0 0 0-1.3 1.3zm5.994 0a1.291 1.291 0 0 0 1.3 1.3 1.291 1.291 0 0 0 1.3-1.3 1.291 1.291 0 0 0-1.3-1.3 1.291 1.291 0 0 0-1.3 1.3zm14.58-.45a5.122 5.122 0 0 1-3.852-4.788v-.252h3.384v-1.494h-8.73v1.494h3.456v.252a5.475 5.475 0 0 1-3.978 5.148l.936 1.476a6.558 6.558 0 0 0 4.014-3.762 6.224 6.224 0 0 0 3.852 3.4zm-5.4 4.09h6.732v2.912h-6.732zm-1.836 4.388h10.386V-4.68H58.356zM71.046-11h-2.3v-3.888h-1.858v9.5h1.854v-4.08h2.3zm7.38-2.52h-1.854v2.664c0 3.132-1.692 6.246-4.284 7.416l1.1 1.548a8.448 8.448 0 0 0 4.14-5.238 8.114 8.114 0 0 0 4.03 4.88l1.08-1.476a7.873 7.873 0 0 1-4.212-7.128zm5.508-1.368v16.31h1.872v-16.308zm11.232 7.6h-3.96v-4.7h3.96zm1.818-6.192H89.37v7.68h7.614zm-3.906 9.36h-1.872v5.2h10.944V-.432h-9.072zm8.424-5.922v-4.842h-1.854V-2.97h1.852v-5.544h2.3v-1.53zm8.982 4.392a9.32 9.32 0 0 0 2.052.216 8.334 8.334 0 0 0 2.052-.234v3.546h-4.1zm2.052-6.822c2.448 0 4.158 1.08 4.158 2.79 0 1.728-1.71 2.808-4.158 2.808-2.466 0-4.176-1.08-4.176-2.808 0-1.712 1.71-2.792 4.176-2.792zm3.906 10.35v-4.23a3.758 3.758 0 0 0 2.07-3.33c0-2.592-2.52-4.248-5.976-4.248-3.474 0-5.976 1.656-5.976 4.248a3.738 3.738 0 0 0 2.07 3.33v4.23h-3.438v1.51h14.724v-1.512z" class="cls-5" transform="translate(898 3079)"/>
        <g filter="url(#사각형_2702)" transform="translate(366 2855)">
            <g id="사각형_2702-2" class="cls-4" transform="translate(131 261)">
                <rect width="253" height="61" class="cls-6" rx="10"/>
                <rect width="252" height="60" x=".5" y=".5" class="cls-7" rx="9.5"/>
            </g>
        </g>
        <g filter="url(#사각형_2705)" transform="translate(366 2855)">
            <g id="사각형_2705-2" class="cls-4" transform="translate(466 261)">
                <rect width="253" height="61" class="cls-6" rx="10"/>
                <rect width="252" height="60" x=".5" y=".5" class="cls-7" rx="9.5"/>
            </g>
        </g>
        <path id="패스_4722" d="M3.69-6.714c0-2.862 1.26-4.572 3.24-4.572s3.24 1.71 3.24 4.572c0 2.988-1.26 4.788-3.24 4.788s-3.24-1.8-3.24-4.788zM13 1.26a4.7 4.7 0 0 1-1.458.216A3.412 3.412 0 0 1 8.514.054c2.646-.684 4.374-3.132 4.374-6.768 0-4.32-2.43-6.858-5.958-6.858S.972-11.052.972-6.714c0 3.8 1.89 6.318 4.734 6.858a5.817 5.817 0 0 0 5.526 3.474 5.557 5.557 0 0 0 2.232-.4zM16.6.252a1.658 1.658 0 0 0 1.656-1.728A1.658 1.658 0 0 0 16.6-3.2a1.654 1.654 0 0 0-1.638 1.728A1.654 1.654 0 0 0 16.6.252zm9.05-7.164a7.877 7.877 0 0 0 5.868-3.528A7.914 7.914 0 0 0 37.4-6.912l.67-1.458c-3.1-.414-5.382-2.2-5.49-4.086h4.914v-1.494h-11.97v1.494h4.95c-.108 1.89-2.394 3.672-5.49 4.086zm13.23 1.188H24.174v1.494h6.372V1.4H32.4v-5.63h6.462zm12.672-4.032h-7.326v-2.916h7.326zm1.818-4.392H42.408v5.868H53.37zm-9.18 10.53h-1.854v4.7h11.3V-.432H44.19zm-3.654-3.06v1.494h6.588v3.042h1.854v-3.042h6.3v-1.494zm28.53 4.59v-3.834h4.806v-1.494h-9.414v-4.734h9.27v-1.494H62.6v7.722h4.608v3.834H60.8v1.53h14.728v-1.53zm10.386-7.866a2.326 2.326 0 0 1 2.556-2.322 2.311 2.311 0 0 1 2.538 2.322 2.3 2.3 0 0 1-2.538 2.3 2.313 2.313 0 0 1-2.556-2.3zm3.492 3.816a3.843 3.843 0 0 0 3.4-3.816c0-2.3-1.836-3.906-4.338-3.906s-4.356 1.6-4.356 3.906a3.893 3.893 0 0 0 3.44 3.834v2.556c-1.458.036-2.862.036-4.086.036L77.256-2a59.248 59.248 0 0 0 9.918-.612l-.162-1.368c-1.3.18-2.682.288-4.068.342zm9.27-2.178H89.82v-6.552h-1.854V1.368h1.854v-8.136h2.394zM106.632-7.2h-9.414v-4.734h9.288v-1.512H95.364v7.74h11.268zM93.564-2.232V-.7h14.742v-1.53zm19.17-5.168h5.67v-6.03h-7.578v1.512h5.706v3.024h-5.67v6.444h1.386a44.762 44.762 0 0 0 8.082-.576l-.2-1.512a46.537 46.537 0 0 1-7.4.558zm8.748-7.506V1.422h1.872V-14.9zm18.594.036h-1.764v9.306h1.764zm-12.744 9.7a10.1 10.1 0 0 0 4.842-3.762h2.88v3.15h1.746v-8.748h-1.746v4.086h-2.142a9.3 9.3 0 0 0 .54-3.258h-6.282v1.502h4.356c-.306 2.5-1.962 4.41-5.112 5.67zm10.764.144h-1.818v.926a4.673 4.673 0 0 1-2.106 3.762 4.448 4.448 0 0 1-2.034-3.762v-.918h-1.8v.918a4.49 4.49 0 0 1-3.168 4.05l.918 1.35a5.51 5.51 0 0 0 3.132-2.88 5.1 5.1 0 0 0 2.988 3.024 5.35 5.35 0 0 0 2.952-3.1 5.3 5.3 0 0 0 3.186 2.956l.9-1.35A4.3 4.3 0 0 1 138.1-4.1zm18.522-4.986C153.4-10.422 151-12.2 151-14.076v-.63h-1.908v.63c0 1.89-2.358 3.654-5.616 4.068l.684 1.44a8.1 8.1 0 0 0 5.886-3.276 8.175 8.175 0 0 0 5.9 3.276zm-2.952 9.72h-7.326v-1.742h7.326zm0-3.168h-7.326v-1.652h-1.84v6.3h11.02v-6.3h-1.854zm-10.98-4.14v1.48h14.724V-7.6zm19.188-5.688h-1.836v10.57h1.386a38.825 38.825 0 0 0 7.938-.774l-.2-1.548a37.646 37.646 0 0 1-7.29.738zm8.784-1.584V1.386h1.854v-16.254zm7.308 3.042h5.706v-1.512h-7.56v10.75h1.332a40.117 40.117 0 0 0 7.6-.54l-.2-1.53a39.243 39.243 0 0 1-6.876.522zm12.618 3.2h-2.538v-6.264h-1.854V1.4h1.854v-8.5h2.538zm3.024 8.864a1.378 1.378 0 0 0 1.386-1.44 1.409 1.409 0 0 0-1.386-1.476 1.409 1.409 0 0 0-1.386 1.476 1.378 1.378 0 0 0 1.386 1.44z" class="cls-5" transform="translate(526 3154)"/>
        <g filter="url(#사각형_2703)" transform="translate(366 2855)">
            <g id="사각형_2703-2" class="cls-4" transform="translate(131 345)">
                <rect width="253" height="61" class="cls-6" rx="10"/>
                <rect width="252" height="60" x=".5" y=".5" class="cls-7" rx="9.5"/>
            </g>
        </g>
        <g filter="url(#사각형_2706)" transform="translate(366 2855)">
            <g id="사각형_2706-2" class="cls-4" transform="translate(466 345)">
                <rect width="253" height="61" class="cls-6" rx="10"/>
                <rect width="252" height="60" x=".5" y=".5" class="cls-7" rx="9.5"/>
            </g>
        </g>
        <path id="패스_4720" d="M3.69-6.714c0-2.862 1.26-4.572 3.24-4.572s3.24 1.71 3.24 4.572c0 2.988-1.26 4.788-3.24 4.788s-3.24-1.8-3.24-4.788zM13 1.26a4.7 4.7 0 0 1-1.458.216A3.412 3.412 0 0 1 8.514.054c2.646-.684 4.374-3.132 4.374-6.768 0-4.32-2.43-6.858-5.958-6.858S.972-11.052.972-6.714c0 3.8 1.89 6.318 4.734 6.858a5.817 5.817 0 0 0 5.526 3.474 5.557 5.557 0 0 0 2.232-.4zM16.6.252a1.658 1.658 0 0 0 1.656-1.728A1.658 1.658 0 0 0 16.6-3.2a1.654 1.654 0 0 0-1.638 1.728A1.654 1.654 0 0 0 16.6.252zM28.548-3.87c-1.386 0-2.34-1.512-2.34-4.086 0-2.52.954-4.05 2.34-4.05 1.4 0 2.358 1.53 2.358 4.05 0 2.574-.954 4.086-2.358 4.086zM35.8-14.886v6.066h-3.166c-.252-2.988-1.908-4.86-4.086-4.86-2.394 0-4.1 2.232-4.1 5.724 0 3.528 1.71 5.742 4.1 5.742 2.232 0 3.888-1.944 4.1-5.094H35.8v8.73h1.872v-16.308zm13.986 3.294v1.4h2.556v3.982H54.2v-8.658h-1.856v3.276zM50.9-9.09a14.279 14.279 0 0 1-3.2.324v-3.906h2.7v-1.458h-4.518v6.822h.828a18.649 18.649 0 0 0 4.338-.324zm-5.688.018a12.867 12.867 0 0 1-2.5.288v-3.888h2.34v-1.458h-4.174v6.822h.756a17.557 17.557 0 0 0 3.744-.306zm3.33 9.2c-1.71 0-2.7-.342-2.7-1.026 0-.7.99-1.044 2.7-1.044s2.7.342 2.7 1.044c.004.682-.986 1.024-2.696 1.024zm0-3.348c-2.934 0-4.662.828-4.662 2.322s1.728 2.3 4.662 2.3c2.952 0 4.662-.81 4.662-2.3S51.5-3.222 48.546-3.222zm.958-2.054v-1.44h-1.872v1.44H42.7v1.422h11.732v-1.422zm16.146-3.132h-2.394a13.888 13.888 0 0 0 .684-4.464h-6.318v1.494H62.1a9.808 9.808 0 0 1-5.256 8.01l1.062 1.314a12.126 12.126 0 0 0 4.752-4.86h2.988V.612h1.746v-15.084h-1.746zm3.4-6.462V1.386h1.784v-16.254zm16.4 12.78v-3.834h4.806v-1.494h-9.414v-4.734h9.27v-1.494H78.984v7.722h4.608v3.834h-6.408v1.53h14.724v-1.53zm10.386-7.866a2.326 2.326 0 0 1 2.556-2.322 2.311 2.311 0 0 1 2.538 2.322 2.3 2.3 0 0 1-2.538 2.3 2.313 2.313 0 0 1-2.556-2.3zm3.492 3.816a3.843 3.843 0 0 0 3.4-3.816c0-2.3-1.836-3.906-4.338-3.906s-4.356 1.6-4.356 3.906a3.893 3.893 0 0 0 3.44 3.834v2.556c-1.458.036-2.862.036-4.086.036L93.636-2a59.248 59.248 0 0 0 9.918-.612l-.162-1.368c-1.3.18-2.682.288-4.068.342zm9.27-2.178H106.2v-6.552h-1.854V1.368h1.854v-8.136h2.394zM123.012-7.2H113.6v-4.734h9.288v-1.512h-11.144v7.74h11.268zm-13.068 4.968V-.7h14.742v-1.53zm29.772-12.636h-1.854v8.514h1.854zM136.17-8.73a42.348 42.348 0 0 1-7.218.45V-9.9h5.648v-4.212h-7.5v1.422h5.67v1.458h-5.652v4.392h1.368a47.619 47.619 0 0 0 7.866-.45zM130.968-.2v-1.44h8.748v-4.03H129.06v1.4h8.766v1.3H129.1v4.212h11.1V-.2zm12.168-12.96v1.53h2.646a12.27 12.27 0 0 1-3.276 8.43l1.476 1.026c2.9-3.15 3.546-6.8 3.546-10.98zm4.95 0v1.53h2.16c-.126 3.51-.792 6.678-3.132 9.486l1.494 1.044c2.9-3.546 3.384-7.794 3.384-12.06zm9.756 4.842h-2.3v-6.552h-1.854V1.368h1.854v-8.154h2.3zm6.534 2.664a9.319 9.319 0 0 0 2.052.216 8.334 8.334 0 0 0 2.052-.234v3.546h-4.1zm2.052-6.822c2.448 0 4.158 1.08 4.158 2.79 0 1.728-1.71 2.808-4.158 2.808-2.466 0-4.176-1.08-4.176-2.808 0-1.708 1.71-2.788 4.176-2.788zm3.906 10.35v-4.23a3.758 3.758 0 0 0 2.07-3.33c0-2.592-2.52-4.248-5.976-4.248-3.474 0-5.976 1.656-5.976 4.248a3.738 3.738 0 0 0 2.07 3.33v4.23h-3.438v1.514h14.724v-1.512zm7.416-2.104h1.818c-.306-2.682 2.9-3.654 2.9-6.282 0-2.106-1.458-3.294-3.546-3.294a4.71 4.71 0 0 0-3.582 1.728l1.17 1.062a2.932 2.932 0 0 1 2.178-1.1 1.648 1.648 0 0 1 1.764 1.746c-.002 1.964-3.134 3.116-2.702 6.14zm.936 4.464a1.378 1.378 0 0 0 1.386-1.44 1.409 1.409 0 0 0-1.386-1.476 1.4 1.4 0 0 0-1.386 1.476 1.367 1.367 0 0 0 1.386 1.44z" class="cls-5" transform="translate(532 3238)"/>
        <path id="패스_4723" d="M4.14-5.49l.4-1.458c.4-1.386.792-2.9 1.134-4.356h.072c.4 1.44.756 2.97 1.17 4.356l.4 1.458zM8.82 0h2.79L7.326-13.32H4.194L-.072 0h2.7l.936-3.42h4.32zm5.454.252a1.658 1.658 0 0 0 1.656-1.728A1.658 1.658 0 0 0 14.274-3.2a1.654 1.654 0 0 0-1.638 1.728A1.654 1.654 0 0 0 14.274.252zM24.39-13.23h-1.836v10.6h1.1a28.081 28.081 0 0 0 5.832-.5l-.236-1.55a28.622 28.622 0 0 1-4.86.468zm6.138 3.672h-3.456v1.512h3.456V.612h1.728v-15.156h-1.728zm3.438-5.328V1.386h1.782v-16.272zM38.736 3.6a4.22 4.22 0 0 0 2.952-4.05c0-1.386-.594-2.232-1.6-2.232a1.345 1.345 0 0 0-1.44 1.332 1.3 1.3 0 0 0 1.384 1.332.738.738 0 0 0 .2-.018 2.794 2.794 0 0 1-1.964 2.466zm12.15-15.336H53.1v7.578c-.738.036-1.494.072-2.214.09zm4.014 0h1.584v-1.494H47.5v1.494h1.584v7.7h-2l.2 1.53a63.271 63.271 0 0 0 9.954-.612l-.108-1.368c-.72.09-1.476.162-2.232.234zm7.506 3.222h-2.538v-6.354h-1.854V1.4h1.854v-8.384h2.538zM77.76-6.93c-3.2-.576-5.814-3.078-5.814-5.67v-1.224h-1.962v1.224c0 2.574-2.61 5.076-5.814 5.67l.792 1.53a8.511 8.511 0 0 0 5.994-4.464A8.511 8.511 0 0 0 76.95-5.4zm-14.094 4.7V-.7H78.39v-1.53zm18.9-5.184H88V-8.91h-5.434v-3.024h5.742v-1.53h-7.6v11.052h1.314A45.593 45.593 0 0 0 89.6-2.9l-.18-1.512a41.417 41.417 0 0 1-6.858.486zm12.6-1.08h-2.538v-6.39h-1.854V1.4h1.854v-8.37h2.538zm10.71.576a37.42 37.42 0 0 1-6.984.522v-1.856h5.526V-13.9h-7.38v1.5h5.544v1.746h-5.508v4.77h1.314a41.479 41.479 0 0 0 7.686-.522zM103.86-.036c-2.3 0-3.6-.558-3.6-1.6 0-1.026 1.3-1.584 3.6-1.584 2.286 0 3.6.558 3.6 1.584 0 1.042-1.314 1.6-3.6 1.6zm0-4.626c-3.366 0-5.418 1.116-5.418 3.024s2.052 3.024 5.418 3.024 5.418-1.116 5.418-3.024-2.052-3.024-5.418-3.024zm5.256-6.264v-3.96h-1.854v9.792h1.854V-9.4h2.3v-1.53zm11.376-.81h2.322v7.578c-.774.036-1.566.054-2.322.09zm4.122 0h1.62v-1.494h-9.162v1.494h1.62v7.686c-.72.018-1.422.018-2.052.018l.2 1.53a64.869 64.869 0 0 0 10.26-.63l-.11-1.368c-.774.09-1.566.18-2.376.234zm3.618-3.132V1.4h1.854v-16.268zm10.512 3.15h3.438v-1.53h-8.838v1.53h3.546v1.566a8.073 8.073 0 0 1-4.14 6.966l1.062 1.476a8.47 8.47 0 0 0 4.032-5.13 8.211 8.211 0 0 0 3.942 4.716l1.026-1.458a7.615 7.615 0 0 1-4.068-6.57zm9.432 3.258h-2.538v-6.408h-1.854V1.386h1.854V-6.93h2.538zm6.552 2.808a9.319 9.319 0 0 0 2.052.216 8.334 8.334 0 0 0 2.052-.234v3.546h-4.1zm2.052-6.822c2.448 0 4.158 1.08 4.158 2.79 0 1.728-1.71 2.808-4.158 2.808-2.466 0-4.176-1.08-4.176-2.808-.004-1.71 1.71-2.79 4.176-2.79zm3.906 10.35v-4.23a3.758 3.758 0 0 0 2.07-3.33c0-2.592-2.52-4.248-5.976-4.248-3.474 0-5.976 1.656-5.976 4.248a3.738 3.738 0 0 0 2.07 3.33v4.23h-3.438v1.512h14.724v-1.512z" class="cls-5" transform="translate(876 3154)"/>
        <path id="패스_4721" d="M4.14-5.49l.4-1.458c.4-1.386.792-2.9 1.134-4.356h.072c.4 1.44.756 2.97 1.17 4.356l.4 1.458zM8.82 0h2.79L7.326-13.32H4.194L-.072 0h2.7l.936-3.42h4.32zm5.454.252a1.658 1.658 0 0 0 1.656-1.728A1.658 1.658 0 0 0 14.274-3.2a1.654 1.654 0 0 0-1.638 1.728A1.654 1.654 0 0 0 14.274.252zm10.4-5.67l.54-1.782c.432-1.44.846-2.9 1.224-4.41h.072c.414 1.494.81 2.97 1.26 4.41l.53 1.782zM29.916 0h2.214l-4.392-13.248h-2.412L20.934 0h2.124l1.134-3.78H28.8zm7.938-13.374h-1.8v2.934c0 2.772-1.116 5.688-3.42 7.056l1.134 1.4a7.833 7.833 0 0 0 3.2-4.662 7.415 7.415 0 0 0 3.006 4.3l1.044-1.44c-2.178-1.368-3.168-4.122-3.168-6.75zM41.67-9.18h-2.394v1.512h2.394V.63h1.746v-15.192H41.67zm3.312-5.688V1.386h1.764v-16.254zm17.352 8.586h-9.378v-2.232h8.892v-1.458h-8.892v-2.088h9.252v-1.494H51.066v8.766h11.268zM49.248-2.124v1.512H63.99v-1.512zM69.372 0h8.55v-1.764H74.61c-.648 0-1.476.054-2.16.126 2.808-2.682 4.842-5.328 4.842-7.884a3.746 3.746 0 0 0-4-3.978 5.2 5.2 0 0 0-4.032 1.98l1.17 1.152a3.593 3.593 0 0 1 2.61-1.476 2.16 2.16 0 0 1 2.25 2.43c0 2.178-2.016 4.752-5.922 8.208zm10.8-12.816v1.516h4.554a9.522 9.522 0 0 1-5.238 7.97l1.08 1.314c4.572-2.628 5.994-6.462 5.994-10.8zm11.466-2.052v6.354h-1.854v-5.922h-1.746V.63h1.746V-7h1.854v8.386H93.4v-16.254zm9.662 7.956a7.877 7.877 0 0 0 5.868-3.528 7.914 7.914 0 0 0 5.886 3.528l.666-1.458c-3.1-.414-5.382-2.2-5.49-4.086h4.914v-1.494h-11.97v1.494h4.95c-.108 1.89-2.394 3.672-5.49 4.086zm13.23 1.188H99.828v1.494h6.372V1.4h1.854v-5.63h6.462zm6.66-7.65h-1.8v2.934c0 2.772-1.116 5.688-3.42 7.056l1.134 1.4a7.833 7.833 0 0 0 3.2-4.662 7.415 7.415 0 0 0 3.006 4.3l1.044-1.44c-2.178-1.368-3.168-4.122-3.168-6.75zm3.82 4.194h-2.394v1.512h2.394V.63h1.746v-15.192h-1.746zm3.312-5.688V1.386h1.764v-16.254zm9.558 9.216a9.319 9.319 0 0 0 2.052.216 8.334 8.334 0 0 0 2.052-.234v3.546h-4.1zm2.052-6.822c2.448 0 4.158 1.08 4.158 2.79 0 1.728-1.71 2.808-4.158 2.808-2.466 0-4.176-1.08-4.176-2.808 0-1.71 1.71-2.79 4.176-2.79zm3.906 10.35v-4.23a3.758 3.758 0 0 0 2.07-3.33c0-2.592-2.52-4.248-5.976-4.248-3.474 0-5.976 1.656-5.976 4.248a3.738 3.738 0 0 0 2.07 3.33v4.23h-3.438v1.512h14.724v-1.512zm6.894 2.358a1.378 1.378 0 0 0 1.386-1.44 1.409 1.409 0 0 0-1.386-1.476 1.409 1.409 0 0 0-1.386 1.476 1.378 1.378 0 0 0 1.386 1.44z" class="cls-5" transform="translate(882 3238)"/>
    </g>
</svg>
