<svg xmlns="http://www.w3.org/2000/svg" width="848" height="496" viewBox="0 0 848 496">
    <defs>
        <linearGradient id="linear-gradient" x1=".008" x2="1.024" y1=".014" y2="1" gradientUnits="objectBoundingBox">
            <stop offset="0" stop-color="#2958d7"/>
            <stop offset="1" stop-color="#6ad0e8"/>
        </linearGradient>
        <linearGradient id="linear-gradient-2" x1=".5" x2=".5" y2="1" gradientUnits="objectBoundingBox">
            <stop offset="0" stop-color="#511bc9"/>
            <stop offset="1" stop-color="#1c62c4"/>
        </linearGradient>
        <filter id="사각형_2696" width="640" height="137" x="104" y="297" filterUnits="userSpaceOnUse">
            <feOffset dy="5"/>
            <feGaussianBlur result="blur" stdDeviation="5"/>
            <feFlood flood-color="#9dabbe" flood-opacity=".302"/>
            <feComposite in2="blur" operator="in"/>
            <feComposite in="SourceGraphic"/>
        </filter>
        <style>
            .cls-2{fill:#fff}.cls-4{fill:#03020f}
        </style>
    </defs>
    <g id="img_graphemetophoneme" transform="translate(-359 -1503)">
        <path id="img_boundingbox" fill="url(#linear-gradient)" d="M10 0h828a10 10 0 0 1 10 10v476a10 10 0 0 1-10 10H10a10 10 0 0 1-10-10V10A10 10 0 0 1 10 0z" transform="translate(359 1503)"/>
        <rect id="사각형_2693" width="730" height="362" class="cls-2" rx="10" transform="translate(418 1594)"/>
        <g filter="url(#사각형_2696)" transform="translate(359 1503)">
            <g id="사각형_2696-2" fill="#fff" stroke="#c1d5e8" transform="translate(119 307)">
                <rect width="610" height="107" stroke="none" rx="10"/>
                <rect width="609" height="106" x=".5" y=".5" fill="none" rx="9.5"/>
            </g>
        </g>
        <path id="패스_4702" d="M5.85-23.34a6.842 6.842 0 0 0-3.96 6.36c0 2.22.87 3.48 2.46 3.48a1.977 1.977 0 0 0 2.04-2.13 1.936 1.936 0 0 0-2.04-1.98 1.231 1.231 0 0 0-.33.03c.03-1.92.96-3.12 2.73-4.2zm6.6 0a6.842 6.842 0 0 0-3.96 6.36c0 2.22.87 3.48 2.43 3.48a1.985 1.985 0 0 0 2.07-2.13 1.944 1.944 0 0 0-2.07-1.98 1.021 1.021 0 0 0-.3.03c.03-1.92.96-3.12 2.73-4.2zm7.5 3.69h3.75v-2.52h-6.81v17.64h1.26a26.617 26.617 0 0 0 5.94-.48l-.33-2.52a18.983 18.983 0 0 1-3.81.42zm8.19 0h4.29v-2.52h-7.32v17.64h1.41a28.439 28.439 0 0 0 7.14-.6l-.27-2.49a23.92 23.92 0 0 1-5.25.54zm7.68-5.13v9.69H31.2v2.52h4.62V2.34h3.12v-27.12zm23.31 8.79h3.51v4.29h-3.51zm-8.07 4.29h-3.48v-4.29h3.48zm5.58 8.16v-5.64h9.03V-22.8h-3.03v4.35h-3.51v-4.35h-3v13.53h-2.07V-22.8h-3v4.35h-3.48v-4.35h-3.06v13.62h9.03v5.64H42.81v2.55h24.63v-2.55zm13.95-18.39v2.55H75c-.3 5.4-1.8 9.81-5.52 13.86l2.37 1.77c4.83-5.13 6.09-11.31 6.09-18.18zm8.28 0v2.55h3.72c-.24 5.82-1.47 11.1-5.25 15.75l2.52 1.68c4.68-5.79 5.64-12.93 5.64-19.98zm9.93-2.85V2.31h3.09v-27.09zM97.11 6a7.033 7.033 0 0 0 4.92-6.75c0-2.31-.99-3.72-2.67-3.72a2.241 2.241 0 0 0-2.4 2.22 2.163 2.163 0 0 0 2.31 2.22 1.231 1.231 0 0 0 .33-.03c-.03 1.77-1.23 3.27-3.27 4.11zm14.73-29.16v2.49h9.21c-.54 4.11-4.29 7.47-10.68 9.09l1.17 2.43c8.04-2.07 12.81-6.93 12.81-14.01zm6 17.28h11.61v5.37h-11.61zm-3.06 7.86h17.7V-8.34h-17.7zm14.61-26.79v15.24h3.09v-15.24zm17.7 7.08h5.88v-2.49h-5.88v-4.02H144v4.02h-6v2.49h6v1.56a12.168 12.168 0 0 1-6.84 10.98l1.71 2.37a13.116 13.116 0 0 0 6.72-7.98 12.828 12.828 0 0 0 6.69 7.53l1.65-2.4a11.709 11.709 0 0 1-6.84-10.5zm8.97-7.08V2.28h3.12v-27.09zm13.32 8.88h12.84v4.44h-12.84zm7.95 12.39V-9h7.95v-13.98h-3.06v4.56h-12.84v-4.56h-3.06V-9h7.92v5.46h-10.68v2.55h24.54v-2.55zm18.93-1.95h12.45V-.6h-12.45zm-3.03 7.38h18.51v-9.84h-18.51zm17.76-15.72a34.961 34.961 0 0 0 .87-8.43v-1.41h-8.79v2.49h5.76a33.585 33.585 0 0 1-.93 7.35h-7.59a31.123 31.123 0 0 0 1.08-8.67v-1.17h-8.85v2.49h5.85a31.367 31.367 0 0 1-1.14 7.35h-7.02v2.49h24.57v-2.49zm16.62.36h-6.63v-3.87h6.63zm3.06-9.96h-3.06v3.66h-6.63v-3.66h-3.09v12.45h12.78zm4.38 22.92h-11.22v-2.91h11.22zm0-5.31h-11.22v-2.85h-3.06V1.98h17.34V-8.67h-3.06zm6.9-12.96h-3.84v-6.03h-3.09v14.94h3.09v-6.36h3.84zM244.5 6a7.033 7.033 0 0 0 4.92-6.75c0-2.31-.99-3.72-2.67-3.72a2.241 2.241 0 0 0-2.4 2.22 2.163 2.163 0 0 0 2.31 2.22 1.231 1.231 0 0 0 .33-.03c-.03 1.77-1.23 3.27-3.27 4.11zm21.27-25.29h4.47v-2.55H258v2.55h4.77v1.95c0 4.83-1.8 9.72-5.64 12.12l1.86 2.28c2.61-1.65 4.35-4.56 5.31-7.98a12.329 12.329 0 0 0 5.19 7.32l1.8-2.25c-3.78-2.19-5.52-6.87-5.52-11.49zm6.48 4.02h-3.99v2.52h3.99V.99h2.91v-25.26h-2.91zm5.46-9.54V2.28h2.94v-27.09zm18.78 3.03c4.02 0 6.45 1.02 6.45 2.85 0 1.8-2.43 2.82-6.45 2.82-4.05 0-6.48-1.02-6.48-2.82 0-1.83 2.43-2.85 6.48-2.85zm0 8.1c5.88 0 9.66-1.98 9.66-5.25s-3.78-5.25-9.66-5.25c-5.91 0-9.66 1.98-9.66 5.25s3.75 5.25 9.66 5.25zm2.97 7.23h-6v-2.97h6zm9.27-2.97v-2.49h-24.54v2.49h6.18v2.97h-3.42v2.46h15.69v6.3h3.09v-8.76h-3.18v-2.97zm18.48-6.57h3.51v4.29h-3.51zm-8.07 4.29h-3.48v-4.29h3.48zm5.58 8.16v-5.64h9.03V-22.8h-3.03v4.35h-3.51v-4.35h-3v13.53h-2.07V-22.8h-3v4.35h-3.48v-4.35h-3.06v13.62h9.03v5.64h-10.74v2.55h24.63v-2.55zm18.93-1.95h12.45V-.6h-12.45zm-3.03 7.38h18.51v-9.84h-18.51zm17.76-15.72a34.962 34.962 0 0 0 .87-8.43v-1.41h-8.79v2.49h5.76a33.585 33.585 0 0 1-.93 7.35h-7.59a31.123 31.123 0 0 0 1.08-8.67v-1.17h-8.85v2.49h5.85a31.365 31.365 0 0 1-1.14 7.35h-7.02v2.49h24.57v-2.49zM365.19 6a7.033 7.033 0 0 0 4.92-6.75c0-2.31-.99-3.72-2.67-3.72a2.241 2.241 0 0 0-2.4 2.22 2.163 2.163 0 0 0 2.31 2.22 1.23 1.23 0 0 0 .33-.03c-.03 1.77-1.23 3.27-3.27 4.11zm15.51-17.52c4.47-.66 8.13-2.88 9.78-5.88 1.65 3 5.34 5.22 9.81 5.88l1.11-2.43c-5.16-.69-8.97-3.66-9.15-6.81h8.19v-2.49h-19.95v2.49h8.25c-.18 3.15-3.99 6.12-9.15 6.81zm22.05 1.98h-24.51v2.49h10.62v9.39h3.09v-9.39h10.77zm20.61-5.58h-12.39v-5.76h12.39zm3.06-8.22h-18.51v10.71h18.51zm3.06 14.04h-24.57v2.49h10.65v9.12h3.09v-9.12h10.83zm17.67-6.69a63.357 63.357 0 0 1-11.22 1.11v-8.73h-3.09v11.28h2.19a64.326 64.326 0 0 0 12.48-1.14zM438.45-3h14.34v-7.05H435.3v2.46h14.4v2.28h-14.34v7.29h18.33V-.48h-15.24zm14.34-16.44v-5.37h-3.09v13.56h3.09v-5.64h3.84v-2.55zm20.07 5.43h-3.99a23.146 23.146 0 0 0 1.14-7.44h-10.53v2.49h7.47c-.45 5.55-3.12 9.99-8.76 13.35l1.77 2.19a20.21 20.21 0 0 0 7.92-8.1h4.98V1.02h2.91v-25.14h-2.91zm5.67-10.77V2.31h2.97v-27.09zm15.33 15.36a15.533 15.533 0 0 0 3.42.36 13.89 13.89 0 0 0 3.42-.39v5.91h-6.84zm3.42-11.37c4.08 0 6.93 1.8 6.93 4.65 0 2.88-2.85 4.68-6.93 4.68-4.11 0-6.96-1.8-6.96-4.68 0-2.85 2.85-4.65 6.96-4.65zm6.51 17.25v-7.05a6.264 6.264 0 0 0 3.45-5.55c0-4.32-4.2-7.08-9.96-7.08-5.79 0-9.96 2.76-9.96 7.08a6.23 6.23 0 0 0 3.45 5.55v7.05h-5.73v2.52h24.54v-2.52zm9.48-10.17a6.851 6.851 0 0 0 3.99-6.36c0-2.22-.9-3.48-2.46-3.48a1.94 1.94 0 0 0-2.01 2.13 1.905 1.905 0 0 0 2.01 1.95 1.02 1.02 0 0 0 .3-.03c-.03 1.95-.93 3.12-2.7 4.23zm6.6 0a6.851 6.851 0 0 0 3.99-6.36c0-2.22-.9-3.48-2.46-3.48a1.962 1.962 0 0 0-2.04 2.13 1.93 1.93 0 0 0 2.04 1.95 1.021 1.021 0 0 0 .3-.03c-.03 1.95-.93 3.12-2.7 4.23zm4.77 14.1a2.3 2.3 0 0 0 2.31-2.4 2.348 2.348 0 0 0-2.31-2.46 2.348 2.348 0 0 0-2.31 2.46 2.3 2.3 0 0 0 2.31 2.4z" class="cls-4" transform="translate(519 1876)"/>
        <path id="패스_4701" d="M-143.148-18.672a5.474 5.474 0 0 0-3.168 5.088c0 1.776.7 2.784 1.968 2.784a1.582 1.582 0 0 0 1.632-1.7 1.549 1.549 0 0 0-1.632-1.584.984.984 0 0 0-.264.024 3.775 3.775 0 0 1 2.184-3.36zm5.28 0a5.474 5.474 0 0 0-3.168 5.088c0 1.776.7 2.784 1.944 2.784a1.588 1.588 0 0 0 1.656-1.7 1.556 1.556 0 0 0-1.656-1.584.816.816 0 0 0-.24.024 3.775 3.775 0 0 1 2.184-3.36zm16.776 8.16a18.448 18.448 0 0 1-4.224.432v-6.144h3.552v-1.992h-6v10.152h1.128a24.76 24.76 0 0 0 5.76-.432zm-7.608.024a17.132 17.132 0 0 1-3.312.384v-6.12h3.144v-1.992h-5.592v10.152h1.008a22.969 22.969 0 0 0 4.944-.384zm-3.048 6.5h12.6V1.9h2.448v-7.876h-15.048zm12.576-15.84v5.448h-3.528v2.016h3.528v5.4h2.472v-12.86zm7.56 16.272h4.848v5.4h2.448v-7.388h-7.3zm8.3 0h4.632v5.4h2.448v-7.388h-7.08zm-5.256-11.712h9.648v2.136h-9.648zm6.048 6.072v-1.964h6.048v-8.232h-2.448v2.232h-9.648v-2.232h-2.448v8.232h6v1.968h-8.568v2.016h19.656v-2.016zm25.68-10.656V1.9h2.5v-21.748zm-9.048 1.608c-3.216 0-5.568 2.976-5.568 7.632 0 4.7 2.352 7.656 5.568 7.656 3.24 0 5.592-2.952 5.592-7.656.004-4.652-2.348-7.628-5.588-7.628zm0 2.232c1.9 0 3.216 2.04 3.216 5.4 0 3.408-1.32 5.448-3.216 5.448-1.872 0-3.192-2.04-3.192-5.448.004-3.356 1.324-5.396 3.196-5.396zM-70.14 4.8A5.627 5.627 0 0 0-66.2-.6c0-1.848-.792-2.976-2.136-2.976A1.793 1.793 0 0 0-70.26-1.8a1.731 1.731 0 0 0 1.848 1.776.984.984 0 0 0 .264-.024 3.725 3.725 0 0 1-2.616 3.288zm11.784-23.328v1.992h7.368c-.432 3.288-3.432 5.976-8.544 7.272l.932 1.944c6.432-1.656 10.248-5.544 10.248-11.208zm4.8 13.824h9.288v4.3h-9.288zM-56 1.584h14.16v-8.256H-56zm11.688-21.432v12.192h2.472v-12.192zm14.16 5.664h4.7v-1.992h-4.7v-3.216h-2.472v3.216h-4.8v1.992h4.8v1.248A9.734 9.734 0 0 1-38.1-4.152l1.368 1.9a10.492 10.492 0 0 0 5.376-6.388A10.262 10.262 0 0 0-26-2.616l1.32-1.92a9.367 9.367 0 0 1-5.472-8.4zm7.176-5.664V1.824h2.5v-21.672zm7.92 16.3h4.848v5.4h2.448v-7.396h-7.3zm8.3 0h4.632v5.4H.324v-7.396h-7.08zm-5.256-11.712h9.648v2.136h-9.648zm6.048 6.072v-1.972H.084v-8.232h-2.448v2.232h-9.648v-2.232h-2.448v8.232h6v1.968h-8.568v2.016H2.628v-2.016zm20.136-10.18c-4.728 0-7.728 1.56-7.728 4.152 0 2.568 3 4.152 7.728 4.152s7.728-1.584 7.728-4.152c0-2.592-3-4.152-7.728-4.152zm0 1.92c3.216 0 5.16.792 5.16 2.232 0 1.416-1.944 2.208-5.16 2.208s-5.184-.792-5.184-2.208c0-1.44 1.968-2.232 5.184-2.232zM6.708-5.664v7.248h14.88v-7.248zM19.164-3.7v3.316H9.156V-3.7zM4.356-9.48v1.968h19.608V-9.48zm29.9-1.3h-5.3v-3.1h5.3zm2.448-7.968H34.26v2.928h-5.3v-2.928h-2.476v9.96h10.224zm3.5 18.336h-8.968v-2.324h8.976zm0-4.248h-8.968v-2.28h-2.448v8.52H42.66v-8.52h-2.448zm5.52-10.368H42.66v-4.824h-2.472V-7.9h2.472v-5.088h3.072zM47.772 4.8a5.627 5.627 0 0 0 3.936-5.4c0-1.848-.792-2.976-2.136-2.976a1.793 1.793 0 0 0-1.92 1.776A1.731 1.731 0 0 0 49.5-.024a.984.984 0 0 0 .264-.024 3.725 3.725 0 0 1-2.616 3.288zm17.016-20.232h3.576v-2.04h-9.792v2.04h3.816v1.56c0 3.864-1.44 7.776-4.512 9.7l1.488 1.824a10.742 10.742 0 0 0 4.248-6.384 9.863 9.863 0 0 0 4.152 5.852l1.44-1.8c-3.024-1.752-4.416-5.5-4.416-9.192zm5.184 3.216H66.78v2.016h3.192V.792H72.3v-20.208h-2.328zm4.368-7.632V1.824h2.352v-21.672zm15.024 2.424c3.216 0 5.16.816 5.16 2.28 0 1.44-1.944 2.256-5.16 2.256-3.24 0-5.184-.816-5.184-2.256 0-1.464 1.944-2.28 5.184-2.28zm0 6.48c4.7 0 7.728-1.584 7.728-4.2s-3.024-4.2-7.728-4.2c-4.728 0-7.728 1.584-7.728 4.2s3 4.2 7.728 4.2zM91.74-5.16h-4.8v-2.376h4.8zm7.416-2.376v-1.992H79.524v1.992h4.944v2.376h-2.736v1.968h12.552v5.04h2.472V-5.16h-2.544v-2.376zm3.7 3.984h4.844v5.4h2.448v-7.392h-7.3zm8.3 0h4.632v5.4h2.448v-7.392h-7.08zM105.9-15.264h9.648v2.136H105.9zm6.048 6.072v-1.968H118v-8.232h-2.448v2.232H105.9v-2.232h-2.448v8.232h6v1.968h-8.568v2.016h19.656v-2.016zm20.136-10.176c-4.728 0-7.728 1.56-7.728 4.152 0 2.568 3 4.152 7.728 4.152s7.728-1.584 7.728-4.152c0-2.592-3-4.152-7.728-4.152zm0 1.92c3.216 0 5.16.792 5.16 2.232 0 1.416-1.944 2.208-5.16 2.208s-5.184-.792-5.184-2.208c0-1.44 1.968-2.232 5.184-2.232zM124.62-5.664v7.248h14.88v-7.248zM137.076-3.7v3.316h-10.008V-3.7zm-14.808-5.78v1.968h19.608V-9.48zM-57.768 20.784c3.576-.528 6.5-2.3 7.824-4.7 1.32 2.4 4.272 4.176 7.848 4.7l.888-1.944c-4.128-.552-7.176-2.928-7.32-5.448h6.552V11.4h-15.96v1.992h6.6c-.144 2.52-3.192 4.9-7.32 5.448zm17.64 1.584h-19.608v1.992h8.5v7.512h2.472V24.36h8.616zm16.416-5.376h-9.768V13.1h9.768zm2.424-5.856H-35.9v7.824h14.616zm-12.24 14.04H-36v6.264h15.072v-2.016h-12.6zM-38.4 21.1v1.992h8.784v4.056h2.472v-4.06h8.4V21.1zM-4.2 12h-5.16V9.96h-2.472V12h-5.16v1.872H-4.2zm-9.288 6.192c0-1.128 1.128-1.776 2.88-1.776 1.776 0 2.9.648 2.9 1.776 0 1.1-1.128 1.752-2.9 1.752-1.752 0-2.88-.644-2.88-1.752zm8.136 0c0-2.208-2.064-3.576-5.256-3.576-3.168 0-5.256 1.368-5.256 3.576 0 2.184 2.088 3.528 5.256 3.528 3.192 0 5.256-1.344 5.256-3.528zm-6.264 9.908H-.1v-5.108h-13.988v1.824h11.544v1.56h-11.5v5.28H.624v-1.848h-12.24zM-.1 15.072v-4.944h-2.468v11.88H-.1v-4.9h3.076v-2.04zm16.056 3.72h-3.188a18.517 18.517 0 0 0 .912-5.952H5.256v1.992h5.976c-.36 4.44-2.5 7.992-7.008 10.68l1.416 1.752a16.168 16.168 0 0 0 6.336-6.48h3.984v10.032h2.328V10.7H15.96zm4.544-8.616v21.672h2.376V10.176zm12.26 12.288a12.426 12.426 0 0 0 2.736.288 11.112 11.112 0 0 0 2.736-.312v4.728H32.76zm2.736-9.1c3.264 0 5.544 1.44 5.544 3.72 0 2.3-2.28 3.744-5.544 3.744-3.288 0-5.568-1.44-5.568-3.744 0-2.276 2.28-3.716 5.572-3.716zm5.208 13.8v-5.64a5.011 5.011 0 0 0 2.76-4.44c0-3.456-3.36-5.664-7.968-5.664-4.632 0-7.968 2.208-7.968 5.664a4.984 4.984 0 0 0 2.76 4.44v5.64H25.7v2.016h19.636v-2.012zm7.584-8.136a5.481 5.481 0 0 0 3.192-5.088c0-1.776-.72-2.784-1.968-2.784a1.552 1.552 0 0 0-1.608 1.7 1.524 1.524 0 0 0 1.608 1.56.816.816 0 0 0 .24-.024 3.784 3.784 0 0 1-2.16 3.384zm5.28 0a5.481 5.481 0 0 0 3.192-5.088c0-1.776-.72-2.784-1.968-2.784a1.569 1.569 0 0 0-1.632 1.7 1.544 1.544 0 0 0 1.632 1.56.817.817 0 0 0 .24-.024 3.784 3.784 0 0 1-2.16 3.384zm3.816 11.28a1.837 1.837 0 0 0 1.848-1.92 1.852 1.852 0 1 0-3.7 0 1.837 1.837 0 0 0 1.852 1.924z" class="cls-4" transform="translate(808 1713)"/>
        <g id="그룹_3402" transform="translate(0 -2)">
            <circle id="타원_359" cx="42.5" cy="42.5" r="42.5" fill="url(#linear-gradient-2)" transform="translate(540 1675)"/>
            <path id="다각형_26" d="M21.048 4.77a3 3 0 0 1 5.255 0L44.9 38.529a3 3 0 0 1-2.628 4.448H5.078a3 3 0 0 1-2.628-4.448z" class="cls-2" transform="rotate(90 -542.24 1151.362)"/>
        </g>
    </g>
</svg>
