<svg xmlns="http://www.w3.org/2000/svg" width="848" height="496" viewBox="0 0 848 496">
    <defs>
        <linearGradient id="linear-gradient" x1=".008" x2="1.024" y1=".014" y2="1" gradientUnits="objectBoundingBox">
            <stop offset="0" stop-color="#2958d7"/>
            <stop offset="1" stop-color="#6ad0e8"/>
        </linearGradient>
        <style>
            .cls-3{fill:#a645e2}.cls-3,.cls-4,.cls-5{opacity:.378}.cls-4{fill:#e2e245}.cls-13,.cls-5{fill:#454be2}.cls-6{fill:#530086}.cls-10,.cls-7{fill:#696969}.cls-12,.cls-7{opacity:.459}.cls-9{fill:#868600}.cls-12,.cls-14{fill:#22adad}.cls-15{fill:#03020f}
        </style>
    </defs>
    <g id="img_namedentityrecognition" transform="translate(-363 -2172)">
        <path id="img_boundingbox" fill="url(#linear-gradient)" d="M10 0h828a10 10 0 0 1 10 10v476a10 10 0 0 1-10 10H10a10 10 0 0 1-10-10V10A10 10 0 0 1 10 0z" transform="translate(363 2172)"/>
        <rect id="사각형_2694" width="730" height="362" fill="#fff" rx="10" transform="translate(422 2263)"/>
        <path id="사각형_2697" d="M0 0H119V25H0z" class="cls-3" transform="translate(463 2297)"/>
        <path id="사각형_2698" d="M0 0H253V25H0z" class="cls-4" transform="translate(463 2339)"/>
        <path id="사각형_2699" d="M0 0H99V25H0z" class="cls-5" transform="translate(802 2296)"/>
        <path id="사각형_2700" d="M0 0H100V25H0z" class="cls-4" transform="translate(1010 2297)"/>
        <path id="패스_4704" d="M6.816-5.292a21.183 21.183 0 0 1-4.524.348v-3.072H5.88v-1.008H1.056v5.1h.876a22.486 22.486 0 0 0 5-.372zm-3.36 2.424H2.208V.72H9.5V-.288H3.456zm5.616-3.948v-3.108H7.836v7.848h1.236V-5.8h1.536v-1.02zm5.528-.168h1.86V-8H14.6v-1.54h-1.172V-8h-1.872v1.02h1.872v.38a5.129 5.129 0 0 1-2.208 4.452l.708.936a4.962 4.962 0 0 0 2.1-2.964 4.685 4.685 0 0 0 2.112 2.724l.684-.924A4.71 4.71 0 0 1 14.6-6.6zm2.628 1.272h-1.46V-4.7h1.464V.4H18.4V-9.7h-1.168zm2.184-4.2V.924h1.176V-9.912z" class="cls-6" transform="translate(501 2335)"/>
        <path id="사각형_2701" d="M0 0H74V28H0z" class="cls-7" transform="translate(716 2461)"/>
        <path id="사각형_2755" d="M0 0H66V28H0z" class="cls-7" transform="translate(802 2461)"/>
        <path id="사각형_2756" d="M0 0H86V28H0z" class="cls-7" transform="translate(879 2461)"/>
        <path id="사각형_2757" d="M0 0H29V28H0z" class="cls-7" transform="translate(974 2462)"/>
        <path id="사각형_2724" d="M0 0H64V13H0z" class="cls-4" transform="translate(929 2564)"/>
        <path id="사각형_2754" fill="#696969" d="M0 0H64V13H0z" opacity="0.378" transform="translate(1031 2564)"/>
        <path id="사각형_2753" d="M0 0H64V13H0z" class="cls-3" transform="translate(1031 2541)"/>
        <path id="패스_4708" d="M8.722-7.084h1.316V-3.6h1.372v-7.98h-1.372v3.3H8.722v-3.06H7.378v7.322h1.344zM6.944-10.15H4.508v-1.3H3.094v1.3H.644v1.134h6.3zm-4.55 3.864c0-.686.56-1.134 1.414-1.134s1.428.448 1.428 1.134-.588 1.134-1.428 1.134S2.394-5.6 2.394-6.286zm4.13 0c0-1.3-1.12-2.184-2.716-2.184s-2.7.882-2.7 2.184S2.226-4.1 3.808-4.1s2.716-.87 2.716-2.186zM7.21-.014c-1.81 0-2.842-.406-2.842-1.162S5.4-2.324 7.21-2.324s2.828.392 2.828 1.148S9.03-.014 7.21-.014zm0-3.4c-2.674 0-4.284.812-4.284 2.24s1.61 2.252 4.284 2.252 4.27-.826 4.27-2.254-1.596-2.24-4.27-2.24zm10.458-7.1h-1.442v2.072a6.4 6.4 0 0 1-3.206 5.7l.88 1.16a6.533 6.533 0 0 0 3.052-3.962 6.3 6.3 0 0 0 2.914 3.724l.882-1.148a6.135 6.135 0 0 1-3.08-5.474zM25-6.552h-1.97v-5.012h-1.442V1.078h1.442v-6.44H25z" class="cls-9" transform="translate(1052 2336)"/>
        <path id="패스_4717" d="M1.428-10.234v1.176h4.508C5.684-6.146 4.116-3.92.8-2.324l.77 1.148c4.34-2.1 5.852-5.292 5.852-9.058zm8.272-1.33V1.078h1.442v-12.642zM22.288-.238h-5.362v-1.4h5.362zm0-2.52h-5.362v-1.428H15.5v5.11h8.218v-5.11h-1.43zm-5.572-3.514A1.767 1.767 0 0 1 14.8-8.05a1.749 1.749 0 0 1 1.918-1.764 1.752 1.752 0 0 1 1.9 1.764 1.771 1.771 0 0 1-1.902 1.778zm5.558-5.292v2.912h-2.338A3.066 3.066 0 0 0 16.716-11a3.032 3.032 0 0 0-3.3 2.954 3.034 3.034 0 0 0 3.3 2.968 3.054 3.054 0 0 0 3.22-2.394h2.338v2.688h1.442v-6.776z" class="cls-10" transform="translate(1102 2576)"/>
        <path id="패스_4718" d="M7.952-6.174a24.714 24.714 0 0 1-5.278.406v-3.584H6.86v-1.176H1.232v5.95h1.022a26.233 26.233 0 0 0 5.838-.434zm-3.92 2.828H2.576V.84h8.512V-.336H4.032zm6.552-4.606v-3.626H9.142v9.156h1.442v-4.34h1.792v-1.19zm6.454-.2h2.17v-1.19h-2.17v-1.788h-1.372v1.792h-2.184v1.19h2.184v.448a5.984 5.984 0 0 1-2.576 5.194l.826 1.092a5.789 5.789 0 0 0 2.45-3.458 5.466 5.466 0 0 0 2.464 3.178l.8-1.078A5.5 5.5 0 0 1 17.038-7.7zM20.1-6.664h-1.7v1.176h1.7v5.95h1.358v-11.774H20.1zm2.548-4.9V1.078h1.372v-12.642z" class="cls-6" transform="translate(1102 2553)"/>
        <path id="사각형_2725" fill="#454be2" d="M0 0H64V13H0z" opacity="0.459" transform="translate(1031 2587)"/>
        <path id="사각형_2752" d="M0 0H64V13H0z" class="cls-12" transform="translate(929 2587)"/>
        <path id="패스_4706" d="M8.134-5.614a3.91 3.91 0 0 1-2.982-3.654v-.238H7.8v-1.162H1.008v1.162H3.7v.252A4.3 4.3 0 0 1 .6-5.222l.73 1.134a5.146 5.146 0 0 0 3.136-2.94 4.748 4.748 0 0 0 2.968 2.534zM6.51-.056c-1.764 0-2.786-.448-2.786-1.26s1.022-1.26 2.786-1.26 2.79.434 2.79 1.26-1.026 1.26-2.79 1.26zm0-3.654c-2.6 0-4.214.882-4.214 2.394s1.61 2.394 4.214 2.394 4.214-.9 4.214-2.394S9.114-3.71 6.51-3.71zm4.074-4.774v-3.08H9.142V-4h1.442v-3.29h1.792v-1.19zm13.622 2.9c-2.492-.42-4.522-2.3-4.522-4.256v-.952h-1.526v.952c0 1.946-2.03 3.836-4.536 4.256l.616 1.2a6.663 6.663 0 0 0 4.69-3.346A6.553 6.553 0 0 0 23.6-4.382zM19.628-1.68v-2.954h-1.442v2.954h-4.942v1.19H24.7v-1.19z" class="cls-13" transform="translate(843 2336)"/>
        <path id="패스_4715" d="M7.952-7.462a29.567 29.567 0 0 1-5.236.518v-4.074H1.274v5.264H2.3a30.019 30.019 0 0 0 5.82-.532zM3.892-1.4h6.692v-3.29H2.422v1.148h6.72v1.064H2.45v3.4H11V-.224H3.892zm6.692-7.672v-2.506H9.142v6.328h1.442v-2.632h1.792v-1.19zm9.24-.126H21.1v-1.176h-3.5V-9.2h.84v1.12a8.55 8.55 0 0 1-1.078 4.69 8.474 8.474 0 0 1-1.106-4.69V-9.2h.854v-1.176h-3.656V-9.2H14.9v1.12c0 1.932-.336 4.256-1.876 5.46l.9 1.036A5.3 5.3 0 0 0 15.6-4.536a5.3 5.3 0 0 0 1.75 3.066 5.335 5.335 0 0 0 1.778-3.066A5.22 5.22 0 0 0 20.8-1.582l.9-1.036c-1.54-1.19-1.876-3.472-1.876-5.46zm5.152 2.548h-1.582v-4.914h-1.442V1.092h1.442V-5.46h1.582z" class="cls-14" transform="translate(998 2599)"/>
        <path id="패스_4719" d="M2.618-10.252c3.52-.242 6.2-1.21 7.458-2.882 1.254 1.672 3.982 2.64 7.5 2.882l.616-1.694c-3.872-.22-6.336-1.32-6.776-2.882h5.874v-1.694h-6.07v-1.738H8.954v1.738H2.9v1.694h5.856c-.44 1.562-2.882 2.662-6.8 2.882zm16.456 2.42v-1.694H1.144v1.694h7.81v1.54h-5.72v1.672h11.374v1.386H3.278v4.752H17.4V-.176H5.522v-1.5H16.83v-4.62h-5.61v-1.54zM27.918-13h4.2v-1.826H27.94v-2.948h-2.288v2.948h-4.268V-13h4.29v1.144a9.029 9.029 0 0 1-4.906 8.052l1.254 1.76a9.608 9.608 0 0 0 4.8-5.852 9.485 9.485 0 0 0 4.818 5.5l1.188-1.738a8.7 8.7 0 0 1-4.906-7.722zm7.106-5.214v7.854h-3.938v1.848h3.938v10.25h2.266v-19.954zM46.068 3.762h4.642V2.354h-2.75v-18.48h2.75v-1.386h-4.642zm21.274-14.036a18.813 18.813 0 0 0 .55-5.28v-1.672h-13.64v1.826h11.4a17.718 17.718 0 0 1-.528 4.884zm-6.27 10.23c-2.948 0-4.752-.726-4.752-1.98 0-1.232 1.8-1.958 4.752-1.958 2.926 0 4.686.726 4.686 1.958 0 1.254-1.758 1.98-4.686 1.98zm0-5.676c-4.29 0-7 1.408-7 3.7 0 2.31 2.706 3.718 7 3.718 4.224 0 6.952-1.408 6.952-3.718 0-2.292-2.724-3.7-6.952-3.7zm.44-3.366v-3.652h-2.288v3.652h-7.04v1.826h17.908v-1.826zm11.132-7.9v1.848h6.82c-.374 3.014-3.08 5.434-7.722 6.666l.88 1.8c5.874-1.562 9.284-5.17 9.284-10.318zm4.268 12.674h8.206v3.938h-8.206zm-2.244 5.764h12.694v-7.568H74.668zm15.51-15.026h-2.816v-4.62H85.1v11.22h2.266V-11.7h2.816zm3.806 1.628A2.87 2.87 0 0 1 97-14.938a2.864 2.864 0 0 1 2.992 2.992A2.9 2.9 0 0 1 97-8.91a2.905 2.905 0 0 1-3.016-3.036zm11.748.99v7.392H108V-18.15h-2.266v5.35h-3.654A4.927 4.927 0 0 0 97-16.918a4.953 4.953 0 0 0-5.192 4.972A4.944 4.944 0 0 0 97-6.952a4.914 4.914 0 0 0 5.06-4zM97.394-.528v-4.51h-2.266V1.32H108.5V-.528zm18.392-3.432h-2.266v5.61h13.88V-.176h-11.614zm5.566-3.014v-1.892h6.006V-10.6H115.72v-1.848h11.242v-5.17h-13.508v1.738h11.264v1.8H113.5v5.214h5.588v1.892h-7.9v1.826h18.04v-1.826zm29.876-4.708h-11.4v-5.544h-2.288v7.392h13.684zm2.068 4.4h-17.974v1.848h4.4v7.15h2.266v-7.15h4.62v7.15h2.266v-7.15h4.426zm9.042-9.24h-2.266v3.256c0 3.828-2.068 7.634-5.236 9.064l1.342 1.892a10.325 10.325 0 0 0 5.06-6.4 9.917 9.917 0 0 0 4.928 5.962l1.32-1.8c-3.124-1.408-5.148-5.06-5.148-8.712zm6.732-1.672V1.738h2.288v-19.932zm22.858 9.724c-3.916-.7-7.106-3.762-7.106-6.93v-1.5h-2.4v1.5c0 3.146-3.19 6.2-7.106 6.93l.968 1.87a10.4 10.4 0 0 0 7.326-5.456 10.4 10.4 0 0 0 7.328 5.456zM174.7-2.728v1.87h18v-1.87zm19.448 6.49h4.664v-21.274h-4.662v1.386h2.75v18.48h-2.75z" class="cls-15" transform="translate(463 2593)"/>
        <path id="사각형_2751" d="M0 0H136V28H0z" class="cls-12" transform="translate(604 2294)"/>
        <path id="패스_4705" d="M7.952-7.462a29.567 29.567 0 0 1-5.236.518v-4.074H1.274v5.264H2.3a30.019 30.019 0 0 0 5.82-.532zM3.892-1.4h6.692v-3.29H2.422v1.148h6.72v1.064H2.45v3.4H11V-.224H3.892zm6.692-7.672v-2.506H9.142v6.328h1.442v-2.632h1.792v-1.19zm9.24-.126H21.1v-1.176h-3.5V-9.2h.84v1.12a8.55 8.55 0 0 1-1.078 4.69 8.474 8.474 0 0 1-1.106-4.69V-9.2h.854v-1.176h-3.656V-9.2H14.9v1.12c0 1.932-.336 4.256-1.876 5.46l.9 1.036A5.3 5.3 0 0 0 15.6-4.536a5.3 5.3 0 0 0 1.75 3.066 5.335 5.335 0 0 0 1.778-3.066A5.22 5.22 0 0 0 20.8-1.582l.9-1.036c-1.54-1.19-1.876-3.472-1.876-5.46zm5.152 2.548h-1.582v-4.914h-1.442V1.092h1.442V-5.46h1.582z" class="cls-14" transform="translate(657 2336)"/>
        <path id="패스_4709" d="M7.952-7.462a29.567 29.567 0 0 1-5.236.518v-4.074H1.274v5.264H2.3a30.019 30.019 0 0 0 5.82-.532zM3.892-1.4h6.692v-3.29H2.422v1.148h6.72v1.064H2.45v3.4H11V-.224H3.892zm6.692-7.672v-2.506H9.142v6.328h1.442v-2.632h1.792v-1.19zm9.24-.126H21.1v-1.176h-3.5V-9.2h.84v1.12a8.55 8.55 0 0 1-1.078 4.69 8.474 8.474 0 0 1-1.106-4.69V-9.2h.854v-1.176h-3.656V-9.2H14.9v1.12c0 1.932-.336 4.256-1.876 5.46l.9 1.036A5.3 5.3 0 0 0 15.6-4.536a5.3 5.3 0 0 0 1.75 3.066 5.335 5.335 0 0 0 1.778-3.066A5.22 5.22 0 0 0 20.8-1.582l.9-1.036c-1.54-1.19-1.876-3.472-1.876-5.46zm5.152 2.548h-1.582v-4.914h-1.442V1.092h1.442V-5.46h1.582z" class="cls-14" transform="translate(849 2380)"/>
        <path id="사각형_2750" d="M0 0H56V25H0z" class="cls-5" transform="translate(909 2295)"/>
        <path id="패스_4716" d="M8.134-5.614a3.91 3.91 0 0 1-2.982-3.654v-.238H7.8v-1.162H1.008v1.162H3.7v.252A4.3 4.3 0 0 1 .6-5.222l.73 1.134a5.146 5.146 0 0 0 3.136-2.94 4.748 4.748 0 0 0 2.968 2.534zM6.51-.056c-1.764 0-2.786-.448-2.786-1.26s1.022-1.26 2.786-1.26 2.79.434 2.79 1.26-1.026 1.26-2.79 1.26zm0-3.654c-2.6 0-4.214.882-4.214 2.394s1.61 2.394 4.214 2.394 4.214-.9 4.214-2.394S9.114-3.71 6.51-3.71zm4.074-4.774v-3.08H9.142V-4h1.442v-3.29h1.792v-1.19zm13.622 2.9c-2.492-.42-4.522-2.3-4.522-4.256v-.952h-1.526v.952c0 1.946-2.03 3.836-4.536 4.256l.616 1.2a6.663 6.663 0 0 0 4.69-3.346A6.553 6.553 0 0 0 23.6-4.382zM19.628-1.68v-2.954h-1.442v2.954h-4.942v1.19H24.7v-1.19z" class="cls-13" transform="translate(1102 2599)"/>
        <path id="패스_4707" d="M8.134-5.614a3.91 3.91 0 0 1-2.982-3.654v-.238H7.8v-1.162H1.008v1.162H3.7v.252A4.3 4.3 0 0 1 .6-5.222l.73 1.134a5.146 5.146 0 0 0 3.136-2.94 4.748 4.748 0 0 0 2.968 2.534zM6.51-.056c-1.764 0-2.786-.448-2.786-1.26s1.022-1.26 2.786-1.26 2.79.434 2.79 1.26-1.026 1.26-2.79 1.26zm0-3.654c-2.6 0-4.214.882-4.214 2.394s1.61 2.394 4.214 2.394 4.214-.9 4.214-2.394S9.114-3.71 6.51-3.71zm4.074-4.774v-3.08H9.142V-4h1.442v-3.29h1.792v-1.19zm13.622 2.9c-2.492-.42-4.522-2.3-4.522-4.256v-.952h-1.526v.952c0 1.946-2.03 3.836-4.536 4.256l.616 1.2a6.663 6.663 0 0 0 4.69-3.346A6.553 6.553 0 0 0 23.6-4.382zM19.628-1.68v-2.954h-1.442v2.954h-4.942v1.19H24.7v-1.19z" class="cls-13" transform="translate(920 2336)"/>
        <path id="패스_4714" d="M8.722-7.084h1.316V-3.6h1.372v-7.98h-1.372v3.3H8.722v-3.06H7.378v7.322h1.344zM6.944-10.15H4.508v-1.3H3.094v1.3H.644v1.134h6.3zm-4.55 3.864c0-.686.56-1.134 1.414-1.134s1.428.448 1.428 1.134-.588 1.134-1.428 1.134S2.394-5.6 2.394-6.286zm4.13 0c0-1.3-1.12-2.184-2.716-2.184s-2.7.882-2.7 2.184S2.226-4.1 3.808-4.1s2.716-.87 2.716-2.186zM7.21-.014c-1.81 0-2.842-.406-2.842-1.162S5.4-2.324 7.21-2.324s2.828.392 2.828 1.148S9.03-.014 7.21-.014zm0-3.4c-2.674 0-4.284.812-4.284 2.24s1.61 2.252 4.284 2.252 4.27-.826 4.27-2.254-1.596-2.24-4.27-2.24zm10.458-7.1h-1.442v2.072a6.4 6.4 0 0 1-3.206 5.7l.88 1.16a6.533 6.533 0 0 0 3.052-3.962 6.3 6.3 0 0 0 2.914 3.724l.882-1.148a6.135 6.135 0 0 1-3.08-5.474zM25-6.552h-1.97v-5.012h-1.442V1.078h1.442v-6.44H25z" class="cls-9" transform="translate(998 2576)"/>
        <path id="패스_4710" d="M1.428-10.234v1.176h4.508C5.684-6.146 4.116-3.92.8-2.324l.77 1.148c4.34-2.1 5.852-5.292 5.852-9.058zm8.272-1.33V1.078h1.442v-12.642zM22.288-.238h-5.362v-1.4h5.362zm0-2.52h-5.362v-1.428H15.5v5.11h8.218v-5.11h-1.43zm-5.572-3.514A1.767 1.767 0 0 1 14.8-8.05a1.749 1.749 0 0 1 1.918-1.764 1.752 1.752 0 0 1 1.9 1.764 1.771 1.771 0 0 1-1.902 1.778zm5.558-5.292v2.912h-2.338A3.066 3.066 0 0 0 16.716-11a3.032 3.032 0 0 0-3.3 2.954 3.034 3.034 0 0 0 3.3 2.968 3.054 3.054 0 0 0 3.22-2.394h2.338v2.688h1.442v-6.776z" class="cls-10" transform="translate(741 2505)"/>
        <path id="패스_4711" d="M1.428-10.234v1.176h4.508C5.684-6.146 4.116-3.92.8-2.324l.77 1.148c4.34-2.1 5.852-5.292 5.852-9.058zm8.272-1.33V1.078h1.442v-12.642zM22.288-.238h-5.362v-1.4h5.362zm0-2.52h-5.362v-1.428H15.5v5.11h8.218v-5.11h-1.43zm-5.572-3.514A1.767 1.767 0 0 1 14.8-8.05a1.749 1.749 0 0 1 1.918-1.764 1.752 1.752 0 0 1 1.9 1.764 1.771 1.771 0 0 1-1.902 1.778zm5.558-5.292v2.912h-2.338A3.066 3.066 0 0 0 16.716-11a3.032 3.032 0 0 0-3.3 2.954 3.034 3.034 0 0 0 3.3 2.968 3.054 3.054 0 0 0 3.22-2.394h2.338v2.688h1.442v-6.776z" class="cls-10" transform="translate(823 2505)"/>
        <path id="패스_4712" d="M1.428-10.234v1.176h4.508C5.684-6.146 4.116-3.92.8-2.324l.77 1.148c4.34-2.1 5.852-5.292 5.852-9.058zm8.272-1.33V1.078h1.442v-12.642zM22.288-.238h-5.362v-1.4h5.362zm0-2.52h-5.362v-1.428H15.5v5.11h8.218v-5.11h-1.43zm-5.572-3.514A1.767 1.767 0 0 1 14.8-8.05a1.749 1.749 0 0 1 1.918-1.764 1.752 1.752 0 0 1 1.9 1.764 1.771 1.771 0 0 1-1.902 1.778zm5.558-5.292v2.912h-2.338A3.066 3.066 0 0 0 16.716-11a3.032 3.032 0 0 0-3.3 2.954 3.034 3.034 0 0 0 3.3 2.968 3.054 3.054 0 0 0 3.22-2.394h2.338v2.688h1.442v-6.776z" class="cls-10" transform="translate(910 2505)"/>
        <path id="패스_4713" d="M1.428-10.234v1.176h4.508C5.684-6.146 4.116-3.92.8-2.324l.77 1.148c4.34-2.1 5.852-5.292 5.852-9.058zm8.272-1.33V1.078h1.442v-12.642zM22.288-.238h-5.362v-1.4h5.362zm0-2.52h-5.362v-1.428H15.5v5.11h8.218v-5.11h-1.43zm-5.572-3.514A1.767 1.767 0 0 1 14.8-8.05a1.749 1.749 0 0 1 1.918-1.764 1.752 1.752 0 0 1 1.9 1.764 1.771 1.771 0 0 1-1.902 1.778zm5.558-5.292v2.912h-2.338A3.066 3.066 0 0 0 16.716-11a3.032 3.032 0 0 0-3.3 2.954 3.034 3.034 0 0 0 3.3 2.968 3.054 3.054 0 0 0 3.22-2.394h2.338v2.688h1.442v-6.776z" class="cls-10" transform="translate(976 2506)"/>
        <path id="사각형_2758" d="M0 0H27V28H0z" class="cls-12" transform="translate(848 2338)"/>
        <path id="패스_4703" d="M12.87 10.094H8.14V7.806H5.874v2.288h-4.73v1.8H12.87zm-8.514 6.49c0-1.254 1.078-2 2.64-2 1.584 0 2.662.748 2.662 2s-1.078 2-2.662 2c-1.562.002-2.64-.746-2.64-2zm7.458 0c0-2.244-1.958-3.762-4.818-3.762-2.838 0-4.818 1.518-4.818 3.762 0 2.266 1.98 3.762 4.818 3.762 2.86 0 4.818-1.496 4.818-3.762zm-5.478 4.994H4.048v5.742h13.376v-1.848H6.336zm10.3-7.414V7.828h-2.27v14.894h2.266v-6.688h2.816v-1.87zm22.176 3.388v-1.826h-2.688a26.46 26.46 0 0 0 .44-5.478V8.73H23.056v1.826h11.286a23.925 23.925 0 0 1-.484 5.17H20.812v1.826h7.832v3.256h-6.006v1.826h11.748v5.06h2.266v-6.886h-5.72v-3.256zm15.2-2.64h-9.088v-4.224h9.086zm2.244-6.028H42.68v7.854h13.574zM58.5 19.18H40.48v1.826h7.81v6.688h2.266v-6.688H58.5zm4.752 3.212h11.13v5.324h2.266v-7.15H63.25zm7.37-7.37a4.83 4.83 0 0 0 .176-1.276 5.792 5.792 0 0 0-.154-1.276h3.74v2.552zm-4.996 1.628a2.917 2.917 0 1 1 3.014-2.9 2.849 2.849 0 0 1-3.014 2.9zm8.756-8.822v2.794h-4.708a5.324 5.324 0 0 0-4.048-1.716 4.851 4.851 0 1 0 0 9.68 5.175 5.175 0 0 0 4.048-1.716h4.708v2.706h2.266V7.806zm16.566 1.848h-4.29V7.63h-2.266v2.046h-4.466v1.8h11.022zm-7.876 6.2c0-1.166.99-1.892 2.442-1.892 1.474 0 2.464.726 2.464 1.892s-.99 1.892-2.464 1.892c-1.452.004-2.442-.722-2.442-1.888zm7.018 0c0-2.156-1.87-3.586-4.576-3.586-2.684 0-4.554 1.43-4.554 3.586s1.87 3.586 4.554 3.586c2.706.004 4.576-1.426 4.576-3.582zm4 9.79h-8.554v-1.734h8.558zm0-3.454h-8.554v-1.8h-2.244v7.04h13.046v-7.04h-2.244zm-.022-14.41v4.466H91.08v1.852h2.992v2.046h-3.036v1.848h3.036v1.606h2.266V7.806zm18.018 2.332h-4.862V7.85h-2.266v2.288h-4.884v1.826h12.016zm-8.69 6.49c0-1.21 1.1-1.958 2.706-1.958 1.584 0 2.684.748 2.684 1.958 0 1.232-1.1 1.98-2.684 1.98-1.602.004-2.702-.744-2.702-1.976zm3.828 3.63c2.244-.352 3.718-1.694 3.718-3.63 0-2.222-1.98-3.7-4.84-3.7-2.882 0-4.862 1.474-4.862 3.7 0 1.914 1.474 3.278 3.718 3.63v1.936c-1.87.066-3.7.066-5.28.066l.286 1.87a77.31 77.31 0 0 0 12.694-.814l-.154-1.65c-1.694.242-3.5.352-5.28.462zm6.4-12.452v19.892h2.288V7.806zm21.582 5.72h-11.368v-4.99h-2.266v6.842h13.64zm-11.5 7.878h-2.266v5.852h13.882v-1.824h-11.616zm-4.466-3.65v1.826h18.04V17.75zm25.982 1.936l3.19-4.884c.462-.836.9-1.672 1.3-2.486h.088c-.044.88-.132 2.244-.132 3.124v4.246zm8.888 0h-2.068V9.808h-2.926L142.67 19.95v1.694h7V26h2.376v-4.356h2.068zm11.682-2.53v1.408h3.74v.858h2.268V7.828h-2.266v9.328zM161.678 9.7c1.694 0 2.794.528 2.794 1.452s-1.1 1.452-2.794 1.452c-1.716 0-2.816-.528-2.816-1.452s1.1-1.452 2.816-1.452zm0 4.422c2.948 0 4.928-1.144 4.928-2.97s-1.98-2.97-4.928-2.97c-2.97 0-4.95 1.144-4.95 2.97s1.98 2.968 4.95 2.968zm-1.254 5.368h2.288v-2.928c1.848-.088 3.74-.242 5.566-.506l-.154-1.43c-4.2.44-9 .462-12.826.462l.264 1.628c1.5 0 3.146 0 4.862-.066zm.088 6.424V24.46H171.8v-4.334h-13.576v1.562h11.33v1.32h-11.286v4.51h14.1v-1.606zm18.766.086h10.45v-2.156h-4.048c-.792 0-1.8.066-2.64.154 3.432-3.278 5.918-6.512 5.918-9.636a4.579 4.579 0 0 0-4.884-4.862 6.354 6.354 0 0 0-4.928 2.42l1.43 1.408a4.391 4.391 0 0 1 3.19-1.8c1.8 0 2.75 1.21 2.75 2.97 0 2.662-2.464 5.808-7.238 10.032zm12.914 0h9.24v-2.09h-3.168V9.808h-1.914a9.947 9.947 0 0 1-3.52 1.232v1.606h2.9V23.91h-3.542zm20.668-5.221l-.021 1.364a3.309 3.309 0 0 1-2.31 1.021 6.116 6.116 0 0 1-2.546-.709 5.23 5.23 0 0 0-1.869-.612 3.666 3.666 0 0 0-2.492 1.332v-1.4a5.8 5.8 0 0 1 1.284-.816 3.183 3.183 0 0 1 1.219-.215 5.127 5.127 0 0 1 2.105.5l1.021.451a2.815 2.815 0 0 0 1.171.247 4.151 4.151 0 0 0 2.438-1.163zm3.967-1.093l3.19-4.884c.462-.836.9-1.672 1.3-2.486h.088c-.044.88-.132 2.244-.132 3.124v4.246zm8.888 0h-2.068V9.808h-2.926l-6.445 10.142v1.694h7V26h2.376v-4.356h2.068zm11.682-2.53v1.408h3.74v.858h2.263V7.828h-2.266v9.328zM233.284 9.7c1.694 0 2.794.528 2.794 1.452s-1.1 1.452-2.794 1.452c-1.716 0-2.816-.528-2.816-1.452s1.1-1.452 2.816-1.452zm0 4.422c2.948 0 4.928-1.144 4.928-2.97s-1.98-2.97-4.928-2.97c-2.97 0-4.95 1.144-4.95 2.97s1.98 2.968 4.95 2.968zm-1.254 5.368h2.288v-2.928c1.848-.088 3.74-.242 5.566-.506l-.154-1.43c-4.2.44-9 .462-12.826.462l.264 1.628c1.5 0 3.146 0 4.862-.066zm.088 6.424V24.46H243.4v-4.334h-13.57v1.562h11.33v1.32h-11.286v4.51h14.1v-1.606zm18.766.086h10.45v-2.156h-4.048c-.792 0-1.8.066-2.64.154 3.432-3.278 5.918-6.512 5.918-9.636A4.579 4.579 0 0 0 255.68 9.5a6.354 6.354 0 0 0-4.928 2.42l1.43 1.408a4.391 4.391 0 0 1 3.19-1.8c1.8 0 2.75 1.21 2.75 2.97 0 2.662-2.464 5.808-7.238 10.032zm16.918.286c2.97 0 5.412-1.716 5.412-4.642a4.1 4.1 0 0 0-3.344-4.044v-.11a3.914 3.914 0 0 0 2.794-3.806c0-2.684-2.046-4.18-4.95-4.18a6.824 6.824 0 0 0-4.642 1.958l1.32 1.584a4.742 4.742 0 0 1 3.234-1.54 2.266 2.266 0 0 1 2.486 2.354c0 1.628-1.056 2.838-4.246 2.838v1.87c3.652 0 4.8 1.166 4.8 2.97 0 1.672-1.254 2.684-3.08 2.684a5.233 5.233 0 0 1-3.828-1.782l-1.232 1.628a6.721 6.721 0 0 0 5.274 2.218zm23.584-18.48h-2.266V17.9h2.266zm-13.794 5.148a2.7 2.7 0 0 1 2.992-2.618c1.738 0 3.036 1.034 3.036 2.618s-1.3 2.618-3.036 2.618a2.7 2.7 0 0 1-2.992-2.618zm8.228 0c0-2.618-2.222-4.488-5.236-4.488-2.992 0-5.192 1.87-5.192 4.488s2.2 4.466 5.192 4.466c3.016 0 5.236-1.848 5.236-4.466zm-5.192 12.716v-1.76h10.758v-5.1h-13.024v1.782h10.78v1.65h-10.736v5.214h13.574V25.67zm14.608-15.752v1.87h3.234c-.2 3.982-1.166 7.282-4 10.3l1.8 1.254c3.542-3.85 4.334-8.316 4.334-13.42zm6.05 0v1.87h2.64c-.154 4.29-.968 8.162-3.828 11.594l1.826 1.276c3.542-4.334 4.136-9.526 4.136-14.74zm11.924 5.918h-2.816V7.828h-2.266v19.844h2.266v-9.966h2.816zm8.514-4.158h4.422v-1.87h-11.132v1.87h4.422v1.892a9.715 9.715 0 0 1-5.126 8.536l1.3 1.8a10.247 10.247 0 0 0 4.994-6.248 9.737 9.737 0 0 0 5.016 5.742l1.254-1.782a8.963 8.963 0 0 1-5.148-8.052zm6.732-3.85v19.866h2.288V7.828zm17.226 1.606h-2.288v3.278c0 3.718-1.936 7.546-5.038 9.064l1.43 1.8a10.27 10.27 0 0 0 4.774-6.292 9.792 9.792 0 0 0 4.708 5.962l1.342-1.826c-3.036-1.408-4.928-5.016-4.928-8.712zm7.018-1.65v6.534h-4.246v1.848h4.246v11.55h2.288V7.784zm14.454 1.936c3.08 0 4.73.594 4.73 1.738s-1.65 1.738-4.73 1.738-4.73-.594-4.73-1.738 1.65-1.738 4.73-1.738zm0 5.17c4.444 0 7.084-1.21 7.084-3.432s-2.64-3.432-7.084-3.432c-4.466 0-7.084 1.21-7.084 3.432s2.618 3.432 7.084 3.432zm8.976 2.882v-1.8h-17.974v1.8h7.832v1.606h-5.7v1.716h11.374v1.43h-11.33v4.994h14.124V25.78h-11.88v-1.65h11.308v-4.752h-5.61v-1.606zm6.952-8.558v1.848h6.82c-.4 3.08-3.1 5.588-7.7 6.908l.924 1.8c5.808-1.672 9.24-5.368 9.24-10.56zm8.36 16.7c-2.64 0-4.312-.792-4.312-2.156 0-1.386 1.672-2.178 4.312-2.178 2.662 0 4.312.792 4.312 2.178 0 1.362-1.654 2.154-4.312 2.154zm0-6.138c-3.96 0-6.556 1.518-6.556 3.982 0 2.442 2.6 3.938 6.556 3.938 3.982 0 6.556-1.5 6.556-3.938.002-2.466-2.574-3.984-6.556-3.984zm6.336-7.04V7.828h-2.266V19.51h2.266V14.6h2.816v-1.87zm15.6 2.31a44.868 44.868 0 0 1-8.272.836V8.8h-2.266v8.95h1.606a46.244 46.244 0 0 0 9.218-.858zM407 21.864h8.25v3.762H407zm-2.222 5.588h12.694V20.06h-12.698zm15.51-15.224h-2.816v-4.4H415.2v11.22h2.266V14.1h2.816zm19.338 5.3h-2.776a34.908 34.908 0 0 0 .506-6.754V9.038H423.8v1.826h11.33a30.229 30.229 0 0 1-.572 6.666h-12.91v1.87h7.766v8.294h2.286V19.4h7.92zm7.634-2.64l.308 1.914 11.726-.638a35.567 35.567 0 0 1-.682 4.4l2.244.264a40.593 40.593 0 0 0 .858-9.372V9.632h-13.886v1.826h11.638c0 .9 0 1.892-.044 2.97zm7.458 8.448v-4.992h-2.288v4.994h-6.71v1.87h17.97v-1.87zm12.87-9.482a2.523 2.523 0 1 1 4.994 0 2.52 2.52 0 1 1-4.994 0zm8.69.946v4.774h2.112V8.2h-2.112v4.73h-1.716a4.527 4.527 0 0 0-9 .924 4.458 4.458 0 0 0 4.51 4.752 4.391 4.391 0 0 0 4.466-3.806zm-7.5 7.612h11.2v5.324h2.266v-7.15h-13.472zM480.08 7.828v11.858h2.156V7.828zm22.264 9.7c-3.916-.7-7.106-3.762-7.106-6.93V9.1h-2.4v1.5c0 3.146-3.19 6.2-7.106 6.93l.968 1.87a10.4 10.4 0 0 0 7.326-5.456 10.4 10.4 0 0 0 7.326 5.456zm-17.226 5.742v1.87h18v-1.87zm24.156-1.936c-1.364 0-2.2-1.782-2.2-4.928s.836-4.906 2.2-4.906 2.2 1.76 2.2 4.906-.836 4.93-2.2 4.93zm6.358-5.984H513.5c-.242-3.718-1.848-5.984-4.224-5.984-2.574 0-4.268 2.684-4.268 7.04s1.694 7.062 4.268 7.062c2.42 0 4.048-2.376 4.246-6.248h2.112v9.526h2.112V8.2h-2.112zm3.982-7.524v19.846h2.156V7.828zm12.078 1.606H529.4v3.278c0 3.718-1.936 7.546-5.038 9.064l1.43 1.8a10.27 10.27 0 0 0 4.774-6.292 9.793 9.793 0 0 0 4.708 5.962l1.342-1.826c-3.036-1.408-4.928-5.016-4.928-8.712zm7.018-1.65v6.534h-4.246v1.848h4.246v11.55H541V7.784zm13.046 1.1a5.018 5.018 0 0 0-2.9 4.664c0 1.628.638 2.552 1.8 2.552a1.45 1.45 0 0 0 1.5-1.562 1.42 1.42 0 0 0-1.5-1.452.9.9 0 0 0-.242.022 3.46 3.46 0 0 1 2-3.08zM554.44 26h10.45v-2.156h-4.048c-.792 0-1.8.066-2.64.154 3.432-3.278 5.918-6.512 5.918-9.636a4.579 4.579 0 0 0-4.884-4.862 6.354 6.354 0 0 0-4.928 2.42l1.43 1.408a4.392 4.392 0 0 1 3.19-1.8c1.8 0 2.75 1.21 2.75 2.97 0 2.662-2.464 5.808-7.238 10.032zm17.292.286c3.168 0 5.236-2.816 5.236-8.448 0-5.588-2.068-8.338-5.236-8.338-3.19 0-5.236 2.728-5.236 8.338.004 5.632 2.046 8.448 5.236 8.448zm0-2c-1.65 0-2.816-1.76-2.816-6.446 0-4.642 1.166-6.336 2.816-6.336s2.816 1.694 2.816 6.336c0 4.684-1.166 6.444-2.816 6.444zM578.42 26h10.45v-2.156h-4.048c-.792 0-1.8.066-2.64.154 3.432-3.278 5.918-6.512 5.918-9.636a4.579 4.579 0 0 0-4.884-4.862 6.354 6.354 0 0 0-4.928 2.42l1.43 1.408a4.392 4.392 0 0 1 3.19-1.8c1.8 0 2.75 1.21 2.75 2.97 0 2.662-2.464 5.808-7.238 10.032zm12.914 0h9.24v-2.09h-3.168V9.808h-1.914a9.947 9.947 0 0 1-3.52 1.232v1.606h2.9V23.91h-3.542zm26.07-8.844v1.408h3.74v.858h2.266V7.828h-2.266v9.328zM613.29 9.7c1.694 0 2.794.528 2.794 1.452s-1.1 1.452-2.794 1.452c-1.716 0-2.816-.528-2.816-1.452s1.1-1.452 2.816-1.452zm0 4.422c2.948 0 4.928-1.144 4.928-2.97s-1.98-2.97-4.928-2.97c-2.97 0-4.95 1.144-4.95 2.97s1.98 2.968 4.95 2.968zm-1.254 5.368h2.288v-2.928c1.848-.088 3.74-.242 5.566-.506l-.154-1.43c-4.2.44-9 .462-12.826.462l.264 1.628c1.5 0 3.146 0 4.862-.066zm.088 6.424V24.46h11.286v-4.334h-13.574v1.562h11.33v1.32H609.88v4.51h14.1v-1.606zm30.492-8.714H631.11v-5.786h11.352V9.566h-13.618v9.46h13.772zm-15.972 6.072v1.87h18.018v-1.87zM2.134 68h2.552V51.808H2.134zm9.548 0h2.552V53.942h4.774v-2.134H6.93v2.134h4.752zm30.25-9.064c-4-.616-7.172-3.432-7.172-6.446v-1.474h-2.4v1.474c0 2.992-3.212 5.808-7.172 6.446l.924 1.892a10.453 10.453 0 0 0 7.458-5.1 10.386 10.386 0 0 0 7.414 5.1zM37.95 65.4v-4.264h-2.266V65.4H31.57v-4.264h-2.244V65.4H24.64v1.87h18V65.4zm10.472 6.974l1.584-.7a21.5 21.5 0 0 1 0-21.12l-1.584-.682a21.074 21.074 0 0 0 0 22.506zM54.274 68h3.08l2.134-9c.264-1.276.528-2.486.748-3.718h.11c.22 1.232.462 2.442.748 3.718l2.178 9h3.146l3.19-16.192h-2.442l-1.54 8.426c-.264 1.694-.55 3.432-.814 5.192H64.7c-.374-1.76-.726-3.5-1.1-5.192l-2.11-8.426h-2.244l-2.09 8.426c-.374 1.716-.748 3.454-1.1 5.192h-.088l-.858-5.192-1.518-8.426h-2.64zm22.066.286c2.992 0 5.7-2.31 5.7-6.314 0-4.048-2.706-6.38-5.7-6.38s-5.7 2.332-5.7 6.38c.002 4.004 2.708 6.314 5.7 6.314zm0-2.068c-1.892 0-3.08-1.694-3.08-4.246 0-2.574 1.188-4.29 3.08-4.29 1.914 0 3.1 1.716 3.1 4.29.002 2.552-1.186 4.246-3.1 4.246zM84.458 68h2.508v-7.546c.77-1.914 1.958-2.6 2.948-2.6a3.58 3.58 0 0 1 1.21.2l.462-2.2a3.01 3.01 0 0 0-1.364-.264 4.183 4.183 0 0 0-3.432 2.486h-.066l-.2-2.178h-2.066zm10.956.286a4.064 4.064 0 0 0 1.364-.2l-.33-1.914a1.757 1.757 0 0 1-.418.044c-.308 0-.616-.242-.616-.924V50.466h-2.508v14.7c0 1.954.682 3.12 2.508 3.12zm7.678 0a5.072 5.072 0 0 0 3.52-1.65h.066L106.9 68h2.068V50.466h-2.53v4.488l.11 2a4.668 4.668 0 0 0-3.256-1.364c-2.706 0-5.192 2.442-5.192 6.38 0 4.006 1.956 6.316 4.992 6.316zm.594-2.09c-1.892 0-2.97-1.518-2.97-4.268 0-2.618 1.364-4.224 3.058-4.224a3.8 3.8 0 0 1 2.662 1.1v5.918a3.556 3.556 0 0 1-2.75 1.478zM116.842 68h2.552V51.808h-2.552zm9.548 0h2.552V53.942h4.774v-2.134h-12.078v2.134h4.752zm18.59.286c3.542 0 5.7-2.112 5.7-4.708 0-2.376-1.386-3.564-3.3-4.378l-2.222-.946c-1.32-.528-2.618-1.056-2.618-2.442 0-1.3 1.078-2.09 2.728-2.09a5.157 5.157 0 0 1 3.564 1.452l1.342-1.628a6.936 6.936 0 0 0-4.906-2.046c-3.08 0-5.324 1.914-5.324 4.466 0 2.354 1.738 3.586 3.3 4.246l2.244.968c1.5.66 2.6 1.122 2.6 2.6 0 1.364-1.1 2.288-3.058 2.288a6.278 6.278 0 0 1-4.312-1.914l-1.5 1.76a8.078 8.078 0 0 0 5.762 2.372zm7.986-.286h2.508v-8.58c1.078-1.078 1.848-1.65 2.97-1.65 1.43 0 2.046.836 2.046 2.926V68h2.53v-7.612c0-3.08-1.144-4.8-3.718-4.8a5.631 5.631 0 0 0-3.916 1.914l.088-2.4v-4.636h-2.508zm17.952.286c2.992 0 5.7-2.31 5.7-6.314 0-4.048-2.706-6.38-5.7-6.38s-5.7 2.332-5.7 6.38c.002 4.004 2.708 6.314 5.7 6.314zm0-2.068c-1.892 0-3.08-1.694-3.08-4.246 0-2.574 1.188-4.29 3.08-4.29 1.914 0 3.1 1.716 3.1 4.29.002 2.552-1.186 4.246-3.1 4.246zM180.862 68h2.926l1.474-5.962c.308-1.144.528-2.266.77-3.52h.11c.264 1.254.484 2.354.77 3.5l1.54 5.982h3.036l3.124-12.1h-2.376l-1.562 6.556c-.264 1.166-.462 2.288-.7 3.432h-.088c-.286-1.144-.528-2.266-.814-3.432L187.33 55.9h-2.354l-1.694 6.556c-.286 1.144-.528 2.288-.792 3.432h-.09c-.22-1.144-.418-2.266-.66-3.432l-1.604-6.556h-2.552zm19.162 0h10.45v-2.156h-4.048c-.792 0-1.8.066-2.64.154 3.432-3.278 5.918-6.512 5.918-9.636a4.579 4.579 0 0 0-4.884-4.862 6.354 6.354 0 0 0-4.928 2.42l1.43 1.408a4.391 4.391 0 0 1 3.19-1.8c1.8 0 2.75 1.21 2.75 2.97 0 2.662-2.464 5.808-7.238 10.032zm17.292.286c3.168 0 5.236-2.816 5.236-8.448 0-5.588-2.068-8.338-5.236-8.338-3.19 0-5.236 2.728-5.236 8.338 0 5.632 2.046 8.448 5.236 8.448zm0-2c-1.65 0-2.816-1.76-2.816-6.446 0-4.642 1.166-6.336 2.816-6.336s2.816 1.694 2.816 6.336c0 4.684-1.166 6.444-2.816 6.444zM224 68h10.45v-2.156h-4.048c-.792 0-1.8.066-2.64.154 3.432-3.278 5.918-6.512 5.918-9.636a4.579 4.579 0 0 0-4.88-4.862 6.354 6.354 0 0 0-4.928 2.42l1.43 1.408a4.391 4.391 0 0 1 3.19-1.8c1.8 0 2.75 1.21 2.75 2.97 0 2.662-2.464 5.808-7.238 10.032zm12.914 0h9.24v-2.09h-3.164v-14.1h-1.914a9.947 9.947 0 0 1-3.52 1.232v1.606h2.9V65.91h-3.542zm12.694 4.378a20.954 20.954 0 0 0 0-22.506l-1.584.682a21.5 21.5 0 0 1 0 21.12zm6.908-14.432a5.024 5.024 0 0 0 2.926-4.664c0-1.628-.66-2.552-1.8-2.552a1.422 1.422 0 0 0-1.474 1.562 1.4 1.4 0 0 0 1.474 1.43.748.748 0 0 0 .22-.022 3.469 3.469 0 0 1-1.98 3.1zm18.37-4.73h-11.2v4.466h13.794V56.1h-11.566v-1.41h11.22v-4.378h-13.486v1.562h11.242zm-9.13 13.178H277.2V61.95h-13.728v1.562h11.484v1.408h-11.44v4.554h14.278v-1.562H265.76zm-4.378-7.458v1.672H279.4v-1.672zm24.838-6.6v1.848h5.566c-.308 4-2.112 7.26-6.4 9.746l1.32 1.606c5.588-3.212 7.326-7.9 7.326-13.2zm14.014-2.508v7.766h-2.266v-7.238h-2.134V68.77h2.134v-9.328h2.266v10.252h2.156V49.828zm6.6 11.264A7.59 7.59 0 0 0 311.762 57a7.569 7.569 0 0 0 4.928 3.894l1.012-1.76c-2.926-.792-4.686-2.772-4.818-5.016h4.334v-1.826h-4.334v-2.31h-2.266v2.31h-4.312v1.826h4.29c-.11 2.332-1.848 4.4-4.8 5.214zm6.05-.638h-2.266v3.41c-1.914.066-3.784.066-5.346.066l.286 1.87a65.6 65.6 0 0 0 12.65-.9l-.176-1.65a48.565 48.565 0 0 1-5.148.506zm6.358-10.648v19.932h2.288V49.806zm17.38 2.288h-4.73v-2.288h-2.266v2.288H324.9v1.8h11.726zm-8.514 6.49c0-1.254 1.078-2 2.64-2 1.584 0 2.662.748 2.662 2s-1.078 2-2.662 2c-1.558.002-2.636-.746-2.636-2zm7.458 0c0-2.244-1.958-3.762-4.818-3.762-2.838 0-4.818 1.518-4.818 3.762 0 2.266 1.98 3.762 4.818 3.762 2.864 0 4.822-1.496 4.822-3.762zm-5.478 4.994H327.8v5.742h13.376v-1.848h-11.088zm10.3-7.414v-6.336h-2.266v14.894h2.266v-6.688h2.816v-1.87zm7.238-2.618h6.978V51.7h-9.24v13.132h1.628a49.031 49.031 0 0 0 9.284-.66l-.242-1.87a47.965 47.965 0 0 1-8.4.638zm15.422 3.916h-3.1v-7.656h-2.266v19.91h2.266V59.332h3.1zm14.938-3.828a42.762 42.762 0 0 1-.77 9.086l2.288.242a45.488 45.488 0 0 0 .77-9.328v-1.958h-14.146v1.848h11.858zm-4.752 11.594v-7h-2.288v7h-6.688V67.1h17.952v-1.87zM388.19 68h10.45v-2.156h-4.048c-.792 0-1.8.066-2.64.154 3.432-3.278 5.918-6.512 5.918-9.636a4.579 4.579 0 0 0-4.884-4.862 6.354 6.354 0 0 0-4.928 2.42l1.43 1.408a4.391 4.391 0 0 1 3.19-1.8c1.8 0 2.75 1.21 2.75 2.97 0 2.662-2.464 5.808-7.238 10.032zm17.292.286c3.168 0 5.236-2.816 5.236-8.448 0-5.588-2.068-8.338-5.236-8.338-3.19 0-5.236 2.728-5.236 8.338 0 5.632 2.046 8.448 5.236 8.448zm0-2c-1.65 0-2.816-1.76-2.816-6.446 0-4.642 1.166-6.336 2.816-6.336s2.818 1.696 2.818 6.334c0 4.686-1.168 6.446-2.818 6.446zm23.21-16.478h-2.266V59.9h2.266zM414.9 54.954a2.7 2.7 0 0 1 2.992-2.618c1.738 0 3.036 1.034 3.036 2.618s-1.3 2.618-3.036 2.618a2.7 2.7 0 0 1-2.992-2.618zm8.228 0c0-2.618-2.222-4.488-5.236-4.488-2.992 0-5.192 1.87-5.192 4.488s2.2 4.466 5.192 4.466c3.008 0 5.234-1.848 5.234-4.466zm-5.194 12.716v-1.76h10.758v-5.1h-13.024v1.782h10.78v1.65h-10.736v5.214h13.574V67.67zm26.29-9.878h-4.862v-2.574h4.862zm2.244-7.018h-2.244v2.706h-4.862v-2.706H437.1V59.6h9.372zm-5.94 15.378h4.334v-4.774h-6.556v1.694h4.356v1.5h-4.312V69.5h1.232a30.722 30.722 0 0 0 6.776-.44l-.2-1.672a26.612 26.612 0 0 1-5.632.418zm5.148-2.97h4v6.424h2.244v-8.228h-6.248zm9.042-9.152h-2.794v-4.2h-2.266v10.56h2.266V55.9h2.794zm15.62 8.294h2.262v-12.5h-2.266V54.4H467.3v1.848h3.036v2.024h-3.08v1.848h3.08zm-3.168-10.582h-4.29V49.63h-2.266v2.112h-4.466v1.8h11.022zm-5.412 4.29c1.452 0 2.442.77 2.442 1.98 0 1.232-.99 2-2.442 2-1.474 0-2.464-.77-2.464-2 0-1.212.99-1.98 2.464-1.98zm0 5.676c2.684 0 4.554-1.474 4.554-3.7 0-2.2-1.87-3.674-4.554-3.674-2.706 0-4.576 1.474-4.576 3.674 0 2.226 1.87 3.7 4.576 3.7zm8.778 1.144h-2.222v.506a5.18 5.18 0 0 1-2.552 4.158 4.746 4.746 0 0 1-2.486-4.158v-.506h-2.2v.506c0 1.782-1.364 3.652-3.872 4.444l1.056 1.65a6.447 6.447 0 0 0 3.894-3.278 5.955 5.955 0 0 0 3.63 3.454 6.381 6.381 0 0 0 3.608-3.52 6.234 6.234 0 0 0 3.96 3.344l1.056-1.65c-2.552-.726-3.872-2.574-3.872-4.444zm8.316-9.306h6.974V51.7h-9.24v13.132h1.628a49.031 49.031 0 0 0 9.284-.66l-.242-1.87a47.965 47.965 0 0 1-8.4.638zm15.422 3.916h-3.1v-7.656h-2.266v19.91h2.266V59.332h3.1zm3.366 10.824a1.684 1.684 0 0 0 1.694-1.76 1.7 1.7 0 1 0-3.388 0 1.684 1.684 0 0 0 1.694 1.76zM4.29 92.884a5.018 5.018 0 0 0-2.9 4.664c0 1.628.638 2.552 1.8 2.552a1.45 1.45 0 0 0 1.5-1.562 1.42 1.42 0 0 0-1.5-1.452.9.9 0 0 0-.242.022 3.46 3.46 0 0 1 2-3.08zm7.612 17.4a5.342 5.342 0 0 0 5.456-5.61c0-3.542-2.222-5.148-4.928-5.148a4.565 4.565 0 0 0-2.222.572l.374-4.158h6.006v-2.132H8.382l-.482 7.678 1.232.814a4.26 4.26 0 0 1 2.6-.924c1.848 0 3.08 1.232 3.08 3.388a3.164 3.164 0 0 1-3.212 3.454 5.181 5.181 0 0 1-3.79-1.738l-1.21 1.65a7.166 7.166 0 0 0 5.3 2.156zm14.828 0a7.274 7.274 0 0 0 5.126-1.892v-7.018h-5.522v2.09h3.212v3.806a4.016 4.016 0 0 1-2.552.792c-3.344 0-5.126-2.354-5.126-6.2 0-3.806 2-6.138 5.016-6.138a4.38 4.38 0 0 1 3.344 1.452l1.386-1.628A6.46 6.46 0 0 0 26.8 93.5c-4.29 0-7.546 3.168-7.546 8.448-.004 5.302 3.146 8.338 7.476 8.338zm23.034-12.01a46.462 46.462 0 0 1-8.228.814v-6.4H39.27v8.272h1.606a47.172 47.172 0 0 0 9.152-.836zm-6.38 9.526H53.9v-5.17H41.074v1.8h10.56v1.672H41.118v5.346H54.56v-1.8H43.384zM53.9 95.744v-3.938h-2.266v9.944H53.9v-4.136h2.816v-1.87zm4.906-1.408v1.848h5.566c-.308 4-2.112 7.26-6.4 9.746l1.32 1.606c5.588-3.212 7.326-7.9 7.326-13.2zm14.014-2.508v7.766h-2.266v-7.238H68.42v18.414h2.134v-9.328h2.266v10.252h2.156V91.828zm18.436 3.388h-11.2v4.466h13.796V98.1H82.28v-1.41H93.5v-4.378H80.014v1.562h11.242zm-9.13 13.178h11.44v-4.444H79.838v1.562h11.484v1.408h-11.44v4.554H94.16v-1.562H82.126zm-4.378-7.458v1.672h18.018v-1.672zm35.486-2.244a40.151 40.151 0 0 1-8.338.66v-4.62h6.578v-1.8h-8.844v8.25h1.606a41.857 41.857 0 0 0 9.262-.7zm-6.424 9.174h10.56v-5.192h-12.826v1.826h10.582v1.65h-10.538v5.3h13.442v-1.8h-11.22zm10.56-12.056v-3.982h-2.27v9.944h2.266V97.68h2.816v-1.87zm17.908-.176a42.763 42.763 0 0 1-.77 9.086l2.288.242a45.488 45.488 0 0 0 .77-9.328v-1.958H123.42v1.848h11.858zm-4.752 11.594v-7h-2.288v7h-6.688v1.87h17.95v-1.87zm18.59-11.7h7.216v-1.87h-9.46v13.222h1.65a50.046 50.046 0 0 0 9.57-.638l-.242-1.892a45.582 45.582 0 0 1-8.734.638zm10.584-3.722v19.932h2.288V91.806zm12.958 3.872h4.422v-1.87h-11.134v1.87h4.422v1.892a9.715 9.715 0 0 1-5.126 8.536l1.3 1.8a10.247 10.247 0 0 0 4.994-6.248 9.737 9.737 0 0 0 5.016 5.742l1.254-1.782a8.963 8.963 0 0 1-5.148-8.052zm6.732-3.85v19.866h2.288V91.828zm19.8 10.626h2.288V91.806h-2.288v4.422h-3.432v1.8h3.432zm-3.3-2.86a43.523 43.523 0 0 1-7.656.462v-1.848h6.226v-1.716h-6.226v-1.716h6.8v-1.782h-9.064v8.844h1.5a51.56 51.56 0 0 0 8.6-.44zm-5.082 10.164v-1.606h10.67v-4.884H188.54v1.76h10.692v1.5h-10.67v4.994h13.574v-1.76zm34.21-11.44h-11.4v-5.544h-2.288v7.392h13.684zm2.068 4.4H209.11v1.848h4.4v7.15h2.266v-7.15h4.62v7.15h2.266v-7.15h4.422zm18.084-10.89h-2.29v10.054h2.288zm-4.092 6.732a41.474 41.474 0 0 1-8.844.7v-4.51h7.084v-1.8h-9.35v8.1h1.672a47.048 47.048 0 0 0 9.68-.7zm-6.666 11.22v-1.848h10.758v-5.148h-13.048v1.76h10.8v1.738h-10.756v5.28h13.6v-1.782zm23.056-15.95c3.08 0 4.73.594 4.73 1.738 0 1.122-1.65 1.716-4.73 1.716s-4.73-.594-4.73-1.716c-.002-1.144 1.648-1.738 4.728-1.738zm0 5.148c4.444 0 7.084-1.21 7.084-3.41 0-2.222-2.64-3.432-7.084-3.432-4.466 0-7.084 1.21-7.084 3.432-.002 2.2 2.616 3.41 7.082 3.41zm-4.576 9.152H264.2v-4.752h-13.6v1.716h11.374v1.43h-11.33v4.994h14.126v-1.738h-11.88zm-4.422-7.986v1.8h18v-1.8zm28.62-5.344h2.53v5.126c-.858.044-1.694.066-2.53.088zm6.952 4.906h2.728v2.662h2.266V91.806h-2.266v2.684h-2.838v1.8h2.838v1.61h-2.838v1.76c-.682.066-1.408.132-2.134.176V94.8h1.782v-1.784h-10.472V94.8h1.8v5.258h-2.328l.242 1.848a82.028 82.028 0 0 0 11.352-.616zm-5.654 10.054v-1.672h10.648V103.2H276.1v1.76h10.692v1.474h-10.648v5.082h13.574v-1.76zM299.772 97h4.312v-1.828h-4.312v-2.948h-2.266v2.948h-4.4V97h4.4v1.144a8.923 8.923 0 0 1-5.016 8.052l1.254 1.738a9.618 9.618 0 0 0 4.928-5.852 9.407 9.407 0 0 0 4.906 5.522l1.21-1.76a8.587 8.587 0 0 1-5.016-7.7zm6.578-5.192v19.866h2.288V91.806zm8.668 3.74h6.974V93.7h-9.24v13.134h1.628a49.031 49.031 0 0 0 9.284-.66l-.242-1.87a47.965 47.965 0 0 1-8.4.638zm15.422 3.916h-3.1v-7.658h-2.266v19.91h2.266v-10.384h3.1zm2.332.484a5.024 5.024 0 0 0 2.926-4.664c0-1.628-.66-2.552-1.8-2.552a1.422 1.422 0 0 0-1.474 1.562 1.4 1.4 0 0 0 1.474 1.43.748.748 0 0 0 .22-.022 3.469 3.469 0 0 1-1.98 3.1zm18.37-4.73h-11.2v4.466h13.794V98.1h-11.57v-1.41h11.22v-4.378H339.9v1.562h11.242zm-9.13 13.178h11.44v-4.446h-13.728v1.562h11.484v1.408h-11.44v4.554h14.278v-1.562h-12.034zm-4.378-7.458v1.672h18.018v-1.672zm25.916.616c3.278-.484 5.962-2.112 7.172-4.312 1.21 2.2 3.916 3.828 7.194 4.312l.814-1.782c-3.784-.506-6.578-2.684-6.71-4.994h6.006V92.95H363.4v1.826h6.05c-.132 2.31-2.926 4.488-6.71 4.994zM379.72 103h-17.974v1.826h7.788v6.886h2.266v-6.882h7.9zm7.744-7.15h3.278v-1.87h-8.976v1.87h3.5v1.43c0 3.542-1.32 7.128-4.136 8.888l1.364 1.672a9.846 9.846 0 0 0 3.894-5.852 9.042 9.042 0 0 0 3.806 5.368l1.32-1.65c-2.772-1.606-4.048-5.038-4.048-8.426zm4.752 2.948h-2.926v1.848h2.926v10.076h2.134V92.2h-2.134zm4-7v19.866h2.156V91.806zm15 15.686V104.1h6.2v-1.826h-11.9v-2.768h11.462v-6.292H403.26v1.826h11.484v2.66H403.3v6.4h5.654v3.388h-7.832v1.87h18v-1.87zM427.636 97a3.032 3.032 0 1 1 3.036 2.706A2.755 2.755 0 0 1 427.636 97zm11.748-1.188v2.31h-3.7A4.745 4.745 0 0 0 435.82 97a4.188 4.188 0 0 0-.154-1.188zm0 4.092v2h2.288v-10.1h-2.288v2.222H434.7a5.359 5.359 0 0 0-4.026-1.606c-2.992 0-5.192 1.892-5.192 4.576 0 2.662 2.2 4.576 5.192 4.576a5.353 5.353 0 0 0 4.07-1.672zM431 109.67v-1.76h10.67v-5.06h-12.934v1.76h10.692v1.628h-10.67v5.214h13.574v-1.782zm17.314-8.712h6.93v-7.37h-9.262v1.848h6.974v3.7h-6.93v7.876h1.694a54.709 54.709 0 0 0 9.878-.7l-.242-1.848a56.879 56.879 0 0 1-9.042.682zm10.692-9.174v19.954h2.294V91.784zm21.538 5.742h-11.372v-4.994h-2.266v6.842h13.64zM469.04 105.4h-2.266v5.852h13.882v-1.826H469.04zm-4.466-3.652v1.826h18.04v-1.824zm38.17-9.944v19.932h2.288v-19.93zm-8.294 1.476c-2.948 0-5.1 2.728-5.1 7 0 4.312 2.156 7.018 5.1 7.018 2.97 0 5.126-2.706 5.126-7.018 0-4.272-2.156-7-5.126-7zm0 2.046c1.738 0 2.948 1.87 2.948 4.95 0 3.124-1.21 4.994-2.948 4.994-1.716 0-2.926-1.87-2.926-4.994 0-3.076 1.21-4.95 2.926-4.95zm21.758 6.116h-4.686v-3.234h4.686zm2.222-2.31h4.136v7.414h2.266V91.828h-2.266v5.456h-4.136v-4.136h-2.222v3.278h-4.686v-3.278h-2.244v10.142h9.152zm-4.246 10.34v-4.378H511.9v6.226h13.4v-1.848zm26.092-8.69h-4.862v-3.058h4.862zm2.244-7.722h-2.244v2.9h-4.862v-2.9h-2.266v9.526h9.372zm-7.612 13.508h10.8v5.126h2.266v-6.93h-13.066zm15.884-9.724h-2.816v-5.038h-2.266v11.968h2.266v-5.06h2.816zm12.914 3.454a45.735 45.735 0 0 1-8.536.638v-2.354h6.754v-5.72H552.9v1.848h6.776v2.134h-6.732v5.94h1.606a50.7 50.7 0 0 0 9.394-.638zm-6.512 6.072h8.25v3.278h-8.25zm-2.222 5.082h12.694v-6.864h-12.694zm15.51-14.7h-2.816V91.85H565.4v11.814h2.266v-5.038h2.816zm13.882-2.618H579.5V91.85h-2.266v2.288h-4.884v1.826h12.012zm-8.69 6.49c0-1.21 1.1-1.958 2.706-1.958 1.584 0 2.684.748 2.684 1.958 0 1.232-1.1 1.98-2.684 1.98-1.606.004-2.706-.744-2.706-1.976zm3.828 3.63c2.244-.352 3.718-1.694 3.718-3.63 0-2.222-1.98-3.7-4.84-3.7-2.882 0-4.862 1.474-4.862 3.7 0 1.914 1.474 3.278 3.718 3.63v1.936c-1.87.066-3.7.066-5.28.066l.286 1.87a77.31 77.31 0 0 0 12.694-.814l-.154-1.65c-1.694.242-3.5.352-5.28.462zm6.4-12.452v19.888h2.288V91.806zm10.1 13.53c-1.364 0-2.2-1.782-2.2-4.928s.836-4.906 2.2-4.906 2.2 1.76 2.2 4.906-.836 4.932-2.202 4.932zm6.358-5.984h-2.134c-.242-3.718-1.848-5.984-4.224-5.984-2.574 0-4.268 2.684-4.268 7.04s1.694 7.062 4.268 7.062c2.42 0 4.048-2.376 4.246-6.248h2.112v9.526h2.112V92.2h-2.112zm3.982-7.524v19.844h2.158v-19.84zm20.834 5.7H615.8v-4.992h-2.266v6.842h13.64zM615.67 105.4h-2.27v5.852h13.882v-1.826H615.67zm-4.47-3.65v1.826h18.04v-1.826zM3.56 140.05a2.87 2.87 0 0 1 3.014-2.992 2.864 2.864 0 0 1 2.992 2.992 2.9 2.9 0 0 1-2.992 3.036 2.905 2.905 0 0 1-3.01-3.032zm11.748.99v7.392h2.266V133.85h-2.262v5.35H11.66a4.927 4.927 0 0 0-5.082-4.114 4.987 4.987 0 1 0 0 9.966 4.914 4.914 0 0 0 5.06-4zm-8.334 10.432v-4.51H4.708v6.358h13.376v-1.848zm22.946-8.822a32.246 32.246 0 0 1-6.16.484v-2.222h5.324v-1.76H23.76v-2.09h5.54v-1.826h-7.74v9.746h1.34a37.424 37.424 0 0 0 7.26-.484zm-5.786 6.05h11.22v5.016h2.266v-6.842H24.134zm11.33-14.872v5.038h-2.2V134.2h-2.112v11.572h2.112v-5.06h2.2v5.192h2.156v-12.076zM56.5 144.322H45.034v-2.728H55.9v-1.782H45.034v-2.552h11.308v-1.826H42.724v10.714H56.5zm-16 5.078v1.848h18.02V149.4zm23.782 6.974l1.584-.7a21.5 21.5 0 0 1 0-21.12l-1.584-.682a21.074 21.074 0 0 0 0 22.506zm10.12-4.092c3.586 0 6.006-1.958 6.006-7.238v-9.24h-2.462v9.416c0 3.652-1.5 4.84-3.542 4.84-2.024 0-3.476-1.188-3.476-4.84v-9.416h-2.552v9.24c0 5.284 2.442 7.242 6.024 7.242zM83.82 152h2.508v-8.58c1.078-1.078 1.848-1.65 2.97-1.65 1.43 0 2.046.836 2.046 2.926V152h2.53v-7.612c0-3.08-1.144-4.8-3.718-4.8a5.766 5.766 0 0 0-4 1.98h-.066l-.2-1.672h-2.07zm17.248.286a7.742 7.742 0 0 0 2.376-.44l-.462-1.87a3.607 3.607 0 0 1-1.3.286c-1.254 0-1.76-.748-1.76-2.2v-6.138h3.146V139.9h-3.144v-3.344H97.79l-.29 3.344-1.87.132v1.892h1.76v6.116c.004 2.552.95 4.246 3.678 4.246zm6.424 0a6.015 6.015 0 0 0 3.85-1.672h.066l.22 1.386h2.072v-7.282c0-3.212-1.386-5.126-4.4-5.126a9.268 9.268 0 0 0-4.884 1.584l.946 1.716a6.654 6.654 0 0 1 3.5-1.232c1.782 0 2.288 1.232 2.31 2.64-5.038.55-7.238 1.892-7.238 4.488a3.343 3.343 0 0 0 3.558 3.498zm.77-2c-1.078 0-1.892-.484-1.892-1.672 0-1.364 1.21-2.266 4.8-2.706v2.97a4.266 4.266 0 0 1-2.908 1.406zm13.4 2a5.9 5.9 0 0 0 3.916-1.5l-1.034-1.672a4.145 4.145 0 0 1-2.64 1.1c-2.024 0-3.41-1.694-3.41-4.246 0-2.574 1.452-4.29 3.476-4.29a3.17 3.17 0 0 1 2.178.946l1.254-1.65a5.2 5.2 0 0 0-3.542-1.386c-3.19 0-5.984 2.332-5.984 6.38-.002 4.008 2.506 6.318 5.784 6.318zm9.724 0a7.742 7.742 0 0 0 2.376-.44l-.462-1.87a3.607 3.607 0 0 1-1.3.286c-1.254 0-1.76-.748-1.76-2.2v-6.138h3.146V139.9h-3.146v-3.344h-2.134l-.286 3.344-1.87.132v1.892h1.76v6.116c0 2.552.946 4.246 3.674 4.246zm4.774 4.092a20.954 20.954 0 0 0 0-22.506l-1.584.682a21.5 21.5 0 0 1 0 21.12zm6.4.022a5.158 5.158 0 0 0 3.608-4.95c0-1.694-.726-2.728-1.958-2.728a1.644 1.644 0 0 0-1.76 1.628 1.587 1.587 0 0 0 1.694 1.628.9.9 0 0 0 .242-.022 3.415 3.415 0 0 1-2.4 3.014zm26.158-22.572h-2.266v14.432h2.266zm-13.772 6.292a3.058 3.058 0 1 1 3.054 3.014 2.9 2.9 0 0 1-3.054-3.014zm8.316 0a5.278 5.278 0 1 0-5.262 4.972 4.97 4.97 0 0 0 5.262-4.972zm-5.236 11.352v-4.664h-2.288v6.512h13.552v-1.848zm29.194-9.746a18.813 18.813 0 0 0 .55-5.28v-1.672h-13.64v1.826h11.4a17.718 17.718 0 0 1-.528 4.884zm-6.27 10.23c-2.948 0-4.752-.726-4.752-1.98 0-1.232 1.8-1.958 4.752-1.958 2.926 0 4.686.726 4.686 1.958 0 1.254-1.76 1.98-4.686 1.98zm0-5.676c-4.29 0-7 1.408-7 3.7 0 2.31 2.706 3.718 7 3.718 4.224 0 6.952-1.408 6.952-3.718-.002-2.292-2.728-3.7-6.952-3.7zm.44-3.366v-3.652h-2.29v3.652h-7.04v1.826h17.91v-1.826zm17.666-5.236h4.422v-1.87h-11.132v1.87h4.422v1.892a9.715 9.715 0 0 1-5.126 8.536l1.3 1.8a10.247 10.247 0 0 0 4.994-6.248 9.737 9.737 0 0 0 5.016 5.742l1.254-1.782a8.963 8.963 0 0 1-5.148-8.052zm6.732-3.85v19.866h2.288v-19.866zm21.56 5.28H216.04V134.2h-2.266v6.732h13.574zm-7 12.782c-2.9 0-4.532-.682-4.532-1.892 0-1.254 1.628-1.892 4.532-1.892s4.554.638 4.554 1.892c.004 1.21-1.646 1.892-4.55 1.892zm0-5.566c-4.246 0-6.842 1.342-6.842 3.674 0 2.31 2.6 3.652 6.842 3.652 4.268 0 6.842-1.342 6.842-3.652.004-2.332-2.57-3.674-6.838-3.674zm-8.932-3.388v1.848h17.974v-1.848zm23.784 13.442l1.584-.7a21.5 21.5 0 0 1 0-21.12l-1.584-.682a21.074 21.074 0 0 0 0 22.506zm6.622-11l.66-2.178c.528-1.76 1.034-3.542 1.5-5.39h.088c.506 1.826.99 3.63 1.54 5.39l.638 2.178zm6.4 6.622h2.706l-5.368-16.192h-2.948L237.248 152h2.6l1.386-4.62h5.632zm4.29 0h2.552v-16.192h-2.552zm6.71 4.378a20.954 20.954 0 0 0 0-22.506l-1.584.682a21.5 21.5 0 0 1 0 21.12zm26.554-22.572h-2.288v11.352h2.288zm-8.14 7.7h-4.994v-4.642h4.994zm2.2-6.446h-9.416v8.25h9.416zm6.314 13.068v-1.738h-5.7v-1.782h-2.31v1.782h-5.7v1.738h5.7c-.176 1.694-2.75 3.432-6.468 3.806l.748 1.716c3.168-.374 5.676-1.628 6.886-3.366 1.21 1.716 3.674 2.992 6.82 3.366l.748-1.716c-3.674-.4-6.226-2.178-6.4-3.806zm14.3-12.65h-2.266v3.256c0 3.674-1.936 7.436-5.038 8.954l1.386 1.826a10.266 10.266 0 0 0 4.8-6.226 9.9 9.9 0 0 0 4.576 5.852l1.386-1.8c-2.992-1.474-4.84-5.06-4.84-8.6zm11.528 6.226h-3.1v-7.876h-2.266v19.866h2.266v-10.12h3.1zm14.63-2.9H317.7v-2.6h8.91zm2.222-4.356h-13.372v6.138h13.376zm2.332 9.328v-1.8h-18v1.8H321v1.65h-5.7v1.716h11.374v1.408h-11.33v4.972h14.124v-1.742h-11.88v-1.628H328.9v-4.73h-5.61v-1.65zm18.084-9.944h-2.266v14.428h2.266zm-13.772 6.292a3.058 3.058 0 1 1 3.058 3.014 2.9 2.9 0 0 1-3.054-3.018zm8.316 0a5.278 5.278 0 1 0-5.258 4.972 4.97 4.97 0 0 0 5.262-4.976zm-5.236 11.352v-4.664h-2.284v6.512h13.552v-1.848zm17.16-8.536h6.138v-1.8h-6.138v-3.718h6.952v-1.87h-9.218v13.53h1.562a47.967 47.967 0 0 0 8.932-.594l-.2-1.826a47.178 47.178 0 0 1-8.03.572zm11.066-9.152v7.3h-3.806v1.87h3.806v10.758h2.288v-19.932zm22.4.022h-2.156v13.46h2.156zm-6.16 11.682h2.134V134.2h-2.134v4h-3.894v1.826h3.894zm-1.72-3.062a30.141 30.141 0 0 1-5.808.66v-7.5h-2.244v9.35h1.3a31.077 31.077 0 0 0 7-.66zm2.244 3.85h-2.266v.616c0 2.332-2.684 4.444-6.556 4.972l.858 1.76c3.1-.462 5.61-1.914 6.842-3.916 1.232 2 3.74 3.454 6.842 3.916l.814-1.76c-3.828-.528-6.534-2.64-6.534-4.972zm12.5 10.1l1.584-.7a21.5 21.5 0 0 1 0-21.12l-1.584-.682a21.074 21.074 0 0 0 0 22.506zm4.18-4.378h2.552v-16.194h-2.552zm10.868.286c2.992 0 5.7-2.31 5.7-6.314 0-4.048-2.706-6.38-5.7-6.38s-5.7 2.332-5.7 6.38c.002 4.002 2.708 6.312 5.7 6.312zm0-2.068c-1.892 0-3.08-1.694-3.08-4.246 0-2.574 1.188-4.29 3.08-4.29 1.914 0 3.1 1.716 3.1 4.29.002 2.55-1.186 4.244-3.1 4.244zM421.3 152h2.552v-14.058h4.774v-2.134h-12.078v2.134h4.752zm10.032 4.378a20.954 20.954 0 0 0 0-22.506l-1.584.682a21.5 21.5 0 0 1 0 21.12zm6.4.022a5.158 5.158 0 0 0 3.608-4.95c0-1.694-.726-2.728-1.958-2.728a1.644 1.644 0 0 0-1.76 1.628 1.587 1.587 0 0 0 1.694 1.628.9.9 0 0 0 .242-.022 3.415 3.415 0 0 1-2.4 3.014zm17.116-18.722h4.422v-1.87h-11.13v1.87h4.422v1.892a9.715 9.715 0 0 1-5.126 8.536l1.3 1.8a10.247 10.247 0 0 0 4.994-6.248 9.737 9.737 0 0 0 5.016 5.742l1.254-1.778a8.963 8.963 0 0 1-5.148-8.052zm6.732-3.85v19.866h2.288v-19.866zm21.56 5.28h-11.306V134.2h-2.266v6.732h13.574zm-7 12.782c-2.9 0-4.532-.682-4.532-1.892 0-1.254 1.628-1.892 4.532-1.892s4.554.638 4.554 1.892c.006 1.21-1.644 1.892-4.548 1.892zm0-5.566c-4.246 0-6.842 1.342-6.842 3.674 0 2.31 2.6 3.652 6.842 3.652 4.268 0 6.842-1.342 6.842-3.652.006-2.332-2.568-3.674-6.836-3.674zm-8.932-3.388v1.848h17.974v-1.848zm33.88 3.652h2.266v-12.76h-2.266v4.572H498.1v1.848h2.992v2.09h-3.036v1.826h3.036zm-3.118-10.758h-4.29v-2.178h-2.266v2.178h-4.466v1.8h11.022zm-7.876 6.38c0-1.21.99-1.98 2.464-1.98 1.452 0 2.442.77 2.442 1.98 0 1.254-.99 2-2.442 2-1.474.002-2.464-.746-2.464-2zm7.018 0c0-2.2-1.87-3.7-4.554-3.7-2.706 0-4.576 1.5-4.576 3.7 0 2.222 1.87 3.718 4.576 3.718 2.684 0 4.554-1.496 4.554-3.718zm-.33 9.746c-2.728 0-4.334-.594-4.334-1.716s1.606-1.694 4.334-1.694c2.684 0 4.29.572 4.29 1.694s-1.606 1.716-4.29 1.716zm0-5.148c-4.158 0-6.71 1.276-6.71 3.432 0 2.178 2.552 3.454 6.71 3.454 4.114 0 6.688-1.276 6.688-3.454 0-2.156-2.57-3.432-6.688-3.432zm24.882-7.986v1.848h3.52v4.994h2.266v-11.836h-2.266v4.994zm1.144 4.422a6.516 6.516 0 0 1-4.664-5.984V137h4.136v-1.83h-10.626V137h4.2v.286a6.976 6.976 0 0 1-4.862 6.468l1.166 1.8a8.222 8.222 0 0 0 4.906-4.774 7.761 7.761 0 0 0 4.62 4.246zm-1.958 8.712c-2.838 0-4.444-.7-4.444-2s1.606-2 4.444-2c2.794 0 4.422.7 4.422 2s-1.628 2-4.422 2zm0-5.764c-4.158 0-6.71 1.408-6.71 3.762 0 2.376 2.552 3.762 6.71 3.762 4.136 0 6.688-1.386 6.688-3.762 0-2.354-2.552-3.762-6.688-3.762zm14.1-5.874h9.416v3.256h-9.416zm5.83 9.086v-4h5.83v-10.256h-2.244v3.344h-9.416v-3.344h-2.244V145.4h5.808v4h-7.832v1.87h18v-1.87zm18.524 2.6c-2.992 0-4.554-.484-4.554-1.54 0-1.012 1.562-1.518 4.554-1.518 3.014 0 4.576.506 4.576 1.518.002 1.052-1.56 1.536-4.574 1.536zm0-4.73c-4.312 0-6.842 1.1-6.842 3.19 0 2.112 2.53 3.234 6.842 3.234 4.334 0 6.842-1.122 6.842-3.234.002-2.094-2.506-3.194-6.84-3.194zm1.166-3.058v-1.628h5.83v-1.738h-11.4v-1.54h10.78v-1.694H554.9v-1.5h11.27v-1.738h-13.53v8.206h5.544v1.628h-7.854v1.826h17.97v-1.826zm25.96-10.362h-2.266v14.52h2.266zm-4.334 9.592a6.9 6.9 0 0 1-4.8-6.534v-1.98h-2.31v1.98a7.3 7.3 0 0 1-4.862 6.886l1.166 1.826a8.516 8.516 0 0 0 4.884-4.906 8.061 8.061 0 0 0 4.752 4.532zm-6.358 8.03v-4.466h-2.288v6.314H587v-1.848zm18.106 4.906l1.584-.7a21.5 21.5 0 0 1 0-21.12l-1.584-.682a21.074 21.074 0 0 0 0 22.506zm4.18-4.378h2.552v-16.196h-2.552zm12.562.286a6.394 6.394 0 0 0 5.038-2.332l-1.364-1.606a4.718 4.718 0 0 1-3.586 1.716c-2.86 0-4.664-2.354-4.664-6.2 0-3.806 1.936-6.138 4.73-6.138a4.307 4.307 0 0 1 3.168 1.452l1.386-1.628a6.24 6.24 0 0 0-4.6-2.046c-4.092 0-7.3 3.168-7.3 8.448 0 5.294 3.124 8.33 7.194 8.33zm10.254-.29h2.552v-14.058h4.774v-2.134h-12.078v2.134h4.752zm10.032 4.378a20.954 20.954 0 0 0 0-22.506l-1.584.682a21.5 21.5 0 0 1 0 21.12zM10.1 177.962c2.948 0 4.73.7 4.73 2 0 1.276-1.782 2-4.73 2s-4.752-.726-4.752-2c-.002-1.296 1.802-2 4.752-2zm0 5.742c4.334 0 7.084-1.408 7.084-3.74 0-2.354-2.75-3.762-7.084-3.762-4.356 0-7.084 1.408-7.084 3.762-.002 2.336 2.726 3.736 7.084 3.736zm2.464 5.016a17.243 17.243 0 0 0-2.508-.176 16.143 16.143 0 0 0-2.4.176v-1.936h4.906zm-2.508 5.236c-2.9 0-4.532-.616-4.532-1.826 0-1.188 1.628-1.826 4.532-1.826s4.554.638 4.554 1.826c-.002 1.21-1.652 1.826-4.556 1.826zm9.02-7.172v-1.826H1.1v1.826h4.312v2.53a3.123 3.123 0 0 0-2.2 2.816c0 2.288 2.574 3.586 6.842 3.586 4.29 0 6.842-1.3 6.842-3.586a3.035 3.035 0 0 0-2.09-2.772v-2.574zm13.484-9.064h-4.73v-2.068h-2.266v2.068h-4.73v1.826H32.56zm-8.514 6.05c0-1.122 1.056-1.8 2.64-1.8s2.662.682 2.662 1.8c0 1.144-1.078 1.826-2.662 1.826s-2.64-.682-2.64-1.826zm7.458 0c0-2.09-1.936-3.5-4.818-3.5-2.86 0-4.818 1.408-4.818 3.5 0 2.112 1.958 3.52 4.818 3.52 2.882 0 4.814-1.408 4.814-3.52zm2.574 9.878h-8.206v-1.826h8.206zm0-3.586h-8.206v-1.826h-2.244v7.216h12.694v-7.216h-2.244zm5.06-9.284h-2.816v-4.95h-2.266v11.594h2.266v-4.774h2.816zm12.962-3.344h-2.292v3.278c0 3.718-1.936 7.546-5.038 9.064l1.43 1.8a10.27 10.27 0 0 0 4.774-6.292 9.793 9.793 0 0 0 4.708 5.962l1.342-1.826c-3.036-1.408-4.928-5.016-4.928-8.712zm7.018-1.65v6.534h-4.25v1.848h4.246v11.55H61.4v-19.932zm19.536.022v19.932h2.288v-19.932zm-13 1.65v13.552H75.2v-13.552h-2.27v5.06h-5.038v-5.06zm2.244 6.864h5.032v4.862h-5.038zm33.616 1.21c-3.916-.7-7.106-3.762-7.106-6.93v-1.5H92v1.5c0 3.146-3.19 6.2-7.106 6.93l.968 1.87a10.4 10.4 0 0 0 7.326-5.456 10.4 10.4 0 0 0 7.326 5.456zm-17.226 5.742v1.87h18v-1.87zm40-9.636H112.86v-3.3h11.286v-1.826h-13.53v6.952h13.662zm-6.974 12.3c-2.9 0-4.532-.638-4.532-1.87 0-1.21 1.628-1.87 4.532-1.87s4.554.66 4.554 1.87c-.01 1.234-1.66 1.868-4.568 1.868zm0-5.478c-4.246 0-6.842 1.32-6.842 3.608 0 2.31 2.6 3.63 6.842 3.63 4.268 0 6.842-1.32 6.842-3.63-.01-2.29-2.584-3.61-6.856-3.61zm-8.91-3.344v1.87h17.952v-1.87zm25.938 2.574l3.19-4.884c.462-.836.9-1.672 1.3-2.486h.088c-.044.88-.132 2.244-.132 3.124v4.246zm8.888 0h-2.068v-9.878h-2.926l-6.456 10.14v1.694h7V194h2.376v-4.356h2.068zm1.958-9.35v1.848h5.566c-.308 4-2.112 7.26-6.4 9.746l1.32 1.606c5.588-3.212 7.326-7.9 7.326-13.2zm14.014-2.508v7.766h-2.266v-7.238h-2.134v18.412h2.134v-9.328h2.266v10.252h2.156v-19.866zm22.748 6.886h-8.85v-2.222h8.844zm2.244-6.27h-2.254v2.31h-8.84v-2.31h-2.244v8.054h13.332zm-11.2 13.442h-2.274v5.434h13.816v-1.848h-11.55zm-4.466-3.718v1.826h8.052v3.542h2.266v-3.542h7.7v-1.826zm24.992 3.1c-1.738 0-2.926-1.87-2.926-4.994 0-3.08 1.188-4.95 2.926-4.95 1.716 0 2.926 1.87 2.926 4.95-.008 3.124-1.218 4.994-2.934 4.994zm0-11.99c-2.97 0-5.1 2.728-5.1 7 0 4.312 2.134 7.018 5.1 7.018s5.1-2.706 5.1-7.018c-.004-4.272-2.138-7-5.108-7zm13.09 5.258v-1.87h-3v-4.84h-2.266v19.888h2.266v-7.3h2.99v-1.87h-2.99v-4zm15.488-2.288v1.87h-4.114v-1.87zm-6.336 3.388h-4.686v-2.6h4.686zm2.222.242h4.114v2.244h2.288v-10.3h-2.296v2.684h-4.114v-1.8h-2.222v2.6h-4.686v-2.6h-2.244v8.734h9.152zm-4.268 9.79v-1.694h10.67V187h-12.944v1.782h10.692v1.518h-10.67v5.148h13.574v-1.778zm24-2.178V188.1h6.2v-1.826h-11.9v-2.772h11.462v-6.292h-13.732v1.826h11.484v2.664h-11.44v6.4h5.654v3.388h-7.832v1.87h18v-1.87zm25.63-6.688a6.6 6.6 0 0 1-4.664-6.16v-1.8h-2.288v1.87a6.951 6.951 0 0 1-4.862 6.622l1.21 1.782a8.034 8.034 0 0 0 4.862-4.774 7.787 7.787 0 0 0 4.554 4.224zm-6.578 5.236h8.228v3.608h-8.228zm-2.244 5.412h12.694v-7.216h-12.7zm15.51-14.872h-2.816v-4.752h-2.266v11.55h2.266v-4.928h2.816zm15.554 6.952h2.266v-11.726h-2.266v3.982h-4.026v1.848h4.026zm-2.4-2.574a6.461 6.461 0 0 1-4.664-6.226v-1.848h-2.288v1.958a6.952 6.952 0 0 1-4.928 6.666l1.188 1.826a8.215 8.215 0 0 0 4.95-4.8 7.712 7.712 0 0 0 4.532 4.2zm-1.958 8.954c-2.816 0-4.422-.726-4.422-2.024s1.606-2.024 4.422-2.024 4.444.726 4.444 2.024-1.632 2.024-4.448 2.024zm0-5.83c-4.136 0-6.688 1.408-6.688 3.806s2.552 3.806 6.688 3.806c4.158 0 6.71-1.408 6.71-3.806s-2.556-3.806-6.714-3.806zm20.438-6.93v1.87h3.608v7.348h2.266v-14.52h-2.266v5.3zm1.232 4.642a6.532 6.532 0 0 1-4.664-5.962v-.682h4.136v-1.826h-10.63v1.826h4.2v.682a6.914 6.914 0 0 1-4.884 6.38l1.166 1.782a8.12 8.12 0 0 0 4.906-4.708 7.644 7.644 0 0 0 4.642 4.268zm-5.962 7.678v-4.356h-2.266v6.2h13.376v-1.848zm20.79-13.794h4.2v-1.87h-10.8v1.87h4.334v1.914a9.866 9.866 0 0 1-5.06 8.514l1.3 1.8a10.352 10.352 0 0 0 4.928-6.27 10.035 10.035 0 0 0 4.818 5.764l1.254-1.782a9.308 9.308 0 0 1-4.972-8.03zm11.528 3.982h-3.1v-7.832h-2.266v19.866h2.266V185.53h3.1zm1.826 14.74a5.158 5.158 0 0 0 3.608-4.95c0-1.694-.726-2.728-1.958-2.728a1.644 1.644 0 0 0-1.76 1.628 1.587 1.587 0 0 0 1.694 1.628.9.9 0 0 0 .242-.022 3.415 3.415 0 0 1-2.4 3.014zm10.8-4.4h9.394v-2.156h-6.842v-14.036h-2.554zm17.578.286a7.274 7.274 0 0 0 5.126-1.892v-7.018h-5.522v2.09h3.212v3.806a4.016 4.016 0 0 1-2.552.792c-3.344 0-5.126-2.354-5.126-6.2 0-3.806 2-6.138 5.016-6.138a4.38 4.38 0 0 1 3.344 1.452l1.386-1.628a6.46 6.46 0 0 0-4.818-2.046c-4.29 0-7.546 3.168-7.546 8.448-.002 5.298 3.144 8.334 7.478 8.334zm17.84-13.134v1.87h3.608v7.348h2.266v-14.52h-2.266v5.3zm1.232 4.642a6.532 6.532 0 0 1-4.664-5.962v-.682H378v-1.826h-10.622v1.826h4.2v.682a6.914 6.914 0 0 1-4.884 6.38l1.166 1.782a8.12 8.12 0 0 0 4.906-4.708 7.644 7.644 0 0 0 4.642 4.268zm-5.962 7.678v-4.356h-2.27v6.2h13.38v-1.848zm20.79-13.794h4.2v-1.87h-10.8v1.87h4.334v1.914a9.866 9.866 0 0 1-5.06 8.514l1.3 1.8a10.352 10.352 0 0 0 4.928-6.27 10.035 10.035 0 0 0 4.818 5.764l1.254-1.782a9.308 9.308 0 0 1-4.972-8.03zm11.528 3.982h-3.1v-7.832h-2.268v19.866h2.266V185.53h3.1zm1.826 14.74a5.158 5.158 0 0 0 3.608-4.95c0-1.694-.726-2.728-1.958-2.728a1.644 1.644 0 0 0-1.76 1.628 1.587 1.587 0 0 0 1.694 1.628.9.9 0 0 0 .242-.022 3.415 3.415 0 0 1-2.4 3.014zm15.422-4.114c3.542 0 5.7-2.112 5.7-4.708 0-2.376-1.386-3.564-3.3-4.378l-2.222-.946c-1.32-.528-2.618-1.056-2.618-2.442 0-1.3 1.078-2.09 2.728-2.09a5.157 5.157 0 0 1 3.564 1.452l1.342-1.628a6.936 6.936 0 0 0-4.906-2.046c-3.08 0-5.324 1.914-5.324 4.466 0 2.354 1.738 3.586 3.3 4.246l2.244.968c1.5.66 2.6 1.122 2.6 2.6 0 1.364-1.1 2.288-3.058 2.288a6.278 6.278 0 0 1-4.312-1.914l-1.5 1.76a8.078 8.078 0 0 0 5.762 2.372zm8.206-.286h2.552v-4.884l2.486-3.036 4.576 7.92h2.838l-5.852-9.944 5.016-6.248h-2.838l-6.16 7.656h-.066v-7.656h-2.552zm29.832-18.15h-2.156v10.626h2.156zm-5.984 10.45h2.11v-10.12h-2.11v3.982h-2.354v1.8h2.354zm-1.672-2.706a33.964 33.964 0 0 1-6.16.484v-1.892h4.6v-1.694h-4.6v-1.738h5.324v-1.782H444.2v8.866h1.3a39.072 39.072 0 0 0 7.238-.506zm-3.318 10.164v-1.606h10.978v-4.862h-13.27v1.76h11.044v1.45h-11v5.016H460.9v-1.76zm16.654-8.624h4.84v-7.216h-7.062v1.826h4.884v3.564h-4.84v7.612h1.364a41.041 41.041 0 0 0 7.392-.528l-.2-1.87a38.753 38.753 0 0 1-6.38.528zm7.964-2.354h-2.248v1.87h2.244v10.05h2.112v-18.432h-2.112zm4.026-6.952v19.866H480v-19.866zm6.49 4.334l.308 1.87 11.528-.528a24.743 24.743 0 0 1-.352 2.53l2.288.154a30.889 30.889 0 0 0 .484-6.182v-1.584h-13.75v1.8h11.46c0 .506 0 1.056-.022 1.606zm2.816 10.406h9.086v3.08h-9.086zm-2.244 4.884h13.552v-6.688H484.9zm7.15-10.23v-2.376h-2.266v2.376h-7.018v1.826h17.908v-1.826zm11 13.178a5.158 5.158 0 0 0 3.608-4.95c0-1.694-.726-2.728-1.958-2.728a1.644 1.644 0 0 0-1.76 1.628 1.587 1.587 0 0 0 1.694 1.628.9.9 0 0 0 .242-.022 3.415 3.415 0 0 1-2.4 3.014zm10.8-4.4h2.552v-4.884l2.486-3.036 4.576 7.92h2.838l-5.852-9.944 5.016-6.248h-2.838l-6.16 7.656h-.066v-7.656h-2.552zm16.83 0h2.552v-14.058h4.774v-2.134h-12.08v2.134h4.752zm28.864-12.364h-11.42v-3.3h11.286v-1.826h-13.53v6.952h13.662zm-6.974 12.3c-2.9 0-4.532-.638-4.532-1.87 0-1.21 1.628-1.87 4.532-1.87s4.554.66 4.554 1.87c-.002 1.234-1.652 1.868-4.556 1.868zm0-5.478c-4.246 0-6.842 1.32-6.842 3.608 0 2.31 2.6 3.63 6.842 3.63 4.268 0 6.842-1.32 6.842-3.63-.002-2.29-2.576-3.61-6.844-3.61zm-8.91-3.344v1.87h17.952v-1.87zm26.95-5.082h5.126v-1.848h-7.348v12.782h1.32a35.838 35.838 0 0 0 7.238-.55l-.2-1.87a30.488 30.488 0 0 1-6.138.55zm11.9-4.224v7.854h-2.354v-7.436h-2.134V194.7h2.134v-9.2h2.354v10.164h2.156v-19.858zm6.028 2.112v1.848h7.084c-.4 4.576-2.86 8.074-8.074 10.582l1.21 1.8c6.82-3.3 9.2-8.316 9.2-14.234zm13-2.09v19.866h2.266v-19.868zm19.778 17.8H612.9v-2.2h8.426zm0-3.96H612.9v-2.244h-2.244v8.03h12.914v-8.03h-2.244zm-8.756-5.522a2.777 2.777 0 0 1-3.014-2.794 3.013 3.013 0 0 1 6.006 0 2.782 2.782 0 0 1-2.99 2.79zm8.734-8.316v4.568h-3.674c-.44-2.222-2.442-3.7-5.06-3.7-2.992 0-5.192 1.914-5.192 4.642 0 2.75 2.2 4.664 5.192 4.664 2.64 0 4.664-1.518 5.06-3.762h3.674v4.224h2.266v-10.64zm14.476 2c3.08 0 4.73.594 4.73 1.738 0 1.122-1.65 1.716-4.73 1.716s-4.73-.594-4.73-1.716c.002-1.146 1.654-1.74 4.732-1.74zm0 5.148c4.444 0 7.084-1.21 7.084-3.41 0-2.222-2.64-3.432-7.084-3.432-4.466 0-7.084 1.21-7.084 3.432.002 2.198 2.62 3.408 7.086 3.408zm-4.576 9.15h11.31v-4.752h-13.6v1.716h11.374v1.43h-11.33v4.994h14.124v-1.738H631.2zm-4.422-7.986v1.8h18v-1.8zM15.18 217.806v19.932h2.288v-19.932zm-13 1.65v13.552h9.548v-13.552H9.46v5.06H4.422v-5.06zm2.244 6.864H9.46v4.862H4.422zm26.554 4.84h-2.334v.352c0 2.178-2.508 3.96-6.49 4.4l.77 1.716c3.168-.4 5.676-1.628 6.886-3.476 1.21 1.848 3.718 3.08 6.886 3.476l.77-1.716c-3.982-.44-6.49-2.222-6.49-4.4zm-.044-2.75v-1.716h6.006v-1.738H25.322v-1.628h11.22v-4.95H23.056v1.738H34.3v1.584H23.1v4.994h5.566v1.716H20.79v1.8h18.018v-1.8zm14.41 2.948c-1.342 0-2.288-1.078-2.288-2.728s.946-2.75 2.288-2.75 2.288 1.1 2.288 2.75-.948 2.728-2.29 2.728zm0-7.348a4.631 4.631 0 1 0 4.312 4.62 4.281 4.281 0 0 0-4.314-4.62zm1.122-5.61H44.22v2.662h-3.762v1.826h9.724v-1.826h-3.718zm8.8-.572v8.228h-2.114v-7.81H51.04v18.524h2.112v-8.844h2.112v9.768h2.156v-19.866zm18.282 2.552c2.838 0 4.708.968 4.708 2.552 0 1.606-1.87 2.574-4.708 2.574-2.86 0-4.73-.968-4.73-2.574-.002-1.584 1.868-2.552 4.728-2.552zm0 6.952c4.18 0 7.04-1.716 7.04-4.4 0-2.662-2.86-4.378-7.04-4.378-4.2 0-7.062 1.716-7.062 4.378-.002 2.684 2.858 4.4 7.06 4.4zm9.042 1.694H64.57v1.87h4.4v6.8h2.31v-6.8h4.532v6.8h2.31v-6.8h4.488zm9.46-2.838h-4.84v-5.082h4.84zm2.22-6.888h-9.306v8.69h9.306zm-.88 16.61c-2.772 0-4.378-.7-4.378-2 0-1.32 1.606-2.024 4.378-2.024s4.378.7 4.378 2.024c0 1.298-1.606 2.002-4.378 2.002zm0-5.83c-4.07 0-6.622 1.43-6.622 3.828 0 2.376 2.552 3.806 6.622 3.806 4.092 0 6.622-1.43 6.622-3.806 0-2.396-2.53-3.826-6.622-3.826zm6.4-7.524v-4.73h-2.264v11.638h2.266v-5.038h2.816v-1.87zm10.274 3.432c3.476-.374 6.2-1.8 7.282-3.85 1.056 2.046 3.784 3.476 7.282 3.85l.792-1.782c-3.674-.374-6.226-1.914-6.534-3.7h5.814v-1.826h-14.678v1.826h5.764c-.308 1.782-2.86 3.322-6.534 3.7zm11.792 8.184c0 1.144-1.65 1.782-4.554 1.782s-4.532-.638-4.532-1.782c0-1.188 1.628-1.8 4.532-1.8s4.556.614 4.556 1.802zm4.466-5.368V227H108.35v1.8h7.85v1.826c-3.608.22-5.742 1.474-5.742 3.542 0 2.244 2.574 3.52 6.842 3.52 4.29 0 6.842-1.276 6.842-3.52 0-2.068-2.09-3.3-5.676-3.52V228.8zm18.964-1.584c-3.916-.66-7.106-3.608-7.106-6.688v-1.5h-2.4v1.5c0 3.058-3.19 6.028-7.128 6.688l.968 1.892a10.471 10.471 0 0 0 7.37-5.258 10.3 10.3 0 0 0 7.348 5.258zm-7.194 6.138v-4.642h-2.266v4.642h-7.766v1.87h18v-1.87zm10.78-13.442v1.848h7.084c-.4 4.576-2.86 8.074-8.074 10.582l1.21 1.8c6.82-3.3 9.2-8.316 9.2-14.234zm13-2.09v19.866h2.266v-19.864zm19.778 17.8h-8.426v-2.2h8.426zm0-3.96h-8.426v-2.244h-2.244v8.03h12.92v-8.03h-2.244zm-8.756-5.522a2.777 2.777 0 0 1-3.014-2.794 3.013 3.013 0 0 1 6.006 0 2.782 2.782 0 0 1-2.986 2.794zm8.734-8.316v4.572h-3.674c-.44-2.222-2.442-3.7-5.06-3.7-2.992 0-5.192 1.914-5.192 4.642 0 2.75 2.2 4.664 5.192 4.664 2.64 0 4.664-1.518 5.06-3.762h3.674v4.224h2.272v-10.64zm26.268-.022h-2.288v11.352h2.292zm-8.14 7.7h-4.994v-4.642h4.994zm2.2-6.446h-9.416v8.25h9.416zm6.314 13.068v-1.738h-5.7v-1.782h-2.31v1.782h-5.7v1.738h5.7c-.176 1.694-2.75 3.432-6.468 3.806l.748 1.716c3.168-.374 5.676-1.628 6.886-3.366 1.21 1.716 3.674 2.992 6.82 3.366l.748-1.716c-3.674-.4-6.226-2.178-6.4-3.806zm8.47-12.21v1.848h7.084c-.4 4.576-2.86 8.074-8.074 10.582l1.21 1.8c6.82-3.3 9.2-8.316 9.2-14.234zm13-2.09v19.866h2.266v-19.866zm16.06 8.514a29.661 29.661 0 0 0 .484-5.874v-1.144H236.3v1.848h7.766a28.254 28.254 0 0 1-.484 4.928zm1.65.99a55.775 55.775 0 0 1-6.16.528v-4h-2.244v4.07c-1.408.044-2.772.044-3.96.044l.242 1.848a74.416 74.416 0 0 0 12.276-.836zm-7.084 4.092h-2.288v5.9h13.508v-1.848h-11.22zm10.582-7.3v-6.292h-2.288v14.916h2.288v-6.758h2.64v-1.87zm13.222 12.166c2.97 0 5.412-1.716 5.412-4.642a4.1 4.1 0 0 0-3.344-4.048v-.11a3.914 3.914 0 0 0 2.794-3.806c0-2.684-2.046-4.18-4.95-4.18a6.824 6.824 0 0 0-4.642 1.958l1.32 1.584A4.742 4.742 0 0 1 264 221.5a2.266 2.266 0 0 1 2.486 2.354c0 1.628-1.056 2.838-4.246 2.838v1.87c3.652 0 4.8 1.166 4.8 2.97 0 1.672-1.254 2.684-3.08 2.684a5.233 5.233 0 0 1-3.828-1.782l-1.232 1.628a6.721 6.721 0 0 0 5.276 2.224zm12.364 0c3.168 0 5.236-2.816 5.236-8.448 0-5.588-2.068-8.338-5.236-8.338-3.19 0-5.236 2.728-5.236 8.338.002 5.628 2.052 8.444 5.242 8.444zm0-2c-1.65 0-2.816-1.76-2.816-6.446 0-4.642 1.166-6.336 2.816-6.336s2.816 1.694 2.816 6.336c.006 4.68-1.16 6.44-2.81 6.44zm11.616 2a5.342 5.342 0 0 0 5.456-5.61c0-3.542-2.222-5.148-4.928-5.148a4.565 4.565 0 0 0-2.222.572l.374-4.158h6.006v-2.134h-8.206l-.484 7.678 1.232.814a4.26 4.26 0 0 1 2.6-.924c1.848 0 3.08 1.232 3.08 3.388a3.164 3.164 0 0 1-3.212 3.454 5.181 5.181 0 0 1-3.784-1.738l-1.21 1.65a7.166 7.166 0 0 0 5.304 2.152zm7.942-15.95v1.848h5.566c-.308 4-2.112 7.26-6.4 9.746l1.32 1.606c5.588-3.212 7.326-7.9 7.326-13.2zm14.014-2.508v7.766h-2.266v-7.238h-2.134v18.41h2.134v-9.328h2.266v10.252h2.156v-19.866zm11.9 1.65h-2.266v3.256c0 3.674-1.936 7.436-5.038 8.954l1.386 1.826a10.266 10.266 0 0 0 4.8-6.226 9.9 9.9 0 0 0 4.576 5.852l1.386-1.8c-2.992-1.474-4.84-5.06-4.84-8.6zm11.528 6.226h-3.1v-7.876h-2.266v19.866h2.266v-10.12h3.1zm2.178-5.786v1.848h6.952c-.462 4.576-3.08 8.074-7.942 10.56l1.254 1.738c6.49-3.278 8.954-8.382 8.954-14.146zm17.424 5.742h-3.006v-7.854h-2.266v19.866h2.266v-10.12h3.014zm17.424 1.474c-3.014-.836-4.73-2.97-4.73-5.214v-.11h4.18v-1.8h-4.15v-2.274h-2.288v2.266h-4.18v1.8h4.18v.11c0 2.42-1.738 4.664-4.8 5.566l1.078 1.782a7.833 7.833 0 0 0 4.906-4.136 7.431 7.431 0 0 0 4.774 3.784zm-6.666 5.082h8.228v3.432H363.9zm-2.244 5.236h12.694v-7.04h-12.686zm15.51-14.762h-2.816v-4.862h-2.266v11.7h2.266v-4.972h2.816zm2.332-2.772v1.848h6.952c-.462 4.576-3.08 8.074-7.942 10.56l1.254 1.738c6.49-3.278 8.954-8.382 8.954-14.146zm17.424 5.742h-3.006v-7.854h-2.266v19.866h2.266v-10.12h3.014zm13.046-5.566h-4.73v-2.288h-2.266v2.288h-4.73v1.8h11.734zm-8.514 6.49c0-1.254 1.078-2 2.64-2 1.584 0 2.662.748 2.662 2s-1.078 2-2.662 2c-1.554-.002-2.632-.75-2.632-2.004zm7.458 0c0-2.244-1.958-3.762-4.818-3.762-2.838 0-4.818 1.518-4.818 3.762 0 2.266 1.98 3.762 4.818 3.762 2.868-.004 4.826-1.5 4.826-3.766zm-5.478 4.994h-2.288v5.742h13.376v-1.848h-11.08zm10.3-7.414v-6.336h-2.266v14.894h2.266v-6.688h2.816v-1.87zm7.238-2.618h6.974v-1.85h-9.24v13.134h1.628a49.031 49.031 0 0 0 9.284-.66l-.242-1.87a47.965 47.965 0 0 1-8.4.638zm15.422 3.916h-3.1v-7.656h-2.266v19.91h2.266v-10.388h3.1zm3.366 10.824a1.684 1.684 0 0 0 1.694-1.76 1.7 1.7 0 1 0-3.388 0 1.684 1.684 0 0 0 1.698 1.756z" class="cls-15" transform="translate(463 2291)"/>
    </g>
</svg>
