<svg xmlns="http://www.w3.org/2000/svg" width="39" height="60" viewBox="0 0 39 60">
    <defs>
        <filter id="8gn47ucioa" color-interpolation-filters="auto">
            <feColorMatrix in="SourceGraphic" values="0 0 0 0 1.000000 0 0 0 0 1.000000 0 0 0 0 1.000000 0 0 0 1.000000 0"/>
        </filter>
    </defs>
    <g fill="none" fill-rule="evenodd">
        <g filter="url(#8gn47ucioa)" transform="translate(-141.000000, -307.000000)">
            <g fill="#58595B">
                <path d="M8.667 12.857c0-5.908 4.86-10.714 10.833-10.714 5.974 0 10.833 4.806 10.833 10.714V30c0 5.908-4.86 10.714-10.833 10.714S8.667 35.908 8.667 30V12.857zm10.833 30c7.18 0 13-5.756 13-12.857V12.857C32.5 5.757 26.68 0 19.5 0s-13 5.756-13 12.857V30c0 7.1 5.82 12.857 13 12.857z" transform="translate(141.000000, 307.000000)"/>
                <path d="M36.833 21.429H35.75c-.598 0-1.083.48-1.083 1.071 0 .592.485 1.071 1.083 1.071h1.083v6.169c0 9.407-7.553 17.257-17.064 17.4-9.68.147-17.602-7.599-17.602-17.14v-6.429H3.25c.598 0 1.083-.48 1.083-1.071 0-.592-.485-1.071-1.083-1.071H0V30c0 10.292 8.151 18.698 18.417 19.255v8.602H7.583c-.598 0-1.083.48-1.083 1.072C6.5 59.52 6.985 60 7.583 60h23.834c.598 0 1.083-.48 1.083-1.071 0-.592-.485-1.072-1.083-1.072H20.583v-8.602C30.85 48.698 39 40.292 39 30v-8.571h-2.167zM14.083 16.071h10.834c.598 0 1.083-.48 1.083-1.071 0-.592-.485-1.071-1.083-1.071H14.083c-.598 0-1.083.48-1.083 1.071 0 .592.485 1.071 1.083 1.071M14.083 20.357h10.834c.598 0 1.083-.48 1.083-1.071 0-.592-.485-1.072-1.083-1.072H14.083c-.598 0-1.083.48-1.083 1.072 0 .591.485 1.071 1.083 1.071" transform="translate(141.000000, 307.000000)"/>
                <path d="M14.083 24.643h10.834c.598 0 1.083-.48 1.083-1.072 0-.591-.485-1.071-1.083-1.071H14.083c-.598 0-1.083.48-1.083 1.071 0 .592.485 1.072 1.083 1.072M14.083 28.929h10.834c.598 0 1.083-.48 1.083-1.072 0-.592-.485-1.071-1.083-1.071H14.083c-.598 0-1.083.48-1.083 1.071 0 .592.485 1.072 1.083 1.072" transform="translate(141.000000, 307.000000)"/>
            </g>
        </g>
    </g>
</svg>
