<svg xmlns="http://www.w3.org/2000/svg" width="164" height="288" viewBox="0 0 164 288">
    <g fill="none" fill-rule="evenodd" opacity=".4">
        <g>
            <g>
                <path fill="#E3847C" d="M36.04 27.336L41.75 24.857 42.795 32.577 38.597 34.612zM70.793 23.156L64.63 22.275 65.666 29.997 70.254 30.848z" transform="translate(-187.000000, -95.000000) translate(187.385941, 95.004471)"/>
                <path fill="#9F9AEE" d="M89.557 73.051s27.283-40.509 24.966-44.996c-2.318-4.487-44.339-7.027-44.339-7.027L68.91 32.515 92.786 37.2l-24.07 15.638 20.84 20.212zM50.246 58.53L21.488 47.003l18.662-10.18-4.414-11.742S2.126 38.738.082 43.443c-2.045 4.705 35.013 39.194 35.013 39.194l14.156-10.525.995-13.582z" transform="translate(-187.000000, -95.000000) translate(187.385941, 95.004471)"/>
                <path fill="#EFEFEF" d="M110.594 125.867c7.538 15.75 1.188 25.172 6.114 57.126 4.319 28.015 10.233 27.011 12.803 67.095l-9.569 1.858c-8.387-26.553-6.023-25.43-36.732-127.686 0 0 20.457-12.864 27.384 1.607" transform="translate(-187.000000, -95.000000) translate(187.385941, 95.004471)"/>
                <path fill="#FFF" d="M61.255 145.79c5.399 17.245 16.78 18.812 35.64 45.08 16.535 23.033 11.606 26.451 37.843 56.882l8.135-5.366C128.8 220.294 129.367 220.009 79.69 125.49c0 0-23.227 4.99-18.435 20.3" transform="translate(-187.000000, -95.000000) translate(187.385941, 95.004471)"/>
                <path fill="#E2857E" d="M119.942 251.946l9.57-1.858s.99 7.447 1.503 8.444c.514.996.644 2.125.79 2.604.146.48-.197 3.035-.197 3.035s4.128 9.553 4.458 10.292c.33.737 1.9 5.896 2.046 6.561.214.976.586 2.687-.025 3.026-.668.37-1.24-.434-1.24-.434s.365 1.54-.318 1.88c-.504.25-1.38-.597-1.38-.597s.292 1.512-.447 1.842c-.738.33-1.59-.963-1.59-.963s-.042 1.866-.964 1.937c-.923.071-1.799-1.803-1.799-1.803s-.515 1.648-1.065 1.79c-.68.173-1.723.027-2.46-1.708-.373-.875-1.562-4.335-1.675-6.517-.042-.792.142-5.104-.102-6.783-.273-1.867-1.767-6.4-1.839-7.322-.07-.921-.558-4.587-.558-4.587l-2.708-8.84zM142.873 242.386l-8.135 5.366s4.689 6.038 5.04 7.102c.35 1.065 1.064 1.949 1.304 2.39.24.44 2.302 1.987 2.302 1.987s3.918 9.642 4.214 10.395c.294.752 2.872 5.488 3.245 6.06.545.837 1.505 2.301 2.174 2.104.733-.216.56-1.188.56-1.188s.843 1.34 1.564 1.092c.533-.183.543-1.401.543-1.401s.874 1.268 1.627.974c.753-.295.43-1.809.43-1.809s1.36 1.28 2.057.673c.698-.607-.025-2.546-.025-2.546s1.537.79 2.024.496c.6-.362 1.228-1.208.508-2.95-.363-.879-1.997-4.152-3.474-5.764-.536-.585-3.74-3.479-4.766-4.83-1.14-1.504-3.325-5.748-3.932-6.445-.607-.698-2.88-3.615-2.88-3.615l-4.38-8.091z" transform="translate(-187.000000, -95.000000) translate(187.385941, 95.004471)"/>
                <path fill="#9F9AEE" d="M35.096 82.637l26.916 71.14s32.428-1.029 53.996-22.574c0 0-16.685-25-18.248-29.506-1.562-4.506-8.97-31.42-8.97-31.42S70.199 52.215 68.717 52.838c-1.482.623-18.47 5.691-18.47 5.691l-15.15 24.107z" transform="translate(-187.000000, -95.000000) translate(187.385941, 95.004471)"/>
                <path fill="#D77D79" d="M65.66 57.763s-4.308 5.54-13.407 2.717l-1.75-14.668 11.05-2.239 4.107 14.19z" transform="translate(-187.000000, -95.000000) translate(187.385941, 95.004471)"/>
                <path fill="#293657" d="M42.183 36.573s-2.67-7.94-.798-13.366c2.354-6.823 11.413-11.058 20.21-6.122 6.22 3.49 5.01 16.73 5.01 16.73l-17.514-4.584-6.908 7.342z" transform="translate(-187.000000, -95.000000) translate(187.385941, 95.004471)"/>
                <path fill="#D77D79" d="M44.041 34.836s-1.526-.695-2.393.899c-.868 1.594.642 6.875 3.338 6.48 2.695-.396-.945-7.379-.945-7.379M64.877 31.778s1.262-1.104 2.55.174c1.29 1.278 1.363 6.77-1.333 7.165-2.695.396-1.217-7.339-1.217-7.339" transform="translate(-187.000000, -95.000000) translate(187.385941, 95.004471)"/>
                <path fill="#E3847C" d="M65.108 30.216c-.888-6.043-6.354-9.282-12.38-8.398-6.026.885-10.332 5.558-9.444 11.6 0 0 .659 7.78.714 8.155.844 5.74 8.949 11.994 13.301 11.355 5.026-.737 10.112-10.347 9.472-14.697-.055-.376-1.663-8.015-1.663-8.015" transform="translate(-187.000000, -95.000000) translate(187.385941, 95.004471)"/>
                <path fill="#293657" d="M59.406 7.97c.94 5.184-1.719 9.005-6.435 9.859-4.72.853-7.483-2.143-8.42-7.325C43.61 5.32 45.395.98 50.111.128c4.719-.854 8.355 2.662 9.294 7.843" transform="translate(-187.000000, -95.000000) translate(187.385941, 95.004471)"/>
            </g>
        </g>
    </g>
</svg>
