<svg width="200" height="78" xmlns="http://www.w3.org/2000/svg" xmlns:xlink="http://www.w3.org/1999/xlink">
    <defs>
        <path id="a" d="M0 0h200v78H0z"/>
    </defs>
    <g fill="none" fill-rule="evenodd">
        <mask id="b" fill="#fff">
            <use xlink:href="#a"/>
        </mask>
        <path d="M121.03 2.272a.942.942 0 0 1-.15-1.87A31.314 31.314 0 0 1 126.007 0c.533 0 1.134.04 1.784.117a.94.94 0 0 1 .82 1.045.935.935 0 0 1-1.042.823 13.48 13.48 0 0 0-1.562-.103c-1.695 0-3.272.123-4.823.378a.899.899 0 0 1-.152.012zm-42.66.05a.947.947 0 0 1-.162-.015 29.167 29.167 0 0 0-4.818-.424.94.94 0 0 1-.93-.95c.005-.518.425-.907.946-.932 1.794.015 3.47.163 5.123.452a.94.94 0 0 1-.16 1.868zM63.612 3.864a.942.942 0 0 1-.281-1.838A63.708 63.708 0 0 1 68.236.67a.941.941 0 0 1 .415 1.835c-1.39.317-2.992.76-4.758 1.316a.934.934 0 0 1-.28.043zm73.765.614a.934.934 0 0 1-.299-.049 82.125 82.125 0 0 0-4.738-1.453.94.94 0 0 1 .487-1.817c1.456.393 3.087.893 4.848 1.486a.942.942 0 0 1-.298 1.833zm-25.783.975a.942.942 0 0 1-.395-1.795c1.43-.666 2.97-1.367 4.691-1.97a.941.941 0 0 1 .62 1.776c-1.64.575-3.134 1.255-4.522 1.9a.929.929 0 0 1-.394.089zm-23.806.111a.93.93 0 0 1-.394-.088c-1.478-.687-2.936-1.352-4.521-1.922a.942.942 0 0 1 .632-1.771c1.66.596 3.16 1.28 4.678 1.987a.942.942 0 0 1-.395 1.794zM54.18 7.272a.943.943 0 0 1-.345-1.816 175.843 175.843 0 0 1 4.712-1.797.939.939 0 0 1 1.2.564.942.942 0 0 1-.561 1.205c-1.462.532-3.03 1.13-4.66 1.777a.944.944 0 0 1-.346.067zm92.583.738a.933.933 0 0 1-.352-.069 196.362 196.362 0 0 0-4.645-1.828.942.942 0 0 1 .662-1.761c1.482.56 3.06 1.181 4.688 1.845a.942.942 0 0 1-.353 1.813zm-44.572.704a.94.94 0 0 1-.12-1.873c1.517-.2 2.984-.581 4.617-1.197a.938.938 0 0 1 1.207.55.942.942 0 0 1-.548 1.211c-1.77.668-3.37 1.081-5.032 1.3a.918.918 0 0 1-.124.009zm-4.978.035a.944.944 0 0 1-.111-.007c-1.676-.198-3.282-.593-5.052-1.243a.941.941 0 0 1 .645-1.767c1.629.598 3.099.96 4.626 1.142a.94.94 0 0 1 .822 1.044.94.94 0 0 1-.93.83zm-52.275 2.417a.942.942 0 0 1-.38-1.802 285.86 285.86 0 0 1 4.618-1.997.936.936 0 0 1 1.228.501.943.943 0 0 1-.5 1.233 287.886 287.886 0 0 0-4.588 1.985.93.93 0 0 1-.378.08zm111.038.807a.923.923 0 0 1-.382-.083 320.528 320.528 0 0 0-4.576-2.016.942.942 0 0 1-.492-1.235.937.937 0 0 1 1.232-.494c1.516.653 3.054 1.331 4.602 2.028a.942.942 0 0 1-.384 1.8zM35.83 15.358a.943.943 0 0 1-.403-1.791 375.269 375.269 0 0 1 4.549-2.132.94.94 0 0 1 .783 1.71 381.35 381.35 0 0 0-4.527 2.122.93.93 0 0 1-.402.091zm129.238.859a.929.929 0 0 1-.406-.093 391.397 391.397 0 0 0-4.522-2.149.941.941 0 0 1 .791-1.706c1.517.71 3.035 1.43 4.544 2.16a.942.942 0 0 1-.407 1.788zM26.83 19.787a.943.943 0 0 1-.424-1.78c1.478-.75 2.98-1.501 4.498-2.248a.935.935 0 0 1 1.254.43.941.941 0 0 1-.429 1.26 408.92 408.92 0 0 0-4.476 2.236.931.931 0 0 1-.423.102zm147.215.903a.929.929 0 0 1-.426-.103 394.349 394.349 0 0 0-4.465-2.26.943.943 0 0 1-.423-1.26.936.936 0 0 1 1.256-.425c1.519.756 3.018 1.515 4.486 2.27a.942.942 0 0 1-.428 1.778zm-156.1 3.755a.942.942 0 0 1-.446-1.769c1.43-.775 2.913-1.566 4.439-2.365a.936.936 0 0 1 1.264.398.942.942 0 0 1-.397 1.27 353.641 353.641 0 0 0-4.415 2.353.935.935 0 0 1-.445.113zm164.96.954a.938.938 0 0 1-.45-.117 323.301 323.301 0 0 0-4.4-2.379.944.944 0 0 1-.391-1.272.936.936 0 0 1 1.267-.391c1.529.81 3.008 1.611 4.426 2.393a.943.943 0 0 1-.452 1.766zM9.215 29.397a.943.943 0 0 1-.48-1.75 210.08 210.08 0 0 1 4.36-2.532.937.937 0 0 1 1.276.358.942.942 0 0 1-.356 1.282c-1.539.87-2.992 1.715-4.32 2.51a.936.936 0 0 1-.48.132zM191.59 30.43a.93.93 0 0 1-.49-.14 170.527 170.527 0 0 0-4.29-2.553.943.943 0 0 1-.344-1.285.934.934 0 0 1 1.28-.346c1.579.911 3.038 1.78 4.336 2.582a.941.941 0 0 1-.492 1.742zM.938 35.062a.942.942 0 0 1-.643-1.625c.849-.803 2.245-1.847 4.149-3.105a.936.936 0 0 1 1.3.268.944.944 0 0 1-.268 1.303c-1.814 1.198-3.125 2.175-3.896 2.903a.932.932 0 0 1-.642.256zm198.05 1.616a.942.942 0 0 1-.889-1.24c-.142-.222-.704-.908-2.85-2.431a.943.943 0 0 1-.224-1.312.935.935 0 0 1 1.307-.224c3.044 2.16 3.668 3.13 3.668 3.922 0 .214-.044.434-.135.676a.938.938 0 0 1-.877.61zM5.568 42.553a.933.933 0 0 1-.617-.234c-1.516-1.335-2.758-2.517-3.694-3.512a.943.943 0 0 1 .038-1.33.935.935 0 0 1 1.325.039c.897.952 2.097 2.093 3.568 3.39a.943.943 0 0 1-.62 1.647zm186.486 1.285a.943.943 0 0 1-.606-1.659 82.498 82.498 0 0 0 3.688-3.304.934.934 0 0 1 1.325.029.944.944 0 0 1-.028 1.33 84.442 84.442 0 0 1-3.774 3.381.934.934 0 0 1-.605.223zM13.329 48.886a.936.936 0 0 1-.57-.194 194.605 194.605 0 0 1-3.95-3.12.943.943 0 0 1-.139-1.323.936.936 0 0 1 1.32-.139c1.213.987 2.529 2.025 3.91 3.089a.943.943 0 0 1-.57 1.687zm170.89 1.19a.943.943 0 0 1-.564-1.692 216.784 216.784 0 0 0 3.941-3.05.936.936 0 0 1 1.318.153c.32.408.252 1-.154 1.321a214.284 214.284 0 0 1-3.979 3.08.928.928 0 0 1-.563.189zm-162.834 4.76a.933.933 0 0 1-.542-.173 302.109 302.109 0 0 1-4.068-2.947.943.943 0 0 1-.2-1.316.935.935 0 0 1 1.311-.2c1.303.96 2.663 1.946 4.042 2.928a.943.943 0 0 1 .223 1.312.936.936 0 0 1-.766.396zM176.12 55.97a.935.935 0 0 1-.768-.4.943.943 0 0 1 .23-1.311c1.41-.991 2.764-1.96 4.061-2.903a.935.935 0 0 1 1.31.21.942.942 0 0 1-.21 1.313c-1.304.95-2.667 1.924-4.086 2.921a.931.931 0 0 1-.537.17zM29.628 60.523c-.18 0-.36-.05-.52-.158a361.568 361.568 0 0 1-4.153-2.821.942.942 0 0 1-.242-1.308.936.936 0 0 1 1.304-.243c1.334.92 2.712 1.857 4.131 2.806.43.289.548.873.26 1.306a.937.937 0 0 1-.78.418zm138.219 1.088a.936.936 0 0 1-.784-.423.943.943 0 0 1 .267-1.303 377.033 377.033 0 0 0 4.146-2.785.936.936 0 0 1 1.302.25.943.943 0 0 1-.248 1.306 371.93 371.93 0 0 1-4.167 2.8.93.93 0 0 1-.516.155zm-129.78 4.286a.936.936 0 0 1-.467-.126 102.55 102.55 0 0 1-4.301-2.64.942.942 0 0 1-.281-1.3.936.936 0 0 1 1.296-.281c1.458.942 2.84 1.79 4.223 2.59a.943.943 0 0 1-.47 1.757zm121.265.964a.942.942 0 0 1-.45-1.766 94.246 94.246 0 0 0 4.27-2.504.936.936 0 0 1 1.29.305.942.942 0 0 1-.303 1.295 95.602 95.602 0 0 1-4.357 2.554.93.93 0 0 1-.45.116zM47 70.374a.937.937 0 0 1-.364-.075 77.122 77.122 0 0 1-4.591-2.124.942.942 0 0 1-.419-1.262.935.935 0 0 1 1.258-.42 75.753 75.753 0 0 0 4.481 2.073.942.942 0 0 1-.365 1.808zm103.289.74a.943.943 0 0 1-.34-1.818 74.113 74.113 0 0 0 4.533-1.956.938.938 0 0 1 1.248.452.943.943 0 0 1-.45 1.251 76.38 76.38 0 0 1-4.65 2.006.918.918 0 0 1-.341.065zM56.44 73.65a.908.908 0 0 1-.25-.034 80.874 80.874 0 0 1-4.828-1.502.942.942 0 0 1-.58-1.197.938.938 0 0 1 1.191-.582 79.415 79.415 0 0 0 4.716 1.468.94.94 0 0 1-.25 1.847zm84.333.503a.941.941 0 0 1-.229-1.853c1.621-.41 3.22-.866 4.751-1.354a.942.942 0 0 1 .568 1.794 85.072 85.072 0 0 1-4.86 1.384.97.97 0 0 1-.23.029zM66.2 75.793a.943.943 0 0 1-.156-.013 106.52 106.52 0 0 1-4.952-.953.94.94 0 0 1 .399-1.838c1.558.339 3.194.654 4.863.935a.94.94 0 0 1-.154 1.869zm64.774.31a.94.94 0 0 1-.139-1.871 111.35 111.35 0 0 0 4.882-.849.937.937 0 0 1 1.102.742.94.94 0 0 1-.739 1.105c-1.594.314-3.264.604-4.965.862a.979.979 0 0 1-.141.01zm-54.862.964c-.03 0-.059-.002-.089-.004-1.714-.16-3.396-.346-4.998-.55a.941.941 0 0 1 .236-1.867c1.582.202 3.243.385 4.936.543a.94.94 0 0 1 .847 1.024.938.938 0 0 1-.932.854zm44.933.172a.94.94 0 0 1-.075-1.878c1.698-.14 3.362-.303 4.945-.482a.94.94 0 0 1 .21 1.87c-1.602.182-3.285.345-5.002.486a1.067 1.067 0 0 1-.078.004zm-34.962.495h-.042c-1.72-.075-3.407-.167-5.01-.273a.94.94 0 0 1 .123-1.878c1.59.105 3.262.196 4.97.27a.94.94 0 0 1-.04 1.881zm24.985.078a.94.94 0 0 1-.033-1.881c1.703-.061 3.376-.138 4.973-.228a.932.932 0 0 1 .99.886.94.94 0 0 1-.884.992c-1.61.092-3.296.169-5.012.23h-.034zm-14.993.175h-.008a329.277 329.277 0 0 1-5.013-.084.94.94 0 0 1-.914-.964c.013-.52.425-.944.96-.917 1.615.04 3.274.068 4.984.084.518.005.933.43.928.949a.94.94 0 0 1-.937.932zm4.999.013a.939.939 0 0 1-.938-.937.94.94 0 0 1 .934-.945c1.708-.007 3.37-.024 4.985-.054h.018c.51 0 .927.41.936.924a.94.94 0 0 1-.92.957c-1.624.03-3.294.048-5.011.055h-.004z" fill="#FFF" mask="url(#b)"/>
    </g>
</svg>
