<svg xmlns="http://www.w3.org/2000/svg" xmlns:xlink="http://www.w3.org/1999/xlink" width="82" height="70" viewBox="0 0 82 70">
    <defs>
        <path id="jk5jpfxqda" d="M0 0L3.351 0 3.351 3.866 0 3.866z"/>
    </defs>
    <g fill="none" fill-rule="evenodd">
        <g>
            <g>
                <path fill="#EDD600" d="M3.139 22.422L0 22.872 2.272 25.059 1.735 28.148 4.543 26.69 7.351 28.148 6.815 25.059 9.087 22.872 5.947 22.422 4.543 19.612zM15.701 19.612L17.105 22.422 20.245 22.872 17.973 25.059 18.509 28.148 15.701 26.69 12.893 28.148 13.43 25.059 11.158 22.872 14.297 22.422zM26.859 19.612L28.263 22.422 31.402 22.872 29.131 25.059 29.667 28.148 26.859 26.69 24.051 28.148 24.587 25.059 22.316 22.872 25.455 22.422zM38.017 19.612L39.421 22.422 42.56 22.872 40.289 25.059 40.825 28.148 38.017 26.69 35.209 28.148 35.746 25.059 33.474 22.872 36.613 22.422z" transform="translate(-119.000000, -66.000000) translate(119.000000, 66.000000)"/>
                <path fill="#3A4E84" d="M49.175 19.612L50.579 22.422 53.718 22.872 51.447 25.059 51.983 28.148 49.175 26.69 46.367 28.148 46.903 25.059 44.632 22.872 47.771 22.422z" transform="translate(-119.000000, -66.000000) translate(119.000000, 66.000000)"/>
                <path fill="#EDD600" d="M51.207 20.342L53.571 22.431 56.654 21.691 55.373 24.558 57.038 27.226 53.882 26.909 51.828 29.297 51.158 26.234 48.224 25.043 50.966 23.467z" transform="translate(-119.000000, -66.000000) translate(119.000000, 66.000000)"/>
                <g>
                    <path fill="#E2857E" d="M5.74 24.334l-1.043-.342s-1.556-.442-1.79-.555c-.105-.051-.394-.166-.649-.186l-.565 1.266.012.076-.68.089s-.915-.33-1.009-.116c-.126.288.523.503.752.582.33.115 1.001.352 1.347.384.513.047 2.04-.138 2.04-.138l1.158.248.427-1.308z" transform="translate(-119.000000, -66.000000) translate(119.000000, 66.000000) translate(53.699125, 0.000000)"/>
                    <path fill="#2A3756" d="M21.524 28.17L12.845 30.907 4.304 26.467 5.43 23.802 13.086 26.646 19.272 23.653z" transform="translate(-119.000000, -66.000000) translate(119.000000, 66.000000) translate(53.699125, 0.000000)"/>
                    <path fill="#E2857E" d="M18.135 4.413c-1.408-.35-3.353-.07-3.754 2.26-.281 1.634-.618 4.468.425 4.829.462.16 2.231 0 2.231 0l-.372 1.942h3.242l-.532-2.782s3.4-5.09-1.24-6.249" transform="translate(-119.000000, -66.000000) translate(119.000000, 66.000000) translate(53.699125, 0.000000)"/>
                    <path fill="#151C28" d="M15.411 4.72l2.13 3.09c.377-.698.947-.514 1.247.05.368.696-.464 1.29-.386 1.524.08.234.789 1.252.973 1.278.185.026 3.706-1.556 2.087-5.537-.747-1.835-3.953-2.48-6.05-.405" transform="translate(-119.000000, -66.000000) translate(119.000000, 66.000000) translate(53.699125, 0.000000)"/>
                    <g transform="translate(-119.000000, -66.000000) translate(119.000000, 66.000000) translate(53.699125, 0.000000) translate(17.642156, 0.000000)">
                        <mask id="xbluqv0l7b" fill="#fff">
                            <use xlink:href="#jk5jpfxqda"/>
                        </mask>
                        <path fill="#151C28" d="M.065 1.63c-.26 1.104.276 1.953 1.292 2.187 1.016.234 1.65-.38 1.91-1.483.26-1.104-.08-2.056-1.097-2.29C1.154-.19.325.527.065 1.631" mask="url(#xbluqv0l7b)"/>
                    </g>
                    <path fill="#EBECED" d="M16.164 36.553S19.82 50.3 20.77 52.382c.636 1.396 2.613 6.719 3.727 10.82l1.997-.832c.259-2.035-.221-4.363-.98-6.885-1.603-5.318-2.516-7.148-2.747-11.433-.23-4.286 1.46-8.786.677-11.21-.783-2.424-7.28 3.71-7.28 3.71" transform="translate(-119.000000, -66.000000) translate(119.000000, 66.000000) translate(53.699125, 0.000000)"/>
                    <path fill="#E2857E" d="M25.125 65.829L26.983 65.677 26.494 62.37 24.497 63.202z" transform="translate(-119.000000, -66.000000) translate(119.000000, 66.000000) translate(53.699125, 0.000000)"/>
                    <path fill="#FFF" d="M23.15 32.605S19.628 48.082 19.487 49.4c-.141 1.32.745 3.857.006 8.404-.37 2.274-.898 4.684-1.335 6.526l-2.164.107c-.11-3.962-.3-10.912-.327-12.524-.036-2.287-1.785-16.015-1.785-16.015s7.944-6.467 9.27-3.294" transform="translate(-119.000000, -66.000000) translate(119.000000, 66.000000) translate(53.699125, 0.000000)"/>
                    <path fill="#E2857E" d="M15.858 67.182L16.34 68.669 17.694 67.653 18.157 64.331 15.993 64.438z" transform="translate(-119.000000, -66.000000) translate(119.000000, 66.000000) translate(53.699125, 0.000000)"/>
                    <path fill="#2A3756" d="M16.025 12.938l10.006-2.422s2.032 6.261-3.004 6.554c-5.036.293-7.002-4.132-7.002-4.132" transform="translate(-119.000000, -66.000000) translate(119.000000, 66.000000) translate(53.699125, 0.000000)"/>
                    <path fill="#2A3756" d="M18.758 12.624c1.44.089 2.767 1.571 3.695 4.256.711 4.842 3.262 22.92 3.262 22.92l-13.431-1.181s.691-23.544 3.264-25.508c.923-.383 1.987-.562 3.21-.487" transform="translate(-119.000000, -66.000000) translate(119.000000, 66.000000) translate(53.699125, 0.000000)"/>
                    <path fill="#FFF" d="M17.92 67.254c.14.038.522 2.5.295 2.628-.228.129-6.592.229-6.961-.13-.194-.187.012-1.017.146-1.054 2.457-.678 4.241-1.956 4.241-1.956s.63.223.556.555l-.075.14s.396.365.78.33c.383-.036.66-.61 1.018-.513M27.05 64.778c.146-.015 1.401 2.145 1.236 2.346-.165.201-6.065 2.562-6.54 2.36-.25-.106-.36-.953-.249-1.035 2.045-1.508 3.242-3.336 3.242-3.336s.668-.017.72.32l-.018.157s.503.2.848.03c.344-.17.393-.805.762-.842" transform="translate(-119.000000, -66.000000) translate(119.000000, 66.000000) translate(53.699125, 0.000000)"/>
                    <path fill="#E2857E" d="M16.316 37.34s-.202 1.24-.203 1.34c-.001.101-.684 2.646-.69 2.792-.007.145.176 1.582.242 1.691.065.11 1.222 1.307 1.222 1.307s.291.036.249-.262c-.042-.297.113-.177.15-.295.038-.12-.498-1.274-.498-1.274l-.08-.807.194-.19.673 1.61s.182.09.239-.094c.057-.184-.416-1.841-.416-1.841s.214-1.16.247-1.425c.033-.266-.092-.994-.092-.994l.542-1.34-1.78-.218z" transform="translate(-119.000000, -66.000000) translate(119.000000, 66.000000) translate(53.699125, 0.000000)"/>
                    <path fill="#2A3756" d="M15.979 37.359L18.525 37.941 22.481 27.541 16.708 30.241z" transform="translate(-119.000000, -66.000000) translate(119.000000, 66.000000) translate(53.699125, 0.000000)"/>
                </g>
            </g>
        </g>
    </g>
</svg>
