<svg xmlns="http://www.w3.org/2000/svg" xmlns:xlink="http://www.w3.org/1999/xlink" width="120" height="54" viewBox="0 0 120 54">
    <defs>
        <path id="f81hboskta" d="M0 0L13.799 0 13.799 7.117 0 7.117z"/>
        <path id="hdcaeytkwc" d="M0 0L32.574 0 32.574 30.786 0 30.786z"/>
    </defs>
    <g fill="none" fill-rule="evenodd">
        <g>
            <g>
                <path fill="#2A3756" d="M120 51.322C120 52.802 79.47 54 47.397 54c-32.074 0-43.548-1.199-43.548-2.678 0-1.48 11.474-2.678 43.548-2.678S120 49.843 120 51.322" opacity=".2" transform="translate(-25.000000, -75.000000) translate(25.000000, 75.000000)"/>
                <path fill="#D17875" d="M26.878 48.383c1.325 4.099 9.258-3.459 7.24-4.913-.71-.513-1.584-.243-2.158-1.852-.136-.38-.376-2.076-.569-3.856-.174-1.61-.666-5.251-.997-6.705-1.388-6.108-5.215-19.612-5.215-19.612h-2.908l-.258 2.273s3.906 31.7 4.865 34.665" transform="translate(-25.000000, -75.000000) translate(25.000000, 75.000000)"/>
                <path fill="#E2857E" d="M19.433 48.051c1.476 4.046 20.334 2.978 20.334 2.978s12.199-5.288 11.917-6.673c-1.863-9.153-26.175 1.333-27.306-.892-1.132-2.225-1.134-3.125-2.801-10.46-.962-4.23-8.49-19.722-8.49-19.722l-2.382-1.53-.928 3.416s8.614 30.033 9.656 32.883" transform="translate(-25.000000, -75.000000) translate(25.000000, 75.000000)"/>
                <path fill="#EBECED" d="M25.873 12.702c.25-.13-.033-5.04-.517-5.195-.483-.155-12.57 2.241-13.122 3.082-.29.442.44 1.96.708 1.977 4.928.309 8.827 2.05 8.827 2.05s1.1-.685.825-1.296l-.2-.24s.601-.867 1.342-.954c.74-.088 1.5.908 2.137.576" transform="translate(-25.000000, -75.000000) translate(25.000000, 75.000000)"/>
                <g transform="translate(-25.000000, -75.000000) translate(25.000000, 75.000000) translate(0.000000, 9.046423)">
                    <mask id="q2z2v0zn8b" fill="#fff">
                        <use xlink:href="#f81hboskta"/>
                    </mask>
                    <path fill="#FFF" d="M13.706 5.202c.25-.13-.034-5.04-.517-5.195C12.706-.148.62 2.248.067 3.09c-.29.442.44 1.96.708 1.977 4.927.31 8.827 2.05 8.827 2.05s1.1-.685.825-1.296l-.2-.24s.601-.867 1.342-.954c.74-.087 1.499.908 2.137.576" mask="url(#q2z2v0zn8b)"/>
                </g>
                <path fill="#E2857E" d="M80.671 2.394c2.657.37 5.791 2.218 4.843 6.57-.665 3.05-2.076 8.234-4.116 8.136-.903-.043-3.82-1.557-3.82-1.557l-1.394 7.429-4.88-6.041 2.86-4.488S71.913 1.177 80.671 2.394" transform="translate(-25.000000, -75.000000) translate(25.000000, 75.000000)"/>
                <path fill="#D17575" d="M96.8 34.268s1.098.299 1.173.3c.075.002.901.554 1.205.193.304-.36-.883-1.018-.883-1.018l-1.19.216-.304.309z" transform="translate(-25.000000, -75.000000) translate(25.000000, 75.000000)"/>
                <path fill="#E2857E" d="M98.8 33.113s-.334-.277-.62-.33c-.285-.053-2.69.553-2.992.665-.302.112-1.467 1.097-1.467 1.097l2.162-.236 2.916-1.196z" transform="translate(-25.000000, -75.000000) translate(25.000000, 75.000000)"/>
                <path fill="#D17575" d="M97.67 33.95l1.01.526s.337.51.664.698c.327.188.596.158.66.113.065-.045-.607-1.234-.607-1.234l-1.262-.608-.466.506z" transform="translate(-25.000000, -75.000000) translate(25.000000, 75.000000)"/>
                <path fill="#DB7D7B" d="M98.145 33.714l1.321.63s.811.82 1.155.766c.343-.054.375-.266.375-.266l-.99-1.083-1.861-.047z" transform="translate(-25.000000, -75.000000) translate(25.000000, 75.000000)"/>
                <path fill="#E2857E" d="M89.215 36.908l1.642-.976s2.475-1.34 2.83-1.622c.355-.281 1.8-.615 2.4-.807.95-.304 1.55-.51 2.142-.53.988-.035 2.982.851 3.079 1.025.103.184-.45.342-.75.283-.36.001-1.591-.375-1.93-.396-.354-.022-1.707.489-1.918.65-.174.132-.596.645-.596.645l.042.687 1.186-.097s1.43-.909 1.668-.573c.321.453-.7 1.063-1.059 1.285-.518.32-1.568.978-2.143 1.161-.853.272-3.51.515-3.51.515l-1.874.858-1.21-2.108z" transform="translate(-25.000000, -75.000000) translate(25.000000, 75.000000)"/>
                <path fill="#27334C" d="M75.027 23.401c.421 2.865 4.02 14.01 5.17 19.24l9.183-6.014 2.351 2.571s-3.454 6.236-8.412 8.288c-2.423 1.002-4.702.423-8.085-1.244-5.681-2.8-6.52-26.691-.207-22.84" transform="translate(-25.000000, -75.000000) translate(25.000000, 75.000000)"/>
                <path fill="#EDD600" d="M102.125 50.321L102.171 44.565 110.491 31.565 110.445 37.321z" transform="translate(-25.000000, -75.000000) translate(25.000000, 75.000000)"/>
                <path fill="#FFF" d="M102.125 50.321L100.486 43.874 108.806 30.874 110.445 37.321z" transform="translate(-25.000000, -75.000000) translate(25.000000, 75.000000)"/>
                <path fill="#FFF" d="M101.426 31.46L102.03 30.516 109.943 36.974z" transform="translate(-25.000000, -75.000000) translate(25.000000, 75.000000)"/>
                <path fill="#FFF" d="M102.23 31.335L102.82 30.413 110.164 37.127z" transform="translate(-25.000000, -75.000000) translate(25.000000, 75.000000)"/>
                <path fill="#EDD600" d="M101.42 49.767L93.03 44.033 101.35 31.034 109.442 36.627z" transform="translate(-25.000000, -75.000000) translate(25.000000, 75.000000)"/>
                <path fill="#D6BD07" d="M102.125 50.321L101.121 49.627 109.442 36.627 110.445 37.321z" transform="translate(-25.000000, -75.000000) translate(25.000000, 75.000000)"/>
                <path fill="#E2857E" d="M90.18 46.377s3.765-.071 3.961-.05c.196.021 5.283-.697 5.566-.676.282.02 3.024.71 3.22.863.197.152 2.25 2.663 2.25 2.663s.003.57-.563.419c-.566-.151-.37.177-.608.221-.239.045-2.353-1.26-2.353-1.26l-1.545-.345-.411.33 2.963 1.675s.132.372-.237.439c-.37.067-3.47-1.234-3.47-1.234s-2.296.14-2.817.143c-.522.002-1.904-.41-1.904-.41l-4.255 1.154.202-3.932z" transform="translate(-25.000000, -75.000000) translate(25.000000, 75.000000)"/>
                <path fill="#2A3756" d="M70.53 21.735c2.624-1.392 3.592 4.388 6.514.972.421 2.864.574 16.143 1.725 21.372l13.946 2.057.315 4.185s-13.928 2.125-19.224-1.36c-5.296-3.483-9.231-24.065-3.275-27.226" transform="translate(-25.000000, -75.000000) translate(25.000000, 75.000000)"/>
                <path fill="#2A3756" d="M56.208 32.185c2.723-2.379 7.354-14.865 12.28-15.943 3.684-.806 3.434-.676 3.434-.676s3.56 2.803 4.921 5.95c1.362 3.148-3.502 28.31-29.443 30.047-4.085.274-10.351.934-16.373-.241-.579-1.57-1.712-5.778-1.197-8.524 2.74-1.28 8.127-6.514 13.575-7.408 3.594-.59 7.567 1.37 12.803-3.205" transform="translate(-25.000000, -75.000000) translate(25.000000, 75.000000)"/>
                <g transform="translate(-25.000000, -75.000000) translate(25.000000, 75.000000) translate(52.545638, 0.000000)">
                    <mask id="yfbvltilhd" fill="#fff">
                        <use xlink:href="#hdcaeytkwc"/>
                    </mask>
                    <path fill="#FFF" d="M23.53.267C13.015 3.042 10.405 27.759 0 29.318 16.567 37.183 24.182 10.89 24.182 10.89c.299-.354-.711-1.971.408-2.928.91-.778 2.015-.7 2.171.782 0 0 3.704-4.34 5.813-3.91C32.272 1.768 26.44-.862 23.53.267" mask="url(#yfbvltilhd)"/>
                </g>
            </g>
        </g>
    </g>
</svg>
