<svg xmlns="http://www.w3.org/2000/svg" width="20" height="20" viewBox="0 0 20 20">
    <defs>
        <clipPath id="ysw3u4bmxa">
            <path data-name="사각형 2959" style="fill:none" d="M0 0h20v20H0z"/>
        </clipPath>
    </defs>
    <g data-name="그룹 3491" style="clip-path:url(#ysw3u4bmxa)">
        <path data-name="패스 4402" d="M107.981 132.86a20.876 20.876 0 0 1 0-5.442h7.642a20.818 20.818 0 0 1 0 5.442z" transform="translate(-101.802 -120.138)" style="fill:#1e1e1e"/>
        <path data-name="패스 4403" d="M122.268 12.847h-7.18c.09-.36.167-.709.265-1.052a9.424 9.424 0 0 1 1.587-3.355 3.2 3.2 0 0 1 .995-.862 1.52 1.52 0 0 1 1.551.03 3.7 3.7 0 0 1 1.214 1.206 11.024 11.024 0 0 1 1.48 3.642c.03.124.055.248.087.391" transform="translate(-108.681 -6.957)" style="fill:#1e1e1e"/>
        <path data-name="패스 4404" d="M115.181 247.071h7.18a10.59 10.59 0 0 1-1.853 4.395 4.04 4.04 0 0 1-.847.778 1.523 1.523 0 0 1-1.834-.022 4.016 4.016 0 0 1-1.122-1.188 11.711 11.711 0 0 1-1.524-3.962" transform="translate(-108.769 -232.955)" style="fill:#1e1e1e"/>
        <path data-name="패스 4405" d="M272.465 132.534a22.681 22.681 0 0 0 0-5.46h4.255c.156 0 .227.034.268.2a10.486 10.486 0 0 1-.012 5.112c-.028.113-.061.167-.188.166h-4.205a1.086 1.086 0 0 1-.115-.014" transform="translate(-257.296 -119.811)" style="fill:#1e1e1e"/>
        <path data-name="패스 4406" d="M4.791 127.083c-.042.926-.116 1.828-.116 2.73s.073 1.8.116 2.738H.567c-.146 0-.214-.032-.254-.193a10.465 10.465 0 0 1 .007-5.108c.031-.122.067-.176.2-.176 1.395.006 2.79 0 4.184 0 .034 0 .068 0 .084.005" transform="translate(.001 -119.814)" style="fill:#1e1e1e"/>
        <path data-name="패스 4407" d="M226.472 5.924h-4.189A11.411 11.411 0 0 0 219.54.038a9.85 9.85 0 0 1 4.146 2.1 10.236 10.236 0 0 1 2.786 3.784" transform="translate(-207.319 -.036)" style="fill:#1e1e1e"/>
        <path data-name="패스 4408" d="M22.191 0a11.428 11.428 0 0 0-2.748 5.888h-4.185a10.105 10.105 0 0 1 2.166-3.213A9.951 9.951 0 0 1 22.191 0" transform="translate(-14.409)" style="fill:#1e1e1e"/>
        <path data-name="패스 4409" d="M222.286 247.033h4.187a10.172 10.172 0 0 1-2.585 3.61 9.894 9.894 0 0 1-4.346 2.276 11.418 11.418 0 0 0 2.744-5.886" transform="translate(-207.321 -232.919)" style="fill:#1e1e1e"/>
        <path data-name="패스 4410" d="M19.449 247.036a11.387 11.387 0 0 0 2.743 5.884 9.865 9.865 0 0 1-4.151-2.106 10.18 10.18 0 0 1-2.78-3.778z" transform="translate(-14.411 -232.922)" style="fill:#1e1e1e"/>
    </g>
</svg>
