<svg width="91" height="37" viewBox="0 0 91 37" xmlns="http://www.w3.org/2000/svg">
    <g fill="#FFF" fill-rule="nonzero">
        <path d="M12.42 35.932a11.88 11.88 0 0 1-3.154-23.34 13.624 13.624 0 0 1 26.082-4.39 10.147 10.147 0 0 1 14.937 7.534c2.855.4 5.407 1.994 7.02 4.384a1.454 1.454 0 1 1-2.414 1.62 7.23 7.23 0 0 0-6-3.191H47.44v-1.453a7.236 7.236 0 0 0-11.923-5.513l-1.755 1.496-.594-2.23a10.708 10.708 0 0 0-21.06 2.77v1.377l-1.167.2a8.975 8.975 0 0 0 1.49 17.82 1.458 1.458 0 1 1 0 2.91l-.01.006z"/>
        <path d="M28.512 26.071a3.942 3.942 0 0 0-2.938 1.323 3.883 3.883 0 0 0-2.7-1.312h-.248a3.969 3.969 0 0 0-3.483 2.1 3.494 3.494 0 0 0-.432 1.729v5.94h1.966v-6.124c-.004-.49.23-.95.626-1.237a1.993 1.993 0 0 1 3.278 1.502v5.875h1.965v-6.14c-.003-.49.23-.95.627-1.237a1.993 1.993 0 0 1 3.278 1.502v5.875h1.965v-5.94a3.483 3.483 0 0 0-.297-1.464 3.974 3.974 0 0 0-3.607-2.392zM42.736 27.616a4.909 4.909 0 0 0-7.976 1.555 4.898 4.898 0 0 0 6.96 6.134v-1.62a.54.54 0 0 0-.799-.162 1.62 1.62 0 0 1-.48.276 2.965 2.965 0 0 1-3.705-4.223c.23-.44.59-.798 1.032-1.026a2.96 2.96 0 0 1 4.444 2.543v4.8h1.965v-4.8a4.903 4.903 0 0 0-1.441-3.477zM54.934 26.168H52.97v5.654c.002.7-.358 1.351-.95 1.723a2.479 2.479 0 0 1-3.932-1.987v-5.4h-1.971v5.4a4.412 4.412 0 1 0 8.818 0v-5.39zM66.674 26.071a3.942 3.942 0 0 0-2.938 1.323 3.883 3.883 0 0 0-2.7-1.312h-.254a3.969 3.969 0 0 0-3.483 2.1 3.575 3.575 0 0 0-.426 1.729v5.94h1.965v-6.124c-.003-.49.23-.95.627-1.237a1.993 1.993 0 0 1 3.315 1.502v5.875h1.966v-6.14c-.004-.49.23-.95.626-1.237a1.993 1.993 0 0 1 3.278 1.502v5.875h1.966v-5.94a3.51 3.51 0 0 0-.292-1.453 3.974 3.974 0 0 0-3.65-2.403zM74.158 34.204a1.004 1.004 0 0 0-1.415 1.409c.04.06.09.112.152.151a1.01 1.01 0 0 0 1.414-1.41.502.502 0 0 0-.15-.15zM89.38 26.082h-2.16v9.785h2.16zM83.84 27.616a4.898 4.898 0 0 0-1.56-1.048 4.892 4.892 0 0 0-6.415 6.415 4.892 4.892 0 0 0 6.96 2.333v-1.62a.54.54 0 0 0-.804-.162 1.68 1.68 0 0 1-.476.275 2.965 2.965 0 0 1-3.71-4.222 2.457 2.457 0 0 1 1.032-1.026 2.96 2.96 0 0 1 4.444 2.543v4.8h1.966v-4.8a4.86 4.86 0 0 0-1.437-3.488z"/>
        <circle cx="88.322" cy="21.962" r="2.441"/>
    </g>
</svg>
