<svg xmlns="http://www.w3.org/2000/svg" id="logo_maumAi" width="152.874" height="76.246" viewBox="0 0 152.874 76.246">
    <defs>
        <style>
            .cls-1{fill:#fff}
        </style>
    </defs>
    <g id="그룹_43">
        <path id="패스_19" d="M20.11 60.446A20.077 20.077 0 0 1 0 40.467a19.831 19.831 0 0 1 4.822-12.945 21.1 21.1 0 0 1 9.952-6.32A23.145 23.145 0 0 1 59 13.761a17.977 17.977 0 0 1 8.311-2.141A17.284 17.284 0 0 1 84.235 26.5a16.938 16.938 0 0 1 11.9 7.339 2.416 2.416 0 0 1-.616 3.364 2.452 2.452 0 0 1-3.386-.612 12.218 12.218 0 0 0-10.157-5.4h-2.461v-2.446a12.25 12.25 0 0 0-20.11-9.276l-2.975 2.548-1.03-3.771a18.179 18.179 0 0 0-35.7 4.689v2.344l-2.052.306a15.266 15.266 0 0 0-9.029 5.1 15.1 15.1 0 0 0 11.593 24.868 2.448 2.448 0 1 1-.1 4.893z" class="cls-1"/>
        <path id="패스_20" d="M46.619 43.1a6.4 6.4 0 0 0-4.925 2.257 6.427 6.427 0 0 0-4.515-2.257h-.41a6.784 6.784 0 0 0-5.951 3.591 6.072 6.072 0 0 0-.718 2.975v10.158h3.283V49.256a2.526 2.526 0 0 1 1.026-2.056 3.38 3.38 0 0 1 5.54 2.565v9.952h3.386V49.256a2.526 2.526 0 0 1 1.026-2.056 3.38 3.38 0 0 1 5.54 2.565v9.952h3.283V49.666a5.068 5.068 0 0 0-.513-2.462 6.476 6.476 0 0 0-6.052-4.104z" class="cls-1" transform="translate(.783 .724)"/>
        <path id="패스_21" d="M70.056 45.66a8.024 8.024 0 0 0-2.668-1.744 8.755 8.755 0 0 0-3.181-.616 8.361 8.361 0 0 0-3.181.616 9.223 9.223 0 0 0-2.666 1.744 8.024 8.024 0 0 0-1.744 2.668 8.755 8.755 0 0 0-.616 3.18 7.993 7.993 0 0 0 .616 3.181 9.223 9.223 0 0 0 1.744 2.668 8.024 8.024 0 0 0 2.667 1.743 8.755 8.755 0 0 0 3.181.616 8.225 8.225 0 0 0 4.1-1.129v-2.77c-.41-.513-1.026-.616-1.334-.308a5.727 5.727 0 0 1-.821.513A5.022 5.022 0 0 1 59.9 48.84a4.741 4.741 0 0 1 1.743-1.74 4.969 4.969 0 0 1 7.49 4.309v8.105h3.283v-8.109a7.993 7.993 0 0 0-.616-3.181 8.739 8.739 0 0 0-1.744-2.564z" class="cls-1" transform="translate(1.456 .73)"/>
        <path id="패스_22" d="M90.177 43.2h-3.283v9.542a3.573 3.573 0 0 1-1.642 2.975 4.208 4.208 0 0 1-6.669-3.386V43.2H75.3v9.131a6.885 6.885 0 0 0 .616 2.873 8.136 8.136 0 0 0 4 4 7.242 7.242 0 0 0 2.873.616 6.885 6.885 0 0 0 2.873-.616 8.136 8.136 0 0 0 4-4 7.242 7.242 0 0 0 .616-2.873V43.2z" class="cls-1" transform="translate(1.958 .727)"/>
        <path id="패스_23" d="M109.619 43.1a6.4 6.4 0 0 0-4.925 2.257 6.427 6.427 0 0 0-4.514-2.257h-.41a6.784 6.784 0 0 0-5.951 3.591 6.072 6.072 0 0 0-.718 2.975v10.158h3.283V49.256a2.526 2.526 0 0 1 1.025-2.056 3.38 3.38 0 0 1 5.54 2.565v9.952h3.283V49.256a2.526 2.526 0 0 1 1.026-2.052 3.38 3.38 0 0 1 5.54 2.565v9.952h3.283V49.666a5.321 5.321 0 0 0-.513-2.462 6.247 6.247 0 0 0-5.949-4.104z" class="cls-1" transform="translate(2.421 .724)"/>
        <path id="패스_24" d="M121.669 56.509a1.682 1.682 0 0 0-2.36 2.36l.308.308a1.682 1.682 0 0 0 2.36-2.36q-.154-.308-.308-.308z" class="cls-1" transform="translate(3.093 1.064)"/>
        <path id="패스_25" d="M146.794 43.1H143.1v16.621h3.694z" class="cls-1" transform="translate(3.721 .724)"/>
        <path id="패스_26" d="M137.956 45.66a8.023 8.023 0 0 0-2.668-1.744 8.755 8.755 0 0 0-3.181-.616 7.993 7.993 0 0 0-3.181.616 9.223 9.223 0 0 0-2.668 1.744 8.024 8.024 0 0 0-1.744 2.668 8.755 8.755 0 0 0-.616 3.181 7.993 7.993 0 0 0 .616 3.181 9.223 9.223 0 0 0 1.744 2.668 8.024 8.024 0 0 0 2.668 1.744 8.755 8.755 0 0 0 3.181.616 8.225 8.225 0 0 0 4.1-1.129v-2.77c-.41-.513-1.026-.616-1.334-.308a5.727 5.727 0 0 1-.821.513 5.022 5.022 0 0 1-6.252-7.184 4.741 4.741 0 0 1 1.744-1.744 4.969 4.969 0 0 1 7.49 4.309v8.105h3.283v-8.105a7.993 7.993 0 0 0-.616-3.181 8.739 8.739 0 0 0-1.745-2.564z" class="cls-1" transform="translate(3.221 .73)"/>
        <circle id="타원_5" cx="4.104" cy="4.104" r="4.104" class="cls-1" transform="translate(144.666 32.891)"/>
    </g>
    <g id="그룹_44" transform="translate(30.37 66.089)">
        <path id="패스_27" d="M29.6 65.821h4.1v5.746h-4.1zm1.026 5.027h2.155v-4.1h-2.155zm6.874-1.539h-1.334v4.514H35.14V65h1.026v3.488H37.5z" class="cls-1" transform="translate(-29.6 -64.795)"/>
        <path id="패스_28" d="M46 69.2v.821h-8V69.2zm-.821-2.36c0 1.026-1.231 1.642-3.181 1.642s-3.181-.616-3.181-1.642S40.052 65.2 42 65.2s3.182.616 3.182 1.642zm-.205 3.9v2.975h-5.948V70.74zm-5.027-3.9c0 .616.821.923 2.155.923s2.052-.308 2.052-.923-.821-.923-2.052-.923q-2.153.155-2.153.925zm0 4.72v1.34h4.1v-1.339z" class="cls-1" transform="translate(-29.382 -64.79)"/>
        <path id="패스_29" d="M49.37 65.923c0 2.257-.308 4.207-1.949 5.951l-.821-.513a6.728 6.728 0 0 0 1.744-4.514H47.01v-.821h2.36zm2.462 0a10.2 10.2 0 0 1-1.847 6.566l-.821-.616a8.6 8.6 0 0 0 1.744-5.13h-1.127v-.821zm3.181 3.488h-1.231v4.412h-1.026V65h1.026v3.591h1.231z" class="cls-1" transform="translate(-29.158 -64.795)"/>
        <path id="패스_30" d="M58.786 67.565a4.123 4.123 0 0 0 2.257 3.591l-.513.821a4.327 4.327 0 0 1-2.257-2.565 4.4 4.4 0 0 1-2.257 2.77l-.616-.821a4.32 4.32 0 0 0 2.257-3.8v-.821h-1.949v-.821h4.925v.821h-1.95v.821zm4-2.565v8.824h-1.025V65z" class="cls-1" transform="translate(-28.929 -64.795)"/>
        <path id="패스_31" d="M70.8 69.822a3.033 3.033 0 0 1-1.642-1.539 3.1 3.1 0 0 1-1.744 1.847l-.513-.718a2.989 2.989 0 0 0 1.744-2.668v-1.128h.923v1.129a2.586 2.586 0 0 0 1.744 2.36zm3.591 2.36c0 1.026-1.129 1.642-2.975 1.642s-2.975-.616-2.975-1.642 1.129-1.642 2.975-1.642 2.974.616 2.974 1.642zm-.923 0c0-.513-.718-.821-1.949-.821s-1.949.308-1.949.821.718.821 1.949.821c1.127-.003 1.947-.303 1.947-.821zm-.923-2.052h-.925v-4.925h.923v2.052h.923V65h.923v5.438h-.923v-2.36h-.923z" class="cls-1" transform="translate(-28.63 -64.795)"/>
        <path id="패스_32" d="M80.114 65.513c0 2.257-1.539 3.9-4.1 4.514l-.41-.821c2.052-.513 3.283-1.642 3.488-2.975H76.01v-.821h4.1zm-3.385 5.027h5.746v3.283h-1.027v-2.462h-4.822v-.821zm7.079-2.565h-1.231v2.155h-1.026V65h1.026v2.155h1.231z" class="cls-1" transform="translate(-28.404 -64.795)"/>
        <path id="패스_33" d="M87.478 66.334h2.052v.821H84.4v-.821h2.052V65.1h1.026zm1.642 3.488a2.157 2.157 0 1 1-2.155-2.052 2.082 2.082 0 0 1 2.155 2.052zm-.923 0a1.231 1.231 0 1 0-1.231 1.231 1.132 1.132 0 0 0 1.234-1.231zm4.412-.41h-1.335v4.412h-1.026V65h1.026v3.488h1.334z" class="cls-1" transform="translate(-28.175 -64.795)"/>
        <path id="패스_34" d="M101.1 69.4v.821h-8V69.4zm-5.948 3.39h5.13v.821h-6.156v-2.565h1.026zm5.027-4.412h-6.053V65.3h1.026v2.257h5.027z" class="cls-1" transform="translate(-27.949 -64.787)"/>
        <path id="패스_35" d="M107.807 71.343h-2.462l-.616 2.257H103.6l2.36-7.9h1.334l2.36 7.9h-1.231zm-.308-1.026l-.308-1.026c-.205-.821-.41-1.744-.718-2.668-.205.923-.41 1.744-.616 2.668l-.308 1.026z" class="cls-1" transform="translate(-27.676 -64.777)"/>
        <path id="패스_36" d="M110.4 65.7h1.129v7.9H110.4z" class="cls-1" transform="translate(-27.499 -64.777)"/>
        <path id="패스_37" d="M112.9 74.17a1.52 1.52 0 0 0 1.026-1.334h-.1a.648.648 0 0 1-.718-.718.732.732 0 0 1 .821-.718c.513 0 .821.41.821 1.231a2.189 2.189 0 0 1-1.642 2.155z" class="cls-1" transform="translate(-27.434 -64.628)"/>
        <path id="패스_38" d="M117.9 65.621h4.514v6.156H117.9zm1.539 4.925h1.334v-3.694h-1.334zm6.772-1.129h-1.231v4.514h-1.54V64.8h1.539v3.283h1.231z" class="cls-1" transform="translate(-27.304 -64.8)"/>
        <path id="패스_39" d="M134.711 69v1.231H126.4V69zm-.718-2.155c0 1.129-1.334 1.847-3.386 1.847s-3.386-.718-3.386-1.847S128.555 65 130.607 65s3.385.718 3.385 1.847zm-.205 3.9v3.181h-6.361v-3.18zm-4.925-3.9c0 .41.616.616 1.744.616s1.744-.205 1.744-.616-.616-.616-1.744-.616-1.745.105-1.745.618zm.1 5.13v.725h3.283v-.718z" class="cls-1" transform="translate(-27.083 -64.795)"/>
        <path id="패스_40" d="M141.72 71.869h-2.36l-.41 2.052H137l2.462-8.721h2.257l2.462 8.721h-2.051zm-.41-1.642l-.205-.718c-.205-.821-.41-1.949-.616-2.77-.205.923-.41 1.949-.616 2.77l-.205.718z" class="cls-1" transform="translate(-26.808 -64.79)"/>
        <path id="패스_41" d="M144.8 65.2h1.949v8.721H144.8z" class="cls-1" transform="translate(-26.605 -64.79)"/>
    </g>
</svg>
