<svg xmlns="http://www.w3.org/2000/svg" width="24" height="24" viewBox="0 0 24 24">
    <defs>
        <clipPath id="74qhqw052a">
            <path data-name="사각형 128" style="fill:#fff" d="M0 0h17.867v19.616H0z"/>
        </clipPath>
    </defs>
    <path data-name="사각형 129" style="fill:none" d="M0 0h24v24H0z"/>
    <g data-name="그룹 42">
        <g data-name="그룹 41" style="clip-path:url(#74qhqw052a)" transform="translate(3 2)">
            <path data-name="패스 45" d="M8.927 165.323h-6.12A2.743 2.743 0 0 1 0 162.534c0-.874-.006-1.749.007-2.623a.906.906 0 0 1 .592-.877.94.94 0 0 1 1.076.207 1 1 0 0 1 .289.756v2.457a.791.791 0 0 0 .906.905H14.967a.8.8 0 0 0 .924-.913c0-.826-.005-1.652 0-2.477a.978.978 0 0 1 1.292-.969.951.951 0 0 1 .667.892c.011.95.037 1.9-.011 2.851a2.708 2.708 0 0 1-2.751 2.577c-2.054.008-4.108 0-6.162 0" transform="translate(0 -145.71)" style="fill:#fff"/>
            <path data-name="패스 46" d="m58.518 10.925 1.3-1.313c.181-.182.357-.37.548-.54a.968.968 0 0 1 1.307.017.939.939 0 0 1 .109 1.3c-.347.4-.74.77-1.116 1.149-.777.783-1.552 1.568-2.34 2.341a1.7 1.7 0 0 1-.575.393.868.868 0 0 1-.942-.222q-1.779-1.768-3.547-3.549a.95.95 0 0 1-.076-1.307.967.967 0 0 1 1.2-.252 1.606 1.606 0 0 1 .358.281c.533.526 1.061 1.059 1.591 1.588.038.038.081.071.167.145V1.072a.975.975 0 0 1 .746-1.045.961.961 0 0 1 1.2.885c.014.242 0 .486 0 .729V10.9l.064.024" transform="translate(-48.552 .001)" style="fill:#fff"/>
        </g>
    </g>
</svg>
