<svg width="216" height="85" xmlns="http://www.w3.org/2000/svg" xmlns:xlink="http://www.w3.org/1999/xlink">
    <defs>
        <path id="a" d="M0 0h56.933v56.999H0z"/>
        <path id="c" d="M0 0h57.003v56.858H0z"/>
    </defs>
    <g fill="none" fill-rule="evenodd">
        <path d="m23.424 11.861 19.198 11.464c.066-.683.102-1.375.102-2.074C42.724 9.514 33.16 0 21.366 0 9.569-.004.004 9.507 0 21.244V37.778C0 40.386 2.125 42.5 4.746 42.5h7.597V18.098c-.003-4.017 3.269-7.276 7.307-7.278 1.33-.001 2.634.359 3.774 1.041" fill="#5D1FFF"/>
        <path d="m49.357 28.344-6.971-4.058c-1.07 10.57-10.237 18.629-21.191 18.629h-8.988v6.684c0 3.903 3.263 7.068 7.29 7.068a7.465 7.465 0 0 0 3.75-1.008l26.11-15.195c3.452-2.009 4.57-6.35 2.499-9.697a7.182 7.182 0 0 0-2.499-2.423" fill="#1DB6CC"/>
        <path d="M42.724 22.899 23.37 11.18c-3.49-2.113-8.017-.972-10.112 2.55a7.484 7.484 0 0 0-1.051 3.826V42.5h9.088c11.078 0 20.348-8.479 21.429-19.601" fill="#0964FF"/>
        <path d="m87.507 60.963-6.162-17.986-6.227 17.986h12.39zm4.371-26.659c1.862 5.261 3.498 9.93 4.907 14.006a481.98 481.98 0 0 0 4.192 11.658l4.085 11.59c1.385 3.934 2.985 8.412 4.8 13.436h-7.166c-1.67 0-3.007-.047-4.013-.142a5.074 5.074 0 0 1-2.436-.781 3.948 3.948 0 0 1-1.756-1.671 21.24 21.24 0 0 1-1.47-3.371l-2.65-7.963H71.885l-3.01 9.527c-.26.975-.684 1.9-1.252 2.736a3.78 3.78 0 0 1-1.541 1.242 4.2 4.2 0 0 1-2.007.426H52.896a894.823 894.823 0 0 0 9.135-25.841 699.785 699.785 0 0 1 8.92-24.989 37.35 37.35 0 0 0 .932-2.382 5.746 5.746 0 0 1 .932-1.74 6.345 6.345 0 0 1 1.756-1.033 11.331 11.331 0 0 1 2.974-.675h6.806a15.66 15.66 0 0 1 3.153.249c.706.14 1.368.443 1.933.887a5.277 5.277 0 0 1 1.29 1.884c.336.78.72 1.762 1.151 2.947z" fill="#393F48"/>
        <g transform="translate(105.92 26.504)">
            <mask id="b" fill="#fff">
                <use xlink:href="#a"/>
            </mask>
            <path d="M43.632.57A4.488 4.488 0 0 1 45.82 0h11.112L36.776 56.994H26.595a9.407 9.407 0 0 1-4.948-1.211 12.265 12.265 0 0 1-3.222-2.712 11.383 11.383 0 0 1-1.9-2.924c-.407-.95-.682-1.64-.825-2.069L0 .002h10.395a8.097 8.097 0 0 1 2.547.391c.83.301 1.493.936 1.827 1.749l13.41 40.944L42.232 2.071a2.926 2.926 0 0 1 1.4-1.501" fill="#393F48" mask="url(#b)"/>
        </g>
        <g transform="translate(158.997 26.505)">
            <mask id="d" fill="#fff">
                <use xlink:href="#c"/>
            </mask>
            <path d="m34.634 32.74-6.166-18.047L22.23 32.74h12.404zm4.373-26.749c1.864 5.279 3.5 9.963 4.911 14.053a481.33 481.33 0 0 0 4.195 11.698c1.339 3.804 2.701 7.68 4.087 11.628 1.387 3.947 2.988 8.441 4.803 13.482h-7.17c-1.67 0-3.01-.048-4.016-.143a5.08 5.08 0 0 1-2.438-.783 3.949 3.949 0 0 1-1.755-1.677 21.214 21.214 0 0 1-1.472-3.383l-2.652-7.99H19l-3.01 9.56a9.097 9.097 0 0 1-1.253 2.746 3.778 3.778 0 0 1-1.543 1.246 4.192 4.192 0 0 1-2.007.427H0a899.44 899.44 0 0 0 9.141-25.929 702.66 702.66 0 0 1 8.926-25.072c.383-.902.694-1.699.933-2.391a5.77 5.77 0 0 1 .932-1.746A6.343 6.343 0 0 1 21.69.68a11.34 11.34 0 0 1 2.975-.677h6.812c1.057-.024 2.114.06 3.155.25a4.56 4.56 0 0 1 1.936.89 5.301 5.301 0 0 1 1.29 1.89 56.57 56.57 0 0 1 1.15 2.957z" fill="#393F48" mask="url(#d)"/>
        </g>
    </g>
</svg>
