<svg width="92" height="34" xmlns="http://www.w3.org/2000/svg" xmlns:xlink="http://www.w3.org/1999/xlink">
    <defs>
        <path id="a" d="M0 34h92V0H0z"/>
    </defs>
    <g fill="none" fill-rule="evenodd">
        <path d="M5.851 17.453c-3.226 0-5.85-2.59-5.85-5.771 0-1.374.496-2.705 1.4-3.747a5.875 5.875 0 0 1 2.897-1.818C4.558 2.701 7.458 0 10.986 0c2.7 0 5.107 1.598 6.156 3.986a5.046 5.046 0 0 1 2.403-.61c2.527 0 4.621 1.86 4.95 4.266 1.4.187 2.666.953 3.471 2.128a.702.702 0 0 1-.193.981.723.723 0 0 1-.995-.19 3.575 3.575 0 0 0-2.954-1.55h-.717v-.707c0-1.937-1.598-3.513-3.562-3.513-.845 0-1.664.297-2.307.836l-.864.726-.292-1.082c-.615-2.27-2.71-3.857-5.096-3.857-2.908 0-5.274 2.333-5.274 5.202v.014l.002.049.007.605-.605.1A4.44 4.44 0 0 0 2.49 8.853a4.323 4.323 0 0 0-1.058 2.829c0 2.402 1.982 4.357 4.418 4.357.396 0 .717.317.717.707 0 .39-.32.707-.717.707" fill="#FEFEFE"/>
        <path d="M13.774 12.665c-.552 0-1.08.234-1.445.642a1.926 1.926 0 0 0-1.448-.642c-.696 0-1.345.365-1.715 1.018a1.701 1.701 0 0 0-.212.841v2.899h.968V14.44c0-.237.111-.465.308-.602.775-.54 1.615 0 1.615.73v2.854h.968V14.44c0-.237.111-.465.308-.602.775-.54 1.614 0 1.614.73v2.854h.969v-2.896c0-.245-.043-.49-.148-.713-.344-.728-1.03-1.15-1.782-1.15M20.78 13.41a2.418 2.418 0 0 0-1.705-.697 2.434 2.434 0 0 0-1.706.696 2.346 2.346 0 0 0-.517 2.608 2.407 2.407 0 0 0 2.222 1.453c.421 0 .844-.111 1.207-.32v-.79a.02.02 0 0 0-.004-.011c-.116-.154-.285-.166-.393-.078a.883.883 0 0 1-.237.134c-1.285.497-2.495-.78-1.824-2.053.112-.212.29-.387.506-.497 1.093-.559 2.189.215 2.189 1.236v2.331h.968v-2.33a2.362 2.362 0 0 0-.706-1.682M26.786 12.712h-.969l.001 2.744c0 .34-.175.66-.468.84-.946.581-1.937-.081-1.937-.968v-2.616h-.968v2.616a2.121 2.121 0 0 0 .636 1.514 2.164 2.164 0 0 0 1.535.628 2.188 2.188 0 0 0 1.534-.627 2.104 2.104 0 0 0 .636-1.514v-2.617zM32.566 12.665c-.553 0-1.08.234-1.446.642a1.926 1.926 0 0 0-1.447-.642c-.698 0-1.346.366-1.717 1.02a1.709 1.709 0 0 0-.21.84v2.898h.967V14.44a.73.73 0 0 1 .309-.6c.776-.54 1.614 0 1.614.728v2.855h.969V14.44a.73.73 0 0 1 .307-.6c.777-.54 1.615 0 1.615.728v2.855h.968v-2.897c0-.242-.042-.484-.145-.704-.342-.734-1.03-1.157-1.784-1.157M36.252 16.613c-.49-.32-1.02.201-.696.686.02.029.045.055.075.073.49.317 1.016-.202.696-.685a.264.264 0 0 0-.075-.074" fill="#FEFEFE"/>
        <mask id="b" fill="#fff">
            <use xlink:href="#a"/>
        </mask>
        <path fill="#FEFEFE" mask="url(#b)" d="M42.685 17.422h1.064V12.67h-1.064zM41.019 13.41a2.418 2.418 0 0 0-1.705-.697 2.432 2.432 0 0 0-1.705.696 2.346 2.346 0 0 0-.517 2.608 2.4 2.4 0 0 0 1.284 1.266 2.445 2.445 0 0 0 2.145-.132v-.79a.02.02 0 0 0-.004-.013c-.118-.153-.286-.165-.396-.076a.874.874 0 0 1-.235.133c-1.285.497-2.495-.78-1.824-2.053.112-.212.29-.387.506-.497 1.093-.56 2.189.215 2.189 1.236v2.331h.968v-2.33a2.362 2.362 0 0 0-.706-1.682M44.43 10.667c0 .656-.538 1.187-1.202 1.187a1.195 1.195 0 0 1-1.204-1.187c0-.655.539-1.186 1.204-1.186.664 0 1.202.531 1.202 1.186M15.251 24.33l-1.772 4.93h3.485l-1.713-4.93zm3.268 9.556-.827-2.399h-4.98l-.847 2.399H9.01l5.1-13.554h2.145l5.12 13.554h-2.856zM22.511 33.885h2.737V20.332H22.51zM41.009 33.886v-5.673h-4.745v5.673h-2.736V20.332h2.736v5.54h4.745v-5.54h2.736v13.554zM52.127 33.886v-.914c-.669.686-1.615 1.028-2.559 1.028-1.024 0-1.851-.324-2.422-.875-.827-.8-1.044-1.733-1.044-2.818v-6.34h2.56v5.997c0 1.352.886 1.809 1.693 1.809.808 0 1.713-.457 1.713-1.809v-5.996h2.56v9.918h-2.5zM68.838 33.886v-5.997c0-1.352-.885-1.808-1.692-1.808-.789 0-1.713.456-1.713 1.752v6.053h-2.56v-5.997c0-1.352-.887-1.808-1.694-1.808-.807 0-1.712.456-1.712 1.808v5.997h-2.56v-9.918h2.5v.914c.67-.667 1.615-1.028 2.56-1.028 1.142 0 2.068.4 2.717 1.256.866-.875 1.791-1.256 3.072-1.256 1.023 0 1.948.323 2.52.875.826.8 1.122 1.733 1.122 2.818v6.339h-2.56zM78.755 29.698h-2.03c-.924 0-1.436.418-1.436 1.123 0 .685.472 1.142 1.477 1.142.708 0 1.161-.057 1.614-.476.277-.248.375-.647.375-1.256v-.533zm.059 4.187v-.856c-.69.666-1.34.952-2.52.952-1.162 0-2.008-.286-2.619-.876-.551-.552-.847-1.352-.847-2.227 0-1.58 1.122-2.874 3.505-2.874h2.422v-.496c0-1.084-.551-1.56-1.91-1.56-.985 0-1.438.228-1.969.818l-1.634-1.541c1.004-1.067 1.989-1.372 3.702-1.372 2.874 0 4.37 1.181 4.37 3.503v6.53h-2.5zM89.44 33.886v-5.997c0-1.352-.887-1.808-1.693-1.808-.807 0-1.713.456-1.713 1.808v5.997h-2.558v-9.918h2.499v.914c.67-.686 1.615-1.028 2.56-1.028 1.023 0 1.85.323 2.42.875.828.8 1.045 1.733 1.045 2.818v6.339h-2.56z"/>
    </g>
</svg>
