<svg xmlns="http://www.w3.org/2000/svg" width="20" height="20">
    <path data-name="사각형 2356" transform="rotate(180 10 10)" style="fill:none" d="M0 0h20v20H0z"/>
    <path data-name="패스 3076" d="M1979.119 605.446c0-.01.006-.019.008-.029l.012-.048.005-.025a.876.876 0 0 0 .014-.15v-.099a.61.61 0 0 0-.009-.062v-.013c0-.024-.011-.047-.017-.07l-.008-.026q-.007-.023-.016-.045l-.011-.028a.734.734 0 0 0-.023-.049l-.009-.019c-.011-.021-.024-.042-.037-.063l-.015-.021a.644.644 0 0 0-.033-.045l-.015-.019c-.017-.02-.034-.04-.053-.059l-4.369-4.369a.868.868 0 1 0-1.227 1.227l2.888 2.888h-9.807a.868.868 0 0 0 0 1.735h9.807l-2.888 2.888a.868.868 0 0 0 1.227 1.227l4.369-4.369v-.005l.053-.058.009-.012a.56.56 0 0 0 .036-.049l.016-.025.025-.042.015-.026c.01-.021.021-.042.029-.064 0-.009.007-.018.01-.026l.014-.05z" transform="translate(-1962.159 -595.424)" style="fill:#bdbdbd"/>
</svg>
