<svg xmlns="http://www.w3.org/2000/svg" width="20" height="20" viewBox="0 0 20 20">
    <g>
        <path fill="none" d="M0 0H20V20H0z" transform="translate(1415 -374) translate(-1415 374)"/>
        <path fill="#bdbdbd" d="M1979.119 605.446c0-.01.006-.019.008-.029l.012-.048.005-.025a.876.876 0 0 0 .014-.15v-.02-.056-.023c0-.008-.005-.041-.009-.062v-.013c0-.024-.011-.047-.017-.07l-.008-.026q-.007-.023-.016-.045l-.011-.028-.023-.049-.009-.019c-.011-.021-.024-.042-.037-.063l-.015-.021-.033-.045-.015-.019c-.017-.02-.034-.04-.053-.059l-4.369-4.369a.868.868 0 1 0-1.227 1.227l2.888 2.888h-9.807a.868.868 0 0 0 0 1.735h9.807l-2.888 2.888a.868.868 0 0 0 1.227 1.227l4.369-4.369v-.005l.053-.058.009-.012c.013-.016.025-.032.036-.049l.016-.025.025-.042.015-.026c.01-.021.021-.042.029-.064 0-.009.007-.018.01-.026l.014-.05z" transform="translate(1415 -374) rotate(180 283.58 494.712)"/>
    </g>
</svg>
