<svg width="20" height="20" viewBox="0 0 20 20" fill="none" xmlns="http://www.w3.org/2000/svg">
<path d="M8.013 10.019L12.194 5.839C12.2819 5.75081 12.4013 5.70117 12.5258 5.70098C12.6503 5.70079 12.7698 5.75008 12.858 5.838C12.9462 5.92592 12.9958 6.04527 12.996 6.16979C12.9962 6.29432 12.9469 6.41381 12.859 6.502L9.013 10.351L12.862 14.201C12.9073 14.2443 12.9435 14.2962 12.9684 14.3536C12.9933 14.4111 13.0065 14.473 13.0072 14.5356C13.0079 14.5983 12.996 14.6604 12.9724 14.7184C12.9487 14.7764 12.9137 14.8291 12.8693 14.8733C12.825 14.9176 12.7723 14.9525 12.7142 14.9761C12.6562 14.9997 12.594 15.0115 12.5314 15.0107C12.4688 15.0099 12.4069 14.9966 12.3495 14.9716C12.2921 14.9466 12.2402 14.9103 12.197 14.865L8.013 10.683C7.92603 10.5944 7.87731 10.4752 7.87731 10.351C7.87731 10.2268 7.92603 10.1076 8.013 10.019V10.019Z" fill="#717171"/>
</svg>
