<svg xmlns="http://www.w3.org/2000/svg" width="24" height="24" viewBox="0 0 24 24">
    <defs>
        <style>
            .cls-2{fill:#aaaeb2}
        </style>
    </defs>
    <g id="ico_deleteall_24px" transform="translate(-1580 -1108)">
        <g id="그룹_2699" transform="translate(10 65)">
            <path id="사각형_2262" fill="none" d="M0 0H24V24H0z" transform="translate(1570 1043)"/>
        </g>
        <g id="그룹_2700" transform="translate(-1.873 1.964)">
            <g id="그룹_2694" transform="translate(1220.235 915.927)">
                <path id="패스_3030" d="M382.259 241.6h-9.188a.352.352 0 0 0-.351.378l.673 9.2a1.318 1.318 0 0 0 1.313 1.2h5.918a1.318 1.318 0 0 0 1.313-1.2l.673-9.2a.352.352 0 0 0-.351-.378zm-6.969 9.244h-.01a.323.323 0 0 1-.323-.313l-.241-7.531a.323.323 0 1 1 .647-.021l.242 7.537a.323.323 0 0 1-.314.331zm2.7-.323a.323.323 0 1 1-.647 0v-7.537a.323.323 0 1 1 .647 0zm2.385.009a.323.323 0 0 1-.323.314h-.009a.324.324 0 0 1-.314-.332l.216-7.537a.323.323 0 1 1 .647.018z" class="cls-2" transform="translate(-5.443 -40.703)"/>
                <path id="패스_3031" d="M376.7 198.735h-1.477v-.3a1.363 1.363 0 0 0-1.361-1.361h-3.153a1.363 1.363 0 0 0-1.361 1.361v.3h-1.606a.981.981 0 0 0-.981.982v.185a.352.352 0 0 0 .352.352h10.217a.352.352 0 0 0 .352-.352v-.185a.982.982 0 0 0-.982-.982zm-2.285 0h-4.258v-.3a.553.553 0 0 1 .552-.553h3.153a.553.553 0 0 1 .553.553z" class="cls-2" transform="rotate(-27 368.26 199.915)"/>
            </g>
            <path id="패스_3036" d="M17.213 6.829l-1.074 2.6 2.709.493-.384-.709a4.458 4.458 0 0 1 4.3-1.477s-2.664-2.01-5.079-.079z" class="cls-2" transform="translate(1578.832 1106.004)"/>
        </g>
    </g>
</svg>
