<svg xmlns="http://www.w3.org/2000/svg" width="40" height="40" viewBox="0 0 40 40">
    <defs>
        <style>
            .cls-2{fill:#fff}
        </style>
    </defs>
    <g id="ico_fastfoward_40px" transform="translate(-260 -967)">
        <path id="사각형_2447" fill="none" d="M0 0H40V40H0z" transform="translate(260 967)"/>
        <g id="Page-1" transform="translate(260.594 974.983)">
            <g id="_118---Forward" transform="translate(9.406 1.017)">
                <path id="Shape" d="M27.8 7.344a.793.793 0 0 0-1.244.983 8.627 8.627 0 0 1 1.875 5.4 8.718 8.718 0 1 1-9.745-8.655l-1.074.921a.793.793 0 0 0 1.03 1.2l2.771-2.373a.792.792 0 0 0 0-1.2l-2.774-2.381a.793.793 0 1 0-1.03 1.2l1.2 1.025a10.3 10.3 0 1 0 11.203 10.265A10.2 10.2 0 0 0 27.8 7.344z" class="cls-2" transform="translate(-9.406 -1.035)"/>
                <path id="Shape-2" d="M300.6 7.094a.792.792 0 0 0 1.118.086l2.775-2.38a.792.792 0 0 0 0-1.2l-2.774-2.378a.793.793 0 1 0-1.03 1.2l2.07 1.778-2.071 1.776a.793.793 0 0 0-.087 1.117z" class="cls-2" transform="translate(-287.333 -1.017)"/>
                <g id="그룹_2810" transform="translate(2.623 -3.36)">
                    <path id="Shape-3" d="M294.7 194a.709.709 0 0 0 0 1.417h2.124a.709.709 0 0 0 0-1.417h-.354v-6.024a.708.708 0 0 0-1.1-.59l-1.062.709a.709.709 0 0 0 .747 1.2V194z" class="cls-2" transform="translate(-287.612 -174.906)"/>
                </g>
            </g>
        </g>
    </g>
</svg>
