<svg xmlns="http://www.w3.org/2000/svg" width="21" height="21" viewBox="0 0 21 21">
    <path fill="#c9c9c9" stroke="#c9c9c9" d="M182.143 165h-14.286a2.866 2.866 0 0 0-2.857 2.857v14.286a2.866 2.866 0 0 0 2.857 2.857h14.286a2.866 2.866 0 0 0 2.857-2.857v-14.286a2.866 2.866 0 0 0-2.857-2.857zm1.9 17.143a1.907 1.907 0 0 1-1.9 1.9h-14.286a1.907 1.907 0 0 1-1.9-1.9v-14.286a1.907 1.907 0 0 1 1.9-1.9h14.286a1.907 1.907 0 0 1 1.9 1.9zm-10.389-8.943a.416.416 0 1 1-.589.589l-3.454-3.454v2.327a.417.417 0 1 1-.833 0v-3.332a.412.412 0 0 1 .03-.152v-.006a.417.417 0 0 1 .227-.227h.006a.414.414 0 0 1 .152-.03h3.332a.417.417 0 1 1 0 .833H170.2zm7.619 4.46v3.332a.413.413 0 0 1-.03.152v.006a.417.417 0 0 1-.227.227h-.006a.414.414 0 0 1-.152.03h-3.332a.417.417 0 1 1 0-.833h2.327l-3.454-3.454a.416.416 0 0 1 .589-.589l3.454 3.454v-2.325a.417.417 0 0 1 .833 0z" transform="translate(-164.5 -164.5)"/>
</svg>
