<svg xmlns="http://www.w3.org/2000/svg" width="40" height="40" viewBox="0 0 40 40">
    <g>
        <path fill="none" d="M0 0H40V40H0z" transform="translate(-335 -890) translate(335 890)"/>
        <g>
            <path fill="#fff" d="M11.1 25.291a1.007 1.007 0 0 1-1.65.775L3.941 21.5H1.007A1.007 1.007 0 0 1 0 20.5v-4.018a1.008 1.008 0 0 1 1.007-1.008h2.934l5.508-4.564a1.008 1.008 0 0 1 1.65.776v13.6zm3.872-1.574H14.9a1.006 1.006 0 0 1-.712-.295l-.135-.135a1.007 1.007 0 0 1-.1-1.312A5.858 5.858 0 0 0 13.8 14.8a1.007 1.007 0 0 1 .069-1.347l.131-.136a.985.985 0 0 1 .763-.294 1.009 1.009 0 0 1 .73.368 8.068 8.068 0 0 1 .21 9.924 1.008 1.008 0 0 1-.733.402zm4.165 3.113a1.008 1.008 0 0 1-.728.356h-.042a1.007 1.007 0 0 1-.712-.295l-.132-.132a1.008 1.008 0 0 1-.059-1.361 10.736 10.736 0 0 0-.178-14.027 1.008 1.008 0 0 1 .041-1.379l.132-.132a.981.981 0 0 1 .743-.3 1.007 1.007 0 0 1 .724.338 12.935 12.935 0 0 1 .212 16.927z" transform="translate(-335 -890) translate(344 891.436) translate(0 0)"/>
        </g>
    </g>
</svg>
