<svg xmlns="http://www.w3.org/2000/svg" width="40" height="40" viewBox="0 0 40 40">
    <g>
        <path fill="none" d="M0 0H40V40H0z" transform="translate(-304 -950) translate(304 950)"/>
        <g>
            <g>
                <path fill="#fff" d="M11.605 29.517a1.053 1.053 0 0 1-1.726.811l-5.758-4.772H1.053A1.053 1.053 0 0 1 0 24.5v-4.2a1.054 1.054 0 0 1 1.053-1.054h3.068L9.88 14.48a1.054 1.054 0 0 1 1.726.811v14.226zm4.048-1.646h-.076a1.052 1.052 0 0 1-.745-.308l-.141-.141a1.053 1.053 0 0 1-.1-1.372 6.125 6.125 0 0 0-.162-7.506 1.053 1.053 0 0 1 .073-1.409l.14-.135a1.03 1.03 0 0 1 .8-.307 1.055 1.055 0 0 1 .763.385 8.436 8.436 0 0 1 .22 10.377 1.054 1.054 0 0 1-.771.416z" transform="translate(-304 -950) translate(313 952.008) translate(0 10.3) translate(0 -14.237)"/>
            </g>
            <path fill="#fff" d="M69.566 27.047a1.054 1.054 0 0 1-.761.373h-.044a1.053 1.053 0 0 1-.745-.308l-.138-.138a1.054 1.054 0 0 1-.061-1.423 11.226 11.226 0 0 0-.186-14.668 1.054 1.054 0 0 1 .042-1.442l.138-.138a1.025 1.025 0 0 1 .777-.31 1.053 1.053 0 0 1 .757.353 13.526 13.526 0 0 1 .222 17.7z" opacity="0.212" transform="translate(-304 -950) translate(313 952.008) translate(-50.569)"/>
        </g>
    </g>
</svg>
