<svg xmlns="http://www.w3.org/2000/svg" width="20" height="20" viewBox="0 0 20 20">
    <g>
        <path fill="none" d="M0 0H20V20H0z" transform="translate(-1570 -604) translate(1570 604)"/>
        <path fill="#aaaeb2" d="M11.222 5.313a.608.608 0 0 1 0 .86l-4.079 4.078a.608.608 0 0 1-.86 0L4.342 8.31a.608.608 0 0 1 .86-.86l1.512 1.512 3.649-3.649a.608.608 0 0 1 .859 0zm4.342 2.469A7.782 7.782 0 1 1 7.782 0a7.778 7.778 0 0 1 7.782 7.782zm-1.216 0a6.566 6.566 0 1 0-6.566 6.566 6.563 6.563 0 0 0 6.566-6.566z" transform="translate(-1570 -604) translate(1572 606)"/>
    </g>
</svg>
