<svg xmlns="http://www.w3.org/2000/svg" width="20" height="20" viewBox="0 0 20 20">
    <defs>
        <style>
            .cls-2{fill:#c9c9c9;stroke:#c9c9c9;stroke-width:.2px}
        </style>
    </defs>
    <g id="ico_metadata_20px" transform="translate(1483 -2081)">
        <path id="사각형_2549" fill="none" d="M0 0H20V20H0z" transform="translate(-1483 2081)"/>
        <g id="그룹_2849" transform="translate(-2132.855 1387.753)">
            <path id="패스_4353" d="M655.951 697.28a1.061 1.061 0 0 0-1.6 0l-4.015 4.425a1.341 1.341 0 0 0 0 1.768l4.015 4.424a1.061 1.061 0 0 0 1.6 0 1.341 1.341 0 0 0 0-1.768l-3.213-3.54 3.213-3.541a1.341 1.341 0 0 0 0-1.768z" class="cls-2" transform="translate(0 0.53)"/>
            <path id="패스_4354" d="M2358.992 701.7l-4.015-4.425a1.061 1.061 0 0 0-1.6 0 1.341 1.341 0 0 0 0 1.768l3.213 3.541-3.213 3.54a1.341 1.341 0 0 0 0 1.768 1.061 1.061 0 0 0 1.6 0l4.015-4.424a1.341 1.341 0 0 0 0-1.768z" class="cls-2" transform="translate(-1689.614 0.53)"/>
            <path id="패스_4355" d="M4.124.1c-.6-.357-1.236.224-1.432 1.3L.051 15.915a2.675 2.675 0 0 0 .724 2.595.694.694 0 0 0 .357.1c.476 0 .918-.543 1.075-1.4L4.848 2.7A2.674 2.674 0 0 0 4.124.1z" class="cls-2" transform="matrix(1, 0.017, -0.017, 1, 657.562, 693.944)"/>
        </g>
    </g>
</svg>
