<svg xmlns="http://www.w3.org/2000/svg" width="40" height="40" viewBox="0 0 40 40">
    <defs>
        <style>
            .cls-2{fill:#fff}
        </style>
    </defs>
    <g id="ico_backfoward_40px" transform="translate(-168 -967)">
        <path id="사각형_2448" fill="none" d="M0 0H40V40H0z" transform="translate(168 967)"/>
        <g id="그룹_2807" transform="translate(-3 2)">
            <g id="Page-1" transform="translate(181 974)">
                <g id="_119---Rewind">
                    <path id="Shape" d="M1333.728-249.124l1.2-1.026a.794.794 0 0 0 .072-1.105.792.792 0 0 0-1.1-.1l-2.774 2.38a.793.793 0 0 0-.277.6.793.793 0 0 0 .277.6l2.774 2.38a.792.792 0 0 0 .788.161.793.793 0 0 0 .523-.612.794.794 0 0 0-.281-.755l-1.074-.922a8.726 8.726 0 0 1 7.666 9.354 8.723 8.723 0 0 1-9.037 8.035 8.724 8.724 0 0 1-8.375-8.724 8.643 8.643 0 0 1 1.875-5.408.794.794 0 0 0 .122-.79.793.793 0 0 0-.626-.5.792.792 0 0 0-.74.3 10.216 10.216 0 0 0-2.217 6.392 10.31 10.31 0 0 0 10 10.313 10.309 10.309 0 0 0 10.591-9.706 10.312 10.312 0 0 0-9.382-10.88z" class="cls-2" transform="translate(-1322.519 251.533)"/>
                    <path id="Shape-2" d="M1396.21-245.379a.8.8 0 0 0 .79.161.8.8 0 0 0 .524-.613.8.8 0 0 0-.281-.756l-2.077-1.781 2.077-1.781a.8.8 0 0 0 .072-1.107.8.8 0 0 0-1.1-.1l-2.782 2.385a.8.8 0 0 0-.278.6.8.8 0 0 0 .278.6z" class="cls-2" transform="translate(-1389.981 251.533)"/>
                </g>
            </g>
            <g id="그룹_2806" transform="translate(189.971 982.976)">
                <path id="Shape-3" d="M294.7 194a.709.709 0 0 0 0 1.417h2.126a.709.709 0 0 0 0-1.417h-.354v-6.024a.709.709 0 0 0-1.1-.59l-1.063.709a.709.709 0 0 0 .747 1.2V194z" class="cls-2" transform="translate(-293.989 -187.266)"/>
            </g>
        </g>
    </g>
</svg>
