<svg xmlns="http://www.w3.org/2000/svg" width="24" height="24" viewBox="0 0 24 24">
    <defs>
        <style>
            .cls-2{fill:#aaaeb2;stroke:#aaaeb2;stroke-width:.2px}
        </style>
    </defs>
    <g id="ico_newpage_24px" transform="translate(-517 -7892)">
        <path id="사각형_2425" fill="none" d="M0 0H24V24H0z" transform="translate(517 7892)"/>
        <g id="ico_newpage_20px" transform="translate(521.926 7896.926)">
            <path id="패스_4319" d="M126.074 118.317v6.934a.822.822 0 0 1-.822.822h-10.818a.822.822 0 0 1-.822-.822v-10.817a.822.822 0 0 1 .822-.822h6.934a.48.48 0 0 1 .48.48.48.48 0 0 1-.48.48h-6.614a.183.183 0 0 0-.183.183v10.177a.183.183 0 0 0 .183.183h10.177a.183.183 0 0 0 .183-.183v-6.614a.48.48 0 0 1 .48-.48.48.48 0 0 1 .48.479z" class="cls-2" transform="translate(-113.612 -112.304)"/>
            <path id="패스_4320" d="M253.926 81.966v2.642a.417.417 0 0 1-.417.417h-.022a.417.417 0 0 1-.417-.417v-1.519a.033.033 0 0 0-.055-.023l-5.346 5.346a.438.438 0 0 1-.595.03.428.428 0 0 1-.021-.625l5.356-5.356a.033.033 0 0 0-.023-.055h-1.519a.417.417 0 0 1-.417-.417v-.022a.417.417 0 0 1 .417-.417h2.642a.417.417 0 0 1 .417.416z" class="cls-2" transform="translate(-240.156 -81.549)"/>
        </g>
    </g>
</svg>
