<svg xmlns="http://www.w3.org/2000/svg" width="40" height="40" viewBox="0 0 40 40">
    <defs>
        <style>
            .cls-1{fill:#fff}
        </style>
    </defs>
    <g id="ico_repeat_40px" transform="translate(-1014 -982)">
        <g id="그룹_2811" transform="translate(1018 980)">
            <path id="패스_4330" d="M26.525 28.836a.746.746 0 0 0-.75.742v2.244a3.036 3.036 0 0 1-3.05 3.015H10.446v-1.112a.306.306 0 0 0-.475-.254l-2.82 1.845a.3.3 0 0 0 0 .5l2.806 1.866a.306.306 0 0 0 .477-.25v-1.114h12.292a4.53 4.53 0 0 0 4.549-4.5v-2.24a.746.746 0 0 0-.75-.742z" class="cls-1" transform="translate(-0.643 -8.738)"/>
            <path id="패스_4331" d="M7.5 23.21v-2.293a3.036 3.036 0 0 1 3.049-3.017h12.285v1.114a.306.306 0 0 0 .476.25l2.811-1.864a.3.3 0 0 0 0-.5L23.3 15.051a.306.306 0 0 0-.475.253v1.112H10.549A4.53 4.53 0 0 0 6 20.917v2.293a.75.75 0 0 0 1.5 0z" class="cls-1" transform="translate(0 0)"/>
        </g>
        <path id="사각형_2449" fill="none" d="M0 0H40V40H0z" transform="translate(1014 982)"/>
    </g>
</svg>
