<svg xmlns="http://www.w3.org/2000/svg" width="20" height="20.264" viewBox="0 0 20 20.264">
    <g>
        <path fill="none" d="M16.8 16.8h-20v-20h20z" transform="translate(3.2 3.359)"/>
        <path fill="#c9c9c9" stroke="#c9c9c9" stroke-width="0.186px" d="M13.477 4.81l-2.255-2.973A.972.972 0 0 1 11.427.5a.972.972 0 0 1 1.333.205l4.408 5.945a.972.972 0 0 1-.205 1.333.377.377 0 0 1-.308.1l-6.97 2.255a.955.955 0 0 1-1.23-.615A1.175 1.175 0 0 1 9.171 8.4l4.613-1.435a.777.777 0 0 0-.41-.205 6.376 6.376 0 1 0 2.973 6.663.809.809 0 0 1 .923-.718.985.985 0 0 1 .923.718v.308A8.082 8.082 0 1 1 11.734 4.3a3.778 3.778 0 0 1 1.743.513z" transform="translate(3.2 3.359) translate(-3.471 -3.526)"/>
    </g>
</svg>
