<svg xmlns="http://www.w3.org/2000/svg" width="20" height="20.122" viewBox="0 0 20 20.122">
    <g>
        <path fill="none" d="M0 0H20V20H0z" transform="translate(52 -381) translate(-52 381)"/>
        <path fill="#c9c9c9" stroke="#c9c9c9" stroke-width="0.2px" d="M68.942 32.038l3.41-1.486a.983.983 0 1 0-.785-1.8l-6.741 2.938a.983.983 0 0 0-.336 1.56l4.933 5.45a.983.983 0 0 0 1.458-1.318l-3.223-3.564c.158-.012.318-.018.48-.018a6.3 6.3 0 1 1-5.955 4.263s.284-.785-.391-1.085a.891.891 0 0 0-1.177.133l-.1.264a8.093 8.093 0 1 0 8.426-5.338z" transform="translate(52 -381) translate(-110.541 352.832)"/>
    </g>
</svg>
