<svg xmlns="http://www.w3.org/2000/svg" width="14" height="14">
    <path data-name="사각형 2556" style="fill:none" d="M0 0h14v14H0z"/>
    <g data-name="그룹 2855">
        <g data-name="그룹 2854">
            <path data-name="패스 4359" d="M10.672 1.947 8.99.293a1.025 1.025 0 0 0-1.434 0L.954 6.787a.354.354 0 0 0-.1.167l-.848 3.4a.359.359 0 0 0 .438.431L3.9 9.946a.363.363 0 0 0 .17-.094l6.6-6.494a.985.985 0 0 0 .002-1.411zm-9.816 8L.89 9.81l.106.1zm.962-.232L1.092 9l.316-1.265L3.1 9.405zm2-.619L1.721 7.038l5.4-5.315 2.096 2.059zm6.342-6.242-.418.411L7.65 1.207 8.068.8a.294.294 0 0 1 .411 0l1.681 1.65a.282.282 0 0 1 0 .404z" transform="translate(1 2)" style="fill:#fff"/>
        </g>
    </g>
</svg>
