<svg xmlns="http://www.w3.org/2000/svg" width="11.294" height="8" viewBox="0 0 11.294 8">
    <defs>
        <style>
            .cls-1{fill:#20252e}
        </style>
    </defs>
    <g id="ico_tippoint" transform="translate(166.294 -56) rotate(90)">
        <g id="ico_tippoint-2" transform="translate(76.516 167.116)">
            <path id="패스_3086" d="M-12.516-2.7v-.113c0-.064 0-.128-.008-.191a.092.092 0 0 1 .007-.036v-.262c0-.014-.009-.025-.009-.038 0-.083.006-.165.008-.248V-3.872c0-.081-.012-.162-.013-.244a.2.2 0 0 1 .01-.048v-.009-.049-.113l-.009-.146a.352.352 0 0 1 .014-.085v-.042-.337a.494.494 0 0 1 0-.054c0-.058.006-.116.011-.173v-.081-.216-.289a3.256 3.256 0 0 0-.009-.43l.012.094a.5.5 0 0 1 0-.145c0-.018-.006-.036-.007-.054v-.022a.245.245 0 0 1 0-.027.471.471 0 0 0 0-.053v-.035-.889a.1.1 0 0 1 0-.018c0-.082-.009-.165 0-.247 0-.012-.008-.022-.007-.034 0-.043 0-.086.009-.128v-.416-.58-.191-.1-.124V-9.164v-.029-.1-.015c0-.13-.009-.261-.009-.392a.177.177 0 0 1 .008-.031c0-.019-.007-.038-.007-.058v-.014-.072-.115-.073a.335.335 0 0 1 0-.043c-.006-.078 0-.157 0-.236v-.248a.072.072 0 0 1 .006-.029.053.053 0 0 1 0-.012v-.05a.055.055 0 0 1 0-.017l-.006-.325v-.011-.471l-7.253 4.634a.491.491 0 0 0-.231.421.491.491 0 0 0 .231.422l7.259 4.638v-.345a.184.184 0 0 1 .007-.032v-.032-.115c0-.076-.007-.151 0-.227v-.071-.155-.132c0-.025 0-.048.007-.071s0-.027 0-.041z" class="cls-1"/>
            <path id="패스_3087" fill="#3b3d45" d="M-12.517-1.789v-.032-.115-.066l-7-4.469 6.988-4.464v-.121-.534a.051.051 0 0 1 0-.017v-.154-.076a.427.427 0 0 1 .008-.08v-.018-.04a.548.548 0 0 0 0-.058v-.038a.121.121 0 0 1 0-.019v-.025l-7.515 4.8a.992.992 0 0 0-.462.843.993.993 0 0 0 .462.844l7.523 4.806a.32.32 0 0 1-.006-.053.214.214 0 0 1 .012-.061V-1a.4.4 0 0 0 0-.06v-.215c.009-.16 0-.318 0-.479a.184.184 0 0 1-.01-.035z" transform="translate(0)"/>
        </g>
        <path id="패스_3088" d="M-1379.608 1939.145l.6-.962v8.926l-.9-7.511z" class="cls-1" transform="translate(1443.008 -1782.018)"/>
    </g>
</svg>
