<svg id="ico_metadata_20px" xmlns="http://www.w3.org/2000/svg" width="20" height="20">
    <defs>
        <style>
            .cls-2{fill:#c9c9c9;stroke:#c9c9c9;stroke-width:.2px}
        </style>
    </defs>
    <path id="사각형_2549" data-name="사각형 2549" style="fill:none" d="M0 0h20v20H0z"/>
    <g id="그룹_2849" data-name="그룹 2849" transform="translate(-649.855 -693.247)">
        <path id="패스_4353" data-name="패스 4353" class="cls-2" d="M655.951 697.28a1.061 1.061 0 0 0-1.6 0l-4.015 4.425a1.341 1.341 0 0 0 0 1.768l4.015 4.424a1.061 1.061 0 0 0 1.6 0 1.341 1.341 0 0 0 0-1.768l-3.213-3.54 3.213-3.541a1.341 1.341 0 0 0 0-1.768z" transform="translate(0 .53)"/>
        <path id="패스_4354" data-name="패스 4354" class="cls-2" d="m2358.992 701.7-4.015-4.425a1.061 1.061 0 0 0-1.6 0 1.341 1.341 0 0 0 0 1.768l3.213 3.541-3.213 3.54a1.341 1.341 0 0 0 0 1.768 1.061 1.061 0 0 0 1.6 0l4.015-4.424a1.341 1.341 0 0 0 0-1.768z" transform="translate(-1689.614 .53)"/>
        <path id="패스_4355" data-name="패스 4355" class="cls-2" d="M4.124.1c-.6-.357-1.236.224-1.432 1.3L.051 15.915a2.675 2.675 0 0 0 .724 2.595.694.694 0 0 0 .357.1c.476 0 .918-.543 1.075-1.4L4.848 2.7A2.674 2.674 0 0 0 4.124.1z" transform="translate(657.562 693.944)"/>
    </g>
</svg>
