<svg xmlns="http://www.w3.org/2000/svg" width="20" height="20" viewBox="0 0 20 20">
    <defs>
        <style>
            .cls-1{fill:#c9c9c9}
        </style>
    </defs>
    <g id="ico_plus_20px" transform="translate(114 -308)">
        <g id="그룹_2678" transform="translate(-554.596 -443.261)">
            <path id="패스_3013" d="M460.316 769.349l-5.643-5.2a7.936 7.936 0 1 0-1.191 1.191l5.2 5.643a1.14 1.14 0 0 0 1.564-.068 1.14 1.14 0 0 0 .07-1.566zm-7.372-5.74a6.269 6.269 0 1 1 0-8.866 6.276 6.276 0 0 1 0 8.866z" class="cls-1"/>
            <path id="패스_3014" d="M561.894 869.233h-1.669v-1.668a.829.829 0 0 0-1.658 0v1.668H556.9a.829.829 0 0 0-.829.829.829.829 0 0 0 .829.829h1.669v1.669a.829.829 0 0 0 1.658 0v-1.669h1.669a.829.829 0 0 0 .829-.829.829.829 0 0 0-.831-.829z" class="cls-1" transform="translate(-110.897 -110.898)"/>
        </g>
    </g>
</svg>
