<svg id="ico_addclipboard_24px" xmlns="http://www.w3.org/2000/svg" width="24" height="24">
    <defs>
        <style>
            .cls-2{fill:#aaaeb2;stroke:#aaaeb2;stroke-width:.3px}
        </style>
    </defs>
    <path id="사각형_2550" data-name="사각형 2550" style="fill:none" d="M0 0h24v24H0z"/>
    <g id="그룹_2850" data-name="그룹 2850" transform="translate(-504.827 -75.461)">
        <path id="패스_4356" data-name="패스 4356" class="cls-2" d="M592.573 131.695v-.064c0-.014 0-.029-.007-.043v-.014c0-.017-.008-.034-.014-.051a.385.385 0 0 0-.019-.047l-.006-.013a.372.372 0 0 0-.021-.039v-.008q-.014-.023-.03-.044l-.007-.009-.028-.033-.01-.011a.468.468 0 0 0-.039-.038l-4.552-3.93-.508-.423h-5.106a.57.57 0 0 0-.577.562v6.929h-.008v1.124h.006v4.12a.57.57 0 0 0 .577.562H592a.57.57 0 0 0 .577-.562V131.7s-.004 0-.004-.005zm-4.877-2.958 2.78 2.4H587.7zM582.79 139.1v-11.05h3.752v3.65a.57.57 0 0 0 .577.562h4.3v6.838z" transform="translate(-69.035 -45.194)"/>
        <path id="패스_4357" data-name="패스 4357" class="cls-2" d="M513.458 92.068h-2.18v-11.05h4.148l.758.687.66.57h1.739l-2.268-1.958-.508-.423H510.7a.57.57 0 0 0-.577.562v6.929h-.008v1.124h.006v4.12a.57.57 0 0 0 .577.562h2.757z"/>
    </g>
</svg>
