<svg xmlns="http://www.w3.org/2000/svg" width="20" height="20" viewBox="0 0 20 20">
    <path fill="#aaaeb2" d="M-553.612 210.482a9.965 9.965 0 0 0-2.143-3.178 9.964 9.964 0 0 0-3.178-2.143 9.938 9.938 0 0 0-3.893-.786 9.938 9.938 0 0 0-3.893.786 9.966 9.966 0 0 0-3.181 2.139 9.966 9.966 0 0 0-2.143 3.178 9.938 9.938 0 0 0-.786 3.893 9.938 9.938 0 0 0 .786 3.893 9.967 9.967 0 0 0 2.143 3.178 9.967 9.967 0 0 0 3.178 2.143 9.939 9.939 0 0 0 3.893.786 9.938 9.938 0 0 0 3.893-.786 9.965 9.965 0 0 0 3.178-2.143 9.966 9.966 0 0 0 2.143-3.178 9.939 9.939 0 0 0 .786-3.893 9.939 9.939 0 0 0-.783-3.889zm-9.214-1.918a1.29 1.29 0 0 1 1.29 1.29 1.29 1.29 0 0 1-1.29 1.29 1.29 1.29 0 0 1-1.29-1.29 1.29 1.29 0 0 1 1.29-1.289zm2.251 11.621h-4.5v-1.567h.961v-5.438h-.961v-1.28h3.541v6.719h.961z" transform="translate(572.826 -204.375)"/>
</svg>
