<svg xmlns="http://www.w3.org/2000/svg" width="40" height="40" viewBox="0 0 40 40">
    <defs>
        <style>
            .cls-2{fill:#fff}
        </style>
    </defs>
    <g id="ico_speed_40px" transform="translate(-1282 -973)">
        <path id="사각형_2460" fill="none" d="M0 0H40V40H0z" transform="translate(1282 973)"/>
        <g id="그룹_2812" transform="translate(1301.027 654.697)">
            <path id="패스_4333" d="M7.565 345.811l-.647-.679a.457.457 0 0 1-.015-.611 7.31 7.31 0 0 0 1.7-6.288 7.2 7.2 0 0 0-2.862-4.577 7.448 7.448 0 0 0-10.1 10.83.453.453 0 0 1-.03.616l-.669.66a.453.453 0 0 1-.639 0 9.268 9.268 0 0 1-1.973-8.757 9.381 9.381 0 0 1 8.567-6.7 9.324 9.324 0 0 1 9.208 6.281 9.241 9.241 0 0 1-1.888 9.228.455.455 0 0 1-.652-.003z" class="cls-2"/>
            <path id="패스_4334" d="M86.949 389.374l.523.551a.345.345 0 0 1 .01.465l-4.075 4.661a.345.345 0 0 1-.5.016l-1.119-1.125a.345.345 0 0 1 .017-.5l4.67-4.087a.346.346 0 0 1 .474.019z" class="cls-2" transform="translate(-82.045 -53.927)"/>
        </g>
    </g>
</svg>
