<svg xmlns="http://www.w3.org/2000/svg" width="20" height="20" viewBox="0 0 20 20">
    <g>
        <path fill="none" d="M0 0H20V20H0z" transform="translate(-1663 -28) translate(1663 28)"/>
        <path fill="#aaaeb2" d="M31.4 95h-6.586a.334.334 0 0 0-.314.351v2.8a.334.334 0 0 0 .314.351H31.4a2.117 2.117 0 0 1 0 4.207h-1.88v-1.749a.353.353 0 0 0-.194-.324.293.293 0 0 0-.342.076l-3.138 3.506a.381.381 0 0 0 0 .5l3.138 3.506a.3.3 0 0 0 .222.1.29.29 0 0 0 .12-.027.353.353 0 0 0 .194-.324v-1.753h1.88c2.768 0 5.02-2.517 5.02-5.61S34.171 95 31.4 95z" transform="translate(-1663 -28) translate(1642.173 -61.365)"/>
    </g>
</svg>
