<svg xmlns="http://www.w3.org/2000/svg" width="24" height="24">
    <g data-name="Chevron Right Circle">
        <path data-name="패스 4352" d="M338 326a12 12 0 1 0 12 12 12 12 0 0 0-12-12zm0 22.5a10.511 10.511 0 1 1 10.5-10.5 10.511 10.511 0 0 1-10.5 10.5z" transform="translate(-326 -326)" style="fill:#c2c4ce"/>
        <path data-name="패스 4353" d="M349.543 340.925a.7.7 0 0 0-1.031 0 .815.815 0 0 0 0 1.1l4.518 4.843-4.519 4.843a.816.816 0 0 0 0 1.1.7.7 0 0 0 1.031 0l5.033-5.393a.833.833 0 0 0 0-1.1z" transform="translate(-339.127 -334.88)" style="fill:#343639"/>
    </g>
</svg>
