<svg xmlns="http://www.w3.org/2000/svg" width="16" height="16">
    <defs>
        <style>
            .cls-2{fill:#fff}
        </style>
    </defs>
    <g id="ico_download_16px" transform="translate(-912 -798)">
        <path id="사각형_2663" data-name="사각형 2663" transform="translate(912 798)" style="fill:none" d="M0 0h16v16H0z"/>
        <g id="그룹_2737" data-name="그룹 2737" transform="translate(506 313.124)">
            <g id="그룹_2736" data-name="그룹 2736" transform="translate(409 485.499)">
                <g id="그룹_2735" data-name="그룹 2735">
                    <path id="패스_4354" data-name="패스 4354" class="cls-2" d="M413.483 497.614a.592.592 0 0 0 .045.041l.022.016.026.02.027.016.025.015.028.013.027.012.028.01.029.011.028.007.031.008.032.005h.027a.625.625 0 0 0 .121 0h.027l.032-.005.031-.008.028-.007.029-.011.027-.01.027-.012.028-.013.025-.015.027-.016.026-.02.022-.016.045-.041 4.3-4.3a.615.615 0 0 0-.87-.869l-3.254 3.254v-9.581a.615.615 0 0 0-1.23 0v9.582l-3.254-3.254a.615.615 0 0 0-.87.869z" transform="translate(-409 -485.499)"/>
                    <path id="패스_4355" data-name="패스 4355" class="cls-2" d="M418.221 509.792h-8.607a.615.615 0 1 0 0 1.229h8.607a.615.615 0 1 0 0-1.229z" transform="translate(-409 -496.267)"/>
                </g>
            </g>
        </g>
    </g>
</svg>
