<svg xmlns="http://www.w3.org/2000/svg" width="24" height="24" viewBox="0 0 24 24">
    <g>
        <path fill="none" d="M0 0H24V24H0z" transform="translate(-37 -437) translate(37 437)"/>
        <path fill="#5488d6" d="M70.6 0H60.311A1.313 1.313 0 0 0 59 1.311v14.16a1.313 1.313 0 0 0 1.311 1.311H70.6a1.313 1.313 0 0 0 1.311-1.311V1.311A1.313 1.313 0 0 0 70.6 0zm-3.219 1.311v1.268h-3.847V1.311zM70.6 15.472H60.311V1.311h1.912v1.268a1.313 1.313 0 0 0 1.311 1.311h3.846a1.313 1.313 0 0 0 1.311-1.311V1.311H70.6v14.16zm-1.912-4.5a.656.656 0 0 1-.656.656h-5.153a.656.656 0 1 1 0-1.311h5.157a.656.656 0 0 1 .656.653zm0-3.868a.656.656 0 0 1-.656.656h-5.153a.656.656 0 1 1 0-1.311h5.157a.656.656 0 0 1 .656.651z" transform="translate(-37 -437) translate(-16 441)"/>
    </g>
</svg>
