<svg xmlns="http://www.w3.org/2000/svg" width="18.303" height="18.302" viewBox="0 0 18.303 18.302">
    <defs>
        <style>
            .cls-1{fill:#aaaeb2;stroke:#aaaeb2;stroke-width:.4px}
        </style>
    </defs>
    <g id="ico_info_18px" transform="translate(0.15 0.15)">
        <g id="그룹_90">
            <path id="패스_3036" d="M236.168 107.418a.75.75 0 1 1-.75-.75.75.75 0 0 1 .75.75zm0 0" class="cls-1" transform="translate(-226.417 -102.917)"/>
            <path id="패스_3037" d="M204.543 199.5a.563.563 0 0 1-.563-.563v-5.813h-.75a.563.563 0 0 1 0-1.125h1.313a.563.563 0 0 1 .563.563v6.376a.563.563 0 0 1-.563.562zm0 0" class="cls-1" transform="translate(-195.542 -185.249)"/>
            <path id="패스_3038" fill="#aaaeb2" stroke="#aaaeb2" stroke-width="0.3px" d="M9 18a9 9 0 1 1 9-9 9.011 9.011 0 0 1-9 9zM9 1.125A7.876 7.876 0 1 0 16.877 9 7.885 7.885 0 0 0 9 1.125zm0 0"/>
            <path id="패스_3039" d="M195.938 374.457h-3.375a.563.563 0 1 1 0-1.125h3.375a.563.563 0 0 1 0 1.125zm0 0" class="cls-1" transform="translate(-185.249 -360.205)"/>
        </g>
    </g>
</svg>
