<svg xmlns="http://www.w3.org/2000/svg" width="24" height="24">
    <defs>
        <style>
            .cls-2{fill:#5488d6;stroke:#5488d6;stroke-width:.4px}
        </style>
    </defs>
    <g id="ico_delete_24px" transform="translate(-28 -432)">
        <path id="사각형_2614" data-name="사각형 2614" transform="translate(28 432)" style="fill:none" d="M0 0h24v24H0z"/>
        <g id="delete" transform="translate(34.003 436.001)">
            <path id="패스_4337" data-name="패스 4337" class="cls-2" d="M222.756 154.7a.371.371 0 0 0-.358.383v7.236a.359.359 0 1 0 .716 0v-7.236a.371.371 0 0 0-.358-.383zm0 0" transform="translate(-214.444 -148.781)"/>
            <path id="패스_4338" data-name="패스 4338" class="cls-2" d="M104.756 154.7a.371.371 0 0 0-.358.383v7.236a.359.359 0 1 0 .716 0v-7.236a.371.371 0 0 0-.358-.383zm0 0" transform="translate(-100.666 -148.781)"/>
            <path id="패스_4339" data-name="패스 4339" class="cls-2" d="M1.013 4.866V14.3a2.2 2.2 0 0 0 .525 1.457 1.71 1.71 0 0 0 1.278.592h6.77a1.709 1.709 0 0 0 1.278-.592 2.2 2.2 0 0 0 .525-1.457V4.866a1.463 1.463 0 0 0 1-1.6 1.4 1.4 0 0 0-1.351-1.276H9.207v-.479A1.56 1.56 0 0 0 8.794.438 1.36 1.36 0 0 0 7.79 0H4.612a1.36 1.36 0 0 0-1 .439A1.56 1.56 0 0 0 3.2 1.511v.479H1.364A1.4 1.4 0 0 0 .008 3.263a1.463 1.463 0 0 0 1.005 1.603zm8.573 10.716h-6.77A1.183 1.183 0 0 1 1.729 14.3V4.9h8.945v9.4a1.183 1.183 0 0 1-1.088 1.282zM3.911 1.511a.764.764 0 0 1 .2-.532.666.666 0 0 1 .5-.215H7.79a.666.666 0 0 1 .5.215.764.764 0 0 1 .2.532v.479H3.911zM1.364 2.755h9.675a.668.668 0 0 1 .644.689.668.668 0 0 1-.644.689H1.364a.668.668 0 0 1-.644-.688.668.668 0 0 1 .644-.69zm0 0"/>
            <path id="패스_4340" data-name="패스 4340" class="cls-2" d="M163.756 154.7a.371.371 0 0 0-.358.383v7.236a.359.359 0 1 0 .716 0v-7.236a.371.371 0 0 0-.358-.383zm0 0" transform="translate(-157.555 -148.781)"/>
        </g>
    </g>
</svg>
