<svg xmlns="http://www.w3.org/2000/svg" width="24" height="24" viewBox="0 0 24 24">
    <g>
        <path fill="none" d="M0 0H24V24H0z" transform="translate(-669 -530) translate(669 530)"/>
        <path fill="#b9b9b9" stroke="rgba(0,0,0,0)" stroke-miterlimit="10" d="M-9960.043-1929.725a1.958 1.958 0 0 1-1.958-1.958v-12.4a1.958 1.958 0 0 1 1.958-1.958h1.96v-1.308a.651.651 0 0 1 .652-.652.653.653 0 0 1 .652.652v1.308h7.833v-1.308a.651.651 0 0 1 .652-.652.655.655 0 0 1 .655.652v1.308h1.955a1.956 1.956 0 0 1 1.958 1.958v12.4a1.956 1.956 0 0 1-1.958 1.958zm-.65-1.958a.651.651 0 0 0 .65.652h14.36a.653.653 0 0 0 .652-.652v-8.485h-15.663zM-9952-1933v-2h4v2zm-6 0v-2h4v2zm6-3v-2h4v2zm-6 0v-2h4v2z" transform="translate(-669 -530) translate(10634 2481)"/>
    </g>
</svg>
