<svg id="ico_filter_16px" xmlns="http://www.w3.org/2000/svg" width="20" height="20">
    <defs>
        <style>
            .cls-2{fill:#aaaeb2}
        </style>
    </defs>
    <path id="사각형_2700" data-name="사각형 2700" style="fill:none" d="M0 0h20v20H0z"/>
    <g id="그룹_2856" data-name="그룹 2856" transform="translate(1.289 1)">
        <g id="그룹_2855" data-name="그룹 2855">
            <g id="그룹_2854" data-name="그룹 2854">
                <path id="패스_4365" data-name="패스 4365" class="cls-2" d="M419.256 419.028V417.2l-.943-.156a4.273 4.273 0 0 0-.321-.836l.582-.778-1.344-1.284-.8.545a3.926 3.926 0 0 0-.843-.311l-.161-.934h-1.886l-.16.934a3.435 3.435 0 0 0-.843.331l-.8-.564-1.344 1.264.441.564h-8.487c-.221 0-.341.253-.341.467v1.828a.437.437 0 0 0 .08.272l5.337 5.271v7.158a.386.386 0 0 0 .181.331.41.41 0 0 0 .221.058l.16-.039 3.05-1.478a.386.386 0 0 0 .2-.35v-5.68l2.027-1.965h.1l.181.934h1.886l.161-.934a3.141 3.141 0 0 0 .842-.331l.8.564 1.344-1.3-.582-.778a4.089 4.089 0 0 0 .321-.817zm-16.456-2.276h7.885a1.269 1.269 0 0 1-.08.253l-.983.195v.525H402.8zm7.765 6.633a.4.4 0 0 0-.14.272v5.582l-2.207 1.109v-6.691a.346.346 0 0 0-.12-.272l-4.936-4.882h6.461v.525l.983.156a3.713 3.713 0 0 0 .341.817l-.562.8 1.344 1.284.582-.408zm7.083-4.882-.04.253a2.874 2.874 0 0 1-.441 1.05l-.141.214.5.681-.381.37-.682-.467-.221.136a3.494 3.494 0 0 1-1.1.428l-.261.039-.141.8h-.522l-.141-.8-.261-.039a2.918 2.918 0 0 1-1.083-.428l-.241-.136-.682.467-.381-.37.482-.661-.14-.214a3.359 3.359 0 0 1-.441-1.05l-.06-.272-.843-.136v-.506l.843-.136.06-.253a2.868 2.868 0 0 1 .441-1.05l.14-.214-.482-.681.381-.37.682.467.221-.136a3.5 3.5 0 0 1 1.1-.428l.261-.039.141-.8h.522l.141.8.261.039a3.308 3.308 0 0 1 1.083.428l.241.156.682-.486.381.37-.482.661.141.214a3.179 3.179 0 0 1 .441 1.05v.272l.8.117v.525z" transform="translate(-402 -413.445)"/>
                <path id="패스_4366" data-name="패스 4366" class="cls-2" d="M442.092 423.888a1.554 1.554 0 1 0 1.554 1.554 1.554 1.554 0 0 0-1.554-1.554zm0 2.474a.92.92 0 1 1 .92-.92.92.92 0 0 1-.92.92z" transform="translate(-429.373 -420.988)"/>
            </g>
        </g>
    </g>
</svg>
