<svg xmlns="http://www.w3.org/2000/svg" width="20" height="20">
    <path data-name="사각형 2750" style="fill:none" d="M0 0h20v20H0z"/>
    <path data-name="패스 4370" d="M94.777 24a.535.535 0 0 0-.521.547v6.2a.713.713 0 0 1-.7.729h-3.777L90.8 30.4a.566.566 0 0 0 0-.774.5.5 0 0 0-.737 0l-1.912 2.006a.566.566 0 0 0 0 .774l1.912 2.006a.5.5 0 0 0 .737 0 .566.566 0 0 0 0-.774l-1.021-1.068h3.781a1.782 1.782 0 0 0 1.74-1.823v-6.2a.535.535 0 0 0-.523-.547z" transform="translate(-81.999 -19)" style="fill:#1054b2;stroke:#f0f4ff;stroke-width:.1px"/>
</svg>
