<svg xmlns="http://www.w3.org/2000/svg" width="20" height="20">
    <path data-name="사각형 2648" style="fill:none" d="M0 0h20v20H0z"/>
    <g data-name="그룹 2728">
        <g data-name="그룹 2725">
            <g data-name="그룹 2724">
                <path data-name="패스 4347" d="M16.7.971H3.3a2.3 2.3 0 0 0-2.3 2.3v13.4a2.3 2.3 0 0 0 2.3 2.3h13.4a2.3 2.3 0 0 0 2.3-2.3v-13.4a2.3 2.3 0 0 0-2.3-2.3zm1.24 15.7a1.241 1.241 0 0 1-1.24 1.24H3.3a1.241 1.241 0 0 1-1.24-1.24v-1.934l3.49-2.966a.343.343 0 0 1 .442 0l2.186 1.815a.53.53 0 0 0 .714-.033l5.193-5.2a.343.343 0 0 1 .509.026l3.346 4.12v4.172zm0-5.861-2.524-3.107a1.4 1.4 0 0 0-2.082-.107l-4.852 4.86-1.813-1.506a1.4 1.4 0 0 0-1.806.011l-2.8 2.384V3.271A1.241 1.241 0 0 1 3.3 2.031h13.4a1.241 1.241 0 0 1 1.24 1.24z"/>
            </g>
        </g>
        <g data-name="그룹 2727">
            <g data-name="그룹 2726">
                <path data-name="패스 4348" d="M6.666 3.186a2.556 2.556 0 1 0 2.556 2.556 2.559 2.559 0 0 0-2.556-2.556zm0 4.052a1.5 1.5 0 1 1 1.5-1.5 1.5 1.5 0 0 1-1.5 1.5z"/>
            </g>
        </g>
    </g>
</svg>
