<svg xmlns="http://www.w3.org/2000/svg" width="24" height="24" viewBox="0 0 24 24">
    <defs>
        <style>
            .cls-2{fill:#5488d6;stroke:#5488d6;stroke-width:.4px}
        </style>
    </defs>
    <g id="ico_qa_24px" transform="translate(-37 -380)">
        <path id="사각형_28" fill="none" d="M0 0H24V24H0z" transform="translate(37 380)"/>
        <g id="그룹_30" transform="translate(31 343)">
            <path id="패스_2957" d="M27.288 40h-15.5a1.155 1.155 0 0 0-1.154 1.154v3.132h-1.48A1.155 1.155 0 0 0 8 45.44v8.9a1.155 1.155 0 0 0 1.154 1.16h.824v2.3a.33.33 0 0 0 .563.233l2.541-2.533h9.59a1.155 1.155 0 0 0 1.154-1.154v-.688L25.9 55.73a.33.33 0 0 0 .563-.233v-2.309h.824a1.155 1.155 0 0 0 1.154-1.154v-10.88A1.155 1.155 0 0 0 27.288 40zm-4.121 14.342a.5.5 0 0 1-.495.495h-9.726a.33.33 0 0 0-.233.1l-2.075 2.075v-1.845a.33.33 0 0 0-.33-.33H9.154a.5.5 0 0 1-.495-.495v-8.9a.5.5 0 0 1 .495-.495h1.484v7.089a1.155 1.155 0 0 0 1.154 1.154h11.375zm4.616-2.308a.5.5 0 0 1-.495.495h-1.154a.33.33 0 0 0-.33.33V54.7l-2.074-2.075a.33.33 0 0 0-.233-.1h-11.7a.5.5 0 0 1-.495-.495V41.154a.5.5 0 0 1 .495-.495h15.5a.5.5 0 0 1 .495.495z" class="cls-2"/>
            <path id="패스_2958" d="M355.317 148.206l-.989-3.957a.33.33 0 0 0-.32-.25h-.659a.33.33 0 0 0-.32.25l-.989 3.957a.33.33 0 0 0 .64.16l.35-1.4h1.3l.35 1.4a.33.33 0 0 0 .319.25.335.335 0 0 0 .08-.01.329.329 0 0 0 .24-.4zm-2.123-1.9l.412-1.649h.144l.412 1.649z" class="cls-2" transform="translate(-329.853 -99.714)"/>
            <path id="패스_2959" d="M244.215 148.093l-.849-1.132.53-.8a.33.33 0 1 0-.549-.366l-.357.535a3.014 3.014 0 0 0-.593-.7.989.989 0 1 0-1.576-.089 1.648 1.648 0 0 0 .822 3.077c.6 0 1.086-.592 1.364-1.039l.68.907a.33.33 0 1 0 .528-.4zm-2.572-3.429a.33.33 0 1 1-.33.33.33.33 0 0 1 .33-.33zm0 3.3a.989.989 0 0 1 0-1.978c.316 0 .726.549.953.989-.227.437-.637.986-.953.986z" class="cls-2" transform="translate(-222.433 -99.718)"/>
            <path id="패스_2960" d="M155.494 148.388l-.346-.36a1.144 1.144 0 0 0 .149-.565v-2.308a1.155 1.155 0 0 0-1.154-1.155h-.989a1.155 1.155 0 0 0-1.154 1.154v2.308a1.155 1.155 0 0 0 1.154 1.154h.989a1.146 1.146 0 0 0 .531-.13l.343.359a.33.33 0 0 0 .476-.457zm-.856-.926v.031l-.09-.094a.33.33 0 1 0-.476.457l.1.1h-1.012a.5.5 0 0 1-.495-.495v-2.308a.5.5 0 0 1 .495-.495h.989a.5.5 0 0 1 .495.495z" class="cls-2" transform="translate(-138.065 -99.714)"/>
        </g>
    </g>
</svg>
