<svg xmlns="http://www.w3.org/2000/svg" width="24" height="24">
    <g data-name="Chevron Right Circle">
        <path data-name="패스 4352" d="M338 326a12 12 0 1 1-12 12 12 12 0 0 1 12-12zm0 22.5a10.511 10.511 0 1 0-10.5-10.5 10.511 10.511 0 0 0 10.5 10.5z" transform="translate(-326 -326)" style="fill:#c2c4ce"/>
        <path data-name="패스 4353" d="M353.529 340.926a.7.7 0 0 1 1.029 0 .818.818 0 0 1 0 1.1l-4.511 4.85 4.512 4.85a.819.819 0 0 1 0 1.1.7.7 0 0 1-1.03 0l-5.024-5.4a.836.836 0 0 1 0-1.1z" transform="translate(-339.949 -334.89)" style="fill:#343639"/>
    </g>
</svg>
