<svg xmlns="http://www.w3.org/2000/svg" width="24" height="24">
    <defs>
        <clipPath id="a">
            <path transform="translate(.132)" style="fill:none" d="M0 0h24v24H0z"/>
        </clipPath>
    </defs>
    <g style="clip-path:url(#a)">
        <path d="M12.123 4.3a6.985 6.985 0 0 1 6.07 6.07 1 1 0 0 0 .99.88.487.487 0 0 0 .12-.01 1 1 0 0 0 .87-1.12 8.981 8.981 0 0 0-7.81-7.81 1 1 0 0 0-1.11.88.987.987 0 0 0 .87 1.11zm.38 2.11a1 1 0 1 0-.5 1.94 3 3 0 0 1 2.15 2.15 1 1 0 0 0 .97.75 1.068 1.068 0 0 0 .25-.03 1.016 1.016 0 0 0 .72-1.22A5.018 5.018 0 0 0 12.5 6.408zm5.97 8.1-2.54-.29a1.991 1.991 0 0 0-1.64.57l-1.84 1.84a15.045 15.045 0 0 1-6.59-6.59l1.85-1.85a1.991 1.991 0 0 0 .57-1.64l-.29-2.52A2 2 0 0 0 6 2.257H4.273a1.985 1.985 0 0 0-2 2.07 16.992 16.992 0 0 0 15.89 15.89 1.985 1.985 0 0 0 2.07-2v-1.73a1.982 1.982 0 0 0-1.76-1.979z" transform="translate(.757 .752)" style="fill:#b0c6ff"/>
    </g>
</svg>
