<svg xmlns="http://www.w3.org/2000/svg" width="8" height="8" viewBox="0 0 8 8">
    <path data-name="사각형 2719" style="fill:none" d="M0 0h8v8H0z"/>
    <path data-name="패스 4360" d="M304.241-2.474a.773.773 0 0 1-.08-.06l-3.156-3.144a.306.306 0 0 1-.1-.335.287.287 0 0 1 .448-.133.776.776 0 0 1 .07.064L304.8-2.72a.306.306 0 0 1 0 .507q-1.7 1.684-3.383 3.368a.306.306 0 0 1-.32.1.287.287 0 0 1-.156-.441.71.71 0 0 1 .083-.092l3.134-3.122.083-.074z" transform="translate(-298.909 6.467)" style="fill:#26282b;stroke:#26282b;stroke-width:.3px"/>
</svg>
