<svg width="6" height="8" viewBox="0 0 6 8" fill="none" xmlns="http://www.w3.org/2000/svg">
<path d="M4.32557 4.00009C4.29764 3.98184 4.27093 3.9618 4.24558 3.94009L1.08958 0.796091C1.04069 0.757148 1.00489 0.704168 0.987008 0.644278C0.96913 0.584388 0.970032 0.52046 0.989571 0.461091C1.00443 0.417854 1.02941 0.378791 1.06242 0.347155C1.09542 0.315519 1.1355 0.292225 1.17933 0.279214C1.22316 0.266203 1.26945 0.26385 1.31437 0.272351C1.35929 0.280853 1.40153 0.299964 1.43757 0.328091C1.46219 0.347977 1.48557 0.369351 1.50758 0.392092L4.88456 3.75409C4.92601 3.78212 4.95997 3.81988 4.98344 3.86408C5.0069 3.90828 5.01917 3.95755 5.01917 4.00759C5.01917 4.05763 5.0069 4.10691 4.98344 4.1511C4.95997 4.1953 4.92601 4.23306 4.88456 4.26109C3.75123 5.38376 2.62356 6.50642 1.50156 7.62909C1.46374 7.67509 1.41332 7.70905 1.35648 7.72682C1.29964 7.74458 1.23884 7.74537 1.18156 7.72909C1.13753 7.71652 1.09718 7.6936 1.06382 7.66224C1.03046 7.63088 1.00508 7.592 0.989814 7.54883C0.974545 7.50567 0.969829 7.45948 0.976051 7.41412C0.982272 7.36876 0.999254 7.32555 1.02558 7.28809C1.05051 7.25506 1.07826 7.22428 1.10856 7.19609L4.24256 4.07409L4.32557 4.00009Z" fill="white" stroke="white" stroke-width="0.3"/>
</svg>
