<svg id="ico_mobile_certification" data-name="ico_mobile certification" xmlns="http://www.w3.org/2000/svg" width="84" height="94" viewBox="0 0 84 94">
    <defs>
        <style>
            .cls-1{fill:none}.cls-2,.cls-3{fill:#fff}.cls-3{stroke:#fff}
        </style>
    </defs>
    <path id="사각형_2737" data-name="사각형 2737" class="cls-1" d="M0 0h84v94H0z"/>
    <g id="그룹_2860" data-name="그룹 2860" transform="translate(-1219 -485.778)">
        <path id="패스_4363" data-name="패스 4363" class="cls-2" d="M750.26 129.9h27.681a7.157 7.157 0 0 1 7.507 7.521v49.109a7.154 7.154 0 0 1-7.34 7.326h-55.665a7.1 7.1 0 0 1-7.312-7.1c-.067-6.758-.026-13.517-.028-20.275q0-14.478-.007-28.955a7.276 7.276 0 0 1 2.987-6.25 6.786 6.786 0 0 1 3.892-1.357c.667-.021 1.335-.018 2-.018h26.285zm.012 3.1h-9.531q-9.137 0-18.273.007a4.15 4.15 0 0 0-2.7.92 4.44 4.44 0 0 0-1.567 3.711q.016 24.223.007 48.446c0 .182 0 .364.008.546a4.1 4.1 0 0 0 4.224 4.1c3.7.01 7.406-.01 11.109.017.627 0 .785-.2.781-.8q-.031-4.887.009-9.774a11.883 11.883 0 0 1 1.676-5.886 13 13 0 0 1 7.027-5.761 1.812 1.812 0 0 1 2.146.438c1.5 1.53 3.042 3.021 4.534 4.56.417.43.669.478 1.106.019 1.256-1.317 2.561-2.587 3.847-3.875 1.643-1.645 1.643-1.645 3.78-.75a12.586 12.586 0 0 1 7.779 11.656c0 3.157.01 6.314-.01 9.47 0 .527.155.7.69.7 3.764-.019 7.528 0 11.292-.015a4.083 4.083 0 0 0 4.136-4.173q.007-24.678-.009-49.357a4.493 4.493 0 0 0-.28-1.538c-.653-1.761-2.165-2.661-4.34-2.661zm-.006 57.726h5.583c.874 0 .875 0 .875-.861 0-3.358-.009-6.716.014-10.074a2.562 2.562 0 0 1 .294-1.206A1.509 1.509 0 0 1 758.8 178a1.588 1.588 0 0 1 1.047 1.551c0 3.5.014 7-.008 10.5 0 .541.167.717.695.685a15.739 15.739 0 0 1 1.88 0c.561.034.728-.177.724-.733-.023-3.1.025-6.191-.02-9.286a9.431 9.431 0 0 0-5.536-8.784.657.657 0 0 0-.9.148c-1.69 1.714-3.4 3.409-5.1 5.112a1.627 1.627 0 0 1-2.583.017c-1.7-1.7-3.414-3.394-5.1-5.111a.691.691 0 0 0-.95-.151 9.221 9.221 0 0 0-5.465 8.081c-.177 3.39-.051 6.8-.066 10.194 0 .366.154.513.509.505.4-.009.809 0 1.214 0 1.573 0 1.571 0 1.571-1.549v-9.589a1.566 1.566 0 1 1 3.118.108c.006 3.419.017 6.838-.009 10.257 0 .619.189.8.8.787 1.879-.034 3.764-.012 5.646-.012z" transform="translate(510.72 358.101)"/>
        <path id="패스_4364" data-name="패스 4364" class="cls-2" d="M740.355 406.738c9.977 0 19.954.014 29.931-.009a8.046 8.046 0 0 1 6.843 3.248 7.383 7.383 0 0 1 1.536 4.458c.026 2.327.039 4.655 0 6.982a7.881 7.881 0 0 1-7.759 7.631q-30.6.011-61.2 0a7.9 7.9 0 0 1-7.776-7.681q-.045-3.46 0-6.921a7.845 7.845 0 0 1 7.645-7.676c7.427-.053 14.854-.022 22.282-.025h8.5zm-.015 3.121c-10.016 0-20.033.048-30.049-.029a5.074 5.074 0 0 0-5.262 5.3c.1 1.9.016 3.8.02 5.705a4.848 4.848 0 0 0 5.1 5.11h60.403a4.829 4.829 0 0 0 4.994-4.967 473.35 473.35 0 0 0-.007-6.192 5.1 5.1 0 0 0-.168-1.377 4.81 4.81 0 0 0-4.739-3.545q-15.146-.008-30.292-.005z" transform="translate(520.703 148.502)"/>
        <path id="패스_4365" data-name="패스 4365" class="cls-3" d="M946.911 440.792c-.058 1.052-.44 1.867-1.65 1.88-.862.01-1.221-.431-1.617-1.9-.988.433-1.945.534-2.526-.605-.383-.749-.122-1.336.913-2.259-.94-.608-1.43-1.412-.752-2.465.594-.922 1.464-.733 2.4-.344.093-1.142.506-1.986 1.781-1.919.825.044 1.186.527 1.484 1.9.953-.395 1.919-.57 2.5.533.534 1.006-.027 1.718-.841 2.272 1.115 1.208 1.266 1.7.789 2.471-.434.71-.987.813-2.481.436z" transform="translate(339.713 128.478)"/>
        <path id="패스_4366" data-name="패스 4366" class="cls-3" d="M877.754 440.772c-1.288.461-2.028.328-2.477-.391-.467-.747-.285-1.335.791-2.473-.875-.61-1.43-1.4-.754-2.429.595-.909 1.478-.838 2.428-.321.083-1.188.51-2.018 1.78-1.963.843.037 1.267.6 1.49 1.9.957-.407 1.934-.572 2.5.536.5.975.046 1.742-.939 2.295.972.6 1.42 1.336.938 2.339-.387.805-.927.9-2.479.56-.387 1.428-.775 1.888-1.655 1.859-1.177-.037-1.555-.836-1.623-1.912z" transform="translate(389.637 128.466)"/>
        <path id="패스_4367" data-name="패스 4367" class="cls-3" d="M811.828 435.061c.293-1.391.715-1.885 1.6-1.917s1.248.358 1.736 1.916c.94-.436 1.876-.548 2.453.516.542 1 0 1.721-.894 2.319.945.643 1.456 1.408.825 2.469-.422.709-1.043.8-2.443.4-.085 1.1-.507 1.934-1.782 1.876-.831-.038-1.229-.564-1.494-1.9-.989.431-1.938.538-2.532-.6-.368-.7-.1-1.34.9-2.273-.9-.57-1.4-1.348-.813-2.367s1.532-.844 2.444-.439z" transform="translate(439.514 128.505)"/>
        <path id="패스_4368" data-name="패스 4368" class="cls-3" d="M749.193 440.751c-.346 1.455-.765 1.924-1.672 1.934-.843.009-1.269-.471-1.641-1.9-.981.419-1.939.538-2.516-.608-.382-.759-.149-1.3.885-2.251-.865-.639-1.449-1.427-.738-2.483.6-.889 1.468-.753 2.392-.334.124-1.127.519-1.992 1.8-1.918.823.048 1.178.528 1.473 1.91.979-.427 1.941-.568 2.543.562.4.743.151 1.312-.912 2.309.872.526 1.377 1.286.883 2.257-.557 1.094-1.534.986-2.497.522z" transform="translate(489.444 128.472)"/>
        <g id="사각형_2728" data-name="사각형 2728" transform="translate(1252.036 499.316)" style="stroke-miterlimit:10;stroke-width:3px;stroke:#fff;fill:none">
            <rect width="18.484" height="25.272" rx="9.242" style="stroke:none"/>
            <rect class="cls-1" x="1.5" y="1.5" width="15.484" height="22.272" rx="7.742"/>
        </g>
    </g>
</svg>
