<svg width="24" height="24" viewBox="0 0 24 24" fill="none" xmlns="http://www.w3.org/2000/svg">
<path d="M9 16.326L9 7.664C9.00374 7.52884 9.04688 7.39771 9.12412 7.28673C9.20135 7.17576 9.30932 7.08976 9.43477 7.0393C9.56021 6.98885 9.69766 6.97614 9.83023 7.00273C9.9628 7.02932 10.0847 7.09406 10.181 7.189L14.638 11.518C14.7022 11.5797 14.7532 11.6537 14.7881 11.7356C14.8229 11.8174 14.8409 11.9055 14.8409 11.9945C14.8409 12.0835 14.8229 12.1716 14.7881 12.2534C14.7532 12.3353 14.7022 12.4093 14.638 12.471L10.181 16.8C10.0848 16.8949 9.96296 16.9596 9.83047 16.9862C9.69799 17.0129 9.56062 17.0002 9.43521 16.9499C9.3098 16.8996 9.20182 16.8137 9.12451 16.7029C9.0472 16.5921 9.00392 16.4611 9 16.326V16.326Z" fill="#1054B2"/>
</svg>
