<svg width="24" height="24" viewBox="0 0 24 24" fill="none" xmlns="http://www.w3.org/2000/svg">
<path d="M15 7.674L15 16.336C14.9963 16.4712 14.9531 16.6023 14.8759 16.7133C14.7986 16.8242 14.6907 16.9102 14.5652 16.9607C14.4398 17.0111 14.3023 17.0239 14.1698 16.9973C14.0372 16.9707 13.9153 16.9059 13.819 16.811L9.362 12.482C9.29785 12.4203 9.24681 12.3463 9.21194 12.2644C9.17708 12.1826 9.15912 12.0945 9.15912 12.0055C9.15912 11.9165 9.17708 11.8284 9.21194 11.7466C9.24681 11.6647 9.29785 11.5907 9.362 11.529L13.819 7.2C13.9152 7.10511 14.037 7.04039 14.1695 7.01376C14.302 6.98712 14.4394 6.99975 14.5648 7.05008C14.6902 7.10042 14.7982 7.18627 14.8755 7.2971C14.9528 7.40793 14.9961 7.53892 15 7.674V7.674Z" fill="#1054B2"/>
</svg>
