<svg id="logo_maumdata" xmlns="http://www.w3.org/2000/svg" width="505" height="74" viewBox="0 0 505 74">
    <defs>
        <style>
            .cls-2{fill:#fff}
        </style>
    </defs>
    <path id="사각형_2694" data-name="사각형 2694" style="fill:none" d="M0 0h505v74H0z"/>
    <g id="logo_maumdata_136x20px" data-name="logo maumdata 136x20px">
        <g id="그룹_2618" data-name="그룹 2618" transform="translate(0 26.77)">
            <path id="패스_4054" data-name="패스 4054" class="cls-2" d="M44.928 7.36a17.74 17.74 0 0 0-13.479 6.275 17.616 17.616 0 0 0-12.343-6.242c-.394 0-.772-.033-1.151-.033A18.132 18.132 0 0 0 1.988 17.3 17.2 17.2 0 0 0 0 25.514V53.82h9.017v-29.1a7.219 7.219 0 0 1 2.87-5.867 9.138 9.138 0 0 1 15.054 7.122V53.82h9.016v-29.1a7.219 7.219 0 0 1 2.87-5.867 9.138 9.138 0 0 1 15.054 7.122V53.82h9.034V25.548a16.913 16.913 0 0 0-1.389-6.959A18.145 18.145 0 0 0 44.928 7.36z" transform="translate(-.001 -7.36)"/>
            <path id="패스_4055" data-name="패스 4055" class="cls-2" d="M57.372 14.291A22.368 22.368 0 0 0 50.231 9.3a21.89 21.89 0 0 0-17.5 0 22.368 22.368 0 0 0-7.141 4.987 22.946 22.946 0 0 0-4.809 7.382 24.053 24.053 0 0 0 0 18.091 23.447 23.447 0 0 0 4.809 7.382 22.368 22.368 0 0 0 7.141 4.987 21.762 21.762 0 0 0 8.748 1.827 22 22 0 0 0 11.255-3.112v-7.709a.253.253 0 0 0-.03-.115 2.468 2.468 0 0 0-3.353-.973 2.241 2.241 0 0 0-.319.208 7.889 7.889 0 0 1-2.191 1.3c-11.979 4.857-23.252-7.627-17.01-20.052a11.31 11.31 0 0 1 4.712-4.857 13.6 13.6 0 0 1 20.4 12.076v22.77h9.016V30.715a23.914 23.914 0 0 0-1.759-9.046 23.368 23.368 0 0 0-4.828-7.378z" transform="translate(51.602 -7.035)"/>
            <path id="패스_4056" data-name="패스 4056" class="cls-2" d="M73.741 7.483h-9.035v26.81a9.721 9.721 0 0 1-4.352 8.169A11.374 11.374 0 0 1 42.3 33.026V7.483h-9.008v25.555a21.5 21.5 0 0 0 1.593 8.147 20.893 20.893 0 0 0 4.333 6.65 20.21 20.21 0 0 0 6.439 4.482 19.622 19.622 0 0 0 15.733 0 20.138 20.138 0 0 0 6.431-4.482 20.892 20.892 0 0 0 4.333-6.65 21.358 21.358 0 0 0 1.593-8.147V7.483z" transform="translate(90.327 -7.026)"/>
            <path id="패스_4057" data-name="패스 4057" class="cls-2" d="M91.177 7.36a17.691 17.691 0 0 0-13.464 6.275A17.616 17.616 0 0 0 65.37 7.393c-.394 0-.772-.033-1.151-.033a18.134 18.134 0 0 0-15.967 9.959 17.35 17.35 0 0 0-1.987 8.2V53.82h9.016v-29.1a7.273 7.273 0 0 1 2.87-5.882 9.141 9.141 0 0 1 15.054 7.122v27.845h9.016V24.7a7.219 7.219 0 0 1 2.87-5.867 9.13 9.13 0 0 1 15.039 7.122v27.85h9.016V25.533a16.83 16.83 0 0 0-1.355-6.877A18.135 18.135 0 0 0 91.177 7.36z" transform="translate(125.526 -7.36)"/>
        </g>
        <g id="그룹_2619" data-name="그룹 2619" transform="translate(258.592)">
            <path id="패스_4058" data-name="패스 4058" class="cls-2" d="M110.6 1.6a23.248 23.248 0 0 1 11.916 9.349 33.772 33.772 0 0 1 4.983 11.9 60.2 60.2 0 0 1 1.329 12.2 51.12 51.12 0 0 1-5.6 24.9 25.041 25.041 0 0 1-23.449 13.75H69.641V0h30.141A35.069 35.069 0 0 1 110.6 1.6zM83.822 12.8v48.1h13.49a14.629 14.629 0 0 0 14.437-10.75 39.689 39.689 0 0 0 2.228-14.052 36.137 36.137 0 0 0-3.342-17.276q-3.342-6.02-13.323-6.022z" transform="translate(-69.641)"/>
            <path id="패스_4059" data-name="패스 4059" class="cls-2" d="M112.137 0h16.528L153.4 73.7h-15.842l-4.616-15.15H107.2l-4.74 15.15H87.18zm-.962 45.851h17.9l-8.834-29z" transform="translate(-22.053 .002)"/>
            <path id="패스_4060" data-name="패스 4060" class="cls-2" d="M160.53 0v13.049h-20.917V73.7H124.9V13.049h-21.01V0z" transform="translate(23.299 .002)"/>
            <path id="패스_4061" data-name="패스 4061" class="cls-2" d="M143.129 0h16.528l24.734 73.7h-15.848l-4.616-15.15h-25.744l-4.738 15.15h-15.28zm-.962 45.851h17.9l-8.834-29z" transform="translate(62.017 .002)"/>
        </g>
    </g>
</svg>
