<svg xmlns="http://www.w3.org/2000/svg" width="88" height="20" viewBox="0 0 88 20">
    <defs>
        <style>
            .cls-2{fill:#fff}
        </style>
    </defs>
    <g id="그룹_2612" transform="translate(-363 -32)">
        <path id="사각형_2252" fill="none" d="M0 0H88V20H0z" transform="translate(363 32)"/>
        <g id="그룹_2611" transform="translate(-4704.113 -2263.815)">
            <path id="패스_4027" d="M5067.113 2298.575h8.8v12.2h-8.8zm2.6 10.123h3.6v-8.042h-3.6zm13.943-2.741h-2.68v9.3h-2.641v-18.4h2.641v6.921h2.68z" class="cls-2"/>
            <path id="패스_4028" d="M5101.4 2305.417v2.08h-16.643v-2.08zm-1.64-4.641c0 2.24-2.621 3.58-6.681 3.58s-6.662-1.34-6.662-3.58c0-2.221 2.6-3.581 6.662-3.581s6.677 1.36 6.677 3.581zm-.34 8.021v6.242h-12.723v-6.239zm-10.282-8.021c0 1.04 1.44 1.56 3.941 1.56 2.52 0 3.96-.52 3.96-1.56s-1.44-1.561-3.96-1.561c-2.505 0-3.945.521-3.945 1.561zm.14 10.082v2.121h7.541v-2.121z" class="cls-2"/>
            <path id="패스_4029" d="M5106.093 2309a27.7 27.7 0 0 0 5.021-.48l.22 2.16a32.507 32.507 0 0 1-6.581.48h-1.26v-12.242h7.021v2.1h-4.421zm6.362-11.823h2.46v17.264h-2.46v-8.741h-3.2v-2.14h3.2zm6.321-.36v18.424h-2.5v-18.424z" class="cls-2"/>
            <path id="패스_4030" d="M5131.355 2304.677c0 4.06-2.061 6.6-4.841 6.6s-4.841-2.541-4.841-6.6c0-4.041 2.06-6.562 4.841-6.562s4.841 2.521 4.841 6.562zm-7.142 0c0 2.74.94 4.2 2.3 4.2s2.3-1.46 2.3-4.2c0-2.721-.94-4.181-2.3-4.181s-2.3 1.46-2.3 4.181zm12.2-7.862v18.485h-2.641v-18.484z" class="cls-2"/>
            <path id="패스_4031" d="M5142.813 2309a43.382 43.382 0 0 0 6.762-.48l.239 2.12a49.543 49.543 0 0 1-8.121.48h-1.5v-12.743h8.522v2.121h-5.9v3h5.281v2.06h-5.281zm12-12.183v18.483h-2.64v-9.862h-3.16v-2.121h3.16v-6.5z" class="cls-2"/>
        </g>
    </g>
</svg>
