<svg xmlns="http://www.w3.org/2000/svg" width="136" height="20" viewBox="0 0 136 20">
    <defs>
        <style>
            .cls-1{fill:#002b49}.cls-2{fill:#1054b2}
        </style>
    </defs>
    <g id="logo_maumdata_136x20px" transform="translate(-138 -47)">
        <g id="그룹_2618" transform="translate(138 54.36)">
            <path id="패스_4054" d="M65 76.28a4.779 4.779 0 0 0-3.63 1.69 4.743 4.743 0 0 0-3.324-1.681c-.106 0-.208-.009-.31-.009a4.883 4.883 0 0 0-4.3 2.677 4.631 4.631 0 0 0-.535 2.212v7.623h2.428v-7.838a1.946 1.946 0 0 1 .773-1.58 2.461 2.461 0 0 1 4.054 1.918v7.5h2.428v-7.838a1.946 1.946 0 0 1 .773-1.58 2.461 2.461 0 0 1 4.054 1.918v7.5h2.433v-7.614a4.556 4.556 0 0 0-.374-1.874A4.887 4.887 0 0 0 65 76.28z" class="cls-1" transform="translate(-52.9 -76.28)"/>
            <path id="패스_4055" d="M108.819 78.395a6.03 6.03 0 0 0-1.923-1.343 5.893 5.893 0 0 0-4.712 0 6.03 6.03 0 0 0-1.923 1.343 6.172 6.172 0 0 0-1.295 1.988 6.477 6.477 0 0 0 0 4.872 6.316 6.316 0 0 0 1.295 1.988 6.03 6.03 0 0 0 1.923 1.343 5.867 5.867 0 0 0 2.356.492 5.93 5.93 0 0 0 3.031-.838v-2.077a.065.065 0 0 0-.008-.031.665.665 0 0 0-.989-.206 2.139 2.139 0 0 1-.59.351c-3.226 1.308-6.262-2.054-4.581-5.4a3.044 3.044 0 0 1 1.269-1.308 3.663 3.663 0 0 1 5.493 3.252v6.131h2.428v-6.134a6.441 6.441 0 0 0-.475-2.436 6.3 6.3 0 0 0-1.299-1.987z" class="cls-1" transform="translate(-79.471 -76.441)"/>
            <path id="패스_4056" d="M143.563 76.57h-2.433v7.22a2.616 2.616 0 0 1-1.172 2.2 3.063 3.063 0 0 1-4.861-2.541V76.57h-2.427v6.882a5.782 5.782 0 0 0 .429 2.194 5.643 5.643 0 0 0 1.167 1.791A5.438 5.438 0 0 0 136 88.644a5.284 5.284 0 0 0 4.237 0 5.439 5.439 0 0 0 1.732-1.207 5.644 5.644 0 0 0 1.167-1.791 5.75 5.75 0 0 0 .429-2.194V76.57z" class="cls-1" transform="translate(-99.378 -76.447)"/>
            <path id="패스_4057" d="M176.095 76.28a4.764 4.764 0 0 0-3.626 1.69 4.743 4.743 0 0 0-3.324-1.681c-.106 0-.208-.009-.31-.009a4.883 4.883 0 0 0-4.3 2.682 4.671 4.671 0 0 0-.535 2.207v7.623h2.428v-7.838a1.961 1.961 0 0 1 .773-1.584 2.462 2.462 0 0 1 4.054 1.918v7.5h2.428V80.95a1.946 1.946 0 0 1 .773-1.58 2.459 2.459 0 0 1 4.05 1.918v7.5h2.428v-7.614a4.531 4.531 0 0 0-.365-1.852 4.884 4.884 0 0 0-4.474-3.042z" class="cls-1" transform="translate(-117.735 -76.28)"/>
        </g>
        <g id="그룹_2619" transform="translate(207.641 47)">
            <path id="패스_4058" d="M130.353 151.165a6.266 6.266 0 0 1 3.209 2.537 9.192 9.192 0 0 1 1.342 3.229 16.419 16.419 0 0 1 .358 3.311 13.96 13.96 0 0 1-1.508 6.758 6.736 6.736 0 0 1-6.315 3.731h-8.117v-20h8.117a9.37 9.37 0 0 1 2.914.434zm-7.212 3.04v13.053h3.633a3.943 3.943 0 0 0 3.888-2.917 10.849 10.849 0 0 0 .6-3.813 9.87 9.87 0 0 0-.9-4.688q-.9-1.634-3.588-1.634z" class="cls-2" transform="translate(-119.322 -150.731)"/>
            <path id="패스_4059" d="M153.191 150.731h4.451l6.661 20h-4.266l-1.243-4.111h-6.932l-1.277 4.111h-4.115zm-.259 12.442h4.821l-2.379-7.87z" class="cls-2" transform="translate(-128.931 -150.731)"/>
            <path id="패스_4060" d="M187.594 150.731v3.541h-5.633v16.459H178v-16.459h-5.658v-3.541z" class="cls-2" transform="translate(-138.088 -150.731)"/>
            <path id="패스_4061" d="M201.156 150.731h4.451l6.661 20H208l-1.243-4.111h-6.933l-1.276 4.111h-4.115zm-.259 12.442h4.821l-2.379-7.87z" class="cls-2" transform="translate(-145.909 -150.731)"/>
        </g>
    </g>
</svg>
